<svg id="Capa_1" enable-background="new 0 0 511.998 511.998" height="512" viewBox="0 0 511.998 511.998" width="512" xmlns="http://www.w3.org/2000/svg"><g><path d="m484.588 126.058h-23.378v-23.47c0-4.142-3.358-7.5-7.5-7.5h-3.257v-23.463c0-4.142-3.358-7.5-7.5-7.5h-30.967c-4.142 0-7.5 3.358-7.5 7.5v23.463h-3.256c-4.142 0-7.5 3.358-7.5 7.5v185.8c0 4.053 3.218 7.347 7.237 7.487v132.928c0 11.804 8.082 21.755 19.003 24.613v16.259c0 4.142 3.358 7.5 7.5 7.5s7.5-3.358 7.5-7.5v-16.259c10.921-2.858 19.003-12.809 19.003-24.613v-132.928c4.019-.14 7.237-3.433 7.237-7.487v-25.62c0-4.142-3.358-7.5-7.5-7.5s-7.5 3.358-7.5 7.5v18.12h-37.48v-108.864h37.48v58.054c0 4.142 3.358 7.5 7.5 7.5s7.5-3.358 7.5-7.5v-58.054h15.878v38.95c0 4.142 3.358 7.5 7.5 7.5s7.5-3.358 7.5-7.5v-77.417c0-4.141-3.358-7.499-7.5-7.499zm-65.101-46.933h15.967v15.963h-15.967zm-3.52 310.149v-93.383h23.006v93.383zm12.565 49.969h-2.125c-5.757 0-10.44-4.684-10.44-10.44v-24.529h23.006v24.529c0 5.757-4.684 10.44-10.441 10.44zm-19.802-329.155h37.48v15.97h-37.48zm.003 30.97h68.355v15.967h-68.355z"/><g><path d="m369.09 31.058h-147.807v-8.027c0-12.7-10.332-23.031-23.031-23.031s-23.031 10.332-23.031 23.031v8.027h-147.811c-4.142 0-7.5 3.358-7.5 7.5v465.94c0 4.142 3.358 7.5 7.5 7.5h66.79c4.142 0 7.5-3.358 7.5-7.5s-3.358-7.5-7.5-7.5h-59.29v-450.94h68.137v16.07h-44.577c-4.142 0-7.5 3.358-7.5 7.5v403.81c0 4.142 3.358 7.5 7.5 7.5h279.56c4.142 0 7.5-3.358 7.5-7.5v-323.54c0-4.142-3.358-7.5-7.5-7.5s-7.5 3.358-7.5 7.5v316.04h-264.56v-388.81h37.077v2.077c0 4.142 3.358 7.5 7.5 7.5h175.41c4.142 0 7.5-3.358 7.5-7.5v-2.077h37.073v40.09c0 4.142 3.358 7.5 7.5 7.5s7.5-3.358 7.5-7.5v-47.59c0-4.142-3.358-7.5-7.5-7.5h-44.573v-16.07h68.133v450.94h-234.7c-4.142 0-7.5 3.358-7.5 7.5s3.358 7.5 7.5 7.5h242.2c4.142 0 7.5-3.358 7.5-7.5v-465.94c0-4.142-3.358-7.5-7.5-7.5zm-178.869-8.027c0-4.428 3.603-8.031 8.031-8.031s8.031 3.603 8.031 8.031v8.027h-16.063v-8.027zm88.236 48.674h-160.41v-25.642h160.41z"/><g><g><path d="m168.487 204.758c-3.84-2.868-5.782-7.502-4.972-12.226l3.142-18.322-13.312-12.976c-3.432-3.345-4.644-8.255-3.163-12.813 1.481-4.559 5.348-7.818 10.091-8.507l18.396-2.673 8.228-16.67c2.121-4.298 6.416-6.968 11.209-6.968s9.088 2.67 11.209 6.968l8.227 16.669 18.396 2.673c4.743.688 8.609 3.948 10.09 8.506 1.481 4.559.27 9.469-3.163 12.814l-13.312 12.976 3.143 18.322c.81 4.725-1.096 9.409-4.973 12.226-3.878 2.817-8.923 3.181-13.164.952l-16.455-8.651-16.454 8.651c-4.16 1.956-9.16 2.039-13.163-.951zm35.435-21.587 13.134 6.905-2.508-14.625c-.696-4.056.648-8.192 3.595-11.064l10.625-10.357-14.684-2.134c-4.072-.592-7.59-3.148-9.412-6.838l-6.567-13.306-6.567 13.306c-1.819 3.688-5.338 6.246-9.411 6.838l-14.685 2.134 10.625 10.357c2.947 2.873 4.291 7.009 3.595 11.065l-2.508 14.624 13.134-6.905c4.119-2.173 8.119-1.923 11.634 0z"/></g><g><path d="m285.957 248.436h-175.41c-4.142 0-7.5-3.358-7.5-7.5s3.358-7.5 7.5-7.5h175.41c4.142 0 7.5 3.358 7.5 7.5s-3.358 7.5-7.5 7.5z"/></g><g><path d="m285.957 279.498h-175.41c-4.142 0-7.5-3.358-7.5-7.5s3.358-7.5 7.5-7.5h175.41c4.142 0 7.5 3.358 7.5 7.5s-3.358 7.5-7.5 7.5z"/></g><g><path d="m285.957 310.56h-175.41c-4.142 0-7.5-3.358-7.5-7.5s3.358-7.5 7.5-7.5h175.41c4.142 0 7.5 3.358 7.5 7.5s-3.358 7.5-7.5 7.5z"/></g><g><path d="m285.957 341.623h-175.41c-4.142 0-7.5-3.358-7.5-7.5s3.358-7.5 7.5-7.5h175.41c4.142 0 7.5 3.358 7.5 7.5s-3.358 7.5-7.5 7.5z"/></g><g><path d="m284.333 433.809h-58.47c-4.142 0-7.5-3.358-7.5-7.5s3.358-7.5 7.5-7.5h58.47c4.142 0 7.5 3.358 7.5 7.5s-3.358 7.5-7.5 7.5z"/></g></g></g></g></svg>