<svg id="Capa_1" enable-background="new 0 0 512 512" height="512" viewBox="0 0 512 512" width="512" xmlns="http://www.w3.org/2000/svg"><g id="XMLID_1517_"><g id="XMLID_588_"><g id="XMLID_42_"><path id="XMLID_250_" d="m298 188h48c5.522 0 10-4.477 10-10v-64c0-5.523-4.478-10-10-10h-48c-5.522 0-10 4.477-10 10v64c0 5.523 4.478 10 10 10zm10-64h28v44h-28z"/><path id="XMLID_236_" d="m90 188h48c5.523 0 10-4.477 10-10v-64c0-5.523-4.477-10-10-10h-48c-5.522 0-10 4.477-10 10v64c0 5.523 4.478 10 10 10zm10-64h28v44h-28z"/><path id="XMLID_229_" d="m194 188h48c5.523 0 10-4.477 10-10v-64c0-5.523-4.477-10-10-10h-48c-5.523 0-10 4.477-10 10v64c0 5.523 4.477 10 10 10zm10-64h28v44h-28z"/><path id="XMLID_223_" d="m138 308c5.523 0 10-4.477 10-10v-64c0-5.523-4.477-10-10-10h-48c-5.522 0-10 4.477-10 10v64c0 5.523 4.478 10 10 10zm-38-64h28v44h-28z"/><path id="XMLID_207_" d="m194 308h48c5.523 0 10-4.477 10-10v-64c0-5.523-4.477-10-10-10h-48c-5.523 0-10 4.477-10 10v64c0 5.523 4.477 10 10 10zm10-64h28v44h-28z"/><path id="XMLID_181_" d="m218 68c2.63 0 5.21-1.07 7.069-2.93 1.861-1.86 2.931-4.44 2.931-7.07s-1.07-5.21-2.931-7.07c-1.859-1.86-4.439-2.93-7.069-2.93s-5.21 1.07-7.07 2.93-2.93 4.44-2.93 7.07 1.069 5.21 2.93 7.07c1.86 1.86 4.44 2.93 7.07 2.93z"/><path id="XMLID_63_" d="m479.22 265.418c-4.446-7.283-12.681-10.757-20.981-8.846-8.276 1.904-14.149 8.605-14.964 17.073-.519 5.388-1.473 10.502-2.716 15.294-.015-.154-.03-.309-.046-.464-1.92-18.918-8.835-42.728-28.513-63.271v-157.204h14c5.522 0 10-4.477 10-10v-48c0-5.523-4.478-10-10-10h-416c-5.523 0-10 4.477-10 10v48c0 5.523 4.477 10 10 10h14v434c0 5.523 4.478 10 10 10h345.064c73.301 0 132.936-59.635 132.936-132.936 0-42.025-9.804-76.013-32.78-113.646zm-435.22-197.418h129c5.523 0 10-4.477 10-10s-4.477-10-10-10h-153v-28h396v28h-153c-5.522 0-10 4.477-10 10s4.478 10 10 10h129v140.711c-4.172-2.731-8.666-5.341-13.553-7.787-4.36-2.183-9.522-1.485-13.151 1.773-3.635 3.265-4.88 8.333-3.171 12.915 8.494 22.753 4.632 38.676-12.915 53.24-10.046 8.338-17.395 18.005-22.77 27.636-3.474-10.919-8.82-22.639-16.959-34.213-4.714-6.703-12.884-9.661-20.808-7.542-7.997 2.14-13.643 8.846-14.388 17.085-2.379 26.355-8.857 40.532-15.122 54.242-2.681 5.866-5.301 11.604-7.481 17.94h-113.682c-5.523 0-10 4.477-10 10v138h-84zm104 296h60v128h-60zm80 128v-128h19.027c-.576 4.57-.9 9.545-.9 15.064 0 47.614 25.167 89.454 62.893 112.936zm111.505-39.559c0-24.088 13.759-36.556 27.064-48.614 6.556-5.94 13.242-12 17.603-19.258 22.663 20.876 34.45 48.676 34.45 67.872 0 21.813-17.746 39.559-39.559 39.559s-39.558-17.746-39.558-39.559zm93.116 26.03c3.84-7.869 6.001-16.701 6.001-26.03 0-32.218-22.105-70.47-53.756-93.021-3.049-2.173-7.057-2.46-10.384-.745-3.328 1.715-5.419 5.146-5.419 8.889 0 6.674-6.051 12.496-15.924 21.443-14.194 12.863-33.635 30.479-33.635 63.434 0 9.329 2.161 18.161 6.001 26.03-35.327-19.11-59.379-56.501-59.379-99.407 0-20.122 4.954-30.964 11.227-44.691 6.523-14.275 13.902-30.421 16.709-59.232 17.788 26.17 18.839 53.431 18.341 64.859-.487 3.966-.571 6.47-.582 6.894-.139 5.26 3.823 9.728 9.062 10.219 5.237.482 9.962-3.161 10.805-8.356.067-.418.469-3.026.693-7.298 1.592-11.878 7.56-38.923 29.601-57.217 18.657-15.487 26.602-33.735 23.994-55.394 20.199 14.948 31.802 35.388 34.567 60.978 2.661 24.637-4.118 45.163-4.181 45.347-1.521 4.456.272 9.37 4.307 11.799 4.033 2.427 9.217 1.713 12.441-1.716 1.048-1.114 25.382-27.408 29.896-68.001 20.579 34.126 28.994 63.743 28.994 101.809 0 42.905-24.052 80.297-59.379 99.407z"/></g></g></g></svg>