<?xml version="1.0" encoding="UTF-8"?>
<svg xmlns="http://www.w3.org/2000/svg" xmlns:xlink="http://www.w3.org/1999/xlink" viewBox="0 0 433.15 432.82">
  <defs>
    <linearGradient id="linear-gradient" x1="429.12" y1="209.34" x2="371.51" y2="319.28" gradientUnits="userSpaceOnUse">
      <stop offset="0" stop-color="#aa80f9"/>
      <stop offset="1" stop-color="#6165d7"/>
    </linearGradient>
    <linearGradient id="linear-gradient-2" x1="38.13" y1="139.82" x2="380.22" y2="139.82" gradientUnits="userSpaceOnUse">
      <stop offset="0" stop-color="#ff9085"/>
      <stop offset="1" stop-color="#fb6fbb"/>
    </linearGradient>
    <linearGradient id="linear-gradient-3" x1="282.56" y1="305.53" x2="316.35" y2="305.53" xlink:href="#linear-gradient-2"/>
    <linearGradient id="linear-gradient-4" x1="294.3" y1="183.05" x2="385.86" y2="8.02" gradientUnits="userSpaceOnUse">
      <stop offset="0" stop-color="#444b8c"/>
      <stop offset="1" stop-color="#26264f"/>
    </linearGradient>
    <linearGradient id="linear-gradient-5" x1="238.25" y1="297.5" x2="329.81" y2="122.47" xlink:href="#linear-gradient"/>
    <linearGradient id="linear-gradient-6" x1="373.05" y1="65.76" x2="213.68" y2="242.05" xlink:href="#linear-gradient"/>
    <linearGradient id="linear-gradient-7" x1="280.16" y1="102.86" x2="376.47" y2="102.86" xlink:href="#linear-gradient"/>
    <linearGradient id="linear-gradient-8" x1="90.23" y1="217.59" x2="45.12" y2="232.07" gradientUnits="userSpaceOnUse">
      <stop offset="0" stop-color="#fcb148"/>
      <stop offset=".05" stop-color="#fdb946"/>
      <stop offset=".14" stop-color="#fec144"/>
      <stop offset=".32" stop-color="#ffc444"/>
      <stop offset=".48" stop-color="#fdb946"/>
      <stop offset=".78" stop-color="#f99c4c"/>
      <stop offset=".87" stop-color="#f8924f"/>
      <stop offset="1" stop-color="#f8924f"/>
    </linearGradient>
    <linearGradient id="linear-gradient-9" x1="126.73" y1="172.68" x2="86.45" y2="261.54" gradientUnits="userSpaceOnUse">
      <stop offset="0" stop-color="#ffdb44"/>
      <stop offset="1" stop-color="#feef06"/>
    </linearGradient>
    <linearGradient id="linear-gradient-10" x1="119.32" y1="266.5" x2="111.55" y2="224.05" xlink:href="#linear-gradient-8"/>
    <linearGradient id="linear-gradient-11" x1="102.85" y1="197.78" x2="134.87" y2="265.77" xlink:href="#linear-gradient-8"/>
    <linearGradient id="linear-gradient-12" x1="93.42" y1="202.18" x2="125.39" y2="270.04" xlink:href="#linear-gradient-8"/>
    <linearGradient id="linear-gradient-13" x1="28.89" y1="142.09" x2="-16.23" y2="156.57" xlink:href="#linear-gradient-8"/>
    <linearGradient id="linear-gradient-14" x1="65.39" y1="97.18" x2="25.11" y2="186.04" xlink:href="#linear-gradient-9"/>
    <linearGradient id="linear-gradient-15" x1="57.98" y1="191.01" x2="50.21" y2="148.55" xlink:href="#linear-gradient-8"/>
    <linearGradient id="linear-gradient-16" x1="41.5" y1="122.28" x2="73.53" y2="190.27" xlink:href="#linear-gradient-8"/>
    <linearGradient id="linear-gradient-17" x1="32.08" y1="126.68" x2="64.04" y2="194.54" xlink:href="#linear-gradient-8"/>
    <linearGradient id="linear-gradient-18" x1="100.72" y1="81.2" x2="55.6" y2="95.68" xlink:href="#linear-gradient-8"/>
    <linearGradient id="linear-gradient-19" x1="137.22" y1="36.29" x2="96.94" y2="125.15" xlink:href="#linear-gradient-9"/>
    <linearGradient id="linear-gradient-20" x1="129.81" y1="130.12" x2="122.03" y2="87.66" xlink:href="#linear-gradient-8"/>
    <linearGradient id="linear-gradient-21" x1="113.33" y1="61.39" x2="145.36" y2="129.39" xlink:href="#linear-gradient-8"/>
    <linearGradient id="linear-gradient-22" x1="103.91" y1="65.79" x2="135.87" y2="133.65" xlink:href="#linear-gradient-8"/>
    <linearGradient id="linear-gradient-23" x1="104.85" y1="317.09" x2="113.58" y2="306.04" xlink:href="#linear-gradient"/>
    <linearGradient id="linear-gradient-24" x1="-438.7" y1="329.51" x2="-424.34" y2="329.51" gradientTransform="translate(-339.52 275.37) rotate(158.35) scale(1 -1)" gradientUnits="userSpaceOnUse">
      <stop offset="0" stop-color="#444b8c"/>
      <stop offset="1" stop-color="#26264f"/>
    </linearGradient>
    <linearGradient id="linear-gradient-25" x1="-575.04" y1="328.84" x2="-568.98" y2="316.3" gradientTransform="translate(-466.29 284.4) rotate(162.3) scale(1 -1)" gradientUnits="userSpaceOnUse">
      <stop offset="0" stop-color="#ffc444"/>
      <stop offset="1" stop-color="#f36f56"/>
    </linearGradient>
    <linearGradient id="linear-gradient-26" x1="-416.2" y1="328.59" x2="-401.84" y2="328.59" xlink:href="#linear-gradient-24"/>
    <linearGradient id="linear-gradient-27" x1="-552.53" y1="329.47" x2="-546.47" y2="316.93" xlink:href="#linear-gradient-25"/>
    <linearGradient id="linear-gradient-28" x1="56.01" y1="369.89" x2="91.84" y2="324.51" xlink:href="#linear-gradient"/>
    <linearGradient id="linear-gradient-29" x1="56.01" y1="368.47" x2="90.67" y2="324.58" xlink:href="#linear-gradient"/>
    <linearGradient id="linear-gradient-30" x1="36.17" y1="350.47" x2="71.76" y2="305.41" xlink:href="#linear-gradient"/>
    <linearGradient id="linear-gradient-31" x1="-260.92" y1="272.5" x2="-212.66" y2="211.4" gradientTransform="translate(341.83 119.78) rotate(-6.28)" xlink:href="#linear-gradient-24"/>
    <linearGradient id="linear-gradient-32" x1="-232.18" y1="216.07" x2="-288.17" y2="278.08" gradientTransform="translate(341.83 119.78) rotate(-6.28)" xlink:href="#linear-gradient-24"/>
    <linearGradient id="linear-gradient-33" x1="108.61" y1="380.39" x2="100.75" y2="358.11" gradientUnits="userSpaceOnUse">
      <stop offset="0" stop-color="#311944"/>
      <stop offset="1" stop-color="#893976"/>
    </linearGradient>
    <linearGradient id="linear-gradient-34" x1="74.27" y1="348.12" x2="77.15" y2="368.03" xlink:href="#linear-gradient-33"/>
    <linearGradient id="linear-gradient-35" x1="131.38" y1="349.86" x2="116.05" y2="328.1" gradientTransform="matrix(1, 0, 0, 1, 0, 0)" xlink:href="#linear-gradient-24"/>
    <linearGradient id="linear-gradient-36" x1="101.98" y1="385.88" x2="135.52" y2="317.75" xlink:href="#linear-gradient-33"/>
    <linearGradient id="linear-gradient-37" x1="85.6" y1="342.15" x2="159.28" y2="342.15" xlink:href="#linear-gradient-33"/>
    <linearGradient id="linear-gradient-38" x1="-1397.78" y1="-11.42" x2="-1408.78" y2="-39.36" gradientTransform="translate(-1287.54 -45.14) rotate(-165.61) scale(1 -1)" gradientUnits="userSpaceOnUse">
      <stop offset="0" stop-color="#311944"/>
      <stop offset="1" stop-color="#6b3976"/>
    </linearGradient>
    <linearGradient id="linear-gradient-39" x1="-1401.14" y1="-10.09" x2="-1412.15" y2="-38.05" xlink:href="#linear-gradient-38"/>
  </defs>
  <g style="isolation: isolate;">
    <g id="Illustration">
      <g>
        <path d="M221.34,6.28c-46.49,17.73-50.94,63.05-92.79,66.94-36.47,3.39-50.33-29.42-75.92-23.54C13.64,58.63-10.87,147.77,4.79,221.06c16.17,75.68,84.09,176.29,196.61,183.15,126.33,7.71,221.92-108.05,227.76-209.63,.63-10.99,4.36-103.03-69.01-157.41-3.67-2.72-75.97-54.86-138.81-30.89Z" style="fill: #f4f7fa;"/>
        <g>
          <path d="M365.34,351.35c-6.72-.53-15.31-2.4-23.56-7.79-8.93-5.84-20.55-17.83-17.52-25.38,1.13-2.82,4.39-5.24,7.26-5.01,4.24,.34,4.73,6.22,12.08,12.62,1.36,1.18,8.39,7.3,11.88,5.24,1.74-1.02,2.25-3.86,1.97-6.02-.83-6.31-8.53-7.28-15.94-14.11-7.51-6.93-13.77-19.01-10.19-27.17,2.06-4.69,7.49-8.4,11.07-7.36,1.53,.45,2.5,1.69,7.14,11.72,3.81,8.23,4.65,10.62,7.11,11.4,2.53,.8,6.45-.2,7.95-2.69,3.89-6.48-12.92-16.06-14.44-34.2-.68-8.13,1.52-20.18,8.88-22.76,4.98-1.75,12.07,.92,14.63,5.49,2.31,4.12-.5,7.21,1.27,16.46,.53,2.81,1.64,8.58,3.96,8.88,2.73,.36,5.78-7.01,6.48-8.8,5.31-13.5-.78-20.44,4.23-27,3.9-5.11,12.4-7.16,19.13-4.58,5.89,2.26,10.6,8.13,10.92,14.22,.32,6.19-4.89,12.36-15.31,24.69-4.94,5.85-8.87,9.8-8.65,15.61,.11,2.83,1.23,6.82,3.26,7.18,4.48,.8,6.68-17.23,17.3-20.02,5.43-1.43,12.19,1.38,15.15,6.27,3.64,6,1.2,14.51-3.37,18.98-5.96,5.84-12.07,1.4-23.28,7.67-4.97,2.78-12.79,8.7-11.65,13.59,.5,2.13,2.73,4.22,5.18,4.49,5.49,.62,7.31-8.38,16.13-12.33,6.36-2.85,15.16-2.54,17.25,1.05,2.95,5.06-7.53,16.56-13.1,21.64-6.73,6.14-22.61,17.79-53.22,18.03Z" style="fill: url(#linear-gradient);"/>
          <path d="M368.35,348.47c-.89-15.05,9.08-45.71,16.34-60.21,7.1-14.18,13.89-36.62,13.96-36.84l.44,.13c-.07,.23-6.87,22.7-13.98,36.92-7.23,14.45-17.17,44.99-16.29,59.97l-.46,.03Z" style="fill: #fff; mix-blend-mode: soft-light; opacity: .5;"/>
        </g>
        <g>
          <g>
            <path d="M374.95,134.23c0-10.41-8.43-19.1-19.02-19.42L55.82,105.86c-14.27-.43-25.61,9.17-25.61,21.45v239.94c0,12.27,11.37,21.13,25.65,19.77l7.65-.73,.4-1.79,292.06-34.79c10.59-1.01,18.97-1.58,18.97-11.99V134.23Zm-256.71,24.01c-11.84-.08-21.53-8.62-21.53-19.09s9.69-18.71,21.53-18.43c11.71,.28,21.11,8.82,21.11,19.08s-9.4,18.51-21.11,18.44Zm98.16,.66c-10.79-.07-19.63-8.23-19.63-18.21s8.83-17.87,19.63-17.62c10.68,.25,19.26,8.41,19.26,18.21s-8.58,17.69-19.26,17.62Zm89.71,.6c-9.88-.07-17.97-7.86-17.97-17.42s8.08-17.11,17.97-16.87c9.78,.23,17.65,8.03,17.65,17.41s-7.86,16.94-17.65,16.87Z" style="fill: #a5acb7;"/>
            <path d="M380.22,173.55v-39.42c0-10.38-7.96-18.82-18.48-19.14L63.46,106.09c-5.96-.18-11.25,1.31-15.65,4.14-6.03,3.87-9.68,9.95-9.68,17v46.31H380.22Zm-67.85-48.19c9.72,.23,17.54,8,17.54,17.36s-7.82,16.88-17.54,16.82c-9.82-.07-17.86-7.84-17.86-17.36s8.04-17.06,17.86-16.82Zm-89.14-2.13c10.61,.25,19.14,8.37,19.14,18.15s-8.53,17.63-19.14,17.56c-10.72-.07-19.5-8.2-19.5-18.15s8.78-17.82,19.5-17.56Zm-97.5-2.33c11.63,.28,20.97,8.79,20.97,19.02s-9.34,18.45-20.97,18.37c-11.75-.08-21.38-8.59-21.38-19.01s9.63-18.65,21.38-18.37Z" style="fill: url(#linear-gradient-2);"/>
            <path d="M38.13,169.8v196.72c0,12.23,11.01,21.1,25.19,19.75l298.36-28.45c10.52-1,18.55-10.18,18.55-20.56V170.26l-342.09-.46Z" style="fill: #fff;"/>
            <g>
              <path d="M267.78,200.33c0-2.55-1.88-4.6-4.59-4.57l-28.07,.32c-2.79,.03-5.35,2.17-5.35,4.77v26.26c0,2.6,2.72,4.63,5.52,4.55l27.69-.79c2.71-.08,4.81-2.21,4.81-4.76v-25.78Z" style="fill: #bfc8d6;"/>
              <path d="M316.35,199.67c0-2.49-1.71-4.49-4.3-4.46l-25.57,.28c-2.66,.03-3.92,2.09-3.92,4.63v25.59c0,2.54,1.46,4.56,4.12,4.48l25.72-.73c2.58-.07,3.96-2.13,3.96-4.63v-25.16Z" style="fill: #bfc8d6;"/>
              <path d="M365.44,199.02c0-2.43-2.31-4.38-4.77-4.35l-25.86,.28c-2.53,.03-5.26,2.05-5.26,4.53v24.98c0,2.47,2.57,4.43,5.1,4.36l25.76-.71c2.46-.07,5.03-2.09,5.03-4.53v-24.55Z" style="fill: #bfc8d6;"/>
              <path d="M267.78,247.47c0-2.55-1.88-4.56-4.59-4.46l-28.07,.97c-2.79,.1-5.35,2.29-5.35,4.89v26.26c0,2.6,2.72,4.57,5.52,4.43l27.69-1.43c2.71-.14,4.81-2.32,4.81-4.87v-25.78Z" style="fill: #bfc8d6;"/>
              <path d="M316.35,245.69c0-2.49-1.71-4.45-4.3-4.36l-25.57,.88c-2.66,.09-3.92,2.19-3.92,4.72v25.59c0,2.54,1.46,4.52,4.12,4.38l25.72-1.33c2.58-.13,3.96-2.23,3.96-4.72v-25.16Z" style="fill: #bfc8d6;"/>
              <path d="M365.44,243.92c0-2.43-2.31-4.34-4.77-4.25l-25.86,.86c-2.53,.09-5.26,2.16-5.26,4.63v24.98c0,2.47,2.57,4.38,5.1,4.25l25.76-1.3c2.46-.13,5.03-2.2,5.03-4.63v-24.55Z" style="fill: #bfc8d6;"/>
              <path d="M105.18,253.48c0-2.76-3.36-4.89-6.53-4.78l-32.72,1.1c-3.27,.11-6.15,2.47-6.15,5.29v28.41c0,2.81,2.47,4.98,5.74,4.81l33.22-1.69c3.17-.16,6.44-2.54,6.44-5.3v-27.85Z" style="fill: #bfc8d6;"/>
              <path d="M161.14,251.39c0-2.69-2.03-4.8-5.03-4.69l-31.19,1.07c-3.1,.11-6.01,2.43-6.01,5.17v27.66c0,2.74,3.12,4.8,6.22,4.64l30.69-1.58c3-.16,5.33-2.45,5.33-5.14v-27.13Z" style="fill: #bfc8d6;"/>
              <path d="M217.1,249.38c0-2.62-2.96-4.66-5.82-4.56l-30.16,1.01c-2.94,.1-6.26,2.35-6.26,5.02v26.95c0,2.67,2.98,4.7,5.93,4.55l30.2-1.52c2.85-.15,6.11-2.4,6.11-5.02v-26.43Z" style="fill: #bfc8d6;"/>
              <path d="M267.78,294.62c0-2.55-1.88-4.51-4.59-4.36l-28.07,1.62c-2.79,.16-5.35,2.42-5.35,5.02v26.26c0,2.6,2.72,4.51,5.52,4.3l27.69-2.07c2.71-.2,4.81-2.43,4.81-4.99v-25.78Z" style="fill: #bfc8d6;"/>
              <path d="M316.35,291.7c0-2.49-1.71-4.41-4.3-4.26l-25.57,1.47c-2.66,.15-3.92,2.28-3.92,4.82v25.59c0,2.54,1.46,4.49,4.12,4.29l25.72-1.93c2.58-.19,3.96-2.33,3.96-4.82v-25.16Z" style="fill: url(#linear-gradient-3);"/>
              <path d="M105.18,304.41c0-2.76-3.36-4.82-6.53-4.64l-32.72,1.86c-3.27,.19-6.15,2.61-6.15,5.43v28.41c0,2.81,2.47,4.93,5.74,4.68l33.22-2.45c3.17-.24,6.44-2.68,6.44-5.44v-27.85Z" style="fill: #bfc8d6;"/>
              <path d="M161.14,301.01c0-2.69-2.03-4.75-5.03-4.58l-31.19,1.79c-3.1,.18-6.01,2.56-6.01,5.3v27.66c0,2.74,3.12,4.74,6.22,4.5l30.69-2.29c3-.22,5.33-2.57,5.33-5.26v-27.13Z" style="fill: #bfc8d6;"/>
              <path d="M217.1,297.72c0-2.62-2.96-4.6-5.82-4.43l-30.16,1.7c-2.94,.17-6.26,2.49-6.26,5.16v26.95c0,2.67,2.98,4.64,5.93,4.42l30.2-2.21c2.85-.21,6.11-2.53,6.11-5.15v-26.43Z" style="fill: #bfc8d6;"/>
            </g>
            <path d="M123.76,70.7c-19.84-.93-36.42,14.11-38.04,36.06l16.94,.51c1.37-13.06,10.51-22.75,21.09-22.32,11.36,.46,20.87,12.63,20.87,26.65s-9.51,25.68-20.87,25.49c-5.95-.1-11.44-3.45-15.36-8.63-2.28,2.93-6.21,9.66-2.49,17.86,5.35,3.13,11.43,4.93,17.84,5,20.49,.2,36.88-17.38,36.88-39.26s-16.39-40.39-36.88-41.35Z" style="fill: #bfc8d6;"/>
            <path d="M221.36,75.22c-18.11-.85-33.24,13.55-34.71,34.51l15.46,.46c1.25-12.48,9.6-21.75,19.26-21.36,10.38,.42,19.07,12.04,19.07,25.44s-8.69,24.56-19.07,24.39c-5.43-.09-10.44-3.29-14.02-8.24-2.08,2.8-5.66,9.24-2.27,17.06,4.88,2.99,10.43,4.71,16.29,4.77,18.72,.19,33.71-16.64,33.71-37.56s-14.99-38.6-33.71-39.48Z" style="fill: #bfc8d6;"/>
            <path d="M310.73,79.46c-16.57-.78-30.39,13.02-31.74,33.06l14.13,.42c1.15-11.93,8.78-20.81,17.61-20.46,9.5,.38,17.45,11.49,17.45,24.32s-7.95,23.51-17.45,23.35c-4.97-.08-9.55-3.14-12.83-7.87-1.9,2.68-5.18,8.84-2.07,16.32,4.47,2.86,9.54,4.5,14.9,4.55,17.14,.17,30.87-15.94,30.87-35.97s-13.73-36.92-30.87-37.72Z" style="fill: #bfc8d6;"/>
            <path d="M380.22,330.44v6.83c0,10.38-7.96,19.55-18.48,20.55l-298.43,28.45c-14.17,1.35-25.19-7.53-25.19-19.75V127.24c0-7.05,3.65-13.25,9.68-17.12,13.03,4.11,29.57,15.72,38.03,47.53,14.82,55.7,27.43,79.05,83.06,75.27,34.65-2.35,60.73-2.08,76.8,11.34,8.57,7.14,14.36,18.07,17.11,34.43,1.61,9.56,8.77,15.25,18.94,19.07,9.91,3.73,22.37,5.7,35.57,7.82,23.97,3.82,50.77,8.09,62.91,24.87Z" style="fill: #bfc8d6; mix-blend-mode: multiply; opacity: .3;"/>
          </g>
          <path d="M295.82,315.17c-.24,.02-.48-.04-.68-.18l-5.64-3.84c-.52-.36-.64-1.11-.26-1.69,.38-.58,1.11-.75,1.64-.4l4.8,3.27,13.67-16.73c.43-.53,1.16-.61,1.63-.19,.47,.42,.5,1.18,.07,1.71l-14.35,17.59c-.23,.28-.54,.44-.86,.46Z" style="fill: #fff;"/>
          <g>
            <path d="M294.13,259.23c.75-.99,1.12-2.43,1.12-4.31s-.38-3.17-1.14-4.1c-.76-.93-1.86-1.36-3.28-1.28-2.91,.16-4.37,2.11-4.37,5.87,0,1.84,.38,3.23,1.14,4.16,.76,.93,1.84,1.36,3.23,1.28,1.45-.08,2.55-.62,3.3-1.61Zm-3.27-.94c-.42,.02-.73-.22-.92-.72-.19-.5-.28-1.28-.28-2.32s.09-1.82,.28-2.34c.19-.52,.5-.78,.92-.81,.81-.04,1.21,.96,1.21,3.01s-.4,3.13-1.21,3.17Z" style="fill: #fff;"/>
            <path d="M307,257.28c-.76-.93-1.84-1.35-3.26-1.27-2.89,.16-4.34,2.11-4.34,5.86,0,1.83,.38,3.2,1.13,4.13,.75,.93,1.82,1.35,3.21,1.27,1.44-.08,2.53-.62,3.27-1.61,.74-.99,1.12-2.42,1.12-4.29s-.38-3.16-1.13-4.09Zm-3.23,7.45c-.42,.02-.72-.21-.91-.71-.19-.5-.28-1.27-.28-2.31s.09-1.82,.28-2.33c.19-.51,.49-.78,.91-.81,.8-.05,1.21,.95,1.21,3s-.4,3.11-1.21,3.16Z" style="fill: #fff;"/>
            <path d="M303.58,249.3c-.07-.12-.2-.19-.34-.18l-1.86,.1c-.29,.02-.56,.19-.7,.45l-9.67,17.54c-.07,.13-.07,.28,0,.39,.07,.12,.2,.19,.35,.18l2.11-.12c.15,0,.28-.1,.35-.22l9.77-17.74c.07-.12,.07-.28,0-.39Z" style="fill: #fff;"/>
          </g>
          <g>
            <path d="M296.21,214.26c.75-.98,1.12-2.41,1.12-4.3s-.38-3.18-1.14-4.12c-.76-.94-1.85-1.38-3.28-1.33-2.91,.12-4.37,2.05-4.37,5.81,0,1.84,.38,3.23,1.14,4.17,.76,.94,1.84,1.38,3.23,1.32,1.45-.06,2.55-.58,3.3-1.56Zm-3.27-.99c-.42,.02-.73-.23-.92-.73-.19-.5-.28-1.28-.28-2.32s.09-1.82,.28-2.33c.19-.51,.5-.78,.92-.79,.81-.03,1.21,.98,1.21,3.03s-.4,3.12-1.21,3.15Z" style="fill: #fff;"/>
            <path d="M309.06,212.48c-.76-.94-1.84-1.37-3.25-1.32-2.89,.12-4.33,2.05-4.33,5.79,0,1.83,.38,3.21,1.13,4.14,.75,.94,1.82,1.37,3.2,1.31,1.44-.07,2.53-.59,3.27-1.56,.74-.98,1.11-2.4,1.11-4.27s-.38-3.16-1.13-4.1Zm-3.23,7.4c-.42,.02-.72-.22-.91-.73-.19-.5-.28-1.27-.28-2.31s.09-1.81,.28-2.32c.19-.51,.49-.78,.91-.79,.8-.03,1.2,.97,1.2,3.01s-.4,3.11-1.2,3.14Z" style="fill: #fff;"/>
            <path d="M305.65,204.45c-.07-.12-.2-.19-.34-.18l-1.86,.07c-.29,.01-.56,.18-.7,.44l-9.66,17.4c-.07,.12-.07,.28,0,.39,.07,.12,.2,.19,.35,.18l2.11-.1c.15,0,.28-.09,.35-.22l9.76-17.6c.07-.12,.07-.27,0-.39Z" style="fill: #fff;"/>
          </g>
        </g>
        <g>
          <path d="M397.76,100.69c0,31.79-25.76,58.73-58.62,60.24-34.13,1.56-62.78-24.73-62.78-58.77s28.65-61.02,62.78-60.29c32.86,.71,58.62,27.03,58.62,58.82Z" style="fill: url(#linear-gradient-4);"/>
          <path d="M401.57,100.69c0,31.79-25.76,58.73-58.62,60.24-34.13,1.56-62.78-24.73-62.78-58.77s28.65-61.02,62.78-60.29c32.86,.71,58.62,27.03,58.62,58.82Z" style="fill: url(#linear-gradient-5);"/>
          <path d="M397.94,100.73c0,29.95-24.3,55.29-55.24,56.65-32.06,1.4-58.92-23.32-58.92-55.27s26.86-57.32,58.92-56.69c30.94,.61,55.24,25.36,55.24,55.31Z" style="fill: url(#linear-gradient-6);"/>
          <g>
            <path d="M330.24,103.6c2.49-3.23,3.73-8.06,3.73-14.49s-1.27-10.88-3.8-14.2c-2.53-3.31-6.16-4.97-10.88-4.97-9.65,0-14.47,6.39-14.47,19.17,0,6.26,1.26,11.05,3.77,14.36,2.52,3.31,6.08,4.97,10.69,4.97s8.46-1.61,10.95-4.84Zm-10.86-3.84c-1.4,0-2.41-.87-3.04-2.62-.63-1.75-.94-4.4-.94-7.95s.31-6.19,.94-7.91c.63-1.72,1.64-2.58,3.04-2.58,2.68,0,4.03,3.5,4.03,10.49s-1.34,10.57-4.03,10.57Z" style="fill: #fff;"/>
            <path d="M373.12,99.41c-2.53-3.31-6.16-4.97-10.88-4.97-9.65,0-14.47,6.39-14.47,19.17,0,6.24,1.26,11.01,3.77,14.32,2.52,3.31,6.08,4.97,10.69,4.97s8.46-1.61,10.95-4.84c2.49-3.23,3.73-8.05,3.73-14.45s-1.27-10.88-3.8-14.2Zm-10.8,24.85c-1.4,0-2.41-.87-3.04-2.62-.63-1.75-.94-4.4-.94-7.95s.31-6.19,.94-7.91c.63-1.72,1.64-2.58,3.04-2.58,2.68,0,4.03,3.5,4.03,10.49s-1.34,10.57-4.03,10.57Z" style="fill: #fff;"/>
            <path d="M361.71,71.46c-.24-.41-.68-.68-1.15-.68h-6.22c-.98,0-1.88,.55-2.35,1.4l-32.15,57.96c-.23,.41-.22,.93,.02,1.34,.24,.41,.68,.67,1.15,.67h7.01c.48,0,.93-.27,1.17-.7l32.53-58.66c.23-.41,.22-.93-.02-1.34Z" style="fill: #fff;"/>
          </g>
          <g style="mix-blend-mode: multiply; opacity: .3;">
            <path d="M316.49,75.84c-2.02-6.58-1.93-16.57,7.92-31.33-25.39,7.31-44.25,30.34-44.25,57.88,0,34.04,28.65,60.33,62.78,58.77,12.59-.58,24.11-4.87,33.52-11.69-.29-9.08-2.27-19.02-7.82-28.18-15.27-25.21-45.82-24.81-52.16-45.45Z" style="fill: url(#linear-gradient-7); mix-blend-mode: multiply; opacity: .3;"/>
          </g>
        </g>
        <g>
          <g>
            <path d="M142.17,215.95c0,20.93-16.37,37.4-37.28,36.75-21.77-.67-40.08-19.47-40.08-41.97s18.31-38.83,40.08-36.57c20.92,2.18,37.28,20.85,37.28,41.78Z" style="fill: url(#linear-gradient-8);"/>
            <path d="M147.83,214.15c0,20.93-16.37,37.4-37.28,36.75-21.77-.67-40.08-19.47-40.08-41.97s18.31-38.83,40.08-36.57c20.92,2.18,37.28,20.85,37.28,41.78Z" style="fill: url(#linear-gradient-9);"/>
            <path d="M146.19,214.03c0,20.01-15.66,35.72-35.64,35.08-20.76-.67-38.19-18.62-38.19-40.05s17.43-37.03,38.19-34.9c19.98,2.05,35.64,19.87,35.64,39.88Z" style="fill: url(#linear-gradient-10);"/>
            <path d="M145.01,213.96c0,19.35-15.15,34.53-34.47,33.88-20.04-.67-36.84-18-36.84-38.68s16.8-35.75,36.84-33.72c19.31,1.96,34.47,19.18,34.47,38.52Z" style="fill: url(#linear-gradient-11);"/>
            <path d="M104.3,218.69c1.16-11.5,11.73-16.37,10.36-26.95-.85-6.52-5.79-12.02-11.31-16.31-16.72,1.75-29.65,15.6-29.65,33.71,0,20.68,16.8,38.01,36.84,38.68,1.95,.07,3.85-.04,5.69-.28-7.96-7.92-12.93-18.98-11.93-28.86Z" style="fill: url(#linear-gradient-12); mix-blend-mode: multiply; opacity: .3;"/>
          </g>
          <g>
            <path d="M80.83,140.45c0,20.93-16.37,37.4-37.28,36.75-21.77-.67-40.08-19.47-40.08-41.97s18.31-38.83,40.08-36.57c20.92,2.18,37.28,20.85,37.28,41.78Z" style="fill: url(#linear-gradient-13);"/>
            <path d="M86.48,138.65c0,20.93-16.37,37.4-37.28,36.75-21.77-.67-40.08-19.47-40.08-41.97s18.31-38.83,40.08-36.57c20.92,2.18,37.28,20.85,37.28,41.78Z" style="fill: url(#linear-gradient-14);"/>
            <path d="M84.84,138.53c0,20.01-15.66,35.72-35.64,35.08-20.76-.67-38.19-18.62-38.19-40.05s17.43-37.03,38.19-34.9c19.98,2.05,35.64,19.87,35.64,39.88Z" style="fill: url(#linear-gradient-15);"/>
            <path d="M83.66,138.46c0,19.35-15.15,34.53-34.47,33.88-20.04-.67-36.84-18-36.84-38.68s16.8-35.75,36.84-33.72c19.31,1.96,34.47,19.18,34.47,38.52Z" style="fill: url(#linear-gradient-16);"/>
            <path d="M42.96,143.19c1.16-11.5,11.73-16.37,10.36-26.95-.85-6.52-5.79-12.02-11.31-16.31-16.72,1.75-29.65,15.6-29.65,33.71,0,20.68,16.8,38.01,36.84,38.68,1.95,.07,3.85-.04,5.69-.28-7.96-7.92-12.93-18.98-11.93-28.86Z" style="fill: url(#linear-gradient-17); mix-blend-mode: multiply; opacity: .3;"/>
          </g>
          <g>
            <path d="M152.66,79.56c0,20.93-16.37,37.4-37.28,36.75-21.77-.67-40.08-19.47-40.08-41.97s18.31-38.83,40.08-36.57c20.92,2.18,37.28,20.85,37.28,41.78Z" style="fill: url(#linear-gradient-18);"/>
            <path d="M158.31,77.76c0,20.93-16.37,37.4-37.28,36.75-21.77-.67-40.08-19.47-40.08-41.97s18.31-38.83,40.08-36.57c20.92,2.18,37.28,20.85,37.28,41.78Z" style="fill: url(#linear-gradient-19);"/>
            <path d="M156.67,77.65c0,20.01-15.66,35.72-35.64,35.08-20.76-.67-38.19-18.62-38.19-40.05s17.43-37.03,38.19-34.9c19.98,2.05,35.64,19.87,35.64,39.88Z" style="fill: url(#linear-gradient-20);"/>
            <path d="M155.49,77.57c0,19.35-15.15,34.53-34.47,33.88-20.04-.67-36.84-18-36.84-38.68s16.8-35.75,36.84-33.72c19.31,1.96,34.47,19.18,34.47,38.52Z" style="fill: url(#linear-gradient-21);"/>
            <path d="M114.79,82.3c1.16-11.5,11.73-16.37,10.36-26.95-.85-6.52-5.79-12.02-11.31-16.31-16.72,1.75-29.65,15.6-29.65,33.71,0,20.68,16.8,38.01,36.84,38.68,1.95,.07,3.85-.04,5.69-.28-7.96-7.92-12.93-18.98-11.93-28.86Z" style="fill: url(#linear-gradient-22); mix-blend-mode: multiply; opacity: .3;"/>
          </g>
        </g>
        <g>
          <path d="M126.94,334.73c4.74-2.63,3.36-17.55-3.08-28.04-9.14-14.89-29.17-22-33.28-17.56-4.2,4.54,7.9,21.58,9.86,24.34,7.13,10.04,20.89,24.37,26.5,21.26Z" style="fill: url(#linear-gradient-23);"/>
          <path d="M176.55,421.36c-.77,1.07-.78,2.88,.09,3.68,.85,.78,1.91,0,5.13-.25,3.45-.28,4.44,.44,6.7-.46,.92-.36,2.51-1.18,2.41-1.85-.07-.47-.95-.62-3.89-1.26-4.17-.91-4.16-.98-5.03-1.03-2.19-.12-4.38-.24-5.4,1.17Z" style="fill: url(#linear-gradient-24);"/>
          <path d="M178.14,415.5l2.36,5.55c-.1,.32-1.74,1.54-3.31,1.06l-3.17-5.29,4.13-1.32Z" style="fill: url(#linear-gradient-25);"/>
          <path d="M155.3,428.8c-.77,1.07-.78,2.88,.09,3.68,.85,.78,1.91,0,5.13-.25,3.45-.28,4.44,.44,6.7-.46,.92-.36,2.51-1.18,2.41-1.85-.07-.47-.95-.62-3.89-1.26-4.17-.91-4.16-.98-5.03-1.03-2.19-.12-4.38-.24-5.4,1.17Z" style="fill: url(#linear-gradient-26);"/>
          <path d="M156.89,422.95l2.36,5.55c-.1,.32-1.74,1.54-3.31,1.06l-3.17-5.29,4.13-1.32Z" style="fill: url(#linear-gradient-27);"/>
          <path d="M52.52,290.09c5.5-1.88,13.92-4.06,24.28-4.05,11.67,0,21.04,0,27.51,5.52,15.7,13.38-1.87,45.44,7.13,69.17,.99,2.6,3.86,10.84,1.36,19.73-.46,1.64-1.41,3.06-3.03,5.46-9.51,14.11-36.75,18.75-48.99,6.52-6.47-6.47-11.76-8.77-11.91-16.15-.61-29.12,3.9-58.17,3.65-86.2Z" style="fill: url(#linear-gradient-28);"/>
          <path d="M58.73,325.67c-2.22-6.09,.08-13.06-4.88-16.1-1.82-1.11-4.08-1.59-6.54-1.53,.29,21.4,.72,42.79,1.24,65.12,.17,7.38,1.09,7.74,8.25,14.21,8.29,7.49,22.57,9.94,34.81,7.49-16.04-9.86-27.48-20.08-25.85-28.84,1.91-10.2,20.59-13.21,19.84-20.46-.8-7.69-22.01-6.56-26.87-19.88Z" style="fill: url(#linear-gradient-29); mix-blend-mode: multiply; opacity: .3;"/>
          <path d="M57.62,290.75c-5.39-3.64-18.38,5.54-25.59,13.62-3.35,3.76-15,16.83-12.11,34.4,.47,2.86,2.64,16.25,14.1,22.8,10.26,5.87,24.11,4.36,35.21-3.95,1.52-1.35,3.03-2.69,4.55-4.04,1.49-1.61,2.98-3.23,4.48-4.84-2.35-1.95-6.33-4.77-11.93-6.57-8.53-2.75-14.14,1.33-16.18-1.36-2.51-3.31,5.13-9.48,7.14-23.5,.54-3.79,6.34-22.5,.32-26.56Z" style="fill: url(#linear-gradient-30);"/>
          <path d="M68.59,385.45c-2.27,11.92,3.77,6.51,16.4-1.54,13.3-8.48,42.96-21.82,57.64-10.24,10.94,8.62,5.65,24.74,22.78,39.96,3.02,2.68,5.79,4.48,7.52,5.51,2.63-1.44,5.25-2.88,7.88-4.32,.39-6.42,1.11-31.1-16.58-51.18-4.28-4.86-12.42-14.18-24.93-17.13-33.82-7.97-68.61,27.96-70.7,38.95Z" style="fill: url(#linear-gradient-31);"/>
          <path d="M54.42,376.13c-1.56,6.87,1.34,14.26,5.61,18.57,9.47,9.58,28.02,6.42,39.26,1.26,13.67-6.28,15.9-15.21,21.71-13.72,9.03,2.33,5.21,24.36,22.78,39.96,3.02,2.68,5.79,4.48,7.52,5.51,2.63-1.44,5.25-2.88,7.88-4.32,.46-14.91-2.35-26.5-4.76-33.84-2.76-8.42-5.24-15.96-12.13-22.73-8.56-8.42-18.77-10.58-24.63-11.74-24.76-4.91-59.17,3.2-63.23,21.06Z" style="fill: url(#linear-gradient-32);"/>
          <g>
            <polygon points="131.44 353.52 66.47 352.55 83.75 360.89 131.61 357.76 131.44 353.52" style="fill: url(#linear-gradient-33);"/>
            <path d="M64.17,354.28h0c0,1.22,.76,2.3,1.9,2.72l20.76,8.14,.09-5.64-20.47-6.94c-1.15-.33-2.29,.53-2.29,1.73Z" style="fill: url(#linear-gradient-34);"/>
          </g>
          <path d="M73.45,351.67c-.4-.09,1.94-4.75,3.78-4.22,1.84,.54,10.83,5.75,11.65,7.89l.82,2.15s-3.92,.31-6.35-.51c-2.43-.82-6.65-4.59-9.89-5.31Z" style="fill: #fff;"/>
          <g>
            <g>
              <path d="M88.66,319.9l-4.58,41.7c-.16,1.44,1.86,3.58,3.3,3.51l67.19-4.12c1.1-.05,2.02-.87,2.21-1.95l8.43-40.28c.25-1.47-2.38-2.98-3.87-2.94l-70.41,1.98c-1.18,.03-2.15,.93-2.28,2.1Z" style="fill: url(#linear-gradient-35);"/>
              <path d="M90.19,321.11l-4.58,41.7c-.16,1.44,1.01,2.68,2.45,2.61l68.04-3.22c1.1-.05,2.02-.87,2.21-1.95l6.95-40.46c.25-1.47-.9-2.8-2.39-2.75l-70.41,1.98c-1.18,.03-2.15,.93-2.28,2.1Z" style="fill: url(#linear-gradient-36);"/>
            </g>
            <path d="M130.15,352.44c-5.94-2.52-3.84-7.32-10.86-13.3-9.26-7.89-18.69-4.47-21.99-10.59-1.03-1.91-1.52-4.87,.27-9.67l-5.1,.14c-1.18,.03-2.15,.93-2.28,2.1l-4.58,41.7c-.16,1.44,1.01,2.68,2.45,2.61l68.04-3.22c1.1-.05,2.02-.86,2.21-1.95l.96-5.58c-2.06-1.15-4.53-2.19-7.41-2.78-9.98-2.02-14.88,3.44-21.72,.54Z" style="fill: url(#linear-gradient-37); mix-blend-mode: multiply; opacity: .3;"/>
          </g>
          <g>
            <path d="M77.89,270.1c.04,4.33-.45,7.76-.9,10.1-.52,2.69-.9,3.39-1.38,3.95-.72,.85-1.82,1.56-8.02,3.1-3.37,.84-3.81,.81-3.88,1.15-.36,1.63,8.83,7.2,18.33,5.86,5.81-.82,11.11-4.14,10.78-5.88-.33-1.75-6.14-.81-7.87-3.98-1.2-2.21,.15-5.34,1.74-7.93-1.55-2.9-7.26-3.46-8.81-6.36Z" style="fill: #fff;"/>
            <g>
              <path d="M90.09,275.6c1.79-1.42,2.67-4.48,1.65-6.82-.88-2.02-2.89-2.8-4.09-3.26-3.49-1.35-8.41-1.03-10.85,1.87-1.45,1.72-.48,6.32-.36,7.13,.14,.92,.72,1.38,1.16,2.16,.61,1.09,1.55,2.81,3.08,5.67,.34-.64,.81-1.42,1.45-2.23,.25-.31,1.22-1.53,2.45-2.42,2.47-1.8,3.82-.75,5.51-2.09Z" style="fill: url(#linear-gradient-38);"/>
              <path d="M78.14,279.61s1.35,4.49,6.14,5.41c4.28,.82,7.36-8.46,5.19-11.17-.72-.9-2.45-1.65-4.02-1.62-.93,.02-1.31,.3-2.83,.3-1.4,0-1.73-.24-2.21-.01-.6,.29-1.23,1.21-1.12,4.19-.59-1.02-1.48-1.59-2.24-1.44-.12,.02-.46,.14-.7,.4-.87,.93-.24,2.56,1.79,3.94Z" style="fill: #fff;"/>
              <path d="M80.37,271.9c.16,.2-.65,.8-.98,1.86-.63,2.06,.82,5.11,2.92,5.88,1.24,.46,1.79-.22,3.95,.11,1.34,.2,2.38,.65,3.02,.98,.07,2.46-1.15,4.57-2.95,5.23-1.94,.71-3.86-.53-4.66-1.04-.54-.35-2.26-1.45-2.79-3.43-.56-2.07,.73-2.89-.13-4.41-.43-.77-1.14-1.24-1.59-2.62-.12-.38-.19-.7-.22-.91,1.39-.87,3.2-1.93,3.44-1.63Z" style="fill: url(#linear-gradient-39);"/>
              <path d="M87.53,281.17s-1.03,.24-2.58-.26c-.08-.02-.17-.02-.19,.01-.07,.14,.76,1.07,1.76,1.05,.71-.01,1.38-.5,1.34-.69-.02-.08-.17-.11-.33-.12Z" style="fill: #fff;"/>
            </g>
          </g>
        </g>
      </g>
    </g>
  </g>
</svg>