<?xml version="1.0" encoding="UTF-8"?>
<svg id="Layer_1" data-name="Layer 1" xmlns="http://www.w3.org/2000/svg" xmlns:xlink="http://www.w3.org/1999/xlink" viewBox="0 0 405.86 259.89">
  <defs>
    <linearGradient id="linear-gradient" x1="-22.83" y1="228.82" x2="370.31" y2="228.82" gradientTransform="translate(19.68 -92.57) rotate(-1.39)" gradientUnits="userSpaceOnUse">
      <stop offset="0" stop-color="#b37cff"/>
      <stop offset="1" stop-color="#f895e7"/>
    </linearGradient>
    <linearGradient id="linear-gradient-2" x1="-566.02" y1="-3470.93" x2="-599.26" y2="-3387.65" gradientTransform="translate(-2121.96 2655.1) rotate(51.77)" gradientUnits="userSpaceOnUse">
      <stop offset="0" stop-color="#cb236d"/>
      <stop offset="1" stop-color="#4c246d"/>
    </linearGradient>
    <linearGradient id="linear-gradient-3" x1="-631.68" y1="-3436.69" x2="-550.43" y2="-3436.69" gradientTransform="translate(-2121.96 2655.1) rotate(51.77)" gradientUnits="userSpaceOnUse">
      <stop offset="0" stop-color="#a737d5"/>
      <stop offset="1" stop-color="#ef497a"/>
    </linearGradient>
    <linearGradient id="linear-gradient-4" x1="-141.7" y1="-131.03" x2="10.37" y2="-131.03" gradientTransform="translate(-19.75 258.81) rotate(50.32)" xlink:href="#linear-gradient-2"/>
    <linearGradient id="linear-gradient-5" x1="132.09" y1="-26.85" x2="1.24" y2="313.94" gradientUnits="userSpaceOnUse">
      <stop offset="0" stop-color="#53d8ff"/>
      <stop offset="1" stop-color="#3840f7"/>
    </linearGradient>
    <linearGradient id="linear-gradient-6" x1="44.11" y1="88.88" x2="131.64" y2="88.88" xlink:href="#linear-gradient-5"/>
    <linearGradient id="linear-gradient-7" x1="44.11" y1="88.88" x2="131.64" y2="88.88" xlink:href="#linear-gradient-5"/>
    <linearGradient id="linear-gradient-8" x1="182.79" y1="40.23" x2="40.8" y2="213.14" xlink:href="#linear-gradient-5"/>
    <linearGradient id="linear-gradient-9" x1="1517.27" y1="1977.29" x2="1585.86" y2="1977.29" gradientTransform="translate(-607.12 -2160.79) rotate(15.54)" xlink:href="#linear-gradient-2"/>
    <linearGradient id="linear-gradient-10" x1="1275.68" y1="981.37" x2="1352.76" y2="981.37" gradientTransform="translate(-999.76 -833.82) rotate(-1.94)" xlink:href="#linear-gradient-3"/>
    <linearGradient id="linear-gradient-11" x1="-5741.67" y1="-1051.54" x2="-5660.08" y2="-1107.61" gradientTransform="translate(-5740.66 395.45) rotate(-170.87) scale(1 -1)" xlink:href="#linear-gradient-2"/>
    <linearGradient id="linear-gradient-12" x1="-4813.56" y1="-468.41" x2="-4711.99" y2="-538.21" gradientTransform="translate(-3961.6 -2419.61) rotate(-140.79) scale(1 -1)" xlink:href="#linear-gradient-3"/>
    <linearGradient id="linear-gradient-13" x1="322.89" y1="71.75" x2="99.58" y2="241.78" gradientUnits="userSpaceOnUse">
      <stop offset="0" stop-color="#2b3582"/>
      <stop offset="1" stop-color="#150e42"/>
    </linearGradient>
    <linearGradient id="linear-gradient-14" x1="97.13" y1="291.05" x2="351.7" y2="-12.86" gradientUnits="userSpaceOnUse">
      <stop offset="0" stop-color="#fdf53f"/>
      <stop offset="1" stop-color="#d93c65"/>
    </linearGradient>
    <linearGradient id="linear-gradient-15" x1="190.38" y1="166.73" x2="255.28" y2="-64.63" xlink:href="#linear-gradient-13"/>
    <linearGradient id="linear-gradient-16" x1="251.1" y1="103.29" x2="195.37" y2="156.18" xlink:href="#linear-gradient-14"/>
    <linearGradient id="linear-gradient-17" x1="287.06" y1="106.5" x2="237.59" y2="153.45" xlink:href="#linear-gradient-14"/>
    <linearGradient id="linear-gradient-18" x1="327.13" y1="106.6" x2="277.66" y2="153.55" xlink:href="#linear-gradient-14"/>
    <linearGradient id="linear-gradient-19" x1="169.07" y1="181.26" x2="170.87" y2="306.1" xlink:href="#linear-gradient-14"/>
    <linearGradient id="linear-gradient-20" x1="217.4" y1="209.28" x2="218.37" y2="276.6" xlink:href="#linear-gradient-14"/>
    <linearGradient id="linear-gradient-21" x1="226.49" y1="218.74" x2="227.12" y2="263" xlink:href="#linear-gradient-14"/>
    <linearGradient id="linear-gradient-22" x1="235.31" y1="195.37" x2="236.77" y2="296.63" xlink:href="#linear-gradient-14"/>
    <linearGradient id="linear-gradient-23" x1="244.57" y1="226.84" x2="244.93" y2="251.33" xlink:href="#linear-gradient-14"/>
    <linearGradient id="linear-gradient-24" x1="253.38" y1="200.91" x2="254.64" y2="288.66" xlink:href="#linear-gradient-14"/>
    <linearGradient id="linear-gradient-25" x1="262.44" y1="207.12" x2="263.48" y2="279.72" xlink:href="#linear-gradient-14"/>
    <linearGradient id="linear-gradient-26" x1="271.5" y1="213.88" x2="272.31" y2="269.99" xlink:href="#linear-gradient-14"/>
    <linearGradient id="linear-gradient-27" x1="280.29" y1="187" x2="282.04" y2="308.68" xlink:href="#linear-gradient-14"/>
    <linearGradient id="linear-gradient-28" x1="289.35" y1="192.26" x2="290.91" y2="301.1" xlink:href="#linear-gradient-14"/>
    <linearGradient id="linear-gradient-29" x1="298.42" y1="200.23" x2="299.7" y2="289.63" xlink:href="#linear-gradient-14"/>
    <linearGradient id="linear-gradient-30" x1="307.65" y1="227.77" x2="307.97" y2="250" xlink:href="#linear-gradient-14"/>
    <linearGradient id="linear-gradient-31" x1="316.52" y1="210.23" x2="317.45" y2="275.24" xlink:href="#linear-gradient-14"/>
    <linearGradient id="linear-gradient-32" x1="140.91" y1="120.6" x2="37.43" y2="199.39" xlink:href="#linear-gradient-5"/>
    <linearGradient id="linear-gradient-33" x1="36.3" y1="222.22" x2="154.26" y2="81.39" xlink:href="#linear-gradient-14"/>
    <linearGradient id="linear-gradient-34" x1="79.51" y1="164.61" x2="109.58" y2="57.4" xlink:href="#linear-gradient-5"/>
    <linearGradient id="linear-gradient-35" x1="65.25" y1="144.28" x2="33.62" y2="182.14" gradientTransform="matrix(1, 0, 0, 1, 0, 0)" xlink:href="#linear-gradient-3"/>
    <linearGradient id="linear-gradient-36" x1="89.66" y1="171.22" x2="82.36" y2="178.33" gradientTransform="translate(-5.42 -28.83) rotate(.38)" xlink:href="#linear-gradient-13"/>
    <linearGradient id="linear-gradient-37" x1="87.52" y1="172.37" x2="78.04" y2="186.68" gradientTransform="translate(-5.42 -28.83) rotate(.38)" xlink:href="#linear-gradient-13"/>
    <linearGradient id="linear-gradient-38" x1="77.07" y1="146.48" x2="77.1" y2="146.48" xlink:href="#linear-gradient-13"/>
    <linearGradient id="linear-gradient-39" x1="77.3" y1="145.19" x2="79.6" y2="145.19" xlink:href="#linear-gradient-13"/>
    <linearGradient id="linear-gradient-40" x1="89.75" y1="185.7" x2="82.45" y2="192.81" gradientTransform="translate(-5.42 -28.83) rotate(.38)" xlink:href="#linear-gradient-13"/>
    <linearGradient id="linear-gradient-41" x1="87.61" y1="186.85" x2="78.14" y2="201.16" gradientTransform="translate(-5.42 -28.83) rotate(.38)" xlink:href="#linear-gradient-13"/>
    <linearGradient id="linear-gradient-42" x1="77.07" y1="160.96" x2="77.1" y2="160.96" xlink:href="#linear-gradient-13"/>
    <linearGradient id="linear-gradient-43" x1="77.3" y1="159.67" x2="79.6" y2="159.67" xlink:href="#linear-gradient-13"/>
    <linearGradient id="linear-gradient-44" x1="89.85" y1="200.19" x2="82.55" y2="207.29" gradientTransform="translate(-5.42 -28.83) rotate(.38)" xlink:href="#linear-gradient-13"/>
    <linearGradient id="linear-gradient-45" x1="87.71" y1="201.33" x2="78.23" y2="215.65" gradientTransform="translate(-5.42 -28.83) rotate(.38)" xlink:href="#linear-gradient-13"/>
    <linearGradient id="linear-gradient-46" x1="77.07" y1="175.44" x2="77.1" y2="175.44" xlink:href="#linear-gradient-13"/>
    <linearGradient id="linear-gradient-47" x1="77.3" y1="174.15" x2="79.6" y2="174.15" xlink:href="#linear-gradient-13"/>
    <linearGradient id="linear-gradient-48" x1="103.38" y1="168.03" x2="45.15" y2="259.34" gradientTransform="matrix(1, 0, 0, 1, 0, 0)" xlink:href="#linear-gradient-3"/>
    <linearGradient id="linear-gradient-49" x1="3692.17" y1="656.02" x2="3747.58" y2="656.02" gradientTransform="translate(1855.07 -3251.55) rotate(106.36)" xlink:href="#linear-gradient-3"/>
    <linearGradient id="linear-gradient-50" x1="3663.02" y1="631.61" x2="3691.49" y2="631.61" gradientTransform="translate(1855.07 -3251.55) rotate(106.36)" xlink:href="#linear-gradient-3"/>
    <linearGradient id="linear-gradient-51" x1="12284.93" y1="211.47" x2="12202.04" y2="305.85" gradientTransform="translate(-12131.69)" xlink:href="#linear-gradient-13"/>
    <linearGradient id="linear-gradient-52" x1="12277.08" y1="204.58" x2="12194.19" y2="298.96" gradientTransform="translate(-12131.69)" xlink:href="#linear-gradient-13"/>
    <linearGradient id="linear-gradient-53" x1="12221.56" y1="228.53" x2="12248.81" y2="228.53" gradientTransform="translate(-12131.69)" gradientUnits="userSpaceOnUse">
      <stop offset="0" stop-color="#9cfffb"/>
      <stop offset="1" stop-color="#9bfffa"/>
    </linearGradient>
    <linearGradient id="linear-gradient-54" x1="12237.76" x2="12265.02" xlink:href="#linear-gradient-53"/>
    <linearGradient id="linear-gradient-55" x1="12246.17" y1="197.52" x2="12271.64" y2="197.52" xlink:href="#linear-gradient-53"/>
    <linearGradient id="linear-gradient-56" x1="12243.78" y1="207.11" x2="12261.05" y2="207.11" xlink:href="#linear-gradient-53"/>
    <linearGradient id="linear-gradient-57" x1="12239.31" y1="218.78" x2="12255.55" y2="218.78" xlink:href="#linear-gradient-53"/>
    <linearGradient id="linear-gradient-58" x1="12234.48" y1="230.45" x2="12250.73" y2="230.45" xlink:href="#linear-gradient-53"/>
    <linearGradient id="linear-gradient-59" x1="12228.9" y1="242.12" x2="12246.18" y2="242.12" xlink:href="#linear-gradient-53"/>
    <linearGradient id="linear-gradient-60" x1="12224.01" y1="253.79" x2="12241.29" y2="253.79" xlink:href="#linear-gradient-53"/>
    <linearGradient id="linear-gradient-61" x1="7404.39" y1="253.43" x2="7410.96" y2="253.43" gradientTransform="translate(-7366.62)" xlink:href="#linear-gradient-13"/>
    <linearGradient id="linear-gradient-62" x1="7420.84" y1="245.68" x2="7396.93" y2="264.45" gradientTransform="translate(-7366.62)" xlink:href="#linear-gradient-5"/>
    <linearGradient id="linear-gradient-63" x1="7395.57" y1="208.35" x2="7404.34" y2="208.35" gradientTransform="translate(-7366.62)" gradientUnits="userSpaceOnUse">
      <stop offset="0" stop-color="#f9b776"/>
      <stop offset="1" stop-color="#f47960"/>
    </linearGradient>
    <linearGradient id="linear-gradient-64" x1="7406.21" y1="245.95" x2="7404.96" y2="256.9" xlink:href="#linear-gradient-63"/>
    <linearGradient id="linear-gradient-65" x1="7425.08" y1="251.09" x2="7401.18" y2="269.86" gradientTransform="translate(-7366.62)" xlink:href="#linear-gradient-5"/>
    <linearGradient id="linear-gradient-66" x1="7414.39" y1="253.6" x2="7423.85" y2="253.6" gradientTransform="translate(-7366.62)" xlink:href="#linear-gradient-13"/>
    <linearGradient id="linear-gradient-67" x1="7416.44" y1="247.12" x2="7415.18" y2="258.07" xlink:href="#linear-gradient-63"/>
    <linearGradient id="linear-gradient-68" x1="7431.35" y1="197.03" x2="7391.21" y2="259.32" gradientTransform="translate(-7366.62)" xlink:href="#linear-gradient-13"/>
    <linearGradient id="linear-gradient-69" x1="7418.74" y1="170.5" x2="7381.36" y2="252.52" gradientTransform="translate(-7366.62)" xlink:href="#linear-gradient-5"/>
    <linearGradient id="linear-gradient-70" x1="7436.55" y1="162.76" x2="7427.81" y2="175.09" xlink:href="#linear-gradient-63"/>
    <linearGradient id="linear-gradient-71" x1="7432.85" y1="160.13" x2="7424.11" y2="172.46" xlink:href="#linear-gradient-63"/>
    <linearGradient id="linear-gradient-72" x1="7408.99" y1="175.08" x2="7404.19" y2="195.79" xlink:href="#linear-gradient-63"/>
    <linearGradient id="linear-gradient-73" x1="3212.42" y1="4298.89" x2="3203.92" y2="4310.14" gradientTransform="translate(-5290.24 -436.42) rotate(-46.73)" xlink:href="#linear-gradient-63"/>
    <linearGradient id="linear-gradient-74" x1="3205.93" y1="4301.59" x2="3216.09" y2="4301.59" gradientTransform="translate(-5290.24 -436.42) rotate(-46.73)" xlink:href="#linear-gradient-13"/>
    <linearGradient id="linear-gradient-75" x1="3199.97" y1="4307.8" x2="3206.79" y2="4300.8" gradientTransform="translate(-5290.24 -436.42) rotate(-46.73)" xlink:href="#linear-gradient-63"/>
    <linearGradient id="linear-gradient-76" x1="7404.95" y1="179.82" x2="7395.03" y2="198.05" gradientTransform="translate(-7366.62)" xlink:href="#linear-gradient-5"/>
    <linearGradient id="linear-gradient-77" x1="7408.84" y1="213.76" x2="7405.47" y2="219.75" gradientTransform="translate(-7366.62)" xlink:href="#linear-gradient-13"/>
    <linearGradient id="linear-gradient-78" x1="1294.21" y1="241.44" x2="1260.08" y2="278.56" gradientTransform="translate(1637.94) rotate(-180) scale(1 -1)" xlink:href="#linear-gradient-13"/>
    <linearGradient id="linear-gradient-79" x1="1283.13" y1="244.2" x2="1286.16" y2="244.2" gradientTransform="translate(1637.94) rotate(-180) scale(1 -1)" xlink:href="#linear-gradient-63"/>
    <linearGradient id="linear-gradient-80" x1="1296.89" y1="199.46" x2="1267.86" y2="238.82" gradientTransform="translate(1637.94) rotate(-180) scale(1 -1)" xlink:href="#linear-gradient-13"/>
    <linearGradient id="linear-gradient-81" x1="1286.55" y1="234.4" x2="1252.43" y2="271.52" gradientTransform="translate(1637.94) rotate(-180) scale(1 -1)" xlink:href="#linear-gradient-13"/>
    <linearGradient id="linear-gradient-82" x1="1272.21" y1="244.04" x2="1274.82" y2="244.04" gradientTransform="translate(1637.94) rotate(-180) scale(1 -1)" xlink:href="#linear-gradient-63"/>
    <linearGradient id="linear-gradient-83" x1="1291.72" y1="195.65" x2="1262.68" y2="235" gradientTransform="translate(1637.94) rotate(-180) scale(1 -1)" xlink:href="#linear-gradient-13"/>
    <linearGradient id="linear-gradient-84" x1="352.16" y1="167.06" x2="367.08" y2="247.59" xlink:href="#linear-gradient-14"/>
    <linearGradient id="linear-gradient-85" x1="329.24" y1="147.08" x2="334.59" y2="162.36" gradientTransform="matrix(1, 0, 0, 1, 0, 0)" xlink:href="#linear-gradient-63"/>
    <linearGradient id="linear-gradient-86" x1="324.67" y1="148.68" x2="330.02" y2="163.96" gradientTransform="matrix(1, 0, 0, 1, 0, 0)" xlink:href="#linear-gradient-63"/>
    <linearGradient id="linear-gradient-87" x1="328.78" y1="158.44" x2="324.75" y2="150.31" gradientTransform="matrix(1, 0, 0, 1, 0, 0)" xlink:href="#linear-gradient-63"/>
    <linearGradient id="linear-gradient-88" x1="367.22" y1="164.27" x2="382.14" y2="244.8" xlink:href="#linear-gradient-14"/>
    <linearGradient id="linear-gradient-89" x1="1261.72" y1="187.05" x2="1281.31" y2="187.05" gradientTransform="translate(1637.94) rotate(-180) scale(1 -1)" xlink:href="#linear-gradient-63"/>
    <linearGradient id="linear-gradient-90" x1="1287.24" y1="173.12" x2="1298.02" y2="218.02" gradientTransform="translate(1637.94) rotate(-180) scale(1 -1)" xlink:href="#linear-gradient-53"/>
    <linearGradient id="linear-gradient-91" x1="1293.99" y1="166.04" x2="1291.7" y2="176.12" gradientTransform="translate(1637.94) rotate(-180) scale(1 -1)" xlink:href="#linear-gradient-5"/>
    <linearGradient id="linear-gradient-92" x1="1292.79" y1="170.27" x2="1291.69" y2="176.86" gradientTransform="translate(1637.94) rotate(-180) scale(1 -1)" xlink:href="#linear-gradient-5"/>
    <linearGradient id="linear-gradient-93" x1="1279.86" y1="185" x2="1285.97" y2="185" gradientTransform="translate(1637.94) rotate(-180) scale(1 -1)" xlink:href="#linear-gradient-63"/>
    <linearGradient id="linear-gradient-94" x1="1276.77" y1="166.1" x2="1284.51" y2="166.1" gradientTransform="translate(1637.94) rotate(-180) scale(1 -1)" xlink:href="#linear-gradient-63"/>
    <linearGradient id="linear-gradient-95" x1="-5074.36" y1="-1162.62" x2="-5077.25" y2="-1172.17" gradientTransform="translate(-4208.08 -2350.52) rotate(-138.25) scale(1 -1)" xlink:href="#linear-gradient-63"/>
    <linearGradient id="linear-gradient-96" x1="-5076.97" y1="-1179.26" x2="-5074.55" y2="-1165.45" gradientTransform="translate(-4208.08 -2350.52) rotate(-138.25) scale(1 -1)" xlink:href="#linear-gradient-13"/>
    <linearGradient id="linear-gradient-97" x1="-5077.32" y1="-1162.67" x2="-5079.92" y2="-1171.26" gradientTransform="translate(-4208.08 -2350.52) rotate(-138.25) scale(1 -1)" xlink:href="#linear-gradient-63"/>
    <linearGradient id="linear-gradient-98" x1="11804.54" y1="-3978.31" x2="11769.68" y2="-3999.43" gradientTransform="translate(12997.34 2771.04) rotate(175.86) scale(1 -.91) skewX(-10.13)" xlink:href="#linear-gradient-5"/>
    <linearGradient id="linear-gradient-99" x1="282.01" y1="56.81" x2="289.81" y2="-16.2" xlink:href="#linear-gradient-5"/>
    <linearGradient id="linear-gradient-100" x1="11801.99" y1="-3978.66" x2="11769.43" y2="-3998.39" gradientTransform="translate(12997.34 2771.04) rotate(175.86) scale(1 -.91) skewX(-10.13)" xlink:href="#linear-gradient-5"/>
    <linearGradient id="linear-gradient-101" x1="-15651.58" y1="-3569.22" x2="-15636.69" y2="-3573.53" gradientTransform="translate(16137.23 2480.05) rotate(-4.14)" xlink:href="#linear-gradient-5"/>
    <linearGradient id="linear-gradient-102" x1="310.28" y1="-472" x2="301.34" y2="-453.56" gradientTransform="translate(-170.85 603.24) rotate(9.25)" xlink:href="#linear-gradient-13"/>
    <linearGradient id="linear-gradient-103" x1="198.11" y1="215.5" x2="200.96" y2="301.64" xlink:href="#linear-gradient-5"/>
    <linearGradient id="linear-gradient-104" x1="181.63" y1="223.53" x2="200.5" y2="269.1" gradientUnits="userSpaceOnUse">
      <stop offset="0" stop-color="#c4421b"/>
      <stop offset="1" stop-color="#5c0e16"/>
    </linearGradient>
    <linearGradient id="linear-gradient-105" x1="280.51" y1="223.43" x2="299.38" y2="269.01" gradientTransform="translate(495.59) rotate(-180) scale(1 -1)" xlink:href="#linear-gradient-104"/>
    <linearGradient id="linear-gradient-106" x1="198.38" y1="229.64" x2="197.42" y2="268.5" xlink:href="#linear-gradient-13"/>
    <linearGradient id="linear-gradient-107" x1="209.09" y1="252.76" x2="219.4" y2="252.76" gradientTransform="translate(2.57 -1.05) rotate(.44)" gradientUnits="userSpaceOnUse">
      <stop offset="0" stop-color="#2c759e"/>
      <stop offset="1" stop-color="#051042"/>
    </linearGradient>
    <linearGradient id="linear-gradient-108" x1="226.7" y1="222.13" x2="217.64" y2="222.02" gradientTransform="translate(-3.7 29.66) rotate(.44)" gradientUnits="userSpaceOnUse">
      <stop offset="0" stop-color="#53eac9"/>
      <stop offset="1" stop-color="#45aed8"/>
    </linearGradient>
    <linearGradient id="linear-gradient-109" x1="216.52" y1="234.73" x2="205.63" y2="264.21" xlink:href="#linear-gradient-104"/>
    <linearGradient id="linear-gradient-110" x1="226.72" y1="221.74" x2="217.66" y2="221.63" xlink:href="#linear-gradient-108"/>
    <linearGradient id="linear-gradient-111" x1="226.68" y1="221.68" x2="217.67" y2="221.57" xlink:href="#linear-gradient-108"/>
    <linearGradient id="linear-gradient-112" x1="254.26" y1="32.32" x2="245.15" y2="32.21" gradientTransform="translate(-30.71 206.87) rotate(3.23)" xlink:href="#linear-gradient-108"/>
    <linearGradient id="linear-gradient-113" x1="254.17" y1="32.26" x2="245.21" y2="32.15" gradientTransform="translate(-30.71 206.87) rotate(3.23)" xlink:href="#linear-gradient-108"/>
    <linearGradient id="linear-gradient-114" x1="-359.93" y1="250.57" x2="-349.61" y2="250.57" gradientTransform="translate(-170.16 -4.45) rotate(-178.85) scale(1 -1)" xlink:href="#linear-gradient-107"/>
    <linearGradient id="linear-gradient-115" x1="-8363.54" y1="170.48" x2="-8372.56" y2="170.37" gradientTransform="translate(-8185.35 -84.56) rotate(-178.85) scale(1 -1)" xlink:href="#linear-gradient-108"/>
    <linearGradient id="linear-gradient-116" x1="194.71" y1="225.85" x2="183.82" y2="255.34" xlink:href="#linear-gradient-104"/>
    <linearGradient id="linear-gradient-117" x1="-8363.54" y1="170.1" x2="-8372.56" y2="170" gradientTransform="translate(-8185.35 -84.56) rotate(-178.85) scale(1 -1)" xlink:href="#linear-gradient-108"/>
    <linearGradient id="linear-gradient-118" x1="-8363.52" y1="170.04" x2="-8372.56" y2="169.93" gradientTransform="translate(-8185.35 -84.56) rotate(-178.85) scale(1 -1)" xlink:href="#linear-gradient-108"/>
    <linearGradient id="linear-gradient-119" x1="-8328.01" y1="398.77" x2="-8337.09" y2="398.66" gradientTransform="translate(-8163.07 94.34) rotate(178.35) scale(1 -1)" xlink:href="#linear-gradient-108"/>
    <linearGradient id="linear-gradient-120" x1="-8328.06" y1="398.71" x2="-8337.05" y2="398.6" gradientTransform="translate(-8163.07 94.34) rotate(178.35) scale(1 -1)" xlink:href="#linear-gradient-108"/>
    <linearGradient id="linear-gradient-121" x1="221.13" y1="234.16" x2="192.84" y2="255.41" gradientUnits="userSpaceOnUse">
      <stop offset="0" stop-color="#7c27dd"/>
      <stop offset="1" stop-color="#2b41d9"/>
    </linearGradient>
    <linearGradient id="linear-gradient-122" x1="195.54" y1="253.22" x2="188.13" y2="234.31" xlink:href="#linear-gradient-121"/>
    <linearGradient id="linear-gradient-123" x1="198.19" y1="227.29" x2="197.94" y2="205.45" xlink:href="#linear-gradient-104"/>
    <linearGradient id="linear-gradient-124" x1="224.55" y1="211.22" x2="225.33" y2="192.21" gradientTransform="translate(9.8 -29.42) rotate(9.25)" xlink:href="#linear-gradient-104"/>
    <linearGradient id="linear-gradient-125" x1="310.35" y1="-474.6" x2="300.28" y2="-453.85" gradientTransform="translate(-170.85 603.24) rotate(9.25)" xlink:href="#linear-gradient-13"/>
    <linearGradient id="linear-gradient-126" x1="60.15" y1="141.5" x2="61.37" y2="111.71" gradientTransform="translate(116.51 85.4) rotate(-7.64)" xlink:href="#linear-gradient-104"/>
    <linearGradient id="linear-gradient-127" x1="198.28" y1="226.38" x2="197.64" y2="256.72" gradientUnits="userSpaceOnUse">
      <stop offset="0" stop-color="#53d8ff"/>
      <stop offset="1" stop-color="#3840f7"/>
    </linearGradient>
    <linearGradient id="linear-gradient-128" x1="250.17" y1="161.83" x2="317.76" y2="258.53" xlink:href="#linear-gradient-5"/>
  </defs>
  <path d="M394.89,178.3c-6.05-15.25-24.18-24.07-27.63-40.12-3.23-15.01,7.66-28.87,15.11-42.3,4.96-8.96,8.63-18.88,8.73-29.12,.1-10.24-3.74-20.83-11.64-27.33-10.35-8.52-25.18-8.6-38.45-6.7-13.27,1.9-26.8,5.36-39.88,2.43-11.26-2.51-21.02-9.54-32.09-12.78-16.48-4.83-34.31-.85-50.28,5.47-15.97,6.32-31.05,14.95-47.49,19.92-21.97,6.64-45.98,6.38-67.81-.73-11.03-3.6-21.49-8.88-32.65-12.04-11.17-3.16-23.6-4.02-34.01,1.11-12.55,6.18-19.88,20.25-20.95,34.19-1.07,13.95,3.25,27.78,9.04,40.51,3.1,6.83,6.67,13.53,8.36,20.84,1.69,7.31,1.26,15.51-3.13,21.59-4.23,5.86-11.37,8.84-16.67,13.76-11.15,10.35-12.38,28.63-5.36,42.13,7.02,13.49,20.74,22.5,35.23,27.14,14.49,4.63,29.88,5.41,45.07,6.16l-.1,2.69c77.15-3.05,154.3-6.1,231.45-9.15,18.62-.74,38.05-1.69,54.25-10.9,16.2-9.21,27.78-29.43,20.91-46.75Z" style="fill: url(#linear-gradient); opacity: .5;"/>
  <g style="opacity: .4;">
    <path d="M195.92,128.05s-2.14-24.93,21.01-44.07c22.5-18.61,57.34-38.9,51.31-72.79-.2-1.14-1.67-1.49-2.37-.57-4.12,5.48-15.2,19.2-29.83,29.12-18.67,12.66-57.17,52.45-40.13,88.3Z" style="fill: url(#linear-gradient-2);"/>
    <path d="M264.31,23.47v.18s-.02,.13-.02,.13c0,.09-.02,.17-.03,.25-.02,.16-.04,.32-.07,.48-.05,.32-.1,.63-.16,.93-.12,.62-.27,1.22-.43,1.81-.33,1.19-.73,2.36-1.18,3.5-.9,2.29-2.04,4.47-3.35,6.54-1.32,2.06-2.8,4.01-4.42,5.84-1.62,1.83-3.39,3.5-5.26,5.06-1.86,1.56-3.84,2.98-5.87,4.29l-1.54,.96-1.57,.91c-1.03,.6-2.05,1.14-3.06,1.75-4.04,2.38-7.91,5.06-11.6,7.96-3.69,2.9-7.2,6.05-10.5,9.41-1.65,1.68-3.24,3.41-4.79,5.19-1.53,1.79-3,3.63-4.4,5.52-1.39,1.9-2.71,3.86-3.95,5.86-1.23,2.01-2.37,4.08-3.42,6.19-1.05,2.12-1.96,4.3-2.74,6.53-.78,2.23-1.43,4.51-1.9,6.84,.35-2.35,.89-4.67,1.58-6.94,.69-2.28,1.51-4.52,2.48-6.69,.96-2.18,2.02-4.32,3.2-6.39,1.18-2.07,2.45-4.1,3.79-6.07,1.36-1.96,2.78-3.88,4.27-5.75,1.5-1.86,3.05-3.67,4.68-5.43,3.26-3.5,6.74-6.79,10.42-9.84,3.68-3.05,7.56-5.88,11.63-8.43,.5-.33,1.02-.63,1.53-.94l1.53-.92,1.49-.9,1.46-.95c1.93-1.29,3.78-2.68,5.55-4.18,3.52-3,6.63-6.45,9.11-10.32,.61-.97,1.2-1.96,1.72-2.97,.53-1.01,1.03-2.04,1.46-3.1,.44-1.05,.82-2.13,1.14-3.22,.16-.54,.3-1.09,.43-1.64,.06-.27,.12-.55,.17-.81,.02-.13,.05-.27,.07-.4l.03-.19,.02-.13,.02-.16c.09-.68,.71-1.16,1.39-1.07,.65,.08,1.11,.66,1.08,1.3Z" style="fill: #fff; opacity: .47;"/>
  </g>
  <g style="opacity: .74;">
    <path d="M226.6,.66c.28-.89,1.55-.87,1.83,.01,2.84,9,7.79,33.97-12.35,61.45-25.27,34.48-25.13,52.31-20.16,65.93,0,0-11.01-11.27-11.61-29.62-1.49-45.06,37.23-82.04,42.29-97.78Z" style="fill: url(#linear-gradient-3);"/>
    <path d="M225.25,14.87c-.1,2.04-.44,4-.86,5.96l-.15,.74-.18,.73-.35,1.46c-.26,.97-.53,1.93-.8,2.89-1.16,3.83-2.62,7.57-4.23,11.23-1.57,3.68-3.47,7.21-5.38,10.73l-1.51,2.59-.76,1.3-.38,.65-.4,.63-3.19,5.06c-4.26,6.59-7.82,13.63-10.73,20.93-1.47,3.64-2.79,7.35-3.92,11.11-.29,.94-.56,1.88-.84,2.82-.27,.94-.52,1.89-.77,2.84-.23,.95-.48,1.9-.69,2.86-.23,.95-.43,1.92-.6,2.84v.04c-.13,.68-.79,1.12-1.46,.99-.66-.13-1.1-.76-1-1.42,.32-2.04,.74-3.98,1.21-5.94,.24-.97,.48-1.95,.74-2.92,.27-.97,.53-1.94,.81-2.9,1.14-3.85,2.48-7.63,3.98-11.35,.72-1.87,1.55-3.7,2.37-5.53,.42-.91,.88-1.81,1.31-2.71l.66-1.35c.22-.45,.47-.89,.7-1.33l1.42-2.65c.48-.88,1.01-1.73,1.51-2.6,.99-1.75,2.11-3.42,3.2-5.1,.55-.85,1.09-1.66,1.64-2.48l1.64-2.46,.41-.62,.39-.63,.78-1.26,1.56-2.51,1.47-2.56c.49-.86,.99-1.7,1.44-2.58l1.38-2.61c.47-.87,.88-1.76,1.32-2.64,1.73-3.54,3.31-7.16,4.61-10.88l.95-2.8,.42-1.41,.21-.71,.19-.71c.12-.48,.26-.95,.37-1.43l.33-1.44c.19-.96,.4-1.94,.5-2.89v-.02c.02-.18,.18-.32,.37-.3,.18,.02,.31,.17,.3,.35Z" style="fill: #fff; opacity: .47;"/>
  </g>
  <g style="opacity: .75;">
    <path d="M15.88,50.89c16.33,14.8,54.89,59.74,49.62,150.67,0,0-69.97-61.71-58.18-147.54,.56-4.11,5.48-5.92,8.56-3.13Z" style="fill: url(#linear-gradient-4);"/>
    <path d="M21.45,75.08c.23,2.35,.53,4.75,.86,7.12,.33,2.38,.69,4.75,1.09,7.12,.79,4.74,1.69,9.46,2.71,14.16,2.04,9.4,4.48,18.71,7.45,27.86,.72,2.29,1.52,4.56,2.31,6.84l1.24,3.39c.41,1.13,.84,2.25,1.28,3.37,.44,1.12,.86,2.25,1.33,3.35l1.39,3.33c.46,1.11,.97,2.2,1.45,3.3l.73,1.65,.77,1.63c2.01,4.37,4.27,8.63,6.62,12.82l1.82,3.12c.61,1.04,1.27,2.04,1.9,3.07l.96,1.53c.32,.51,.67,1,1,1.5l2.03,2.99h0c.06,.09,.04,.21-.05,.27-.09,.06-.21,.04-.27-.05l-2.09-2.96c-.34-.5-.7-.98-1.03-1.49l-.99-1.52c-.65-1.02-1.34-2.01-1.97-3.04l-1.88-3.1c-2.44-4.17-4.78-8.4-6.88-12.75l-.8-1.63-.77-1.64c-.5-1.1-1.03-2.19-1.52-3.29l-1.45-3.32c-.49-1.1-.93-2.23-1.4-3.35-.46-1.12-.92-2.23-1.35-3.36l-1.31-3.38c-.83-2.27-1.67-4.54-2.44-6.83-3.15-9.14-5.78-18.47-8-27.88-1.11-4.71-2.1-9.45-2.99-14.21-.44-2.38-.85-4.77-1.23-7.16-.37-2.4-.72-4.78-1.01-7.22-.08-.68,.41-1.3,1.09-1.38,.68-.08,1.3,.41,1.38,1.09,0,0,0,.01,0,.02v.03Z" style="fill: #fff; opacity: .54;"/>
  </g>
  <g>
    <path d="M44.98,158.17h86.54c2.76,0,5-2.24,5-5V23.55c0-2.75-2.23-4.99-4.98-5l-87.23-.23c-2.78,0-5.02,2.25-5.01,5.02l.69,129.85c.01,2.75,2.25,4.97,5,4.97Z" style="fill: url(#linear-gradient-5);"/>
    <path d="M49.22,24.72l77.38,.48c2.8,.02,5.05,2.3,5.04,5.09l-.54,116.34c-.01,2.75-2.22,5-4.98,5.05l-75.19,1.37c-2.81,.05-5.12-2.19-5.16-5l-1.66-118.18c-.04-2.84,2.26-5.16,5.1-5.14Z" style="fill: url(#linear-gradient-6);"/>
    <rect x="52.36" y="29.72" width="62.66" height="3.57" rx="1.52" ry="1.52" style="fill: #fff; opacity: .6;"/>
    <path d="M59.01,37.95h0c.04,.79,.69,1.42,1.49,1.43l52.14,.95c.85,.02,1.54-.67,1.54-1.52v-.12c0-.83-.66-1.5-1.49-1.52l-52.14-.83c-.88-.01-1.59,.72-1.54,1.6Z" style="fill: #fff; opacity: .6;"/>
    <path d="M53.69,149.07c-2.35,0-4.28-1.89-4.32-4.24l-1.69-95.15c-.04-2.38,1.86-4.35,4.24-4.4l70.4-1.37c1.15-.02,2.25,.41,3.08,1.21,.83,.8,1.3,1.88,1.32,3.03l1.81,95.67c.02,1.16-.41,2.26-1.22,3.09-.81,.83-1.89,1.3-3.05,1.31l-70.52,.85s-.03,0-.05,0Zm-4.57-99.42l1.69,95.15c.03,1.58,1.35,2.85,2.92,2.83l70.52-.85c.77,0,1.5-.32,2.04-.88,.54-.56,.83-1.29,.81-2.06l-1.81-95.67c-.01-.77-.33-1.49-.88-2.02-.56-.53-1.29-.82-2.06-.81l-70.4,1.37c-1.59,.03-2.86,1.35-2.83,2.93h0Z" style="fill: #fff; opacity: .61;"/>
    <path d="M126.12,54.92H49.31c-.4,0-.72-.32-.72-.72s.32-.72,.72-.72H126.12c.4,0,.72,.32,.72,.72s-.32,.72-.72,.72Z" style="fill: #fff; opacity: .61;"/>
  </g>
  <g>
    <path d="M44.98,158.17h86.54c2.76,0,5-2.24,5-5V23.55c0-2.75-2.23-4.99-4.98-5l-87.23-.23c-2.78,0-5.02,2.25-5.01,5.02l.69,129.85c.01,2.75,2.25,4.97,5,4.97Z" style="fill: url(#linear-gradient-5);"/>
    <path d="M49.22,24.72l77.38,.48c2.8,.02,5.05,2.3,5.04,5.09l-.54,116.34c-.01,2.75-2.22,5-4.98,5.05l-75.19,1.37c-2.81,.05-5.12-2.19-5.16-5l-1.66-118.18c-.04-2.84,2.26-5.16,5.1-5.14Z" style="fill: url(#linear-gradient-7);"/>
    <rect x="52.36" y="29.72" width="62.66" height="3.57" rx="1.52" ry="1.52" style="fill: #fff; opacity: .6;"/>
    <path d="M59.01,37.95h0c.04,.79,.69,1.42,1.49,1.43l52.14,.95c.85,.02,1.54-.67,1.54-1.52v-.12c0-.83-.66-1.5-1.49-1.52l-52.14-.83c-.88-.01-1.59,.72-1.54,1.6Z" style="fill: #fff; opacity: .6;"/>
    <path d="M53.69,149.07c-2.35,0-4.28-1.89-4.32-4.24l-1.69-95.15c-.04-2.38,1.86-4.35,4.24-4.4l70.4-1.37c1.15-.02,2.25,.41,3.08,1.21,.83,.8,1.3,1.88,1.32,3.03l1.81,95.67c.02,1.16-.41,2.26-1.22,3.09-.81,.83-1.89,1.3-3.05,1.31l-70.52,.85s-.03,0-.05,0Zm-4.57-99.42l1.69,95.15c.03,1.58,1.35,2.85,2.92,2.83l70.52-.85c.77,0,1.5-.32,2.04-.88,.54-.56,.83-1.29,.81-2.06l-1.81-95.67c-.01-.77-.33-1.49-.88-2.02-.56-.53-1.29-.82-2.06-.81l-70.4,1.37c-1.59,.03-2.86,1.35-2.83,2.93h0Z" style="fill: #fff; opacity: .61;"/>
    <path d="M126.12,54.92H49.31c-.4,0-.72-.32-.72-.72s.32-.72,.72-.72H126.12c.4,0,.72,.32,.72,.72s-.32,.72-.72,.72Z" style="fill: #fff; opacity: .61;"/>
  </g>
  <g>
    <path d="M186.54,135.14H100c-2.76,0-5-2.24-5-5V46.58c0-2.75,2.23-4.99,4.98-5l87.23-.23c2.78,0,5.02,2.25,5.01,5.02l-.69,83.79c-.01,2.75-2.25,4.97-5,4.97Z" style="fill: url(#linear-gradient-8);"/>
    <path d="M182.3,47.75l-77.38,.48c-2.8,.02-5.05,2.3-5.04,5.09l.54,70.28c.01,2.75,2.22,5,4.98,5.05l75.19,1.37c2.81,.05,5.12-2.19,5.16-5l1.66-72.13c.04-2.84-2.26-5.16-5.1-5.14Z" style="fill: #fff; opacity: .6;"/>
    <rect x="116.5" y="52.75" width="62.66" height="3.57" rx="1.52" ry="1.52" style="fill: #fff; opacity: .6;"/>
    <path d="M172.5,60.98h0c-.04,.79-.69,1.42-1.49,1.43l-52.14,.95c-.85,.02-1.54-.67-1.54-1.52v-.12c0-.83,.66-1.5,1.49-1.52l52.14-.83c.88-.01,1.59,.72,1.54,1.6Z" style="fill: #fff; opacity: .6;"/>
    <path d="M177.82,126.04s-.03,0-.05,0l-70.52-.85c-1.16-.01-2.24-.48-3.05-1.31-.81-.83-1.24-1.93-1.22-3.09l1.82-49.63c.02-1.14,.49-2.22,1.32-3.02,.83-.8,1.92-1.23,3.08-1.21l70.4,1.37c2.38,.05,4.28,2.02,4.24,4.4,0,0,0,0,0,.01l-1.69,49.09c-.04,2.34-1.97,4.23-4.32,4.23Zm-68.71-57.67c-.75,0-1.46,.28-2,.81-.56,.53-.87,1.25-.88,2.02l-1.82,49.63c-.01,.76,.27,1.49,.81,2.05,.54,.56,1.26,.87,2.04,.88l70.52,.85c1.56,.01,2.89-1.25,2.92-2.83l1.69-49.1c.03-1.58-1.24-2.9-2.83-2.93l-70.4-1.37s-.04,0-.06,0Zm74.01,4.32h0Z" style="fill: #fff;"/>
    <path d="M182.2,77.95H105.39c-.4,0-.72-.32-.72-.72s.32-.72,.72-.72h76.81c.4,0,.72,.32,.72,.72s-.32,.72-.72,.72Z" style="fill: #fff;"/>
  </g>
  <g>
    <path d="M405.86,95.45c.09-1.27-1.59-1.82-2.27-.74-6.52,10.48-24.48,37.44-43.42,49.01-30.84,18.84-58.51,55.94-49.79,81.85,0,0,85.66,8.68,95.48-130.12Z" style="fill: url(#linear-gradient-9);"/>
    <path d="M398.84,111.07c-.14,.36-.28,.65-.42,.97l-.43,.93-.89,1.85c-.6,1.23-1.22,2.44-1.83,3.66-1.24,2.43-2.52,4.84-3.81,7.25-2.6,4.8-5.32,9.53-8.12,14.22-2.79,4.69-5.71,9.31-8.73,13.87-3.02,4.55-6.1,9.06-9.33,13.47-6.44,8.82-13.36,17.31-20.85,25.28-.46,.5-.94,.99-1.42,1.48l-1.44,1.46-1.44,1.46c-.49,.48-.98,.95-1.47,1.42-.99,.94-1.96,1.91-2.97,2.83l-3.04,2.75c-4.13,3.59-8.41,7-12.92,10.09-.08,.06-.19,.04-.25-.05-.05-.08-.04-.19,.04-.25h0c4.39-3.23,8.6-6.69,12.63-10.35l2.99-2.78c.99-.93,1.94-1.91,2.92-2.86,.48-.48,.97-.95,1.45-1.44l1.41-1.47,1.41-1.47c.47-.49,.94-.98,1.39-1.49,3.71-3.98,7.26-8.11,10.71-12.32,3.45-4.21,6.73-8.56,9.97-12.94,6.45-8.78,12.45-17.89,18.16-27.16,2.85-4.64,5.61-9.34,8.28-14.09,1.34-2.37,2.66-4.76,3.94-7.16,.64-1.2,1.28-2.41,1.9-3.62l.93-1.82,.46-.91c.14-.3,.3-.62,.42-.9l.02-.04c.04-.09,.14-.13,.23-.09,.09,.04,.13,.14,.1,.23Z" style="fill: #fff; opacity: .43;"/>
  </g>
  <g>
    <path d="M376.48,17.18c-.33-1.4-2.32-1.42-2.68-.03-3.45,13.44-13.6,48.41-30,67.2-26.7,30.61-43.83,79.73-25.74,104.57,0,0,94.77-19.63,58.42-171.75Z" style="fill: url(#linear-gradient-10);"/>
    <path d="M374.21,36.3c-.03,.42-.08,.79-.12,1.17l-.15,1.14-.33,2.28c-.23,1.52-.48,3.03-.73,4.54-.52,3.02-1.07,6.04-1.65,9.05-1.17,6.02-2.5,12.02-3.92,17.99-1.41,5.97-2.98,11.91-4.68,17.81-1.7,5.9-3.48,11.77-5.46,17.59-3.93,11.63-8.47,23.07-13.81,34.14-.32,.7-.67,1.38-1.02,2.06l-1.05,2.05-1.05,2.05c-.36,.68-.73,1.35-1.1,2.03-.74,1.34-1.45,2.71-2.22,4.04l-2.33,3.98c-3.21,5.24-6.64,10.34-10.42,15.19-.06,.08-.17,.09-.25,.03-.08-.06-.09-.17-.03-.25h0c3.63-4.94,6.97-10.07,10.06-15.35l2.27-3.99c.75-1.33,1.44-2.7,2.16-4.05,.36-.68,.72-1.35,1.07-2.03l1.02-2.06,1.02-2.06c.34-.68,.68-1.37,.99-2.07,2.64-5.52,5.04-11.15,7.33-16.83,2.28-5.68,4.33-11.45,6.33-17.24,3.95-11.59,7.3-23.38,10.29-35.26,1.48-5.94,2.85-11.92,4.11-17.91,.63-3,1.23-6,1.8-9.01,.28-1.51,.55-3.01,.81-4.52l.38-2.26,.18-1.13c.05-.37,.11-.77,.15-1.11v-.04c.01-.1,.1-.17,.2-.16,.1,0,.17,.09,.16,.19Z" style="fill: #fff; opacity: .43;"/>
  </g>
  <g>
    <path d="M105.64,248.35s-33.28-28.59-54.22-33.29c-18.69-4.19-45.4-8.32-50.92-9.16-.38-.06-.63,.38-.4,.68,3.84,4.95,25.33,30.39,64.36,34.34,43.27,4.38,41.19,7.44,41.19,7.44Z" style="fill: url(#linear-gradient-11);"/>
    <path d="M12.32,212.67c5.68,2.46,11.5,4.66,17.35,6.69,5.86,2.03,11.79,3.85,17.78,5.44,3,.79,6.01,1.52,9.03,2.18,3.03,.65,6.07,1.23,9.12,1.73,3.06,.48,6.12,.88,9.2,1.16,3.08,.26,6.16,.42,9.24,.42h0c.4,0,.72,.32,.72,.72,0,.4-.32,.72-.72,.72h0c-3.13-.04-6.25-.22-9.37-.52-3.11-.32-6.2-.75-9.28-1.26-3.07-.54-6.13-1.14-9.17-1.83-3.04-.7-6.06-1.46-9.06-2.28-6-1.66-11.94-3.54-17.8-5.63-5.86-2.09-11.66-4.34-17.36-6.87-.19-.08-.27-.31-.19-.49,.08-.19,.3-.27,.49-.19h0Z" style="fill: #fff; opacity: .86;"/>
  </g>
  <g>
    <path d="M87.87,246.26s-18-51.56-37.62-69.69C32.73,160.39,6.54,139.28,1.11,134.92c-.37-.3-.92,0-.85,.48,1.05,7.72,8.32,48.54,47.89,77.15,43.87,31.71,39.72,33.71,39.72,33.71Z" style="fill: url(#linear-gradient-12);"/>
    <path d="M9.56,149.65c4.58,6.2,9.47,12.2,14.51,18.05,5.04,5.85,10.29,11.52,15.74,16.98,2.73,2.72,5.52,5.39,8.36,8,2.85,2.6,5.77,5.12,8.74,7.57,2.99,2.43,6.05,4.77,9.18,7.01,3.15,2.21,6.38,4.3,9.7,6.24h0c.34,.2,.46,.64,.26,.99s-.64,.46-.98,.26h0c-3.35-1.99-6.59-4.13-9.76-6.39-3.15-2.28-6.21-4.67-9.2-7.13-2.97-2.49-5.89-5.05-8.74-7.68-2.84-2.64-5.62-5.34-8.34-8.1-5.43-5.53-10.65-11.25-15.67-17.15-5.01-5.9-9.86-11.94-14.42-18.21-.12-.17-.08-.4,.08-.52,.17-.12,.4-.08,.52,.08h0Z" style="fill: #fff; opacity: .86;"/>
  </g>
  <g>
    <path d="M82.36,71.47l252.41-4.27c10.16-.17,18.32,8.54,17.71,18.93l-8.69,149.41c-.48,8.18-7.05,14.58-15.05,14.66l-242.63,2.4c-5.99,.06-10.94-4.77-11.17-10.9l-5.8-155.94c-.29-7.72,5.68-14.17,13.22-14.29Z" style="fill: url(#linear-gradient-13);"/>
    <path d="M73.36,88.88c-.28-7.34,5.53-13.48,12.88-13.6l245.82-4.06c9.9-.16,17.84,8.13,17.25,18.01l-8.46,142.15c-.46,7.78-6.87,13.87-14.66,13.95l-236.3,2.28c-5.84,.06-10.66-4.54-10.88-10.37l-5.65-148.36Z" style="fill: url(#linear-gradient-14);"/>
    <path d="M78.57,93.13c-.27-6.99,5.27-12.84,12.26-12.95l234.08-3.86c9.42-.16,16.99,7.74,16.43,17.15l-8.06,135.36c-.44,7.41-6.54,13.21-13.96,13.28l-225.01,2.17c-5.56,.05-10.15-4.32-10.36-9.88l-5.38-141.27Z" style="fill: #fff; opacity: .5;"/>
    <path d="M349.95,89.19c.59-9.92-7.39-18.25-17.32-18.09l-246.85,4.08c-7.38,.12-13.21,6.28-12.93,13.66l.4,10.46H349.35l.6-10.11Z" style="fill: url(#linear-gradient-15);"/>
    <g style="opacity: .85;">
      <path d="M93.53,80.23c0,1.23-.99,2.22-2.22,2.22s-2.22-.99-2.22-2.22,.99-2.22,2.22-2.22,2.22,.99,2.22,2.22Z" style="fill: #fff;"/>
      <path d="M93.53,86.74c0,1.23-.99,2.22-2.22,2.22s-2.22-.99-2.22-2.22,.99-2.22,2.22-2.22,2.22,.99,2.22,2.22Z" style="fill: #fff;"/>
      <path d="M93.53,93.24c0,1.23-.99,2.22-2.22,2.22s-2.22-.99-2.22-2.22,.99-2.22,2.22-2.22,2.22,.99,2.22,2.22Z" style="fill: #fff;"/>
    </g>
    <g style="opacity: .49;">
      <path d="M127.3,162.23h-26.62c-3.64,0-6.54,3.04-6.36,6.68l3.03,61.88c.17,3.39,2.96,6.05,6.36,6.05h23.6c3.52,0,6.37-2.85,6.37-6.37v-61.88c0-3.52-2.85-6.37-6.37-6.37Z" style="fill: #fff;"/>
      <path d="M191.34,106.09l-93.44,1.44c-3.6,.06-6.44,3.08-6.26,6.68l1.56,31.78c.17,3.39,2.96,6.05,6.36,6.05h91.89c3.52,0,6.37-2.85,6.37-6.37v-33.22c0-3.55-2.91-6.42-6.46-6.36Z" style="fill: #fff;"/>
      <rect x="141.56" y="162.23" width="56.24" height="74.61" rx="6.37" ry="6.37" style="fill: #fff;"/>
    </g>
    <g>
      <circle cx="229.33" cy="123.42" r="15.98" style="fill: #fff;"/>
      <circle cx="269.05" cy="123.42" r="15.98" style="fill: #fff;"/>
      <circle cx="308.78" cy="123.95" r="15.98" style="fill: #fff;"/>
      <g>
        <path d="M238.83,120.05c.49,1.2,.77,2.52,.77,3.9,0,5.67-4.6,10.27-10.27,10.27s-10.27-4.6-10.27-10.27,4.6-10.27,10.27-10.27c.17,0,.35,0,.52,.01v-2.6c-.17,0-.34-.01-.52-.01-7.11,0-12.87,5.76-12.87,12.87s5.76,12.87,12.87,12.87,12.87-5.76,12.87-12.87c0-1.75-.35-3.42-.98-4.94l-2.39,1.04Z" style="fill: url(#linear-gradient-16);"/>
        <path d="M274.35,132.63c-1.58,1-3.46,1.58-5.47,1.58-5.67,0-10.27-4.6-10.27-10.27s4.6-10.27,10.27-10.27c.17,0,.35,0,.52,.01v-2.6c-.17,0-.34-.01-.52-.01-7.11,0-12.87,5.76-12.87,12.87s5.76,12.87,12.87,12.87c2.48,0,4.8-.7,6.76-1.92l-1.29-2.26Z" style="fill: url(#linear-gradient-17);"/>
        <path d="M317.35,129.72c-1.85,2.71-4.96,4.49-8.49,4.49-5.67,0-10.27-4.6-10.27-10.27s4.6-10.27,10.27-10.27c.17,0,.35,0,.52,.01v-2.6c-.17,0-.34-.01-.52-.01-7.11,0-12.87,5.76-12.87,12.87s5.76,12.87,12.87,12.87c4.4,0,8.28-2.21,10.6-5.57l-2.11-1.53Z" style="fill: url(#linear-gradient-18);"/>
      </g>
      <g style="opacity: .64;">
        <path d="M242.35,146.18h-26.05c-1.63,0-2.96,1.33-2.96,2.96s1.33,2.96,2.96,2.96h26.05c1.63,0,2.96-1.33,2.96-2.96s-1.33-2.96-2.96-2.96Z" style="fill: #fff;"/>
        <path d="M282.08,146.18h-26.05c-1.63,0-2.96,1.33-2.96,2.96s1.33,2.96,2.96,2.96h26.05c1.63,0,2.96-1.33,2.96-2.96s-1.33-2.96-2.96-2.96Z" style="fill: #fff;"/>
        <path d="M295.76,152.1h26.05c1.63,0,2.96-1.33,2.96-2.96s-1.33-2.96-2.96-2.96h-26.05c-1.63,0-2.96,1.33-2.96,2.96s1.33,2.96,2.96,2.96Z" style="fill: #fff;"/>
        <rect x="213.35" y="155.39" width="31.97" height="23.35" rx="2.96" ry="2.96" style="fill: #fff;"/>
        <rect x="253.07" y="155.39" width="31.97" height="23.35" rx="2.96" ry="2.96" style="fill: #fff;"/>
        <rect x="292.79" y="155.39" width="31.97" height="23.35" rx="2.96" ry="2.96" style="fill: #fff;"/>
      </g>
    </g>
    <path d="M146.63,202.07v23.49c0,3.67,2.98,6.65,6.65,6.65h32.17c3.77,0,6.83-3.06,6.83-6.83v-35.37c0-2.98-3.67-4.38-5.66-2.16l-6.22,6.95c-2.39,2.67-6.44,3.05-9.29,.86l-.6-.46c-2.19-1.69-5.27-1.61-7.38,.18l-3.4,2.9c-2.62,2.23-6.28,2.77-9.44,1.39h0c-1.73-.76-3.67,.51-3.67,2.4Z" style="fill: url(#linear-gradient-19);"/>
    <g>
      <rect x="214.93" y="212.44" width="5.39" height="24.41" style="fill: url(#linear-gradient-20);"/>
      <rect x="223.94" y="220.82" width="5.39" height="16.02" style="fill: url(#linear-gradient-21);"/>
      <rect x="232.95" y="200.09" width="5.39" height="36.75" style="fill: url(#linear-gradient-22);"/>
      <rect x="241.96" y="228.01" width="5.39" height="8.83" style="fill: url(#linear-gradient-23);"/>
      <rect x="250.97" y="205.01" width="5.39" height="31.84" style="fill: url(#linear-gradient-24);"/>
      <rect x="259.98" y="210.52" width="5.39" height="26.32" style="fill: url(#linear-gradient-25);"/>
      <rect x="268.99" y="216.51" width="5.39" height="20.33" style="fill: url(#linear-gradient-26);"/>
      <rect x="278" y="192.66" width="5.39" height="44.18" style="fill: url(#linear-gradient-27);"/>
      <rect x="287.01" y="197.34" width="5.39" height="39.5" style="fill: url(#linear-gradient-28);"/>
      <rect x="296.02" y="204.41" width="5.39" height="32.43" style="fill: url(#linear-gradient-29);"/>
      <rect x="305.03" y="228.83" width="5.39" height="8.01" style="fill: url(#linear-gradient-30);"/>
      <rect x="314.04" y="213.27" width="5.39" height="23.57" style="fill: url(#linear-gradient-31);"/>
    </g>
    <path d="M229.04,192.66h-23.73c-1.04,0-1.89,.84-1.89,1.89s.85,1.89,1.89,1.89h23.73c1.04,0,1.89-.85,1.89-1.89s-.84-1.89-1.89-1.89Z" style="fill: #fff; opacity: .54;"/>
    <path d="M229.04,186.76h-23.73c-1.04,0-1.89,.84-1.89,1.89s.85,1.89,1.89,1.89h23.73c1.04,0,1.89-.85,1.89-1.89s-.84-1.89-1.89-1.89Z" style="fill: #fff; opacity: .54;"/>
    <path d="M271.84,192.66h-23.73c-1.04,0-1.89,.84-1.89,1.89s.85,1.89,1.89,1.89h23.73c1.04,0,1.89-.85,1.89-1.89s-.84-1.89-1.89-1.89Z" style="fill: #fff; opacity: .54;"/>
    <path d="M271.84,186.76h-23.73c-1.04,0-1.89,.84-1.89,1.89s.85,1.89,1.89,1.89h23.73c1.04,0,1.89-.85,1.89-1.89s-.84-1.89-1.89-1.89Z" style="fill: #fff; opacity: .54;"/>
  </g>
  <g>
    <path d="M29.45,120.47l116.97-1.98c4.71-.08,8.49,3.96,8.21,8.77l-4.03,69.24c-.22,3.79-3.27,6.76-6.98,6.79l-112.43,1.11c-2.78,.03-5.07-2.21-5.18-5.05l-2.69-72.26c-.13-3.58,2.63-6.57,6.13-6.62Z" style="fill: url(#linear-gradient-32);"/>
    <path d="M31.25,122.23l113.91-1.88c4.59-.08,8.27,3.77,7.99,8.35l-3.92,65.87c-.21,3.61-3.18,6.43-6.79,6.46l-109.5,1.06c-2.7,.03-4.94-2.1-5.04-4.81l-2.62-68.75c-.13-3.4,2.56-6.25,5.97-6.3Z" style="fill: url(#linear-gradient-33);"/>
    <path d="M33.38,124.5l108.47-1.79c4.37-.07,7.87,3.59,7.61,7.95l-3.73,62.72c-.2,3.43-3.03,6.12-6.47,6.16l-104.27,1.01c-2.58,.02-4.7-2-4.8-4.58l-2.49-65.46c-.12-3.24,2.44-5.95,5.68-6Z" style="fill: #fff; opacity: .5;"/>
    <path d="M145.42,120.3l-114.39,1.89c-3.42,.06-6.12,2.91-5.99,6.33l.18,4.85h127.95l.28-4.68c.27-4.6-3.42-8.46-8.03-8.38Z" style="fill: url(#linear-gradient-34);"/>
    <g style="opacity: .85;">
      <path d="M34.63,124.53c0,.57-.46,1.03-1.03,1.03s-1.03-.46-1.03-1.03,.46-1.03,1.03-1.03,1.03,.46,1.03,1.03Z" style="fill: #fff;"/>
      <path d="M34.63,127.54c0,.57-.46,1.03-1.03,1.03s-1.03-.46-1.03-1.03,.46-1.03,1.03-1.03,1.03,.46,1.03,1.03Z" style="fill: #fff;"/>
      <path d="M34.63,130.56c0,.57-.46,1.03-1.03,1.03s-1.03-.46-1.03-1.03,.46-1.03,1.03-1.03,1.03,.46,1.03,1.03Z" style="fill: #fff;"/>
    </g>
    <circle cx="52.83" cy="159.15" r="16.31" transform="translate(-114.21 174) rotate(-76.72)" style="fill: #fff; opacity: .62;"/>
    <circle cx="52.83" cy="159.15" r="3.59" style="fill: url(#linear-gradient-35);"/>
    <path d="M61.57,165.04c-1.88,2.77-5.06,4.58-8.66,4.58-5.78,0-10.47-4.69-10.47-10.47s4.69-10.47,10.47-10.47c.18,0,.35,0,.53,.01v-2.65c-.18,0-.35-.01-.53-.01-7.25,0-13.13,5.88-13.13,13.13s5.88,13.13,13.13,13.13c4.48,0,8.44-2.25,10.81-5.68l-2.15-1.56Z" style="fill: #fff;"/>
    <g>
      <g>
        <path d="M81.59,146.75c0,1.32-1.09,2.38-2.4,2.37s-2.38-1.09-2.37-2.4c0-1.32,1.09-2.38,2.4-2.37,1.32,0,2.38,1.09,2.37,2.4Z" style="fill: url(#linear-gradient-36);"/>
        <circle cx="79.2" cy="146.74" r="2.31" style="fill: url(#linear-gradient-37);"/>
        <path d="M77.07,146.61c0-.09,.02-.18,.03-.27l-.03,.27Z" style="fill: url(#linear-gradient-38);"/>
        <path d="M77.3,145.77c.36-.69,1.08-1.17,1.91-1.16,.13,0,.26,.01,.38,.04l-2.3,1.12Z" style="fill: url(#linear-gradient-39);"/>
      </g>
      <g>
        <path d="M81.59,161.24c0,1.32-1.09,2.38-2.4,2.37s-2.38-1.09-2.37-2.4c0-1.32,1.09-2.38,2.4-2.37,1.32,0,2.38,1.09,2.37,2.4Z" style="fill: url(#linear-gradient-40);"/>
        <path d="M81.51,161.24c0,1.28-1.05,2.3-2.32,2.29-1.28,0-2.3-1.05-2.29-2.32,0-1.28,1.05-2.3,2.32-2.29s2.3,1.05,2.29,2.32Z" style="fill: url(#linear-gradient-41);"/>
        <path d="M77.07,161.09c0-.09,.02-.18,.03-.27l-.03,.27Z" style="fill: url(#linear-gradient-42);"/>
        <path d="M77.3,160.25c.36-.69,1.08-1.17,1.91-1.16,.13,0,.26,.01,.38,.04l-2.3,1.12Z" style="fill: url(#linear-gradient-43);"/>
      </g>
      <g>
        <path d="M81.59,175.72c0,1.32-1.09,2.38-2.4,2.37-1.32,0-2.38-1.09-2.37-2.4s1.09-2.38,2.4-2.37c1.32,0,2.38,1.09,2.37,2.4Z" style="fill: url(#linear-gradient-44);"/>
        <circle cx="79.2" cy="175.71" r="2.31" style="fill: url(#linear-gradient-45);"/>
        <path d="M77.07,175.58c0-.09,.02-.18,.03-.27l-.03,.27Z" style="fill: url(#linear-gradient-46);"/>
        <path d="M77.3,174.73c.36-.69,1.08-1.17,1.91-1.16,.13,0,.26,.01,.38,.04l-2.3,1.12Z" style="fill: url(#linear-gradient-47);"/>
      </g>
      <path d="M85.26,146.63v.41c.04,1.1,.73,1.98,1.57,1.98l46.49,.1c.87,0,1.57-.92,1.57-2.06h0c0-1.12-.68-2.03-1.53-2.05l-46.5-.5c-.9-.02-1.63,.95-1.6,2.12Z" style="fill: #fff; opacity: .62;"/>
      <path d="M85.26,161.04v.41c.04,1.1,.73,1.98,1.57,1.98l46.49,.1c.87,0,1.57-.92,1.57-2.06h0c0-1.12-.68-2.03-1.53-2.05l-46.5-.5c-.9-.02-1.63,.95-1.6,2.12Z" style="fill: #fff; opacity: .62;"/>
      <path d="M85.26,175.46v.41c.04,1.1,.73,1.98,1.57,1.98l46.49,.1c.87,0,1.57-.92,1.57-2.06h0c0-1.12-.68-2.03-1.53-2.05l-46.5-.5c-.9-.02-1.63,.95-1.6,2.12Z" style="fill: #fff; opacity: .62;"/>
    </g>
    <path d="M137.75,186.82l-99.8,1.77c-1.75,.03-3.07,1.61-2.8,3.34l.44,2.75c.22,1.4,1.44,2.43,2.86,2.43l98.92-.39c1.47,0,2.7-1.12,2.86-2.58l.44-4.13c.18-1.72-1.18-3.22-2.92-3.19Z" style="fill: url(#linear-gradient-48);"/>
  </g>
  <g>
    <g>
      <g>
        <path d="M207.86,112.69c-.11,0-.23-.05-.3-.16-.27-.39-.54-.78-.82-1.16-.12-.16-.08-.38,.07-.5,.16-.12,.38-.08,.5,.07,.29,.39,.57,.79,.84,1.18,.11,.16,.07,.39-.09,.5-.06,.04-.13,.06-.2,.06Z" style="fill: #eac4f9;"/>
        <path d="M177.72,169.12h0c-.95,0-1.9-.05-2.84-.14-.2-.02-.34-.19-.33-.39,.02-.2,.19-.35,.39-.33,.92,.08,1.86,.13,2.79,.13,.2,0,.36,.16,.36,.36,0,.2-.16,.36-.36,.36Zm4.57-.26c-.18,0-.33-.13-.36-.32-.02-.2,.12-.38,.31-.4,.92-.11,1.85-.26,2.76-.44,.2-.04,.38,.09,.42,.28s-.09,.38-.28,.42c-.93,.19-1.87,.34-2.81,.45-.01,0-.03,0-.04,0Zm7.21-1.62c-.15,0-.29-.1-.34-.25-.06-.19,.04-.39,.23-.45,.88-.29,1.76-.63,2.61-.99,.18-.08,.39,0,.47,.19,.08,.18,0,.39-.19,.47-.87,.37-1.76,.71-2.66,1.01-.04,.01-.08,.02-.11,.02Zm6.73-3.05c-.12,0-.24-.06-.31-.18-.1-.17-.04-.39,.13-.49,.8-.47,1.59-.97,2.35-1.5,.16-.11,.39-.07,.5,.09,.11,.16,.07,.39-.09,.5-.78,.54-1.59,1.05-2.4,1.53-.06,.03-.12,.05-.18,.05Zm5.96-4.36c-.1,0-.2-.04-.27-.12-.13-.15-.12-.37,.03-.51,.69-.62,1.36-1.28,2-1.95,.14-.14,.36-.15,.51-.01,.14,.14,.15,.36,.01,.51-.65,.69-1.34,1.36-2.04,1.99-.07,.06-.15,.09-.24,.09Zm4.95-5.49c-.07,0-.15-.02-.21-.07-.16-.12-.2-.34-.08-.5,.55-.75,1.07-1.53,1.56-2.32,.1-.17,.33-.22,.49-.12,.17,.1,.22,.33,.12,.49-.5,.8-1.03,1.6-1.59,2.36-.07,.1-.18,.15-.29,.15Zm3.73-6.38s-.1-.01-.15-.03c-.18-.08-.26-.3-.18-.48,.38-.84,.74-1.71,1.06-2.58,.07-.19,.27-.28,.46-.21,.19,.07,.28,.27,.21,.46-.32,.89-.69,1.77-1.08,2.63-.06,.13-.19,.21-.33,.21Zm2.36-7s-.05,0-.08,0c-.19-.04-.31-.24-.27-.43,.21-.9,.38-1.83,.51-2.74,.03-.2,.21-.33,.41-.3,.2,.03,.33,.21,.3,.41-.14,.94-.31,1.88-.52,2.8-.04,.17-.19,.28-.35,.28Zm.88-7.34h0c-.2,0-.36-.17-.35-.37,0-.2,0-.39,0-.59,0-.73-.02-1.47-.07-2.2-.01-.2,.14-.37,.34-.38,.2-.01,.37,.14,.38,.34,.05,.74,.07,1.5,.07,2.24,0,.2,0,.4,0,.6,0,.2-.16,.35-.36,.35Zm-.64-7.36c-.17,0-.32-.12-.35-.29-.17-.91-.39-1.82-.63-2.72-.05-.19,.06-.39,.25-.44,.19-.05,.39,.06,.44,.25,.25,.91,.47,1.85,.64,2.77,.04,.19-.09,.38-.29,.42-.02,0-.05,0-.07,0Zm-2.12-7.08c-.14,0-.28-.08-.33-.22-.35-.86-.75-1.71-1.17-2.54-.09-.18-.02-.39,.16-.48,.18-.09,.39-.02,.48,.16,.43,.84,.83,1.71,1.19,2.59,.08,.18-.01,.39-.2,.47-.04,.02-.09,.03-.14,.03Z" style="fill: #eac4f9;"/>
        <path d="M170.36,168.29s-.05,0-.08,0c-.47-.1-.95-.22-1.41-.34-.19-.05-.31-.25-.26-.44,.05-.19,.25-.31,.44-.26,.45,.12,.92,.23,1.38,.33,.19,.04,.32,.23,.27,.43-.04,.17-.19,.28-.35,.28Z" style="fill: #eac4f9;"/>
      </g>
      <g>
        <path d="M147.32,152c-.12,0-.24-.06-.31-.17-.25-.41-.5-.83-.74-1.25-.1-.17-.04-.39,.14-.49,.17-.1,.39-.04,.49,.14,.23,.41,.47,.82,.72,1.23,.1,.17,.05,.39-.12,.49-.06,.04-.12,.05-.19,.05Z" style="fill: #eac4f9;"/>
        <path d="M144.63,146.7c-.14,0-.28-.08-.33-.22-.35-.86-.67-1.74-.96-2.63-.06-.19,.04-.39,.23-.45,.19-.06,.39,.04,.45,.23,.28,.87,.6,1.74,.94,2.58,.08,.18-.01,.39-.2,.47-.04,.02-.09,.03-.14,.03Zm-2.06-6.97c-.17,0-.32-.12-.35-.29-.17-.92-.31-1.85-.42-2.77-.02-.2,.12-.38,.32-.4,.2-.02,.38,.12,.4,.32,.1,.9,.24,1.82,.41,2.72,.04,.2-.09,.38-.29,.42-.02,0-.05,0-.07,0Zm-.63-7.25h0c-.2,0-.36-.17-.35-.36,.01-.93,.06-1.87,.15-2.8,.02-.2,.19-.34,.39-.32,.2,.02,.34,.19,.32,.39-.08,.91-.13,1.83-.15,2.74,0,.2-.16,.35-.36,.35Zm.84-7.22s-.05,0-.08,0c-.19-.04-.32-.23-.27-.43,.2-.91,.44-1.82,.71-2.71,.06-.19,.26-.3,.45-.24,.19,.06,.3,.26,.24,.45-.26,.87-.5,1.77-.7,2.66-.04,.17-.19,.28-.35,.28Zm2.28-6.91s-.1-.01-.15-.03c-.18-.08-.26-.29-.18-.47,.38-.85,.79-1.69,1.24-2.51,.09-.17,.31-.24,.49-.15,.17,.09,.24,.31,.15,.49-.43,.8-.84,1.63-1.21,2.46-.06,.13-.19,.21-.33,.21Zm3.61-6.31c-.07,0-.15-.02-.21-.07-.16-.12-.2-.34-.08-.5,.54-.76,1.12-1.5,1.71-2.22,.13-.15,.35-.17,.51-.05,.15,.13,.17,.35,.05,.51-.58,.7-1.15,1.43-1.68,2.17-.07,.1-.18,.15-.29,.15Zm4.79-5.46c-.1,0-.19-.04-.26-.11-.14-.15-.13-.37,.02-.51,.68-.63,1.4-1.25,2.12-1.83,.16-.12,.38-.1,.51,.06,.12,.16,.1,.38-.06,.51-.71,.57-1.41,1.17-2.08,1.79-.07,.06-.16,.1-.24,.1Zm5.8-4.39c-.12,0-.24-.06-.31-.17-.1-.17-.05-.39,.12-.49,.79-.48,1.62-.94,2.45-1.36,.18-.09,.39-.02,.48,.16,.09,.18,.02,.39-.16,.48-.81,.41-1.62,.86-2.4,1.33-.06,.04-.12,.05-.19,.05Zm6.56-3.13c-.15,0-.29-.09-.34-.24-.07-.19,.03-.39,.22-.46,.7-.25,1.42-.48,2.14-.69,.18-.05,.36-.1,.53-.15,.19-.05,.39,.06,.44,.25,.05,.19-.06,.39-.25,.44-.17,.05-.35,.1-.52,.15-.7,.2-1.41,.43-2.1,.68-.04,.01-.08,.02-.12,.02Zm7.05-1.76c-.18,0-.33-.13-.36-.31-.03-.2,.11-.38,.3-.41,.92-.13,1.86-.23,2.79-.3,.2-.02,.37,.14,.38,.33,.01,.2-.14,.37-.33,.38-.91,.06-1.83,.16-2.73,.29-.02,0-.03,0-.05,0Zm10.03-.05s-.03,0-.05,0c-.9-.12-1.82-.21-2.73-.27-.2-.01-.35-.18-.34-.38,.01-.2,.18-.35,.38-.34,.93,.05,1.87,.15,2.79,.27,.2,.03,.33,.21,.31,.4-.02,.18-.18,.31-.36,.31Z" style="fill: #eac4f9;"/>
        <path d="M188.71,98.54s-.07,0-.11-.02c-.45-.14-.91-.27-1.37-.4-.19-.05-.31-.25-.25-.44,.05-.19,.25-.31,.44-.25,.46,.12,.93,.26,1.39,.4,.19,.06,.3,.26,.24,.45-.05,.15-.19,.25-.34,.25Z" style="fill: #eac4f9;"/>
      </g>
      <g>
        <path d="M189.51,107.42c-.16-.09-.36-.08-.5,.04l-4.01,3.42c-2.35-.74-4.83-1.1-7.37-1.05l-2.9-4.4c-.1-.15-.29-.23-.47-.18l-6.12,1.58c-.18,.05-.31,.2-.32,.38l-.42,5.25c-2.25,1.17-4.24,2.69-5.95,4.47l-5.17-1.06c-.18-.04-.37,.04-.46,.2l-3.22,5.44c-.09,.16-.08,.36,.04,.5l3.42,4.01c-.74,2.35-1.1,4.83-1.05,7.37l-4.4,2.9c-.15,.1-.23,.29-.18,.47l1.58,6.12c.05,.18,.2,.31,.38,.32l5.25,.42c1.17,2.25,2.69,4.24,4.47,5.95l-1.06,5.17c-.04,.18,.05,.37,.2,.46l5.44,3.22c.16,.09,.36,.08,.5-.04l4.01-3.42c2.35,.74,4.83,1.1,7.37,1.05l2.9,4.4c.1,.15,.29,.23,.47,.18l6.12-1.58c.18-.05,.31-.2,.32-.38l.42-5.25c2.25-1.17,4.24-2.69,5.95-4.47l5.17,1.06c.18,.04,.37-.04,.46-.2l3.22-5.44c.09-.16,.08-.36-.04-.5l-3.42-4.01c.74-2.35,1.1-4.83,1.05-7.37l4.4-2.9c.15-.1,.23-.29,.18-.47l-1.58-6.12c-.05-.18-.2-.31-.38-.32l-5.25-.42c-1.17-2.25-2.69-4.24-4.47-5.95l1.06-5.17c.04-.18-.04-.37-.2-.46l-5.44-3.22Z" style="fill: url(#linear-gradient-49);"/>
        <path d="M178.12,139.09c-2.18,0-4.3-1.16-5.41-3.21-.79-1.44-.96-3.11-.5-4.68,.46-1.58,1.52-2.88,2.96-3.67h0c1.44-.79,3.11-.96,4.68-.5,1.58,.46,2.88,1.51,3.67,2.96,1.62,2.98,.52,6.72-2.46,8.35-.93,.51-1.94,.75-2.94,.75Zm-.02-11.23c-.84,0-1.67,.21-2.42,.62h0c-2.46,1.34-3.37,4.43-2.03,6.89,1.34,2.46,4.43,3.37,6.89,2.03,2.46-1.34,3.37-4.43,2.03-6.89-.65-1.19-1.72-2.06-3.02-2.44-.47-.14-.96-.21-1.44-.21Zm-2.68,.15h0Z" style="fill: #fff;"/>
        <path d="M178.02,148.86c-2.79,0-5.54-.75-8.01-2.2-3.63-2.15-6.21-5.58-7.26-9.67-.34-1.31-.5-2.64-.5-3.96,0-2.79,.75-5.54,2.2-8.01,2.15-3.63,5.58-6.21,9.67-7.26,1.09-.28,2.21-.45,3.33-.49l.04,1.08c-1.04,.04-2.08,.19-3.1,.46-1.02,.26-1.99,.62-2.91,1.08,0,0,0,0,0,0-.01,0-.02,.01-.04,.02,0,0,0,0,0,0,0,0-.01,0-.02,.01-2.25,1.13-4.18,2.83-5.6,4.96-.15,.23-.3,.46-.44,.69-1.36,2.3-2.05,4.86-2.05,7.46,0,1.23,.16,2.47,.47,3.69,2.02,7.86,10.06,12.61,17.92,10.59,6.64-1.71,11.06-7.7,11.05-14.26,0-1.21-.15-2.44-.47-3.66-.66-2.58-2.01-4.94-3.9-6.8l.76-.77c2.03,2,3.48,4.53,4.19,7.3,.34,1.31,.5,2.63,.5,3.93,0,7.04-4.74,13.47-11.86,15.3-1.31,.34-2.64,.5-3.96,.5Z" style="fill: #fff;"/>
      </g>
    </g>
    <g>
      <g>
        <path d="M229.19,89.28c-.12,0-.24-.06-.3-.17-.25-.4-.52-.79-.79-1.16-.12-.16-.08-.38,.07-.5,.16-.12,.38-.08,.5,.07,.29,.39,.57,.8,.83,1.21,.11,.17,.05,.39-.11,.5-.06,.04-.13,.05-.19,.05Z" style="fill: #eac4f9;"/>
        <path d="M214.94,117.62c-.19,0-.34-.14-.36-.33-.02-.2,.13-.37,.33-.39,.94-.07,1.88-.23,2.81-.45,.19-.05,.39,.07,.43,.27,.05,.19-.07,.39-.27,.43-.96,.23-1.94,.39-2.92,.46,0,0-.02,0-.03,0Zm7.26-2.12c-.13,0-.25-.07-.32-.19-.09-.18-.03-.39,.15-.49,.83-.44,1.64-.96,2.4-1.53,.16-.12,.38-.09,.5,.07,.12,.16,.09,.38-.07,.5-.79,.59-1.62,1.13-2.49,1.59-.05,.03-.11,.04-.17,.04Zm5.8-4.84c-.08,0-.16-.03-.22-.08-.16-.12-.18-.35-.06-.51,.59-.74,1.12-1.53,1.59-2.36,.1-.17,.32-.23,.49-.14,.17,.1,.23,.32,.14,.49-.48,.86-1.04,1.68-1.65,2.45-.07,.09-.18,.14-.28,.14Zm3.4-6.75s-.06,0-.09-.01c-.19-.05-.31-.25-.25-.44,.24-.91,.42-1.85,.52-2.79,.02-.2,.2-.34,.4-.32,.2,.02,.34,.2,.32,.4-.1,.98-.28,1.95-.54,2.9-.04,.16-.19,.27-.35,.27Zm.42-7.55c-.17,0-.33-.13-.35-.31-.12-.8-.3-1.59-.52-2.37-.04-.13-.08-.26-.12-.4-.06-.19,.05-.39,.23-.45,.19-.06,.39,.05,.45,.23,.04,.14,.08,.27,.12,.41,.24,.81,.42,1.64,.55,2.47,.03,.2-.1,.38-.3,.41-.02,0-.04,0-.05,0Z" style="fill: #eac4f9;"/>
        <path d="M210.23,117.39s-.04,0-.06,0c-.48-.09-.96-.19-1.43-.31-.19-.05-.31-.25-.26-.44,.05-.19,.25-.31,.44-.26,.45,.12,.91,.22,1.38,.3,.2,.04,.33,.22,.29,.42-.03,.17-.18,.3-.35,.3Z" style="fill: #eac4f9;"/>
      </g>
      <g>
        <path d="M197.71,108.88c-.12,0-.24-.06-.31-.17-.26-.41-.5-.84-.72-1.28-.09-.18-.02-.39,.16-.48,.18-.09,.39-.02,.48,.16,.21,.42,.45,.83,.69,1.23,.1,.17,.05,.39-.12,.49-.06,.04-.12,.05-.19,.05Z" style="fill: #eac4f9;"/>
        <path d="M195.42,103.29c-.16,0-.31-.11-.35-.28-.22-.94-.36-1.91-.43-2.87-.01-.2,.13-.37,.33-.38,.19-.01,.37,.13,.38,.33,.07,.92,.21,1.85,.42,2.76,.04,.19-.08,.39-.27,.43-.03,0-.05,0-.08,0Zm-.18-7.43s-.04,0-.06,0c-.2-.04-.33-.22-.29-.42,.17-.95,.42-1.9,.73-2.81,.06-.19,.27-.29,.46-.22,.19,.06,.29,.27,.22,.46-.3,.88-.54,1.79-.71,2.7-.03,.17-.18,.3-.35,.3Zm2.76-6.9c-.07,0-.14-.02-.2-.06-.17-.11-.21-.33-.1-.5,.53-.81,1.13-1.58,1.78-2.3,.13-.15,.36-.16,.51-.03,.15,.13,.16,.36,.03,.51-.62,.69-1.2,1.43-1.71,2.21-.07,.11-.18,.16-.3,.16Zm5.24-5.27c-.12,0-.23-.06-.3-.16-.11-.17-.06-.39,.1-.5,.81-.53,1.66-1.01,2.54-1.41,.18-.08,.39,0,.48,.18,.08,.18,0,.39-.18,.48-.85,.39-1.67,.84-2.44,1.36-.06,.04-.13,.06-.2,.06Zm6.89-2.78c-.17,0-.32-.12-.35-.29-.04-.2,.09-.38,.29-.42,.95-.18,1.92-.28,2.89-.31,.2,0,.36,.15,.37,.35,0,.2-.15,.36-.35,.37-.93,.03-1.86,.13-2.78,.3-.02,0-.04,0-.07,0Z" style="fill: #eac4f9;"/>
        <path d="M218.97,81.42s-.07,0-.11-.02c-.45-.14-.91-.26-1.36-.37-.19-.04-.31-.24-.27-.43,.04-.19,.24-.31,.43-.27,.47,.11,.95,.24,1.41,.38,.19,.06,.3,.26,.24,.45-.05,.15-.19,.25-.34,.25Z" style="fill: #eac4f9;"/>
      </g>
      <g>
        <path d="M219.38,85.81c-.08-.05-.19-.04-.26,.02l-2.06,1.76c-1.21-.38-2.48-.57-3.78-.54l-1.49-2.26c-.05-.08-.15-.12-.24-.09l-3.15,.81c-.09,.02-.16,.1-.17,.2l-.22,2.7c-1.15,.6-2.18,1.38-3.05,2.3l-2.65-.54c-.09-.02-.19,.02-.24,.1l-1.65,2.8c-.05,.08-.04,.19,.02,.26l1.76,2.06c-.38,1.21-.57,2.48-.54,3.78l-2.26,1.49c-.08,.05-.12,.15-.09,.24l.81,3.15c.02,.09,.1,.16,.2,.17l2.7,.22c.6,1.15,1.38,2.18,2.3,3.05l-.54,2.65c-.02,.09,.02,.19,.1,.24l2.8,1.65c.08,.05,.19,.04,.26-.02l2.06-1.76c1.21,.38,2.48,.57,3.78,.54l1.49,2.26c.05,.08,.15,.12,.24,.09l3.15-.81c.09-.02,.16-.1,.17-.2l.22-2.7c1.15-.6,2.18-1.38,3.05-2.3l2.65,.54c.09,.02,.19-.02,.24-.1l1.65-2.8c.05-.08,.04-.19-.02-.26l-1.76-2.06c.38-1.21,.57-2.48,.54-3.78l2.26-1.49c.08-.05,.12-.15,.09-.24l-.81-3.15c-.02-.09-.1-.16-.2-.17l-2.7-.22c-.6-1.15-1.38-2.18-2.3-3.05l.54-2.65c.02-.09-.02-.19-.1-.24l-2.8-1.65Z" style="fill: url(#linear-gradient-50);"/>
        <path d="M213.53,102.34c-1.21,0-2.39-.65-3.01-1.78-.9-1.66-.29-3.74,1.37-4.64h0c1.66-.9,3.74-.29,4.64,1.37,.9,1.66,.29,3.74-1.37,4.64-.52,.28-1.08,.42-1.63,.42Zm-1.13-5.48c-1.14,.62-1.56,2.05-.94,3.18,.62,1.14,2.05,1.56,3.18,.94,1.14-.62,1.56-2.05,.94-3.18-.62-1.14-2.05-1.56-3.18-.94h0Z" style="fill: #fff;"/>
        <path d="M213.5,107.36c-3.73,0-7.14-2.51-8.11-6.29-.18-.7-.27-1.4-.27-2.08,0-3.73,2.51-7.14,6.29-8.12,.15-.04,.3-.07,.45-.1,.33-.07,.66-.11,.99-.14,.11,0,.21-.01,.32-.02l.04,1.08c-.52,.02-1.03,.1-1.54,.23h0c-1.76,.45-3.25,1.52-4.25,3.01-.07,.11-.15,.23-.21,.34-.67,1.14-1.02,2.41-1.02,3.7,0,.61,.08,1.22,.23,1.83,1,3.9,4.99,6.25,8.89,5.25,3.29-.85,5.48-3.82,5.48-7.07,0-.6-.07-1.21-.23-1.82-.33-1.28-1-2.45-1.94-3.37l.76-.77c1.08,1.06,1.84,2.4,2.22,3.87,.18,.7,.27,1.4,.27,2.08,0,3.73-2.51,7.14-6.29,8.12-.7,.18-1.4,.27-2.09,.27Z" style="fill: #fff;"/>
      </g>
    </g>
  </g>
  <g>
    <path d="M138.43,259.5c-.28,0-.51-.23-.51-.51v-61.31c0-.28,.23-.51,.51-.51s.51,.23,.51,.51v61.31c0,.28-.23,.51-.51,.51Z" style="fill: url(#linear-gradient-51);"/>
    <path d="M124.53,259.5c-.28,0-.51-.23-.51-.51v-61.31c0-.28,.23-.51,.51-.51s.51,.23,.51,.51v61.31c0,.28-.23,.51-.51,.51Z" style="fill: url(#linear-gradient-52);"/>
    <path d="M90.38,259.89c-.07,0-.13-.01-.2-.04-.26-.11-.38-.41-.27-.67l26.23-61.7c.11-.26,.41-.38,.67-.27,.26,.11,.38,.41,.27,.67l-26.23,61.7c-.08,.2-.27,.31-.47,.31Z" style="fill: url(#linear-gradient-53);"/>
    <path d="M106.59,259.89c-.07,0-.13-.01-.2-.04-.26-.11-.38-.41-.27-.67l26.23-61.7c.11-.26,.41-.38,.67-.27,.26,.11,.38,.41,.27,.67l-26.23,61.7c-.08,.2-.27,.31-.47,.31Z" style="fill: url(#linear-gradient-54);"/>
    <path d="M139.23,198.24h-24.03c-.4,0-.72-.32-.72-.72h0c0-.4,.32-.72,.72-.72h24.03c.4,0,.72,.32,.72,.72h0c0,.4-.32,.72-.72,.72Z" style="fill: url(#linear-gradient-55);"/>
    <path d="M128.85,207.62h-16.25c-.28,0-.51-.23-.51-.51s.23-.51,.51-.51h16.25c.28,0,.51,.23,.51,.51s-.23,.51-.51,.51Z" style="fill: url(#linear-gradient-56);"/>
    <rect x="107.62" y="218.27" width="16.25" height="1.03" style="fill: url(#linear-gradient-57);"/>
    <rect x="102.79" y="229.94" width="16.25" height="1.03" style="fill: url(#linear-gradient-58);"/>
    <path d="M113.98,242.63h-16.25c-.28,0-.51-.23-.51-.51s.23-.51,.51-.51h16.25c.28,0,.51,.23,.51,.51s-.23,.51-.51,.51Z" style="fill: url(#linear-gradient-59);"/>
    <path d="M109.08,254.3h-16.25c-.28,0-.51-.23-.51-.51s.23-.51,.51-.51h16.25c.28,0,.51,.23,.51,.51s-.23,.51-.51,.51Z" style="fill: url(#linear-gradient-60);"/>
  </g>
  <g>
    <path d="M44.34,255.77s0-.1-.02-.15c-.74-2.93-4.41-4.76-4.41-4.76l-1.46,.11c-.84,2.59-.73,4.17-.59,4.88,0,.02,0,.04,.01,.06,1.2,.11,3.67,.18,6.46-.14Z" style="fill: url(#linear-gradient-61);"/>
    <path d="M37.88,255.91c.06,.24,.24,.42,.46,.47,1.71,.36,4.42,.07,5.56-.08,.25-.03,.44-.27,.44-.53-2.79,.32-5.26,.25-6.46,.14Z" style="fill: url(#linear-gradient-62);"/>
    <path d="M32.11,203.83c-.9,.96-2.22,1.79-3.15,2.31,1.39,1.72,3.27,3.44,5.76,5.13l.71,1.6,2.28-2.74s-4.1-2.04-5.61-6.29Z" style="fill: url(#linear-gradient-63);"/>
    <path d="M37.87,248.81l.62,2.97c.05,.22,.21,.38,.41,.4,.25,.02,.6,.04,.96-.02,.32-.05,.54-.37,.48-.72l-.43-2.64h-2.04Z" style="fill: url(#linear-gradient-64);"/>
    <path d="M50.64,255.88c-1.61-.04-2.44-.23-2.87-.41,0,.16,0,.32,0,.49,0,.18,.14,.32,.3,.32l8.83-.06c.28,0,.45-.33,.32-.59-1.16,.1-4.1,.31-6.59,.24Z" style="fill: url(#linear-gradient-65);"/>
    <path d="M57.23,255.64s-.02-.05-.03-.07c-.78-1.09-2.76-3.26-6.69-4.2l-1.88-.06s-.84,1.46-.85,4.15c.43,.18,1.26,.37,2.87,.41,2.49,.07,5.43-.14,6.59-.24Z" style="fill: url(#linear-gradient-66);"/>
    <path d="M48.28,248.46c.02,.14,.28,2.27,.38,3.1,.02,.2,.17,.35,.35,.37,.32,.04,.84,.07,1.29-.02,.24-.05,.42-.29,.42-.56v-3.35l-2.44,.46Z" style="fill: url(#linear-gradient-67);"/>
    <path d="M46.77,209.55s4.54,17.25,4.46,38.96c0,.4-.28,.74-.67,.82-.57,.12-1.41,.26-2.1,.24-.37-.01-.68-.29-.74-.65-.64-3.73-4.29-24.76-6.37-28.17,0,0-1.37,18.73-.93,28.44,.01,.24-.17,.45-.41,.48-.36,.04-.95,.07-1.69,0-.28-.03-.51-.24-.55-.52-.45-3.16-3.06-21.96-2.95-35.51,0-.76,2.02-4.09,2.02-4.09h9.94Z" style="fill: url(#linear-gradient-68);"/>
    <path d="M61.61,172.4c-1.99,3.71-5.3,7.49-10.68,8.51-4.97,.94-13.89,2.09-17.48,2.55-1.08,.14-2.06,.67-2.78,1.49-2.82,3.26-9,12.19-1.72,21.19,.93-.52,2.26-1.35,3.15-2.31-.81-2.27-.87-5.17,.82-8.73,.06,.28,.13,.56,.22,.84,2.33,7.37,2.45,13.5,2.45,14.92,0,.19,.11,.36,.29,.44,3.06,1.23,8.95,.5,10.93,.2,.36-.05,.61-.39,.56-.76-.97-7.03,4.01-18.6,5.33-21.5,.19-.42,.53-.76,.96-.96,7.53-3.4,10.8-8.65,12.12-13.37-1.15-1.54-2.93-2.21-4.17-2.5Z" style="fill: url(#linear-gradient-69);"/>
    <path d="M65.78,174.91c1.61-5.72,.36-10.68,.36-10.68h-1.71s-.59,4.04-2.81,8.18c1.24,.29,3.02,.96,4.17,2.5Z" style="fill: url(#linear-gradient-70);"/>
    <path d="M65.03,165.14s-2.61-3.38-1.76-5.14c.85-1.76,3.76-1.59,3.76-1.59l.41,1.38c.11,.36,.09,.75-.04,1.11l-1.61,4.25h-.75Z" style="fill: url(#linear-gradient-71);"/>
    <path d="M38.75,176.69l-.59,6.03s3.39,1.02,5.86-.72l-1.73-5.48-3.53,.17Z" style="fill: url(#linear-gradient-72);"/>
    <g>
      <path d="M42.68,169.82c.08,.08,3.44,6.68,3.44,6.68l-3.81,1.84-4.12-5.79s3.12-4.02,4.48-2.74Z" style="fill: url(#linear-gradient-73);"/>
      <path d="M39.89,172.72c-.07,.18-.05,.37,.05,.53l1.9,3.17s.06,.09,.1,.13c.23,.21,1,.82,1.6-.01,.51-.71,.99-1.36,1.5-1.62,.3-.16,.67-.03,.82,.27,.31,.62,.92,1.89,1.3,3.09,.1,.3-.06,.62-.35,.74-.77,.31-2.3,.88-3.65,1.07-.22,.03-.44-.06-.57-.24-.58-.8-2.22-3.03-2.78-3.59-.52-.52-1.48-.32-1.91-.2-.16,.05-.34,.02-.49-.06-.44-.26-1.21-.92-.5-2.04,.17-.28,.09-.65-.19-.83-.49-.32-1.02-.93-.52-1.91,.51-.99,1.43-1.08,2.05-1.01,.28,.03,.56-.11,.66-.37,.05-.11,.14-.21,.31-.25,.33-.07,.54-.37,.48-.69-.11-.56-.03-1.29,.87-1.78,1.64-.9,3.09,.57,3.45,1.81,.37,1.24-1.47,2.12-2.63,2.27-.85,.11-1.32,1.04-1.5,1.52Z" style="fill: url(#linear-gradient-74);"/>
      <path d="M40.51,177.41s-.73-2.14-1.67-2.06c-.94,.08-1.67,1.01-.51,2.06,1.44,1.3,2.18,0,2.18,0Z" style="fill: url(#linear-gradient-75);"/>
    </g>
    <path d="M32.62,194.55c-1.23-3.38-.79-7.45-.78-7.5l.34,.04s-.44,4.04,.76,7.34l-.32,.12Z" style="fill: url(#linear-gradient-76);"/>
    <path d="M41.18,220.31c-.08,0-.15-.05-.17-.13-.38-1.45-3.2-3.05-3.22-3.06-.08-.05-.11-.15-.07-.23,.05-.08,.15-.11,.23-.07,.12,.07,2.97,1.68,3.39,3.28,.02,.09-.03,.18-.12,.21-.01,0-.03,0-.04,0Z" style="fill: url(#linear-gradient-77);"/>
  </g>
  <g>
    <path d="M354.52,244.21s.35,2,.53,3.98c.07,.77-.53,1.45-1.31,1.48-2.64,.11-8.28,.32-10.3,.23-.3-.01-.5-.33-.39-.61h0c.09-.24,.28-.43,.51-.54l9.32-4.28,1.65-.27Z" style="fill: url(#linear-gradient-78);"/>
    <path d="M354.81,243.03l-.28,2.39s-1.63,.76-2.75-.1l.68-2.67,2.36,.37Z" style="fill: url(#linear-gradient-79);"/>
    <path d="M354.6,198.04c.12,.62,.66,31.19-2.61,44.88-.05,.22,.06,.45,.27,.54,.5,.2,1.48,.5,2.66,.54,.36,.01,.69-.22,.79-.57,.93-3.18,5.41-19.1,5.99-34.31,.65-16.99,0-.58,0-.58l-.38-10.5h-6.73Z" style="fill: url(#linear-gradient-80);"/>
    <path d="M365.24,245.25s.56,1.01,1.11,3.69c.1,.48-.24,.95-.73,1-.87,.09-2.21,.2-3.29,.19-.5,0-.88-.43-.82-.93,.12-.98,.49-2.59,1.63-3.84l2.1-.11Z" style="fill: url(#linear-gradient-81);"/>
    <path d="M365.74,242.17l-.66,3.62s-.66,.49-1.95,.13l.32-3.89,2.3,.14Z" style="fill: url(#linear-gradient-82);"/>
    <path d="M367.53,198.98c2.67,16.12-.58,39.85-1.68,44.5-.07,.28-.3,.5-.58,.55-.49,.08-1.3,.15-2.09-.08-.27-.08-.47-.33-.48-.61-.15-3.75,.12-26.81-2.37-35.92-.13-.46-.41-.86-.8-1.14l-4.83-3.44-.37-5.55,13.2,1.69Z" style="fill: url(#linear-gradient-83);"/>
    <g>
      <path d="M350.51,168.43c8.01-.13,16.84,2.1,16.84,2.1,2.39,13.93,.42,29.99,.42,29.99-6.2,1.63-13.19-.99-13.19-.99-1.03-5.82-5.84-22.2-5.84-22.2-3.91-.49-7.13-1.61-9.79-3.11,2.02-2.35,2.98-5.33,3.39-7.1,2.83,.88,5.7,1.35,8.17,1.31Z" style="fill: url(#linear-gradient-84);"/>
      <path d="M326.86,156.63c.79-.95,1.78-.5,1.78-.5,1.18,4.98,7.36,9.01,13.7,10.99-.41,1.77-1.37,4.75-3.39,7.1-10.53-5.92-12.09-17.58-12.09-17.58Z" style="fill: url(#linear-gradient-85);"/>
    </g>
    <g>
      <path d="M327.05,156.87c-.08,.26,.87,.66,1.43-.41,.02-.51,.33-2.71,.03-3.13-1.63-2.23-4.8-5.01-4.8-5.01-.53,.53-.09,1.05-.09,1.05l1.54,1.6c-.32,.58-.71,1.07-.9,1.77-.14,.53-.05,1.1,.21,1.58,.27,.49,.64,1.12,.98,1.61,.66,.93,1.6,.94,1.6,.94Z" style="fill: url(#linear-gradient-86);"/>
      <path d="M325.82,152l1.4,1.19,.44,1.18-1.25,1.38s-.42-2.34-.73-2.85c-.31-.51-.15-.75,.14-.9Z" style="fill: url(#linear-gradient-87);"/>
    </g>
    <path d="M364.28,178.28l3.07-7.75s7.48,5.08,8.71,11.52c-1.41,.1-3.98,.47-6.5,1.74-.55-3.04-5.28-5.51-5.28-5.51Z" style="fill: url(#linear-gradient-88);"/>
    <path d="M357.74,185.58s8.4,4.75,11.23,.69c.59-.84,.73-1.68,.58-2.47,2.52-1.27,5.09-1.64,6.5-1.74,.37,1.94,.17,4.01-.97,6.1-4.96,9.08-18.46-.5-18.46-.5l1.11-2.07Z" style="fill: url(#linear-gradient-89);"/>
    <g>
      <path d="M358.75,191.58l-4.58-16c-.05-.18-.21-.31-.39-.34-.83-.1-3.24-.37-6.01-.6-3.35-.28-7.23-.51-9.55-.32-.33,.03-.53,.38-.38,.67,1.32,2.67,6.75,13.54,9.47,17.1,.09,.12,.23,.19,.38,.19l10.63-.1c.31,0,.53-.3,.45-.6Z" style="fill: url(#linear-gradient-90);"/>
      <path d="M347.28,173.25l-3.32-.55c-.18-.03-.32,.14-.27,.31l.33,1c.03,.09,.1,.15,.19,.16l3.2,.43c.17,.02,.3-.13,.26-.29l-.2-.87c-.02-.09-.1-.17-.19-.18Z" style="fill: url(#linear-gradient-91);"/>
      <path d="M349.77,176.06l-.27-1.43c-.03-.14-.15-.25-.29-.27l-6.71-.68c-.23-.02-.41,.18-.35,.4l.43,1.78c.03,.14,.16,.24,.3,.25l6.56,.33c.21,.01,.38-.18,.34-.39Z" style="fill: url(#linear-gradient-92);"/>
      <path d="M357.64,187.71s.64-2.63,.38-3.56c-.26-.93-.76-2.13-2.42-1.86-1.66,.27-3.62,.97-3.62,.97,0,0,.1,1.21,1.36,.82l-.78,.61s.11,.97,1.18,.45l-.73,.8s.46,.8,1.24,.29c.79-.51,1.16,1.8,3.39,1.48Z" style="fill: url(#linear-gradient-93);"/>
    </g>
    <path d="M358.62,161.92l2.55,7.37c.04,.12,0,.26-.12,.32-.69,.38-3.2,1.49-6.21-.42-.31-.2-.53-.52-.58-.89l-.83-6.38h5.19Z" style="fill: url(#linear-gradient-94);"/>
    <g>
      <path d="M353.07,155.1s-2.8,5.27-2.44,7.39c.36,2.13,3.83,1.97,6.85,.25l2.12-5.69-6.53-1.95Z" style="fill: url(#linear-gradient-95);"/>
      <path d="M357.35,159.95c-.12-.05-.17-.21-.09-.32,.22-.34,.64-1.04,.78-1.65,0,0,.5-.32-1.28-.75-1.78-.43-4.44-1.09-5-2.61-.54-1.48,.89-5.2,3.17-2.24,.09,.11,.26,.12,.34,0,.37-.49,1.36-1.5,2.73-.89,1.28,.57,1.42,1.51,1.41,1.98,0,.14,.12,.25,.26,.22,.65-.12,2.2-.23,2.92,1.36,.6,1.31,.21,2.05-.14,2.42-.11,.12-.06,.31,.09,.36,.42,.13,.97,.49,.92,1.49-.08,1.38-1.61,1.26-2.05,1.19-.07-.01-.14,.01-.19,.07-.38,.42-2.07,2.18-3.9,2.39-.16,.02-.28-.14-.23-.29l.79-2.3c.04-.11-.01-.22-.12-.27l-.39-.17Z" style="fill: url(#linear-gradient-96);"/>
      <path d="M357.04,160.28s1.99-1.37,2.14-.22c.15,1.15-1.79,1.67-2.75,1.24l.62-1.02Z" style="fill: url(#linear-gradient-97);"/>
    </g>
  </g>
  <g>
    <polygon points="272.21 42.59 274.05 50.26 278.45 45.72 272.21 42.59" style="fill: url(#linear-gradient-98);"/>
    <path d="M305.63,29.95l-16.36,23.11c-.31,.44-.79,.74-1.33,.82-.54,.08-1.08-.06-1.51-.39l-22.58-17.3c-.26-.2-.37-.53-.28-.85,.09-.31,.35-.54,.68-.58l41.39-4.81Z" style="fill: url(#linear-gradient-99);"/>
    <polygon points="272.22 42.59 305.63 29.95 275.85 45.39 276.27 47.54 272.22 42.59" style="fill: url(#linear-gradient-100);"/>
    <polygon points="278.02 47.04 274.05 50.26 275.85 45.39 278.02 47.04" style="fill: url(#linear-gradient-101);"/>
  </g>
  <g>
    <g>
      <path d="M194.12,202.79c-.05,.09-2.92,2.2-2.92,2.2,0,0,.64,4.55,3.22,6.34,2.84,1.97,6.84-1.63,6.84-1.63,0,0,3.19,.76,4.88-5.88,.39-1.52-1.86-1.65-4.57-1.37-3.49,.36-7.45,.33-7.45,.33Z" style="fill: url(#linear-gradient-102);"/>
      <path d="M188.74,218.29c1.13-.77,2.37-1.36,3.69-1.72,.5-.13,3.17,.64,4.83,.6,2.27-.05,4.58-1.09,6.45-.62,1.86,.46,3.38,1.07,4.26,1.69,2.63,1.87,4.17,5.36,5.11,8.81-1.78,1.83-4.02,2.64-4.02,2.64l-.41,16.79-9.93,5.08-11.33-5.69,.41-16.41s-3.6-1.68-3.86-2.29c-.26-.61,1.64-6.72,4.81-8.9Z" style="fill: url(#linear-gradient-103);"/>
      <path d="M184.09,227.12s-4.82,13.37,6.17,18.86c2.28-.3,1.41-4.1,1.41-4.1,0,0-4.78-1.06-3.34-12.21-1.32-1.09-4.24-2.56-4.24-2.56Z" style="fill: url(#linear-gradient-104);"/>
      <path d="M212.85,227.12s3.32,13.96-6.17,18.86c-2.28-.3-1.41-4.1-1.41-4.1,0,0,3.85-1.9,3.34-12.21,1.32-1.09,4.24-2.56,4.24-2.56Z" style="fill: url(#linear-gradient-105);"/>
      <rect x="187.25" y="232.22" width="21.77" height="14.7" rx="7.35" ry="7.35" style="fill: url(#linear-gradient-106);"/>
      <g>
        <path d="M218.57,251.28c-2.49-.57-8.25-.26-8.25-.26l-.23,.63-.39,3.15s5.48,.99,8.19,.99c.28,0,.53-.04,.76-.11,.08-.07,.16-.15,.24-.23,1.15-1.25,.82-3.09-.31-4.16Z" style="fill: url(#linear-gradient-107);"/>
        <path d="M218.82,251.35c-.08-.02-.16-.04-.25-.06,1.13,1.07,1.46,2.91,.31,4.16-.08,.08-.16,.16-.24,.23,2.03-.63,2.27-3.74,.17-4.33Z" style="fill: url(#linear-gradient-108);"/>
        <path d="M208.67,250.84l.98,.04c.52,.02,1.02,.28,1.37,.71,.35,.43,.53,1,.5,1.58-.02,.46-.21,.9-.53,1.2-.31,.31-.72,.46-1.14,.43l-1.49-.11,.31-3.86Z" style="fill: url(#linear-gradient-109);"/>
        <g>
          <path d="M213.89,254.19c-.06,0-.12-.05-.14-.12-.25-1-1.22-2-1.23-2.01-.06-.06-.06-.16,0-.23,.05-.06,.15-.07,.2,0,.04,.04,1.04,1.07,1.31,2.16,.02,.09-.02,.17-.1,.2-.01,0-.03,0-.04,0Z" style="fill: url(#linear-gradient-110);"/>
          <path d="M212.57,254.11s-.03,0-.04,0c-.08-.03-.12-.12-.09-.2,.33-1.16,1.55-2.09,1.61-2.13,.07-.05,.16-.03,.2,.04s.03,.17-.04,.22c-.01,0-1.2,.9-1.49,1.96-.02,.07-.08,.11-.14,.11Z" style="fill: url(#linear-gradient-111);"/>
          <path d="M216.54,254.35c-.07,0-.12-.05-.14-.12-.21-1.01-1.13-2.06-1.14-2.07-.06-.06-.05-.16,0-.23,.06-.06,.15-.06,.2,0,.04,.05,.99,1.13,1.21,2.23,.02,.09-.03,.17-.11,.19-.01,0-.02,0-.03,0Z" style="fill: url(#linear-gradient-112);"/>
          <path d="M215.22,254.19s-.03,0-.05,0c-.07-.03-.11-.12-.09-.21,.38-1.14,1.64-2,1.7-2.04,.07-.05,.16-.02,.2,.05,.04,.08,.02,.17-.05,.22-.01,0-1.23,.84-1.58,1.87-.02,.07-.08,.11-.14,.11Z" style="fill: url(#linear-gradient-113);"/>
        </g>
      </g>
      <g>
        <path d="M175.88,250.98c2.5-.5,8.25-.01,8.25-.01l.22,.64,.31,3.16s-5.51,.82-8.21,.73c-.28,0-.53-.06-.76-.14-.08-.08-.16-.16-.23-.24-1.12-1.29-.74-3.12,.42-4.15Z" style="fill: url(#linear-gradient-114);"/>
        <path d="M175.63,251.04c.08-.02,.16-.04,.25-.05-1.15,1.03-1.53,2.86-.42,4.15,.07,.09,.15,.16,.23,.24-2.01-.69-2.17-3.81-.07-4.34Z" style="fill: url(#linear-gradient-115);"/>
        <path d="M185.79,250.84h-.98c-.52,.02-1.02,.26-1.39,.68-.36,.42-.56,.98-.54,1.56,.01,.46,.19,.9,.5,1.22,.31,.32,.71,.49,1.13,.47l1.49-.06-.22-3.87Z" style="fill: url(#linear-gradient-116);"/>
        <g>
          <path d="M180.49,254.03c.06,0,.12-.04,.14-.11,.27-.99,1.27-1.96,1.28-1.97,.06-.06,.07-.16,.01-.23-.05-.07-.14-.07-.2-.02-.04,.04-1.06,1.04-1.36,2.12-.02,.08,.02,.17,.1,.2,.01,0,.03,0,.04,0Z" style="fill: url(#linear-gradient-117);"/>
          <path d="M181.81,253.99s.03,0,.04,0c.08-.02,.12-.11,.1-.2-.3-1.17-1.5-2.13-1.55-2.17-.06-.05-.16-.03-.2,.04-.05,.07-.03,.17,.03,.22,.01,0,1.17,.94,1.44,2,.02,.07,.07,.12,.14,.12Z" style="fill: url(#linear-gradient-118);"/>
          <path d="M177.84,254.11c.07,0,.13-.05,.14-.12,.23-1,1.18-2.03,1.19-2.04,.06-.06,.06-.16,0-.23-.06-.06-.15-.07-.2,0-.04,.04-1.02,1.1-1.27,2.19-.02,.09,.03,.17,.1,.19,.01,0,.02,0,.03,0Z" style="fill: url(#linear-gradient-119);"/>
          <path d="M179.15,253.99s.03,0,.05,0c.08-.03,.12-.12,.09-.2-.35-1.15-1.59-2.05-1.65-2.09-.07-.05-.16-.03-.2,.05-.04,.07-.02,.17,.04,.22,.01,0,1.21,.88,1.53,1.92,.02,.07,.07,.11,.13,.11Z" style="fill: url(#linear-gradient-120);"/>
        </g>
      </g>
      <path d="M219.27,241.4c-1.13-2.6-3.89-3.02-6.25-1.81-.04,.05-14.94,7.69-28.08,11.03,.38,1.21,.57,2.49,.61,3.75,0,.28,0,.56-.01,.83,10.07-.52,21.01-3.88,30.4-6.83,2.91-.94,4.57-4.1,3.32-6.98Z" style="fill: url(#linear-gradient-121);"/>
      <path d="M208.74,254.58c-.04-1.45,.24-2.81,.85-4.06,.02-.06,.04-.11,.06-.17-.75-.23-1.72-.55-2.99-.98-9.33-3.19-16.45-6.42-23.24-10.13-2.64-1.44-5.64-.48-6.48,2.65-.75,2.79,.9,5.17,3.41,6,7.52,2.5,3.6,1.81,6.06,2.6,6.59,2.04,14.8,3.9,22.35,4.4,0-.11-.01-.21-.02-.32Z" style="fill: url(#linear-gradient-122);"/>
      <path d="M192.43,216.58s1,4.35,5.87,4.26c4.96-.09,5.4-4.27,5.4-4.27l-3.24-.69-.27-3.61-4.87,.36-.09,3.43-2.8,.53Z" style="fill: url(#linear-gradient-123);"/>
      <path d="M196,202.03s-5.59,10.82,1.04,13.45c4.67,1.85,7.61-7.19,6.73-9.63-1.35-3.79-2.24-3.34-2.24-3.34l-5.53-.48Z" style="fill: url(#linear-gradient-124);"/>
      <path d="M205.12,201.04c2.76,.76,.4,6.74-3.75,5.33-4.16-1.42-5.79-1.39-6.44-.25-.65,1.14-.79,5.19-2.19,3.19-1.54-2.2-2.4-6.6-.51-8.02,1.69-1.27,2.08-3.24,4.11-3.17,2.69,.09,4.76-1.1,5.98-.24,1.39,.99,.78,2.61,2.81,3.17Z" style="fill: url(#linear-gradient-125);"/>
      <path d="M194.68,207.05s-1.19-1.28-1.38,.26,.42,3.54,1.14,2.44c.72-1.09,.24-2.71,.24-2.71Z" style="fill: url(#linear-gradient-126);"/>
    </g>
    <path d="M199.42,236.2c.12,.78-.3,1.49-1.08,1.6-.78,.12-1.51-.42-1.62-1.2s.24-1.55,1.02-1.67c.78-.12,1.57,.49,1.68,1.27Z" style="fill: url(#linear-gradient-127);"/>
  </g>
  <g>
    <path d="M226.6,167.22l.6,35.49c.05,2.76,2.29,4.97,5.05,4.97h69.66c2.79,0,5.05-2.26,5.05-5.05v-33.22c0-2.73-2.16-4.96-4.89-5.05l-70.26-2.27c-2.89-.09-5.26,2.25-5.22,5.13Z" style="fill: url(#linear-gradient-128);"/>
    <path d="M232.37,170.68l1.51,32.64c.06,1.25,1.1,2.23,2.36,2.21l63.43-1.12c1.26-.02,2.28-1.05,2.28-2.32v-28.31c0-1.24-.97-2.25-2.2-2.32l-64.95-3.22c-1.37-.07-2.49,1.06-2.43,2.42Z" style="fill: #fff; opacity: .6;"/>
    <path d="M237.42,173.74v2.35c0,.83,.68,1.5,1.51,1.48l54.71-.89c.81-.01,1.46-.67,1.46-1.48h0c0-.8-.64-1.46-1.44-1.48l-54.71-1.46c-.83-.02-1.52,.65-1.52,1.48Z" style="fill: #fff; opacity: .6;"/>
    <path d="M238.24,182.62v2.16c0,.84,.7,1.51,1.54,1.48l52.11-1.82c.8-.03,1.43-.68,1.43-1.48v-.67c0-.82-.67-1.49-1.49-1.48l-52.11,.33c-.82,0-1.47,.67-1.47,1.48Z" style="fill: #fff; opacity: .6;"/>
  </g>
  <path d="M332.51,178.64c-.05,0-.1,0-.15-.01-.36-.06-.72-.12-1.08-.18-.51-.09-.84-.57-.75-1.08,.09-.51,.57-.84,1.08-.75,.35,.06,.7,.12,1.05,.18,.51,.08,.85,.56,.77,1.07-.07,.46-.47,.78-.92,.78Zm-3.53-.67c-.06,0-.13,0-.19-.02-.36-.08-.71-.15-1.07-.23-.5-.11-.81-.61-.7-1.11,.11-.5,.61-.82,1.11-.7,.35,.08,.69,.15,1.04,.23,.5,.11,.82,.6,.72,1.1-.09,.44-.48,.74-.91,.74Zm-3.5-.82c-.08,0-.16,0-.23-.03-.35-.09-.7-.19-1.05-.28-.5-.14-.79-.65-.65-1.14,.14-.5,.65-.79,1.14-.65,.34,.09,.69,.19,1.03,.27,.5,.13,.8,.64,.67,1.13-.11,.42-.49,.7-.9,.7Zm-3.46-.98c-.09,0-.18-.01-.27-.04-.35-.11-.69-.22-1.04-.33-.49-.16-.76-.68-.6-1.17,.16-.49,.68-.76,1.17-.6,.34,.11,.68,.22,1.02,.32,.49,.15,.77,.67,.61,1.16-.12,.4-.49,.66-.89,.66Zm-3.41-1.13c-.1,0-.21-.02-.31-.05-.34-.12-.68-.25-1.03-.37-.48-.18-.73-.71-.55-1.2,.18-.48,.71-.73,1.2-.55,.33,.12,.67,.25,1,.37,.48,.17,.74,.7,.56,1.19-.14,.38-.49,.62-.88,.62Zm-3.36-1.28c-.12,0-.24-.02-.35-.07-.34-.14-.67-.28-1.01-.42-.47-.2-.69-.75-.49-1.22s.75-.69,1.22-.49c.33,.14,.66,.28,.98,.41,.48,.19,.7,.74,.51,1.21-.15,.36-.49,.58-.86,.58Zm-3.3-1.43c-.13,0-.26-.03-.39-.09-.33-.15-.66-.31-.99-.46-.46-.22-.66-.78-.44-1.24,.22-.46,.78-.66,1.24-.44,.32,.15,.64,.3,.97,.45,.47,.22,.67,.77,.46,1.23-.16,.34-.49,.54-.85,.54Zm-3.23-1.57c-.14,0-.29-.03-.42-.1-.32-.17-.65-.33-.97-.51-.45-.24-.63-.8-.39-1.26,.24-.45,.8-.63,1.26-.39,.31,.17,.63,.33,.94,.49,.46,.23,.64,.8,.4,1.25-.16,.32-.49,.51-.83,.51Zm-3.16-1.71c-.16,0-.31-.04-.46-.12-.32-.18-.63-.36-.94-.55-.44-.26-.59-.83-.33-1.27,.26-.44,.83-.59,1.27-.33,.31,.18,.61,.36,.92,.53,.45,.25,.6,.82,.35,1.27-.17,.3-.49,.47-.81,.47Zm-3.08-1.85c-.17,0-.34-.05-.5-.14-.31-.19-.61-.39-.92-.59-.43-.28-.55-.86-.27-1.29,.28-.43,.86-.55,1.29-.27,.3,.19,.6,.39,.9,.58,.43,.27,.56,.85,.29,1.28-.18,.28-.48,.43-.79,.43Zm-3-1.98c-.18,0-.37-.05-.53-.17-.3-.21-.6-.42-.89-.63-.42-.3-.51-.88-.22-1.3,.3-.42,.88-.51,1.3-.22,.29,.21,.58,.41,.87,.61,.42,.29,.53,.87,.23,1.29-.18,.26-.47,.4-.76,.4Zm-2.91-2.11c-.2,0-.39-.06-.56-.19-.29-.22-.58-.44-.86-.67-.4-.32-.48-.9-.16-1.31,.32-.4,.9-.48,1.31-.16,.28,.22,.56,.44,.84,.65,.41,.31,.49,.89,.18,1.3-.18,.24-.46,.37-.74,.37Zm-2.81-2.24c-.21,0-.42-.07-.6-.22-.28-.23-.56-.47-.83-.71-.39-.33-.43-.92-.1-1.31,.33-.39,.92-.43,1.31-.1,.27,.23,.54,.46,.81,.69,.39,.33,.45,.92,.12,1.31-.18,.22-.45,.33-.71,.33Zm-2.71-2.37c-.22,0-.45-.08-.63-.24-.27-.25-.54-.49-.8-.74-.37-.35-.39-.94-.04-1.31,.35-.37,.94-.39,1.31-.04,.26,.24,.52,.48,.78,.72,.38,.35,.41,.93,.06,1.31-.18,.2-.43,.3-.69,.3Zm-2.6-2.49c-.24,0-.48-.09-.66-.27-.26-.26-.51-.52-.77-.78-.36-.37-.35-.96,.02-1.31,.37-.36,.96-.35,1.31,.02,.25,.25,.5,.51,.75,.76,.36,.36,.36,.95,0,1.32-.18,.18-.42,.27-.66,.27Zm-2.48-2.6c-.25,0-.51-.1-.69-.3-.24-.27-.49-.54-.73-.82-.34-.39-.3-.97,.08-1.31,.39-.34,.97-.3,1.31,.08,.23,.27,.47,.53,.71,.79,.35,.38,.32,.97-.06,1.31-.18,.16-.4,.24-.62,.24Zm-2.34-2.72c-.27,0-.54-.12-.72-.34-.23-.28-.46-.57-.68-.86-.32-.4-.25-.99,.16-1.31,.4-.32,.99-.25,1.31,.16,.22,.28,.44,.56,.66,.83,.32,.4,.26,.98-.14,1.31-.17,.14-.38,.21-.59,.21Zm-14.58-.92h-.16c-.23,0-.47,0-.7-.01-.51-.02-.92-.45-.9-.96,.02-.51,.44-.92,.96-.9,.22,0,.44,.01,.65,.01h.15s.24,0,.24,0c.52-.02,.93,.41,.94,.92,0,.51-.41,.93-.92,.94h-.26Zm2.76-.14c-.47,0-.87-.36-.92-.83-.05-.51,.32-.97,.83-1.02,.35-.04,.69-.08,1.03-.13,.51-.07,.98,.28,1.05,.79,.07,.51-.28,.98-.79,1.05-.37,.05-.74,.1-1.11,.14-.03,0-.07,0-.1,0Zm-6.09-.07s-.08,0-.12,0c-.37-.05-.74-.1-1.1-.17-.51-.09-.84-.57-.76-1.08,.09-.51,.57-.84,1.08-.76,.34,.06,.68,.11,1.03,.16,.51,.07,.87,.53,.8,1.04-.06,.47-.46,.81-.92,.81Zm9.64-.53c-.42,0-.8-.29-.9-.72-.12-.5,.19-1,.69-1.12,.34-.08,.68-.17,1.01-.26,.5-.14,1.01,.15,1.14,.65,.14,.5-.15,1.01-.65,1.14-.36,.1-.72,.19-1.08,.28-.07,.02-.14,.03-.22,.03Zm-13.15-.18c-.08,0-.16-.01-.25-.03-.36-.1-.71-.2-1.07-.31-.49-.15-.76-.68-.61-1.17,.15-.49,.68-.76,1.17-.61,.33,.1,.66,.2,1,.29,.5,.14,.79,.65,.65,1.14-.11,.41-.49,.69-.9,.69Zm16.59-.86c-.38,0-.73-.23-.87-.61-.18-.48,.07-1.02,.55-1.19,.33-.12,.65-.25,.97-.38,.17-.07,.34-.08,.5-.06,.06-.19,.18-.36,.36-.48,.29-.2,.65-.21,.95-.06,.09-.17,.23-.32,.41-.41,.31-.16,.62-.32,.93-.48,.45-.25,1.02-.08,1.26,.38,.24,.45,.08,1.02-.38,1.26-.32,.18-.65,.35-.98,.51-.07,.03-.13,.06-.2,.07,.18,.4,.06,.88-.31,1.14-.42,.3-1,.2-1.3-.22-.05-.08-.11-.15-.16-.23-.1,.13-.23,.23-.39,.3-.34,.14-.69,.27-1.03,.4-.11,.04-.22,.06-.32,.06Zm-19.99-.31c-.12,0-.24-.02-.36-.07-.34-.14-.68-.29-1.02-.45-.47-.22-.67-.77-.46-1.23,.22-.47,.77-.67,1.23-.46,.32,.15,.64,.29,.96,.42,.47,.2,.7,.74,.5,1.22-.15,.36-.49,.57-.86,.57Zm-3.23-1.58c-.16,0-.31-.04-.46-.12-.32-.18-.64-.37-.96-.56-.44-.27-.58-.84-.31-1.28,.27-.44,.84-.58,1.28-.31,.3,.18,.6,.36,.9,.53,.45,.25,.6,.82,.35,1.27-.17,.3-.49,.47-.81,.47Zm23.89-1.25c-.31,0-.62-.16-.79-.44-.19-.31-.38-.63-.56-.94-.26-.44-.11-1.01,.34-1.27,.44-.26,1.01-.11,1.27,.34,.18,.3,.36,.61,.54,.91,.27,.44,.13,1.01-.31,1.28-.15,.09-.32,.14-.49,.14Zm5.74-.07c-.31,0-.61-.15-.78-.43-.28-.43-.15-1.01,.28-1.28,.29-.19,.59-.38,.88-.58,.42-.29,1-.18,1.29,.25,.29,.42,.18,1-.25,1.29-.3,.21-.61,.41-.92,.61-.16,.1-.33,.15-.5,.15Zm-32.65-.63c-.19,0-.38-.06-.55-.18-.3-.22-.6-.44-.89-.67-.41-.32-.48-.9-.16-1.3,.32-.41,.9-.48,1.3-.16,.28,.22,.56,.43,.84,.63,.42,.3,.51,.88,.21,1.3-.18,.25-.47,.38-.75,.38Zm35.58-1.45c-.28,0-.55-.12-.73-.36-.32-.4-.24-.99,.16-1.31,.28-.22,.55-.44,.82-.66,.4-.33,.98-.27,1.31,.12,.33,.4,.27,.98-.12,1.31-.28,.23-.57,.47-.86,.69-.17,.13-.37,.2-.57,.2Zm-38.38-.82c-.22,0-.44-.08-.62-.24-.27-.25-.54-.5-.81-.76-.37-.36-.38-.94-.03-1.31,.36-.37,.94-.38,1.31-.03,.25,.24,.51,.48,.77,.72,.38,.34,.41,.93,.07,1.31-.18,.2-.44,.31-.69,.31Zm27.94-.17c-.34,0-.67-.19-.83-.51-.17-.33-.33-.66-.49-.99-.22-.46-.02-1.02,.44-1.24,.46-.22,1.02-.02,1.24,.44,.15,.32,.31,.63,.46,.95,.23,.46,.05,1.02-.41,1.25-.13,.07-.28,.1-.42,.1Zm13.16-1.35c-.25,0-.5-.1-.68-.29-.35-.37-.33-.96,.04-1.31,.26-.24,.51-.48,.76-.73,.37-.36,.95-.36,1.32,0,.36,.37,.36,.95,0,1.32-.26,.26-.53,.51-.79,.76-.18,.17-.41,.25-.64,.25Zm-43.65-1.02c-.25,0-.51-.1-.69-.31-.25-.27-.49-.55-.73-.83-.33-.39-.29-.98,.11-1.31,.39-.33,.98-.29,1.31,.11,.23,.27,.46,.53,.69,.79,.34,.38,.32,.97-.07,1.31-.18,.16-.4,.24-.62,.24Zm29-.9c-.37,0-.72-.22-.86-.58-.14-.34-.27-.69-.4-1.03-.18-.48,.07-1.02,.55-1.19,.48-.18,1.02,.07,1.19,.55,.12,.33,.25,.66,.38,.98,.19,.48-.04,1.02-.52,1.21-.11,.05-.23,.07-.34,.07Zm17.16-.65c-.22,0-.44-.08-.62-.24-.38-.34-.41-.93-.07-1.31,.24-.26,.47-.53,.69-.79,.33-.39,.92-.44,1.31-.11,.39,.33,.44,.92,.11,1.31-.24,.28-.48,.56-.73,.83-.18,.21-.44,.31-.69,.31Zm-48.44-1.23c-.28,0-.57-.13-.75-.38-.22-.3-.43-.6-.64-.9-.29-.42-.19-1,.23-1.29,.42-.29,1-.19,1.29,.23,.2,.29,.4,.57,.61,.85,.31,.41,.22,1-.19,1.3-.17,.12-.36,.18-.55,.18Zm30.11-1.52c-.4,0-.78-.27-.89-.67l-.07-.25c-.08-.27-.15-.54-.22-.82-.13-.5,.18-1,.67-1.13,.5-.12,1,.18,1.13,.67,.06,.26,.13,.51,.2,.77l.07,.24c.14,.49-.14,1.01-.64,1.15-.09,.02-.17,.04-.26,.04Zm20.61-.03c-.19,0-.39-.06-.56-.19-.41-.31-.49-.89-.18-1.3,.21-.28,.42-.57,.62-.85,.3-.42,.88-.52,1.3-.22,.42,.3,.51,.88,.22,1.3-.21,.3-.43,.6-.65,.89-.18,.24-.46,.37-.74,.37Zm-52.71-1.44c-.32,0-.62-.16-.8-.45-.19-.32-.37-.64-.55-.96-.25-.45-.09-1.01,.36-1.27,.45-.25,1.01-.09,1.27,.36,.17,.31,.35,.61,.53,.91,.26,.44,.12,1.01-.32,1.28-.15,.09-.31,.13-.48,.13Zm54.75-1.52c-.17,0-.34-.05-.49-.14-.44-.27-.57-.85-.3-1.28,.19-.3,.37-.6,.55-.9,.26-.44,.83-.59,1.27-.33,.44,.26,.59,.83,.33,1.27-.19,.32-.38,.63-.57,.94-.18,.28-.48,.44-.79,.44Zm-23.45-.52c-.45,0-.84-.32-.92-.78-.06-.36-.12-.73-.17-1.1-.07-.51,.29-.98,.8-1.05,.51-.07,.98,.29,1.05,.8,.05,.35,.1,.69,.16,1.03,.09,.51-.26,.99-.76,1.07-.05,0-.1,.01-.16,.01Zm-33-1.14c-.35,0-.68-.2-.84-.53-.16-.33-.31-.67-.46-1.01-.21-.47,.01-1.02,.48-1.22,.47-.21,1.02,.01,1.22,.48,.14,.32,.28,.64,.43,.96,.22,.46,.02,1.02-.44,1.24-.13,.06-.26,.09-.4,.09Zm58.2-1.48c-.14,0-.28-.03-.41-.1-.46-.23-.65-.78-.42-1.25,.15-.31,.3-.63,.45-.95,.21-.47,.76-.68,1.23-.47,.47,.21,.68,.76,.47,1.23-.15,.34-.31,.67-.47,1-.16,.33-.49,.52-.83,.52Zm-25.59-.95c-.49,0-.9-.39-.93-.88-.02-.37-.03-.74-.04-1.11,0-.51,.4-.94,.91-.94,.51-.01,.94,.4,.94,.91,0,.35,.02,.7,.04,1.04,.03,.51-.37,.95-.88,.98-.02,0-.03,0-.05,0Zm-33.97-.89c-.38,0-.74-.24-.88-.62-.12-.35-.24-.7-.35-1.05-.16-.49,.11-1.01,.6-1.17,.49-.16,1.01,.11,1.17,.6,.11,.33,.22,.66,.33,.99,.17,.48-.08,1.02-.57,1.19-.1,.04-.21,.05-.31,.05Zm60.95-1.47c-.1,0-.2-.02-.3-.05-.49-.17-.74-.7-.58-1.18,.11-.33,.22-.66,.32-.99,.15-.49,.66-.77,1.16-.63,.49,.15,.77,.66,.63,1.16-.1,.35-.22,.71-.34,1.07-.13,.39-.49,.63-.88,.63Zm-26.95-1.23s-.04,0-.07,0c-.51-.04-.9-.48-.86-.99,.03-.37,.06-.74,.1-1.11,.05-.51,.52-.88,1.02-.82,.51,.05,.88,.51,.82,1.02-.04,.35-.07,.69-.09,1.04-.03,.49-.44,.87-.93,.87Zm-35.02-.74c-.42,0-.8-.29-.9-.71-.09-.36-.17-.72-.24-1.08-.11-.5,.21-1,.72-1.1,.5-.11,1,.21,1.1,.72,.07,.34,.15,.69,.23,1.03,.12,.5-.19,1-.69,1.12-.07,.02-.15,.03-.22,.03Zm62.88-1.5c-.05,0-.11,0-.16-.01-.51-.09-.84-.57-.75-1.08,.06-.34,.11-.68,.15-1.02,.06-.51,.53-.87,1.04-.81,.51,.06,.87,.53,.81,1.04-.05,.37-.1,.75-.17,1.11-.08,.45-.47,.77-.91,.77Zm-27.39-1.31c-.06,0-.12,0-.19-.02-.5-.1-.83-.59-.73-1.1,.07-.37,.15-.73,.24-1.09,.12-.5,.63-.8,1.12-.68,.5,.12,.8,.63,.68,1.12-.08,.34-.16,.67-.23,1.02-.09,.44-.48,.75-.91,.75Zm-36.18-.71c-.45,0-.85-.33-.92-.79-.05-.36-.1-.73-.15-1.09-.06-.51,.3-.97,.81-1.04,.51-.06,.97,.3,1.04,.81,.04,.35,.09,.7,.14,1.04,.08,.51-.27,.98-.78,1.06-.05,0-.09,.01-.14,.01Zm63.86-1.55c-.51,0-.92-.41-.93-.92,0-.3-.02-.61-.04-.91v-.12c-.05-.51,.34-.96,.85-1,.51-.04,.96,.35,1,.86v.12c.03,.33,.05,.67,.05,1.01,0,.51-.4,.94-.92,.94,0,0,0,0-.01,0Zm-26.73-1.2c-.1,0-.21-.02-.31-.05-.48-.17-.74-.7-.56-1.19,.13-.35,.26-.71,.4-1.05,.19-.48,.74-.71,1.21-.51,.48,.19,.7,.74,.51,1.21-.13,.32-.25,.64-.37,.97-.14,.38-.49,.62-.88,.62Zm-37.52-.82c-.49,0-.9-.38-.93-.87-.02-.37-.04-.73-.06-1.1-.02-.51,.38-.95,.89-.97,.52,0,.95,.38,.97,.89,.01,.35,.03,.7,.05,1.05,.03,.51-.36,.95-.87,.99-.02,0-.04,0-.06,0Zm63.79-1.54c-.42,0-.79-.28-.9-.7-.08-.33-.18-.65-.28-.97-.16-.49,.1-1.01,.59-1.17,.49-.16,1.01,.1,1.17,.59,.12,.36,.23,.73,.32,1.1,.13,.5-.18,1-.67,1.13-.08,.02-.15,.03-.23,.03Zm-24.82-.93c-.15,0-.3-.04-.44-.11-.45-.24-.62-.81-.38-1.26,.18-.33,.37-.66,.56-.98,.27-.44,.84-.58,1.28-.31,.44,.27,.58,.84,.31,1.28-.18,.29-.35,.59-.51,.9-.17,.31-.49,.49-.82,.49Zm-39.05-1.13s-.01,0-.02,0c-.51,0-.92-.43-.91-.94,0-.37,.02-.73,.03-1.1,.02-.51,.45-.91,.97-.89,.51,.02,.91,.45,.89,.97-.01,.35-.02,.7-.03,1.06,0,.51-.42,.92-.93,.92Zm62.59-1.29c-.33,0-.66-.18-.82-.5-.16-.3-.33-.59-.5-.88-.27-.44-.14-1.01,.3-1.28,.44-.27,1.01-.14,1.28,.3,.2,.32,.39,.66,.57,.99,.24,.45,.06,1.02-.39,1.26-.14,.07-.29,.11-.43,.11Zm-21.57-.58c-.2,0-.41-.07-.58-.2-.4-.32-.47-.9-.15-1.31,.23-.29,.48-.59,.73-.87,.34-.38,.93-.42,1.31-.07,.38,.34,.42,.93,.07,1.31-.23,.26-.45,.52-.66,.78-.18,.23-.46,.35-.73,.35Zm-40.82-1.71s-.06,0-.09,0c-.51-.05-.89-.5-.84-1.01,.03-.36,.07-.73,.11-1.09,.06-.51,.52-.88,1.03-.82,.51,.06,.88,.52,.82,1.03-.04,.35-.08,.7-.11,1.05-.04,.48-.45,.85-.93,.85Zm60.36-.65c-.25,0-.51-.1-.69-.31-.22-.25-.46-.49-.7-.72-.37-.35-.39-.94-.04-1.31,.35-.37,.94-.39,1.31-.04,.28,.26,.55,.54,.81,.83,.34,.38,.31,.97-.07,1.31-.18,.16-.4,.24-.62,.24Zm-17.04-.21c-.26,0-.53-.11-.71-.33-.33-.39-.28-.98,.11-1.31,.29-.24,.59-.48,.89-.71,.41-.31,.99-.22,1.3,.19,.31,.41,.22,.99-.19,1.3-.27,.2-.54,.42-.8,.64-.17,.15-.39,.22-.6,.22Zm2.97-2.02c-.33,0-.66-.18-.82-.49-.24-.45-.07-1.02,.39-1.26,.34-.18,.69-.35,1.03-.5,.47-.21,1.02,0,1.23,.48,.21,.47,0,1.02-.48,1.23-.3,.13-.61,.28-.91,.44-.14,.07-.29,.11-.43,.11Zm11.32-.06c-.16,0-.33-.04-.48-.13-.28-.17-.58-.33-.87-.47-.46-.22-.66-.77-.44-1.24,.22-.46,.77-.66,1.24-.44,.35,.17,.7,.35,1.03,.55,.44,.26,.58,.84,.32,1.28-.17,.29-.48,.45-.8,.45Zm-57.15-.62s-.1,0-.15-.01c-.51-.08-.85-.56-.77-1.07,.06-.36,.12-.72,.19-1.08,.09-.51,.58-.84,1.08-.75,.51,.09,.84,.58,.75,1.08-.06,.35-.12,.7-.18,1.05-.07,.46-.47,.78-.92,.78Zm49.18-.59c-.42,0-.81-.29-.91-.72-.11-.5,.2-1,.7-1.11,.38-.09,.76-.16,1.14-.21,.51-.07,.98,.29,1.05,.8,.07,.51-.29,.98-.8,1.05-.32,.04-.65,.1-.98,.18-.07,.02-.14,.02-.21,.02Zm4.64-.09c-.06,0-.12,0-.18-.02-.32-.06-.65-.11-.97-.14-.51-.05-.89-.5-.84-1.01,.05-.51,.5-.89,1.01-.84,.39,.04,.78,.09,1.16,.17,.5,.1,.83,.59,.73,1.09-.09,.44-.48,.75-.91,.75Zm-53.12-2.85c-.07,0-.14,0-.21-.02-.5-.12-.81-.61-.7-1.12,.08-.36,.17-.71,.26-1.07,.13-.5,.63-.8,1.13-.68,.5,.13,.8,.63,.68,1.13-.09,.34-.17,.69-.25,1.03-.1,.43-.48,.72-.91,.72Zm.92-3.48c-.09,0-.18-.01-.27-.04-.49-.15-.77-.66-.63-1.16,.1-.35,.21-.7,.32-1.05,.16-.49,.68-.76,1.17-.61,.49,.16,.76,.68,.61,1.17-.11,.34-.21,.68-.31,1.02-.12,.4-.49,.66-.89,.66Zm1.12-3.41c-.11,0-.21-.02-.32-.06-.48-.17-.73-.71-.56-1.19,.12-.34,.25-.68,.38-1.03,.18-.48,.72-.72,1.2-.54,.48,.18,.72,.72,.54,1.2-.13,.33-.25,.66-.37,1-.14,.38-.49,.61-.87,.61Zm1.32-3.35c-.12,0-.24-.02-.36-.07-.47-.2-.69-.75-.49-1.22,.14-.34,.29-.67,.44-1,.21-.47,.76-.68,1.23-.47,.47,.21,.68,.76,.47,1.23-.14,.32-.29,.65-.42,.98-.15,.35-.49,.57-.86,.57Zm1.49-3.27c-.14,0-.28-.03-.41-.09-.46-.23-.65-.78-.43-1.24,.16-.33,.32-.65,.49-.98,.23-.46,.79-.64,1.25-.41,.46,.23,.64,.79,.41,1.25-.16,.32-.32,.63-.47,.95-.16,.33-.49,.52-.84,.52Zm1.66-3.19c-.15,0-.31-.04-.45-.12-.45-.25-.61-.81-.36-1.26,.18-.32,.36-.64,.54-.95,.26-.45,.82-.6,1.27-.34,.45,.26,.6,.82,.34,1.27-.18,.31-.35,.62-.52,.93-.17,.31-.49,.48-.81,.48Zm1.82-3.1c-.17,0-.34-.04-.49-.14-.44-.27-.57-.84-.3-1.28,.19-.31,.38-.62,.58-.92,.28-.43,.85-.56,1.28-.29,.43,.28,.56,.85,.29,1.28-.19,.3-.38,.6-.57,.9-.18,.28-.48,.44-.79,.44Zm1.95-3.02c-.18,0-.36-.05-.52-.16-.43-.29-.54-.87-.25-1.29,.2-.3,.41-.6,.61-.9,.29-.42,.87-.53,1.29-.24,.42,.29,.53,.87,.24,1.29-.2,.29-.4,.59-.6,.88-.18,.27-.47,.41-.77,.41Zm2.07-2.94c-.19,0-.38-.06-.55-.18-.41-.3-.5-.89-.2-1.3,.21-.29,.43-.58,.65-.87,.31-.41,.89-.5,1.3-.19,.41,.31,.5,.89,.19,1.3-.21,.29-.43,.57-.64,.86-.18,.25-.46,.38-.75,.38Zm2.17-2.86c-.2,0-.4-.06-.57-.2-.4-.32-.47-.9-.16-1.31,.22-.29,.45-.57,.68-.85,.32-.4,.91-.47,1.31-.15,.4,.32,.47,.91,.15,1.31-.22,.28-.44,.56-.66,.84-.18,.23-.46,.36-.73,.36Zm2.26-2.8c-.21,0-.42-.07-.59-.22-.39-.33-.45-.92-.12-1.31,.23-.28,.46-.56,.7-.83,.33-.39,.92-.44,1.31-.11,.39,.33,.44,.92,.11,1.31-.23,.27-.46,.55-.69,.82-.18,.22-.45,.33-.72,.33Zm2.34-2.73c-.22,0-.44-.08-.61-.23-.39-.34-.42-.93-.09-1.31,.24-.27,.48-.54,.72-.81,.34-.38,.93-.42,1.31-.08,.38,.34,.42,.93,.08,1.31-.24,.27-.47,.53-.71,.8-.18,.21-.44,.32-.7,.32Zm2.4-2.68c-.22,0-.45-.08-.63-.25-.38-.35-.4-.94-.06-1.31,.24-.27,.49-.53,.74-.8,.35-.38,.94-.4,1.31-.05,.38,.35,.4,.94,.05,1.31-.24,.26-.49,.53-.73,.79-.18,.2-.43,.3-.69,.3Zm2.46-2.63c-.23,0-.46-.09-.64-.26-.37-.35-.39-.94-.03-1.31,.25-.26,.5-.52,.75-.78,.36-.37,.94-.38,1.31-.03,.37,.36,.38,.94,.03,1.31-.25,.26-.5,.52-.74,.78-.18,.19-.43,.29-.67,.29Zm2.5-2.59c-.23,0-.47-.09-.65-.27-.37-.36-.37-.95-.01-1.32l.76-.77c.36-.37,.95-.37,1.32,0,.37,.36,.37,.95,0,1.32l-.75,.77c-.18,.19-.42,.28-.66,.28Zm2.53-2.55c-.24,0-.48-.09-.66-.27-.36-.36-.36-.95,0-1.32l.76-.76c.36-.36,.95-.36,1.32,0,.36,.36,.36,.95,0,1.32l-.76,.76c-.18,.18-.42,.27-.66,.27Zm2.55-2.53c-.24,0-.48-.09-.66-.28-.36-.37-.36-.95,0-1.32l.77-.76c.37-.36,.95-.36,1.32,.01,.36,.37,.36,.95-.01,1.32l-.77,.76c-.18,.18-.42,.27-.65,.27Zm2.56-2.52c-.24,0-.48-.09-.66-.28-.36-.37-.35-.96,.01-1.31l.77-.75c.37-.36,.96-.35,1.32,.01,.36,.37,.35,.96-.01,1.32l-.77,.75c-.18,.18-.42,.27-.65,.27Z" style="fill: #fff;"/>
  <path d="M181.02,240.3c-.09,0-.19-.01-.28-.04-.35-.11-.69-.22-1.04-.34-.49-.16-.75-.69-.58-1.18,.16-.49,.69-.75,1.18-.58,.34,.11,.67,.22,1.01,.33,.49,.16,.76,.68,.6,1.17-.13,.4-.49,.65-.89,.65Zm-3.39-1.19c-.11,0-.22-.02-.33-.06-.34-.13-.68-.27-1.02-.4-.48-.19-.7-.74-.51-1.21,.19-.48,.74-.7,1.21-.51,.33,.13,.66,.26,.99,.39,.48,.18,.72,.72,.53,1.2-.14,.37-.49,.6-.87,.6Zm-3.31-1.4c-.13,0-.26-.03-.39-.09-.33-.15-.66-.31-.99-.47-.46-.23-.65-.78-.43-1.24s.78-.65,1.24-.43c.32,.15,.64,.31,.96,.45,.47,.22,.67,.77,.45,1.23-.16,.34-.49,.54-.84,.54Zm-3.21-1.62c-.15,0-.31-.04-.45-.12-.32-.18-.64-.36-.96-.54-.44-.26-.59-.83-.34-1.27,.26-.44,.83-.59,1.27-.34,.3,.18,.61,.35,.92,.52,.45,.25,.61,.81,.36,1.26-.17,.31-.49,.48-.81,.48Zm-3.08-1.86c-.18,0-.35-.05-.51-.15-.31-.2-.61-.41-.91-.62-.42-.29-.52-.87-.23-1.29,.29-.42,.87-.52,1.29-.23,.29,.2,.58,.4,.87,.59,.43,.28,.55,.86,.26,1.29-.18,.27-.47,.42-.78,.42Zm-2.91-2.11c-.2,0-.41-.07-.58-.2-.29-.23-.57-.46-.85-.7-.39-.33-.44-.92-.11-1.31,.33-.39,.92-.44,1.31-.11,.27,.23,.54,.45,.81,.67,.4,.32,.47,.9,.15,1.31-.18,.23-.45,.35-.73,.35Zm-2.7-2.37c-.23,0-.47-.09-.65-.26-.26-.26-.53-.52-.78-.78-.36-.37-.35-.96,.02-1.32,.37-.36,.96-.35,1.31,.02,.24,.25,.49,.5,.74,.74,.37,.36,.38,.95,.02,1.32-.18,.19-.43,.28-.67,.28Zm-2.45-2.63c-.27,0-.53-.11-.71-.33-.24-.28-.47-.57-.7-.86-.32-.4-.24-.99,.16-1.31,.4-.32,.99-.24,1.31,.16,.22,.28,.43,.55,.66,.81,.33,.39,.28,.98-.12,1.31-.17,.15-.39,.22-.6,.22Zm-2.14-2.89c-.3,0-.6-.15-.78-.42-.2-.31-.4-.63-.59-.94-.26-.44-.12-1.01,.32-1.28,.44-.26,1.01-.12,1.28,.32,.18,.3,.36,.59,.55,.89,.28,.43,.16,1.01-.27,1.29-.16,.1-.33,.15-.51,.15Zm-1.77-3.13c-.34,0-.68-.19-.84-.52-.16-.33-.32-.67-.47-1.01-.21-.47,0-1.02,.47-1.23,.47-.21,1.02,0,1.23,.47,.14,.32,.29,.63,.44,.95,.23,.46,.03,1.02-.43,1.24-.13,.06-.27,.09-.41,.09Zm121.24-.94s-.03,0-.05,0c-.38-.02-.76-.05-1.13-.1-.51-.06-.88-.52-.82-1.03,.06-.51,.52-.88,1.03-.82,.33,.04,.68,.07,1.02,.09,.51,.03,.91,.47,.88,.98-.03,.5-.44,.88-.93,.88Zm2.51-.03c-.48,0-.89-.37-.93-.86-.04-.51,.34-.96,.85-1,.34-.03,.68-.06,1.02-.11,.51-.07,.98,.29,1.04,.8s-.29,.98-.8,1.04c-.37,.05-.75,.09-1.12,.12-.02,0-.05,0-.07,0Zm-6.07-.48c-.07,0-.13,0-.2-.02-.36-.08-.72-.17-1.08-.26-.5-.13-.8-.64-.67-1.13s.64-.8,1.13-.67c.34,.09,.67,.17,1.01,.24,.5,.11,.82,.6,.71,1.11-.09,.44-.48,.73-.91,.73Zm9.61-.12c-.41,0-.79-.28-.9-.7-.13-.5,.17-1,.67-1.13,.33-.09,.67-.18,.99-.28,.49-.15,1.01,.12,1.17,.61,.15,.49-.12,1.01-.61,1.17-.36,.11-.72,.22-1.08,.31-.08,.02-.16,.03-.23,.03Zm-13.06-.87c-.1,0-.21-.02-.31-.05-.35-.12-.69-.25-1.04-.38-.48-.19-.72-.72-.53-1.2,.19-.48,.72-.72,1.2-.53,.33,.13,.65,.25,.98,.36,.48,.17,.74,.7,.57,1.19-.13,.38-.49,.62-.88,.62Zm16.45-.33c-.35,0-.69-.2-.85-.54-.21-.47,0-1.02,.46-1.23,.31-.14,.62-.29,.93-.45,.46-.24,1.02-.06,1.25,.39,.24,.46,.06,1.02-.39,1.25-.33,.17-.67,.34-1.02,.5-.12,.06-.26,.08-.38,.08Zm-132.05-.55c-.39,0-.75-.24-.88-.63-.12-.35-.23-.7-.34-1.06-.15-.49,.13-1.01,.62-1.16,.49-.15,1.01,.13,1.16,.62,.1,.33,.21,.66,.32,.99,.17,.49-.09,1.01-.58,1.18-.1,.03-.2,.05-.3,.05Zm112.28-.48c-.13,0-.27-.03-.39-.09-.33-.16-.66-.32-.99-.48-.46-.23-.65-.79-.42-1.25,.23-.46,.79-.65,1.25-.42,.32,.16,.63,.31,.95,.46,.47,.22,.67,.77,.45,1.24-.16,.34-.49,.54-.84,.54Zm22.89-.75c-.29,0-.58-.14-.76-.39-.3-.42-.2-1,.22-1.3,.28-.2,.55-.4,.82-.61,.4-.32,.99-.26,1.31,.14,.32,.4,.26,.99-.14,1.31-.29,.23-.6,.46-.91,.68-.16,.11-.35,.17-.54,.17Zm-26.08-.91c-.16,0-.31-.04-.46-.12-.32-.18-.63-.36-.95-.55-.44-.26-.59-.83-.33-1.27,.26-.44,.83-.59,1.27-.33,.3,.18,.61,.36,.92,.53,.45,.25,.6,.82,.35,1.27-.17,.3-.49,.47-.81,.47Zm-110.04-1.33c-.43,0-.82-.3-.91-.74-.07-.36-.14-.73-.2-1.1-.08-.51,.26-.98,.77-1.07,.51-.08,.98,.26,1.07,.77,.06,.34,.12,.68,.19,1.02,.1,.5-.22,.99-.72,1.1-.06,.01-.13,.02-.19,.02Zm138.81-.13c-.22,0-.45-.08-.62-.24-.38-.34-.41-.93-.06-1.31,.23-.25,.45-.51,.65-.77,.32-.41,.9-.48,1.31-.16,.41,.32,.48,.9,.16,1.31-.23,.3-.48,.59-.74,.88-.18,.2-.44,.31-.69,.31Zm-31.85-.41c-.17,0-.35-.05-.5-.15-.31-.2-.61-.4-.91-.6-.43-.28-.54-.86-.26-1.29,.28-.43,.86-.54,1.29-.26,.3,.2,.59,.39,.89,.58,.43,.28,.56,.85,.28,1.29-.18,.28-.48,.43-.78,.43Zm-2.98-2.01c-.18,0-.37-.05-.53-.17-.3-.21-.59-.42-.89-.63-.42-.3-.52-.88-.22-1.3,.3-.42,.88-.52,1.3-.22,.29,.21,.58,.41,.88,.62,.42,.29,.52,.87,.23,1.29-.18,.26-.47,.4-.76,.4Zm36.88-.52c-.14,0-.29-.03-.42-.1-.46-.23-.64-.79-.41-1.25,.15-.3,.29-.6,.41-.91,.19-.48,.73-.71,1.21-.52,.48,.19,.71,.73,.52,1.21-.14,.35-.3,.71-.48,1.06-.16,.32-.49,.51-.83,.51Zm-141.34-.49c-.49,0-.9-.38-.93-.87-.02-.37-.04-.75-.05-1.12-.01-.51,.4-.94,.91-.95,.51,0,.94,.4,.95,.91,0,.35,.02,.69,.04,1.04,.03,.51-.36,.95-.87,.99-.02,0-.04,0-.06,0Zm101.54-1.08c-.19,0-.38-.06-.55-.18l-.87-.64c-.41-.3-.51-.88-.2-1.3s.88-.51,1.3-.2l.87,.63c.42,.3,.51,.88,.21,1.3-.18,.25-.47,.38-.75,.38Zm40.92-1.83c-.05,0-.1,0-.15-.01-.51-.08-.85-.56-.77-1.07,.05-.32,.09-.65,.11-.98,.04-.51,.48-.9,.99-.86,.51,.04,.9,.48,.86,.99-.03,.39-.07,.78-.13,1.16-.07,.46-.47,.78-.92,.78Zm-43.84-.29c-.18,0-.36-.05-.52-.17,0,0-.04-.03-.04-.03-.28-.2-.56-.4-.84-.61-.42-.3-.51-.88-.21-1.3,.3-.42,.88-.51,1.3-.21,.28,.2,.57,.41,.85,.61,.41,.3,.52,.89,.22,1.3-.18,.26-.47,.4-.76,.4Zm-98.58-.39s-.05,0-.08,0c-.51-.04-.89-.49-.85-1.01,.03-.37,.07-.75,.12-1.12,.07-.51,.54-.87,1.05-.8,.51,.07,.87,.54,.8,1.05-.05,.34-.08,.68-.11,1.03-.04,.48-.45,.85-.93,.85Zm95.67-1.7c-.18,0-.37-.05-.53-.17-.29-.21-.59-.41-.88-.62-.42-.29-.53-.87-.23-1.29,.29-.42,.87-.53,1.29-.23,.3,.21,.59,.41,.89,.62,.42,.3,.52,.88,.23,1.3-.18,.26-.47,.4-.76,.4Zm-95.08-1.84c-.08,0-.15,0-.23-.03-.5-.13-.8-.63-.67-1.13,.09-.36,.19-.73,.3-1.08,.15-.49,.67-.77,1.16-.61,.49,.15,.77,.67,.61,1.16-.1,.33-.19,.66-.28,.99-.11,.42-.49,.7-.9,.7Zm92.11-.2c-.18,0-.36-.05-.52-.16-.3-.2-.59-.4-.89-.6-.43-.29-.54-.86-.26-1.29,.29-.43,.86-.54,1.29-.26,.3,.2,.6,.4,.9,.61,.43,.29,.54,.87,.25,1.29-.18,.27-.47,.41-.77,.41Zm-3-1.99c-.17,0-.35-.05-.51-.15-.3-.19-.6-.39-.9-.58-.43-.28-.56-.85-.28-1.28,.28-.43,.85-.56,1.28-.28,.3,.2,.61,.39,.91,.59,.43,.28,.55,.86,.27,1.29-.18,.27-.48,.42-.78,.42Zm-87.94-1.2c-.13,0-.25-.03-.38-.08-.47-.21-.68-.76-.47-1.23,.15-.34,.31-.68,.48-1.02,.23-.46,.79-.64,1.25-.41,.46,.23,.64,.79,.41,1.25-.15,.31-.3,.62-.44,.93-.15,.35-.49,.55-.85,.55Zm84.9-.72c-.17,0-.34-.05-.49-.14-.3-.19-.61-.38-.91-.56-.44-.27-.58-.84-.31-1.28,.27-.44,.84-.58,1.28-.31,.31,.19,.62,.38,.92,.57,.44,.27,.57,.84,.3,1.28-.18,.28-.48,.44-.79,.44Zm-3.08-1.86c-.16,0-.32-.04-.47-.13-.31-.18-.62-.36-.93-.54-.44-.26-.6-.83-.34-1.27,.26-.44,.83-.6,1.27-.34,.31,.18,.63,.36,.94,.55,.44,.26,.59,.83,.33,1.27-.17,.29-.48,.46-.8,.46Zm-80.1-.57c-.18,0-.35-.05-.51-.15-.43-.28-.55-.86-.27-1.29,.2-.31,.42-.62,.64-.92,.3-.41,.88-.51,1.3-.2,.42,.3,.51,.88,.2,1.3-.2,.28-.4,.56-.59,.85-.18,.27-.48,.42-.78,.42Zm76.98-1.22c-.15,0-.31-.04-.45-.12-.31-.17-.62-.35-.94-.52-.45-.25-.62-.81-.37-1.26,.25-.45,.81-.62,1.26-.37,.32,.17,.63,.35,.95,.52,.45,.25,.61,.82,.36,1.27-.17,.31-.49,.48-.81,.48Zm-74.78-1.61c-.22,0-.44-.08-.62-.24-.38-.34-.41-.93-.07-1.31,.25-.28,.5-.55,.77-.81,.36-.37,.95-.37,1.32-.01,.37,.36,.37,.95,.01,1.32-.24,.25-.48,.5-.71,.75-.18,.2-.44,.31-.69,.31Zm71.62-.1c-.15,0-.29-.03-.43-.11-.32-.17-.63-.33-.95-.49-.46-.23-.64-.8-.4-1.25,.23-.46,.8-.64,1.25-.4,.32,.17,.64,.33,.96,.5,.45,.24,.63,.8,.39,1.26-.17,.32-.49,.5-.82,.5Zm-3.2-1.62c-.14,0-.28-.03-.41-.09-.32-.16-.64-.31-.96-.47-.46-.22-.66-.78-.44-1.24,.22-.46,.78-.66,1.24-.44,.33,.16,.65,.31,.98,.47,.46,.23,.65,.78,.43,1.24-.16,.33-.49,.52-.84,.52Zm-65.83-.77c-.26,0-.53-.11-.71-.33-.33-.39-.28-.98,.11-1.31,.28-.24,.57-.47,.86-.7,.4-.32,.99-.24,1.31,.16,.32,.4,.24,.99-.16,1.31-.27,.21-.54,.43-.81,.66-.17,.15-.39,.22-.6,.22Zm62.58-.76c-.13,0-.26-.03-.38-.08-.32-.15-.65-.29-.98-.44-.47-.21-.68-.76-.47-1.23,.21-.47,.76-.68,1.23-.47,.33,.15,.66,.29,.99,.44,.47,.21,.68,.76,.46,1.23-.16,.34-.49,.55-.85,.55Zm-59.7-1.38c-.3,0-.6-.15-.78-.42-.28-.43-.16-1.01,.27-1.29,.31-.2,.62-.4,.93-.59,.44-.27,1.01-.13,1.28,.31,.27,.44,.13,1.01-.31,1.28-.3,.18-.59,.37-.88,.56-.16,.1-.33,.15-.51,.15Zm56.41-.05c-.12,0-.24-.02-.36-.07-.33-.14-.66-.27-.99-.4-.48-.19-.71-.73-.51-1.21,.19-.48,.73-.71,1.21-.51,.34,.14,.67,.27,1.01,.41,.47,.2,.7,.74,.5,1.22-.15,.36-.49,.57-.86,.57Zm-3.34-1.32c-.11,0-.22-.02-.33-.06-.33-.13-.67-.25-1-.37-.48-.18-.73-.71-.56-1.19,.18-.48,.71-.73,1.19-.56,.34,.12,.68,.25,1.02,.38,.48,.18,.72,.72,.54,1.2-.14,.37-.49,.6-.87,.6Zm-49.97-.44c-.34,0-.66-.18-.83-.5-.24-.46-.06-1.02,.4-1.25,.33-.17,.66-.33,.99-.49,.46-.22,1.02-.03,1.24,.44,.22,.46,.03,1.02-.44,1.24-.32,.15-.63,.31-.94,.47-.14,.07-.28,.1-.43,.1Zm46.58-.76c-.1,0-.2-.02-.29-.05-.34-.11-.67-.22-1.01-.33-.49-.16-.76-.68-.6-1.17,.16-.49,.68-.76,1.17-.6,.34,.11,.69,.22,1.03,.34,.49,.16,.75,.69,.59,1.18-.13,.39-.49,.64-.88,.64Zm-43.32-.74c-.37,0-.72-.22-.86-.58-.19-.48,.04-1.02,.51-1.21,.34-.14,.68-.27,1.03-.4,.48-.18,1.02,.06,1.2,.55,.18,.48-.06,1.02-.55,1.2-.33,.12-.66,.25-.98,.38-.11,.05-.23,.07-.35,.07Zm39.89-.33c-.09,0-.17-.01-.26-.04-.34-.1-.68-.2-1.02-.29-.49-.14-.78-.65-.65-1.14,.14-.49,.65-.78,1.14-.65,.35,.1,.7,.2,1.05,.3,.49,.14,.78,.66,.63,1.15-.12,.41-.49,.67-.89,.67Zm-36.51-.87c-.4,0-.76-.26-.89-.66-.15-.49,.12-1.01,.61-1.16,.35-.11,.7-.21,1.06-.31,.49-.14,1.01,.15,1.15,.64,.14,.49-.15,1.01-.64,1.15-.34,.1-.68,.2-1.01,.3-.09,.03-.18,.04-.27,.04Zm33.04-.06c-.07,0-.15,0-.22-.03-.34-.08-.69-.17-1.04-.25-.5-.12-.81-.62-.7-1.12,.12-.5,.61-.81,1.12-.7,.35,.08,.71,.17,1.06,.25,.5,.12,.8,.63,.68,1.12-.1,.42-.48,.71-.9,.71Zm-3.5-.78c-.06,0-.12,0-.18-.02-.35-.07-.7-.14-1.05-.2-.51-.09-.84-.58-.75-1.08s.58-.84,1.08-.75c.36,.07,.71,.13,1.07,.2,.5,.1,.83,.59,.73,1.09-.09,.44-.48,.75-.91,.75Zm-26.06-.09c-.43,0-.81-.29-.91-.73-.11-.5,.2-1,.7-1.11,.36-.08,.72-.16,1.08-.23,.5-.1,.99,.23,1.09,.73,.1,.5-.23,.99-.73,1.09-.35,.07-.69,.14-1.04,.22-.07,.02-.14,.02-.2,.02Zm22.52-.53s-.09,0-.14-.01c-.35-.05-.7-.1-1.05-.15-.51-.07-.87-.54-.8-1.05,.07-.51,.53-.87,1.05-.8,.36,.05,.72,.1,1.08,.15,.51,.08,.86,.55,.78,1.06-.07,.46-.47,.79-.92,.79Zm-18.98-.12c-.45,0-.85-.33-.92-.8-.07-.51,.28-.98,.79-1.05,.36-.05,.72-.1,1.09-.15,.51-.07,.98,.3,1.04,.8,.06,.51-.3,.98-.8,1.04-.35,.04-.7,.09-1.05,.14-.05,0-.09,0-.14,0Zm15.42-.32s-.06,0-.09,0c-.35-.03-.71-.07-1.06-.1-.51-.04-.89-.49-.85-1,.04-.51,.49-.89,1-.85,.36,.03,.73,.06,1.09,.1,.51,.05,.89,.5,.84,1.02-.05,.48-.45,.84-.92,.84Zm-11.85-.09c-.48,0-.88-.37-.93-.85-.04-.51,.34-.96,.85-1.01,.36-.03,.73-.06,1.09-.08,.52-.04,.96,.35,.99,.86,.04,.51-.35,.96-.86,.99-.35,.02-.71,.05-1.06,.08-.03,0-.05,0-.08,0Zm8.26-.16s-.03,0-.04,0c-.35-.02-.71-.03-1.06-.04-.51-.01-.92-.44-.9-.96,.01-.51,.44-.91,.96-.9,.36,.01,.73,.02,1.09,.04,.51,.02,.91,.46,.89,.97-.02,.5-.43,.89-.93,.89Zm-4.67-.04c-.5,0-.92-.4-.93-.9-.01-.51,.39-.94,.9-.96,.37-.01,.73-.02,1.09-.02h0c.51,0,.92,.41,.93,.92,0,.51-.41,.93-.92,.94-.35,0-.71,.01-1.06,.02,0,0-.02,0-.03,0Z" style="fill: #fff;"/>
</svg>