<?xml version="1.0" encoding="UTF-8"?>
<svg xmlns="http://www.w3.org/2000/svg" xmlns:xlink="http://www.w3.org/1999/xlink" viewBox="0 0 383.23 393.07">
  <defs>
    <linearGradient id="linear-gradient" x1="218.22" y1="70.2" x2="121.38" y2="473.9" gradientUnits="userSpaceOnUse">
      <stop offset="0" stop-color="#ffc444"/>
      <stop offset="1" stop-color="#f36f56"/>
    </linearGradient>
    <linearGradient id="linear-gradient-2" x1="380.08" y1="109.03" x2="283.24" y2="512.73" xlink:href="#linear-gradient"/>
    <linearGradient id="linear-gradient-3" x1="140.52" y1="51.56" x2="43.67" y2="455.26" xlink:href="#linear-gradient"/>
    <linearGradient id="linear-gradient-4" x1="208.74" y1="67.93" x2="111.89" y2="471.62" xlink:href="#linear-gradient"/>
    <linearGradient id="linear-gradient-5" x1="-3706.51" y1="55.58" x2="-3767.39" y2="127.37" gradientTransform="translate(3578.69 -1044.04) rotate(-19.81)" gradientUnits="userSpaceOnUse">
      <stop offset="0" stop-color="#311944"/>
      <stop offset="1" stop-color="#893976"/>
    </linearGradient>
    <linearGradient id="linear-gradient-6" x1="-3714.97" y1="48.41" x2="-3775.3" y2="119.56" xlink:href="#linear-gradient-5"/>
    <linearGradient id="linear-gradient-7" x1="-1185.26" y1="9.37" x2="-1222.25" y2="52.99" gradientTransform="translate(1231.87 237.05)" xlink:href="#linear-gradient-5"/>
    <linearGradient id="linear-gradient-8" x1="-921.05" y1="120.78" x2="-746.82" y2="120.78" gradientTransform="translate(875.89 -99.81) rotate(-15.09)" gradientUnits="userSpaceOnUse">
      <stop offset="0" stop-color="#e38ddd"/>
      <stop offset="1" stop-color="#9571f6"/>
    </linearGradient>
    <linearGradient id="linear-gradient-9" x1="-3735.34" y1="-64.45" x2="-3683.39" y2="222.9" gradientTransform="translate(3578.69 -1044.04) rotate(-19.81)" gradientUnits="userSpaceOnUse">
      <stop offset="0" stop-color="#aa80f9"/>
      <stop offset="1" stop-color="#6165d7"/>
    </linearGradient>
    <linearGradient id="linear-gradient-10" x1="-273.45" y1="28.64" x2="-435.36" y2="32.77" gradientTransform="translate(-177.37 308.53) rotate(160.19) scale(1 -1)" xlink:href="#linear-gradient-5"/>
    <clipPath id="clippath">
      <path d="M213.26,304.35c8.38-3.02,15.8-8.22,22.07-15.46,6.38-7.37,11.27-16.47,14.54-27.05,6.87-22.23,5.73-48.16-3.23-73.02-8.96-24.86-24.61-45.56-44.09-58.3-9.26-6.06-18.84-9.95-28.45-11.56-9.45-1.58-18.48-.85-26.86,2.17-8.38,3.02-15.8,8.22-22.07,15.46-6.38,7.37-11.27,16.47-14.54,27.05-6.87,22.23-5.73,48.16,3.23,73.02,8.96,24.86,24.61,45.56,44.09,58.3,9.26,6.06,18.84,9.95,28.45,11.56,9.45,1.58,18.48,.85,26.86-2.17Z" style="fill: none;"/>
    </clipPath>
    <linearGradient id="linear-gradient-11" x1="-841.84" y1="125.06" x2="-746.54" y2="125.06" gradientTransform="translate(875.89 -99.81) rotate(-15.09)" gradientUnits="userSpaceOnUse">
      <stop offset="0" stop-color="#ff9085"/>
      <stop offset="1" stop-color="#fb6fbb"/>
    </linearGradient>
    <linearGradient id="linear-gradient-12" x1="-3657.45" y1="-40.43" x2="-3631.4" y2="103.67" gradientTransform="translate(3578.69 -1044.04) rotate(-19.81)" xlink:href="#linear-gradient-11"/>
    <linearGradient id="linear-gradient-13" x1="-3329.45" y1="-225.94" x2="-3605.1" y2="463.19" gradientTransform="translate(-3169.87 417.22) rotate(173.31) scale(1 -1)" xlink:href="#linear-gradient-5"/>
    <linearGradient id="linear-gradient-14" x1="-3500.1" y1="37.85" x2="-3373.48" y2="272.69" gradientTransform="translate(-3169.87 417.22) rotate(173.31) scale(1 -1)" xlink:href="#linear-gradient-11"/>
    <linearGradient id="linear-gradient-15" x1="141.86" y1="36.27" x2="185.92" y2="195.11" gradientTransform="translate(117.56 3.96) rotate(-1.97)" xlink:href="#linear-gradient-11"/>
    <linearGradient id="linear-gradient-16" x1="-3534.35" y1="50.9" x2="-3409.3" y2="301.84" gradientTransform="translate(-3169.87 417.22) rotate(173.31) scale(1 -1)" xlink:href="#linear-gradient-11"/>
  </defs>
  <g style="isolation: isolate;">
    <g id="Illustration">
      <g>
        <path d="M147.53,67.46c-17.47,2.04-23.38-31.2-53.11-38.67-20.11-5.06-37.7,5.04-41.13,7.11-14.07,8.49-26.6,24.65-27.71,42.88-1.67,27.48,23.61,43.62,15.94,56.82-5.93,10.21-23.53,4.84-28.34,15.79-3.97,9.03,4.32,21.04,9.34,28.31,13.74,19.9,25.44,18.29,29.7,28.69,8.32,20.32-31.43,38.45-40.71,78.35-7.1,30.53,4.55,69.85,32.42,90.73,33.38,25.01,80.11,16.12,107.04,0,29.2-17.48,24.57-37.17,48.07-43.42,28.34-7.53,42.53,19.12,95.67,22.01,17.36,.95,35.95,1.7,45.87-10.19,13.97-16.75,1.61-47.62-.34-52.51-14.76-36.89-48.53-48.94-43.65-62.77,3.06-8.69,18.93-11.1,21.09-11.43,16.02-2.43,23.64,7.63,35.19,3.4,6.77-2.49,13.94-9.54,15.06-17.31,3.22-22.49-46.61-35.04-45.73-58.91,.54-14.74,19.76-15.92,36.74-39.01,16.75-22.77,28.5-63,11.21-86.65-19.03-26.03-68.94-26.1-99.55-7.88-36.42,21.68-42.13,67.27-59.48,64.97-15.08-2-17.82-37.37-32.62-37.72-12.71-.3-15.79,25.65-30.97,27.42Z" style="fill: url(#linear-gradient);"/>
        <path d="M342.41,236.19c-5.18-1.73-26.33-8.79-29.7-3.09-3.78,6.39,14.34,29.54,38.12,34.82,12.08,2.68,28.27,1.33,29.96-4.45,2.18-7.42-19.79-21.07-38.39-27.28Z" style="fill: url(#linear-gradient-2);"/>
        <path d="M158.27,39.73c-.66,6.52-6.4,14-13.97,13.97-7.89-.03-12.73-8.17-13.97-13.97-1.63-7.58,1.61-17.03,7.65-19.06,8.13-2.73,21.43,7.98,20.3,19.06Z" style="fill: url(#linear-gradient-3);"/>
        <path d="M216.73,20.67c-7.37,2.31-18.58,5.82-20.9,15.29-2.17,8.88,4.16,20.21,11.72,21.92,14.79,3.33,36.75-29.54,31.09-37.72-3.61-5.22-18.59-.53-21.92,.51Z" style="fill: url(#linear-gradient-4);"/>
        <g>
          <g>
            <path d="M142.08,372.35c-9.29,1.48-19.65-1.48-26.14-8.05L28.58,275.96c-7.58-7.66-7.09-19.47,1.22-26.61,8.53-7.33,26.24-8.69,34.42-.77l94.6,91.58c9.4,9.1,7.84,21.77-3.28,28.05-2.7,1.52-10.35,3.64-13.45,4.14Z" style="fill: url(#linear-gradient-5);"/>
            <path d="M29.79,249.35c8.53-7.33,26.24-8.69,34.42-.78l86.13,83.39c-9.12,.31-18.85,2.93-30.8-1.6-19.46-7.38-17.88-23.89-34.59-33.37-7.52-4.27-19.43-7.46-38.96-3.41l-17.42-17.62c-7.58-7.66-7.09-19.47,1.22-26.61Z" style="fill: url(#linear-gradient-6); mix-blend-mode: multiply; opacity: .3;"/>
            <ellipse cx="28.14" cy="268.19" rx="28.01" ry="29.01" transform="translate(-89.24 25.41) rotate(-19.81)" style="fill: url(#linear-gradient-7);"/>
            <path d="M17.03,242.12c.41,20.3,6.79,37.98,19.4,53.85l176.05,12.42L146.09,117.91,17.03,242.12Z" style="fill: url(#linear-gradient-8);"/>
            <path d="M143.59,268.02c-18.03-1.43-31.49-24.11-48.7-18.75-12.91,4.02-11.58,19.43-24.04,22.02-12.29,2.56-19.64-11.8-33.97-12.32-6.33-.23-11.8,2.38-16.46,6.4,3.11,10.89,8.41,21.04,16.01,30.61l176.05,12.42-34.4-60.68c-14.13,16.55-25.46,21.02-34.5,20.3Z" style="fill: url(#linear-gradient-9); mix-blend-mode: multiply; opacity: .3;"/>
            <ellipse cx="180.25" cy="212.74" rx="75.94" ry="100.79" transform="translate(-61.44 73.69) rotate(-19.81)" style="fill: #d8dee8;"/>
            <path d="M213.26,304.35c8.38-3.02,15.8-8.22,22.07-15.46,6.38-7.37,11.27-16.47,14.54-27.05,6.87-22.23,5.73-48.16-3.23-73.02-8.96-24.86-24.61-45.56-44.09-58.3-9.26-6.06-18.84-9.95-28.45-11.56-9.45-1.58-18.48-.85-26.86,2.17-8.38,3.02-15.8,8.22-22.07,15.46-6.38,7.37-11.27,16.47-14.54,27.05-2.87,9.3-4.35,19.24-4.43,29.48-.12,14.25,18.05,22.54,23.26,37,5.54,15.38-1.96,35.71,8.03,47.01,6.16,6.96,13.03,12.98,20.45,17.83,9.26,6.06,18.84,9.95,28.45,11.56,9.45,1.58,18.48,.85,26.86-2.17Z" style="fill: url(#linear-gradient-10);"/>
            <g style="clip-path: url(#clippath);">
              <path d="M186.58,211.86c8.66,24.02-4.98,50.49-30.1,58.99-24.73,8.37-51.32-3.88-59.73-27.23-8.41-23.36,4.34-49.51,28.83-58.54,24.87-9.17,52.34,2.76,61,26.79Z" style="fill: url(#linear-gradient-11);"/>
              <path d="M182.5,212.89c6.43,17.84,1.54,35.61-10.74,39.62-12.09,3.95-26.82-6.94-33.07-24.29-6.25-17.34-1.79-34.96,10.13-39.41,12.1-4.52,27.26,6.23,33.69,24.07Z" style="fill: url(#linear-gradient-12); mix-blend-mode: multiply; opacity: .3;"/>
            </g>
          </g>
          <g>
            <path d="M204.27,190.43s11.91-9.48,17.93-22.85c-12.9-11.64-21.45-26.79-23.44-43.78-4.78-40.74,29.61-79.43,78.9-86.73,50.41-7.47,97.39,20.4,104.62,62.98,0,.01,0,.03,0,.04,.09,.53,.17,1.06,.25,1.59,.01,.08,.02,.16,.03,.23,.07,.52,.14,1.05,.21,1.57,.29,2.43,.44,4.85,.46,7.25,0,1.03,0,2.05-.05,3.07-.08,2.04-.25,4.06-.51,6.07-.13,1-.28,2-.46,2.99-.12,.66-.24,1.32-.38,1.98-3.21,15.42-11.79,29.46-24.11,40.64-.26,.24-.53,.47-.79,.71-4.25,3.76-8.92,7.19-13.96,10.22-.31,.19-.63,.38-.95,.56-2.22,1.3-4.52,2.53-6.87,3.68-1.01,.49-2.03,.97-3.06,1.43-.69,.31-1.38,.61-2.08,.9-1.05,.44-2.11,.86-3.18,1.27-.71,.27-1.43,.54-2.15,.8-9.02,3.23-18.76,5.32-28.96,6.07-.75,.05-1.51,.1-2.26,.14-.22,.01-.44,.02-.65,.03-.54,.03-1.07,.05-1.6,.07-.24,0-.47,.01-.71,.02-.52,.01-1.04,.03-1.55,.03-.22,0-.44,0-.66,0-.54,0-1.07,0-1.61,0-.19,0-.38,0-.57,0-.57,0-1.15-.02-1.72-.04-.15,0-.29,0-.44-.01-.63-.02-1.25-.05-1.88-.08-.09,0-.17,0-.26-.01-.7-.04-1.4-.08-2.1-.13,0,0,0,0-.01,0-5.91-.43-11.65-1.33-17.16-2.66,0,0,.01-.01,.02-.02-3.26-.79-6.43-1.74-9.53-2.82-6.4,6.37-23.28,18.67-48.77,4.8Z" style="fill: url(#linear-gradient-13);"/>
            <g>
              <path d="M192.13,124.29c4.78,40.74,47.25,70.95,96.97,67.33,52.21-3.8,92.27-43.11,87.05-87.63-5.22-44.51-53.36-74.09-105.12-66.43-49.29,7.3-83.68,45.99-78.9,86.73Z" style="fill: url(#linear-gradient-14);"/>
              <path d="M192.13,124.29c4.78,40.74,47.25,70.95,96.97,67.33,52.21-3.8,92.27-43.11,87.05-87.63-5.22-44.51-53.36-74.09-105.12-66.43-49.29,7.3-83.68,45.99-78.9,86.73Z" style="fill: #fff;"/>
              <path d="M249.3,182.85s-18.58,26.08-51.65,8.08c0,0,22.66-18.04,21.26-39.43l30.39,31.35Z" style="fill: #fff;"/>
              <path d="M272.88,154.66c-.12-3.48,.99-6.38,3.32-8.7,2.33-2.32,5.3-3.54,8.91-3.66,3.61-.12,6.65,.89,9.14,3.04,2.49,2.15,3.79,4.97,3.91,8.45,.12,3.48-.99,6.38-3.32,8.7-2.33,2.32-5.3,3.54-8.91,3.66-3.61,.12-6.65-.89-9.14-3.04-2.49-2.15-3.79-4.97-3.91-8.45Zm21.28-22.64l-18.45,.63-5.32-70.13,24.27-.84-.49,70.33Z" style="fill: url(#linear-gradient-15);"/>
              <g style="mix-blend-mode: multiply; opacity: .3;">
                <path d="M264.67,173.82c8.28-23.53-5.23-43.53,7.83-59.71,13.46-16.68,35.21-4.98,55.83-19.9,8.09-5.85,16.71-16.3,21.72-36.4,14.31,11.82,23.94,27.8,26.1,46.18,5.22,44.51-34.83,83.82-87.05,87.63-11.6,.85-22.79-.15-33.18-2.66,4.36-5.15,7.05-10.32,8.75-15.14Z" style="fill: url(#linear-gradient-16);"/>
              </g>
            </g>
          </g>
        </g>
        <path d="M136.31,113.49c-5-15.02-12.3-32.26-20.3-31.9-5.97,.27-7.4,10.11-13.77,10.87-13.92,1.67-25.36-42.99-34.8-41.32-5.41,.96-8.79,16.89-5.8,30.45,5.55,25.15,33.32,43.38,44.22,37.7,8.12-4.23,4.78-20.6,11.6-22.47,5.28-1.45,12.44,6.96,18.85,16.67Z" style="fill: #fff;"/>
        <path d="M161.68,104.79c2.79-15.51,1.39-20.09-.72-21.02-3-1.33-6.36,5.13-12.32,5.07-10.2-.09-17.57-19.13-18.12-18.85-2.17,1.09,6.38,32.38,14.5,31.9,2.9-.17,4.17-4.34,7.97-4.35,3.54,0,6.51,3.59,8.7,7.25Z" style="fill: #fff;"/>
        <path d="M258.83,257.04c.21-3.03,31.42-6.32,34.07,1.45,1.28,3.76-5.39,6.35-5.8,12.32-1.03,15.07,39.63,25.93,38.42,30.45-1.38,5.18-57.07-.9-58.72-15.22-.82-7.13,12.17-12.56,10.15-19.57-2.13-7.39-18.27-7.24-18.12-9.42Z" style="fill: #fff;"/>
        <path d="M266.8,228.76c.85-4.23,17.02-7.73,21.02-1.45,2.02,3.16,.9,8.73-2.18,10.87-6.11,4.26-19.7-5.19-18.85-9.42Z" style="fill: #fff;"/>
      </g>
    </g>
  </g>
</svg>