<?xml version="1.0" encoding="UTF-8"?>
<svg xmlns="http://www.w3.org/2000/svg" xmlns:xlink="http://www.w3.org/1999/xlink" viewBox="0 0 400.68 406.31">
  <defs>
    <linearGradient id="linear-gradient" x1="161.25" y1="142.22" x2="56.82" y2="288.03" gradientUnits="userSpaceOnUse">
      <stop offset="0" stop-color="#e38ddd"/>
      <stop offset="1" stop-color="#9571f6"/>
    </linearGradient>
    <clipPath id="clippath">
      <path d="M212.51,239.69c1.53-1.38,3.64-5.73,3.72-7.09,.55-9.05,2.68-25.93-3.23-33.47-1.01-1.29-7.88,1.62-9.57,.97-4.83,.79-6.45,1.37-11.42-.14-14.64-4.44-9.6-35.29-34.87-27.42-18.51,5.76-27.73,19.9-42.43-4.85-14.71-24.74-63.21-54.81-76.75-21.08-7.77,19.36,20.66,29.38,23.55,49.29,2.75,18.92,16.73,26.37,37.53,24.47,20.8-1.9,17.3,10.12,22.22,26.5,5.9,19.68,32.58,5.42,44.34-2.22,9.47-6.15,37.73-15.41,46.91-4.97Z" style="fill: url(#linear-gradient);"/>
    </clipPath>
    <linearGradient id="linear-gradient-2" x1="159.22" y1="72.38" x2="105.61" y2="224.76" gradientUnits="userSpaceOnUse">
      <stop offset="0" stop-color="#aa80f9"/>
      <stop offset="1" stop-color="#6165d7"/>
    </linearGradient>
    <clipPath id="clippath-1">
      <path d="M198.49,259.52c10.55-7.74,20.98-15.73,31.29-23.96,.25,.06-6.06-26.07-22.89-32.42-33.07-12.05-26.74-42.45-27.74-57.88-.63-22.17-12.54-40.07-31.57-30.07-21.27,10.67-39.29-21.58-48.42-54.88-3.37-16.83-25.55-27.4-41.79-23.74-16.74,3.37-27.54,20.98-19.5,53.8,7.7,38.87,42.41,45.96,59.31,58.36,16.61,12.16,.42,38.11,24.46,43.81,20.52,5.52,43.33,5.11,43.55,25.95-.05,20.75,7.36,33.66,33.29,41.03Z" style="fill: url(#linear-gradient-2);"/>
    </clipPath>
    <linearGradient id="linear-gradient-3" x1="168.65" y1="97.27" x2="245.67" y2="241.35" gradientUnits="userSpaceOnUse">
      <stop offset="0" stop-color="#ff9085"/>
      <stop offset="1" stop-color="#fb6fbb"/>
    </linearGradient>
    <linearGradient id="linear-gradient-4" x1="268.09" y1="33.72" x2="164.51" y2="203.2" gradientUnits="userSpaceOnUse">
      <stop offset="0" stop-color="#fff"/>
      <stop offset="1" stop-color="#ebeff2"/>
    </linearGradient>
    <linearGradient id="linear-gradient-5" x1="153.82" y1="223.91" x2="246.03" y2="223.91" xlink:href="#linear-gradient-4"/>
    <linearGradient id="linear-gradient-6" x1="153.82" y1="236.66" x2="246.03" y2="236.66" xlink:href="#linear-gradient-4"/>
    <linearGradient id="linear-gradient-7" x1="153.82" y1="249.41" x2="246.03" y2="249.41" xlink:href="#linear-gradient-4"/>
    <linearGradient id="linear-gradient-8" x1="153.82" y1="37.37" x2="200.21" y2="37.37" xlink:href="#linear-gradient-4"/>
    <linearGradient id="linear-gradient-9" x1="153.82" y1="43.73" x2="200.21" y2="43.73" xlink:href="#linear-gradient-4"/>
    <linearGradient id="linear-gradient-10" x1="153.82" y1="50.09" x2="200.21" y2="50.09" xlink:href="#linear-gradient-4"/>
    <linearGradient id="linear-gradient-11" x1="126.06" y1="198.72" x2="126.88" y2="192.12" gradientUnits="userSpaceOnUse">
      <stop offset="0" stop-color="#26264f"/>
      <stop offset="1" stop-color="#444b8c"/>
    </linearGradient>
    <linearGradient id="linear-gradient-12" x1="122.66" y1="192.71" x2="130.91" y2="177.86" xlink:href="#linear-gradient-11"/>
    <linearGradient id="linear-gradient-13" x1="113.34" y1="185.67" x2="140.71" y2="185.67" xlink:href="#linear-gradient-11"/>
    <linearGradient id="linear-gradient-14" x1="123.45" y1="188.65" x2="131.59" y2="172.98" xlink:href="#linear-gradient-11"/>
    <linearGradient id="linear-gradient-15" x1="112.11" y1="181.06" x2="141.92" y2="181.06" xlink:href="#linear-gradient-11"/>
    <linearGradient id="linear-gradient-16" x1="111.67" y1="175.67" x2="142.38" y2="175.67" xlink:href="#linear-gradient-11"/>
    <linearGradient id="linear-gradient-17" x1="126.26" y1="173.35" x2="129.28" y2="159.2" xlink:href="#linear-gradient-11"/>
    <linearGradient id="linear-gradient-18" x1="109.49" y1="167.7" x2="121.73" y2="131.96" gradientUnits="userSpaceOnUse">
      <stop offset="0" stop-color="#ffc444"/>
      <stop offset="1" stop-color="#f36f56"/>
    </linearGradient>
    <linearGradient id="linear-gradient-19" x1="121.19" y1="171.7" x2="133.42" y2="135.96" xlink:href="#linear-gradient-18"/>
    <linearGradient id="linear-gradient-20" x1="105.23" y1="166.24" x2="117.47" y2="130.5" xlink:href="#linear-gradient-18"/>
    <linearGradient id="linear-gradient-21" x1="122.56" y1="72.89" x2="110.6" y2="171.44" gradientUnits="userSpaceOnUse">
      <stop offset="0" stop-color="#fcb148"/>
      <stop offset=".05" stop-color="#fdb946"/>
      <stop offset=".14" stop-color="#fec144"/>
      <stop offset=".32" stop-color="#ffc444"/>
      <stop offset=".48" stop-color="#fdb946"/>
      <stop offset=".78" stop-color="#f99c4c"/>
      <stop offset=".87" stop-color="#f8924f"/>
      <stop offset="1" stop-color="#f8924f"/>
    </linearGradient>
    <linearGradient id="linear-gradient-22" x1="87.81" y1="105.29" x2="167.72" y2="105.29" xlink:href="#linear-gradient-18"/>
    <linearGradient id="linear-gradient-23" x1="165.9" y1="195.19" x2="113.27" y2="296.55" gradientUnits="userSpaceOnUse">
      <stop offset="0" stop-color="#e38ddd"/>
      <stop offset="1" stop-color="#9571f6"/>
    </linearGradient>
    <linearGradient id="linear-gradient-24" x1="175.03" y1="193.51" x2="94.68" y2="325" xlink:href="#linear-gradient-4"/>
    <linearGradient id="linear-gradient-25" x1="102.82" y1="226.98" x2="110.01" y2="291.96" xlink:href="#linear-gradient-18"/>
    <linearGradient id="linear-gradient-26" x1="127.95" y1="278.73" x2="156.72" y2="336.85" xlink:href="#linear-gradient-23"/>
    <linearGradient id="linear-gradient-27" x1="85.95" y1="255.36" x2="124.49" y2="304.91" gradientUnits="userSpaceOnUse">
      <stop offset="0" stop-color="#aa80f9"/>
      <stop offset="1" stop-color="#6165d7"/>
    </linearGradient>
    <linearGradient id="linear-gradient-28" x1="165.9" y1="211.88" x2="135.1" y2="254.82" xlink:href="#linear-gradient-3"/>
    <linearGradient id="linear-gradient-29" x1="72.7" y1="210.31" x2="43.07" y2="307.38" xlink:href="#linear-gradient-3"/>
    <linearGradient id="linear-gradient-30" x1="-8815.59" y1="-4071.27" x2="-8858.51" y2="-4011.4" gradientTransform="translate(-8706.89 -3706.82) rotate(-180)" xlink:href="#linear-gradient-3"/>
    <linearGradient id="linear-gradient-31" x1="330.42" y1="80.25" x2="259.7" y2="216.46" xlink:href="#linear-gradient-23"/>
    <linearGradient id="linear-gradient-32" x1="342.7" y1="77.99" x2="234.71" y2="254.69" xlink:href="#linear-gradient-4"/>
    <linearGradient id="linear-gradient-33" x1="245.66" y1="122.96" x2="255.32" y2="210.28" xlink:href="#linear-gradient-18"/>
    <linearGradient id="linear-gradient-34" x1="279.42" y1="192.51" x2="318.09" y2="270.61" xlink:href="#linear-gradient-23"/>
    <linearGradient id="linear-gradient-35" x1="222.99" y1="161.11" x2="274.78" y2="227.69" xlink:href="#linear-gradient-27"/>
    <linearGradient id="linear-gradient-36" x1="330.42" y1="102.67" x2="289.04" y2="160.38" xlink:href="#linear-gradient-3"/>
    <linearGradient id="linear-gradient-37" x1="-8960.44" y1="-4014.52" x2="-9018.13" y2="-3934.07" gradientTransform="translate(-8706.89 -3706.82) rotate(-180)" xlink:href="#linear-gradient-3"/>
    <linearGradient id="linear-gradient-38" x1="1055.2" y1="379.13" x2="1057.77" y2="411.92" gradientTransform="translate(-790.7 0) rotate(-.14)" gradientUnits="userSpaceOnUse">
      <stop offset="0" stop-color="#311944"/>
      <stop offset="1" stop-color="#a03976"/>
    </linearGradient>
    <linearGradient id="linear-gradient-39" x1="1061.85" y1="397.39" x2="1061.38" y2="363.43" gradientTransform="translate(-790.7 0) rotate(-.14)" xlink:href="#linear-gradient-18"/>
    <linearGradient id="linear-gradient-40" x1="1103.88" y1="375.31" x2="1106.46" y2="408.1" xlink:href="#linear-gradient-38"/>
    <linearGradient id="linear-gradient-41" x1="1106.47" y1="396.77" x2="1106" y2="362.81" gradientTransform="translate(-790.7 0) rotate(-.14)" xlink:href="#linear-gradient-18"/>
    <linearGradient id="linear-gradient-42" x1="1053.74" y1="342.37" x2="1078.85" y2="342.37" gradientTransform="translate(-790.7 0) rotate(-.14)" gradientUnits="userSpaceOnUse">
      <stop offset="0" stop-color="#444b8c"/>
      <stop offset="1" stop-color="#3e4177"/>
    </linearGradient>
    <linearGradient id="linear-gradient-43" x1="1053.74" y1="342.38" x2="1078.85" y2="342.38" xlink:href="#linear-gradient-42"/>
    <linearGradient id="linear-gradient-44" x1="1060.71" y1="339.9" x2="1111.26" y2="339.9" xlink:href="#linear-gradient-42"/>
    <linearGradient id="linear-gradient-45" x1="312.89" y1="223.05" x2="255.94" y2="316.55" xlink:href="#linear-gradient-27"/>
    <linearGradient id="linear-gradient-46" x1="301.33" y1="221.86" x2="295.97" y2="269.17" xlink:href="#linear-gradient-18"/>
    <linearGradient id="linear-gradient-47" x1="2160.19" y1="973.92" x2="2151.57" y2="952.04" gradientTransform="translate(-1808.76 -842.57) rotate(2.72)" xlink:href="#linear-gradient-42"/>
    <linearGradient id="linear-gradient-48" x1="296.51" y1="216.41" x2="300.72" y2="251.28" xlink:href="#linear-gradient-18"/>
    <linearGradient id="linear-gradient-49" x1="235.04" y1="271.35" x2="275.7" y2="271.35" xlink:href="#linear-gradient-27"/>
    <linearGradient id="linear-gradient-50" x1="4267.75" y1="-760.15" x2="4276.89" y2="-760.15" gradientTransform="translate(-3817.73 -1281.69) rotate(31.21)" xlink:href="#linear-gradient-18"/>
    <linearGradient id="linear-gradient-51" x1="343.7" y1="241.82" x2="286.75" y2="335.32" xlink:href="#linear-gradient-27"/>
    <linearGradient id="linear-gradient-52" x1="260.89" y1="284.25" x2="344.32" y2="284.25" xlink:href="#linear-gradient-27"/>
    <linearGradient id="linear-gradient-53" x1="218.59" y1="290.37" x2="322.16" y2="290.37" gradientUnits="userSpaceOnUse">
      <stop offset="0" stop-color="#444b8c"/>
      <stop offset="1" stop-color="#26264f"/>
    </linearGradient>
    <linearGradient id="linear-gradient-54" x1="123.07" y1="257.68" x2="229.93" y2="257.68" xlink:href="#linear-gradient-53"/>
    <linearGradient id="linear-gradient-55" x1="-8432.44" y1="1437.87" x2="-8486.24" y2="1377.62" gradientTransform="translate(-7886.08 3216.52) rotate(150.52) scale(1 -1)" xlink:href="#linear-gradient-53"/>
    <linearGradient id="linear-gradient-56" x1="-8511.53" y1="1349.91" x2="-8438.56" y2="1430.24" gradientTransform="translate(-7886.08 3216.52) rotate(150.52) scale(1 -1)" xlink:href="#linear-gradient-53"/>
    <linearGradient id="linear-gradient-57" x1="-5704.81" y1="-781.28" x2="-5702.79" y2="-792.74" gradientTransform="translate(-4967.73 -1978.14) rotate(-148.79) scale(1 -1)" xlink:href="#linear-gradient-18"/>
    <linearGradient id="linear-gradient-58" x1="191.06" y1="29.61" x2="289.55" y2="80.33" gradientTransform="matrix(1, 0, 0, 1, 0, 0)" xlink:href="#linear-gradient-42"/>
    <linearGradient id="linear-gradient-59" x1="191.31" y1="29.13" x2="289.8" y2="79.85" gradientTransform="matrix(1, 0, 0, 1, 0, 0)" xlink:href="#linear-gradient-42"/>
    <linearGradient id="linear-gradient-60" x1="254.92" y1="26.4" x2="161.76" y2="158.15" xlink:href="#linear-gradient-27"/>
  </defs>
  <g style="isolation: isolate;">
    <g id="Illustration">
      <g id="Competitive_intelligence" data-name="Competitive intelligence">
        <path d="M96.32,24.42c-13.46,19.62,2.32,51.42-17.65,66.17-19.44,14.36-43.32-9.18-61.63,3.18-27.17,18.34-22.21,102.25,17.52,154.39,11.95,15.68,21.93,21.78,26.35,39.51,9.49,38.08-23.87,60.73-17.52,79.56,14.3,42.4,234.19,77.98,322.42-49.45,41.21-59.52,47.37-145.46,10.56-210.74C309.83-10.9,126.52-19.6,96.32,24.42Z" style="fill: #f4f7fa;"/>
        <g>
          <g style="mix-blend-mode: soft-light;">
            <path d="M212.51,239.69c1.53-1.38,3.64-5.73,3.72-7.09,.55-9.05,2.68-25.93-3.23-33.47-1.01-1.29-7.88,1.62-9.57,.97-4.83,.79-6.45,1.37-11.42-.14-14.64-4.44-9.6-35.29-34.87-27.42-18.51,5.76-27.73,19.9-42.43-4.85-14.71-24.74-63.21-54.81-76.75-21.08-7.77,19.36,20.66,29.38,23.55,49.29,2.75,18.92,16.73,26.37,37.53,24.47,20.8-1.9,17.3,10.12,22.22,26.5,5.9,19.68,32.58,5.42,44.34-2.22,9.47-6.15,37.73-15.41,46.91-4.97Z" style="fill: url(#linear-gradient);"/>
            <g style="clip-path: url(#clippath);">
              <g>
                <path d="M189.79,218.63c-25.32,0-50.49-5.81-73.95-17.18-29.69-14.4-56.16-37.34-76.56-66.34l.4-.28c20.35,28.94,46.76,51.82,76.37,66.18,31.12,15.09,65.27,20.36,98.75,15.23l.07,.48c-8.34,1.28-16.72,1.91-25.09,1.91Z" style="fill: #fcfdfe;"/>
                <path d="M122.79,255.35l-.39-.3c11.18-14.76,35.29-31.64,53.74-37.63l.15,.47c-18.37,5.96-42.37,22.76-53.5,37.46Z" style="fill: #fcfdfe;"/>
                <path d="M201.77,218.57c-10.09-1.31-19.13-7.65-26.84-18.85-5.63-8.17-10.44-18.69-14.31-31.27l.47-.14c3.85,12.53,8.65,23.01,14.25,31.13,7.64,11.08,16.55,17.35,26.5,18.64l-.06,.49Z" style="fill: #fcfdfe;"/>
                <path d="M63.29,211.47l-.26-.42c11.95-7.49,30.12-15.7,48.77-12.3l-.09,.48c-18.5-3.37-36.55,4.79-48.43,12.23Z" style="fill: #fcfdfe;"/>
                <path d="M75.6,175.06c-5.79-7.19-15.21-23.39-13.26-51.13l.49,.03c-1.93,27.57,7.42,43.66,13.16,50.79l-.38,.31Z" style="fill: #fcfdfe;"/>
              </g>
            </g>
          </g>
          <g style="mix-blend-mode: soft-light;">
            <path d="M198.49,259.52c10.55-7.74,20.98-15.73,31.29-23.96,.25,.06-6.06-26.07-22.89-32.42-33.07-12.05-26.74-42.45-27.74-57.88-.63-22.17-12.54-40.07-31.57-30.07-21.27,10.67-39.29-21.58-48.42-54.88-3.37-16.83-25.55-27.4-41.79-23.74-16.74,3.37-27.54,20.98-19.5,53.8,7.7,38.87,42.41,45.96,59.31,58.36,16.61,12.16,.42,38.11,24.46,43.81,20.52,5.52,43.33,5.11,43.55,25.95-.05,20.75,7.36,33.66,33.29,41.03Z" style="fill: url(#linear-gradient-2);"/>
            <g style="clip-path: url(#clippath-1);">
              <g>
                <path d="M213.89,252.88c-.18-.31-31.6-44.86-70.65-84.3-5.89-6.63-12-13.19-17.91-19.53-15.86-17.01-32.26-34.6-44.73-54.25-13.97-22.01-21.56-44.54-23.23-68.89l.98-.07c1.65,24.18,9.2,46.57,23.08,68.43,12.42,19.57,28.79,37.13,44.62,54.1,5.92,6.34,12.03,12.91,17.91,19.53,37.82,38.2,70.44,83.57,70.83,84.57l-.46,.18-.43,.23Z" style="fill: #fff;"/>
                <path d="M95.66,115.65c-18.24-6.96-41.45-18.29-53.92-24.38-5.22-2.55-9.35-4.57-9.87-4.67,.05,.01,.19,0,.32-.09l-.59-.79q.39-.29,10.57,4.66c12.45,6.08,35.64,17.41,53.84,24.35l-.35,.92Z" style="fill: #fff;"/>
                <path d="M83.27,98.83c-6.9-30.11,5.09-52.04,8.42-55.86,.2-.23,.4-.41,.67-.39l-.09,.98c.17,.02,.28-.07,.28-.07-.36,.29-4.36,5.6-7.38,15.63-2.59,8.61-4.86,22.46-.95,39.5l-.96,.22Z" style="fill: #fff;"/>
                <path d="M167.49,194.71c-7.91-13.83-11.02-31.63-9.23-52.89,.93-11.06,3.17-22.62,6.65-34.35,.17-.57,.31-1.06,.33-1.15l.97,.13c-.02,.14-.1,.42-.36,1.3-3.47,11.67-5.69,23.16-6.61,34.15-1.77,21.06,1.3,38.67,9.11,52.32l-.85,.49Z" style="fill: #fff;"/>
                <path d="M105.2,182.11l-.53-.27,.11-.58c.22-.2,7.51-3.72,17.59-5.49,9.2-1.61,22.62-1.98,34.28,5.42l-.53,.83c-21.92-13.91-50.49-.13-50.76,.02l-.24-.42h-.02s.09,.49,.09,.49Z" style="fill: #fff;"/>
                <path d="M208.58,245.6c-2.93-6.36-5.18-18.68,.77-41.19,.13-.51,.25-.94,.26-1.03l.43,.06,.47-.29q.13,.21-.22,1.51c-5.87,22.24-3.69,34.32-.82,40.53l-.89,.41Z" style="fill: #fff;"/>
                <path d="M200.79,235.18c-8.08-9.61-29.04-8.63-37.67-7.76-.38,.04-.62,.06-.71,.06l-.03-.98c.08,0,.3-.02,.64-.06,25.43-2.56,35.05,3.98,38.52,8.1l-.75,.63Z" style="fill: #fff;"/>
              </g>
            </g>
          </g>
        </g>
        <g>
          <g>
            <g>
              <path d="M269.11,22.79l-140.32-4.75c-3.21-.11-5.81,2.38-5.81,5.55v254.89c0,3.17,2.61,5.6,5.81,5.42l140.32-7.98c2.9-.17,5.25-2.74,5.25-5.75V28.42c0-3.01-2.35-5.53-5.25-5.63Z" style="fill: url(#linear-gradient-3);"/>
              <g style="mix-blend-mode: multiply; opacity: .3;">
                <path d="M211.54,211.01c-2.39-29.14,15.52-41.17,8.69-67.58-8.44-32.64-40.9-34.04-51.95-66.05-4.24-12.26-5.91-30.8,6.22-57.8l-45.7-1.55c-3.21-.11-5.81,2.38-5.81,5.55v254.89c0,3.17,2.61,5.6,5.81,5.42l125.12-7.11c-31.83-24.65-40.9-47.87-42.37-65.78Z" style="fill: #d8dee8;"/>
              </g>
              <path d="M269.11,26.01l-140.32-4.59c-1.31-.04-2.39,.98-2.39,2.28v254.6c0,1.3,1.07,2.3,2.39,2.23l140.32-7.82c1.19-.07,2.16-1.13,2.16-2.36V28.32c0-1.24-.97-2.27-2.16-2.31Z" style="fill: url(#linear-gradient-4); opacity: .3;"/>
            </g>
            <g>
              <path d="M242.61,218.75l-85.14,3.07c-2.01,.07-3.64,1.76-3.64,3.77h0c0,2.01,1.63,3.57,3.64,3.5l85.14-3.28c1.89-.07,3.42-1.71,3.42-3.65h0c0-1.94-1.53-3.47-3.42-3.4Z" style="fill: url(#linear-gradient-5); opacity: .6;"/>
              <path d="M242.61,231.3l-85.14,3.45c-2.01,.08-3.64,1.78-3.64,3.78h0c0,2.01,1.63,3.57,3.64,3.48l85.14-3.66c1.89-.08,3.42-1.72,3.42-3.67h0c0-1.94-1.53-3.46-3.42-3.38Z" style="fill: url(#linear-gradient-6); opacity: .6;"/>
              <path d="M242.61,243.86l-85.14,3.83c-2.01,.09-3.64,1.79-3.64,3.8h0c0,2.01,1.63,3.56,3.64,3.46l85.14-4.04c1.89-.09,3.42-1.74,3.42-3.68h0c0-1.94-1.53-3.45-3.42-3.37Z" style="fill: url(#linear-gradient-7); opacity: .6;"/>
            </g>
            <g>
              <path d="M198.46,36.2l-42.83-1.21c-1-.03-1.8,.75-1.8,1.75h0c0,.99,.81,1.82,1.8,1.85l42.83,1.16c.97,.03,1.75-.75,1.75-1.72h0c0-.98-.78-1.79-1.75-1.82Z" style="fill: url(#linear-gradient-8); opacity: .6;"/>
              <path d="M198.46,42.51l-42.83-1.12c-1-.03-1.8,.76-1.8,1.75h0c0,.99,.81,1.82,1.8,1.84l42.83,1.07c.97,.02,1.75-.75,1.75-1.73h0c0-.98-.78-1.79-1.75-1.82Z" style="fill: url(#linear-gradient-9); opacity: .6;"/>
              <path d="M198.46,48.83l-42.83-1.02c-1-.02-1.8,.76-1.8,1.76h0c0,.99,.81,1.82,1.8,1.84l42.83,.97c.97,.02,1.75-.75,1.75-1.73h0c0-.98-.78-1.79-1.75-1.81Z" style="fill: url(#linear-gradient-10); opacity: .6;"/>
            </g>
          </g>
          <path d="M211.86,211c-2.39-29.14,15.51-41.17,8.69-67.57-8.44-32.64-40.89-34.03-51.94-66.04-4.06-11.76-5.76-29.28,4.79-54.51l-44.27-1.45c-1.31-.04-2.39,.98-2.39,2.28v254.57c0,1.3,1.07,2.3,2.39,2.23l121.29-6.76c-28.76-23.53-37.16-45.58-38.56-62.75Z" style="fill: #fff; mix-blend-mode: soft-light; opacity: .35;"/>
        </g>
        <g>
          <path d="M173.46,103.56c0-24.42-20.79-44.21-46.44-44.21s-46.44,19.8-46.44,44.21c0,14.82,7.66,27.94,19.41,35.96,4.99,3.4,8.01,9.01,8.01,15.05v3.38c0,7.35,5.96,13.31,13.31,13.31h11.41c7.35,0,13.31-5.96,13.31-13.31v-3.38c0-6.04,3.02-11.65,8.01-15.05,11.75-8.02,19.41-21.14,19.41-35.96Z" style="fill: #f4f7fa; opacity: .75;"/>
          <ellipse cx="127.02" cy="190.98" rx="10.3" ry="5.45" style="fill: url(#linear-gradient-11);"/>
          <path d="M113.34,181.24v5.57c0,1.88,1.07,3.61,2.77,4.42,2.36,1.13,6.29,2.36,11.99,2.22,4.63-.12,7.65-.87,9.57-1.67,1.85-.77,3.04-2.6,3.04-4.61v-3.08l-27.37-2.85Z" style="fill: url(#linear-gradient-12);"/>
          <path d="M113.34,186.12c.42,.41,.9,.75,1.44,1.01,2.65,1.26,20,4.09,24.18,2.51,.54-.2,1.03-.48,1.46-.81,.18-.53,.28-1.09,.28-1.66v-3.08l-27.37-2.85v4.88Z" style="fill: url(#linear-gradient-13); mix-blend-mode: multiply; opacity: .3;"/>
          <path d="M114.55,177.45c-1.54-.16-2.88,1.05-2.88,2.6v.16c0,2.11,1.2,4.05,3.11,4.96,2.65,1.26,20,4.09,24.18,2.51,2.11-.79,3.41-2.6,3.41-4.85v-.13c0-1.34-1.01-2.46-2.34-2.6l-25.48-2.65Z" style="fill: url(#linear-gradient-14);"/>
          <path d="M140.04,180.1l-25.48-2.65c-1.01-.1-1.92,.38-2.44,1.15,.51,1.21,1.44,2.22,2.67,2.8,2.65,1.26,20.74,4.45,24.18,2.83,1.34-.63,2.39-1.7,2.96-3-.42-.62-1.1-1.05-1.89-1.13Z" style="fill: url(#linear-gradient-15); mix-blend-mode: multiply; opacity: .3;"/>
          <path d="M113.56,168.43c-1.04,0-1.89,.84-1.89,1.89v4.36c0,2.11,1.2,4.05,3.11,4.96,2.65,1.26,20.74,4.45,24.18,2.83,2.04-.96,3.41-2.92,3.41-5.17v-6.98c0-1.04-.84-1.89-1.89-1.89h-26.94Z" style="fill: url(#linear-gradient-16);"/>
          <ellipse cx="127.02" cy="169.78" rx="14.97" ry="3.54" style="fill: url(#linear-gradient-17);"/>
          <path d="M173.46,103.56c0-24.42-20.79-44.21-46.44-44.21s-46.44,19.8-46.44,44.21c0,14.82,7.66,27.94,19.41,35.96,4.99,3.4,8.01,9.01,8.01,15.05v3.38c0,7.35,5.96,13.31,13.31,13.31h11.41c7.35,0,13.31-5.96,13.31-13.31v-3.38c0-6.04,3.02-11.65,8.01-15.05,11.75-8.02,19.41-21.14,19.41-35.96Z" style="fill: #fff;"/>
          <ellipse cx="127.02" cy="166.99" rx="10.96" ry="2.59" style="fill: #f4f7fa; mix-blend-mode: soft-light; opacity: .5;"/>
          <g>
            <path d="M124.17,168.58c-.31,0-.59-.23-.63-.55l-8.06-62.68c-.04-.35,.2-.66,.55-.71,.35-.05,.66,.2,.71,.55l8.06,62.68c.04,.35-.2,.66-.55,.71-.03,0-.05,0-.08,0Z" style="fill: url(#linear-gradient-18);"/>
            <path d="M129.17,168.58s-.05,0-.08,0c-.35-.04-.59-.36-.55-.71l8.06-62.68c.04-.35,.36-.59,.71-.55,.35,.04,.59,.36,.55,.71l-8.06,62.68c-.04,.32-.31,.55-.63,.55Z" style="fill: url(#linear-gradient-19);"/>
            <path d="M135.74,105.29c-.21,0-.41-.1-.53-.28l-2.22-3.37s-.06-.05-.09-.05c-.06,0-.08,.04-.09,.05l-1.47,2.46c-.24,.41-.67,.66-1.14,.67-.47,.02-.91-.22-1.18-.61l-2.02-3.02s-.05-.05-.09-.05c-.04,0-.06,.02-.08,.05l-1.77,2.56c-.26,.37-.68,.59-1.12,.59h0c-.45,0-.87-.22-1.12-.59l-2.55-3.66s-.06-.04-.09-.05c-.04,0-.07,.02-.09,.05l-2.33,4.02c-.18,.3-.56,.41-.87,.23-.3-.18-.41-.56-.23-.87l2.33-4.02c.24-.41,.66-.67,1.13-.68,.47-.02,.91,.2,1.18,.59l2.55,3.66s.05,.05,.09,.05h0s.06-.02,.08-.05l1.77-2.56c.26-.37,.69-.6,1.14-.59,.45,0,.88,.23,1.13,.61l2.02,3.02s.06,.06,.09,.05c.05,0,.08-.04,.09-.05l1.47-2.46c.24-.41,.67-.66,1.15-.67,.47-.01,.91,.22,1.18,.62l2.22,3.37c.19,.29,.11,.68-.18,.88-.11,.07-.23,.1-.35,.1Z" style="fill: url(#linear-gradient-20);"/>
          </g>
          <path d="M127.87,138.44c.99-17.04,29.72-21.03,29.6-36.25-.08-9.37-11.49-16.33-13.93-17.73-17.96-10.27-40.07,1.59-44.64-6.81-1.14-2.09-.6-4.37-.3-5.66,.46-1.96,1.5-3.78,3.04-5.45-12.67,7.89-21.05,21.53-21.05,37.02s7.66,27.94,19.41,35.96c4.99,3.4,8.01,9.01,8.01,15.05v3.38c0,7.35,5.96,13.31,13.31,13.31h11.41c7.35,0,13.31-5.96,13.31-13.31v-2.71c-1.57,1.2-3.37,2.04-5.35,2.03-6.86-.06-13.32-10.36-12.82-18.84Z" style="fill: url(#linear-gradient-21); mix-blend-mode: multiply; opacity: .3;"/>
          <ellipse cx="127.77" cy="105.29" rx="39.96" ry="38.54" style="fill: url(#linear-gradient-22); opacity: .2;"/>
        </g>
        <g>
          <g>
            <g>
              <g>
                <path d="M175.83,185.03l-108.87-3.68c-2.49-.08-4.51,1.84-4.51,4.31v197.76c0,2.46,2.02,4.35,4.51,4.2l108.87-6.19c2.25-.13,4.07-2.13,4.07-4.46V189.4c0-2.34-1.82-4.29-4.07-4.37Z" style="fill: url(#linear-gradient-23);"/>
                <g style="mix-blend-mode: multiply; opacity: .3;">
                  <path d="M131.16,331.06c-1.85-22.61,12.04-31.95,6.74-52.43-6.55-25.32-31.73-26.41-40.31-51.24-3.29-9.51-4.58-23.9,4.82-44.84l-35.46-1.2c-2.49-.08-4.51,1.84-4.51,4.31v197.76c0,2.46,2.02,4.35,4.51,4.2l97.07-5.52c-24.7-19.12-31.74-37.14-32.87-51.04Z" style="fill: #d8dee8;"/>
                </g>
                <path d="M175.83,187.53l-108.87-3.56c-1.02-.03-1.85,.76-1.85,1.77v197.53c0,1.01,.83,1.78,1.85,1.73l108.87-6.07c.92-.05,1.68-.87,1.68-1.83V189.32c0-.96-.75-1.76-1.68-1.79Z" style="fill: url(#linear-gradient-24);"/>
              </g>
              <g>
                <path d="M155.27,337.06l-66.06,2.38c-1.56,.06-2.83,1.36-2.83,2.92h0c0,1.56,1.27,2.77,2.83,2.71l66.06-2.55c1.47-.06,2.66-1.33,2.66-2.83h0c0-1.51-1.19-2.69-2.66-2.64Z" style="fill: #d8dee8;"/>
                <path d="M155.27,346.81l-66.06,2.67c-1.56,.06-2.83,1.38-2.83,2.94h0c0,1.56,1.27,2.77,2.83,2.7l66.06-2.84c1.47-.06,2.66-1.34,2.66-2.85h0c0-1.51-1.19-2.68-2.66-2.62Z" style="fill: #d8dee8;"/>
                <path d="M155.27,356.55l-66.06,2.97c-1.56,.07-2.83,1.39-2.83,2.95h0c0,1.56,1.27,2.76,2.83,2.69l66.06-3.13c1.47-.07,2.66-1.35,2.66-2.86h0c0-1.51-1.19-2.68-2.66-2.61Z" style="fill: #d8dee8;"/>
              </g>
              <g>
                <path d="M121.01,195.43l-33.23-.94c-.77-.02-1.4,.59-1.4,1.36h0c0,.77,.63,1.41,1.4,1.43l33.23,.9c.75,.02,1.36-.58,1.36-1.34h0c0-.76-.61-1.39-1.36-1.41Z" style="fill: #d8dee8;"/>
                <path d="M121.01,200.33l-33.23-.87c-.77-.02-1.4,.59-1.4,1.36h0c0,.77,.63,1.41,1.4,1.43l33.23,.83c.75,.02,1.36-.58,1.36-1.34h0c0-.76-.61-1.39-1.36-1.41Z" style="fill: #d8dee8;"/>
                <path d="M121.01,205.23l-33.23-.79c-.77-.02-1.4,.59-1.4,1.36h0c0,.77,.63,1.41,1.4,1.43l33.23,.75c.75,.02,1.36-.58,1.36-1.34h0c0-.76-.61-1.39-1.36-1.41Z" style="fill: #d8dee8;"/>
              </g>
            </g>
            <g>
              <g>
                <path d="M108.21,257.84c2.16-4.08,6.19-6.98,10.93-7.52l.33-20.17c-13.48,.35-25.1,8.67-30.3,20.58l19.05,7.1Z" style="fill: url(#linear-gradient-25);"/>
                <path d="M134.66,267.01c-1.15,6.7-6.9,11.84-13.87,11.91-2.06,.02-4.02-.41-5.79-1.19l-10.57,17.37c4.89,2.59,10.46,4.01,16.36,3.9,17.53-.32,31.73-14.04,33.33-31.26l-19.47-.74Z" style="fill: url(#linear-gradient-26);"/>
                <path d="M101.17,293.12l10.6-17.39c-3.19-2.62-5.23-6.62-5.23-11.12,0-1.09,.12-2.15,.35-3.16l-19.07-7.08c-1,3.25-1.55,6.71-1.55,10.3,0,11.87,5.92,22.29,14.91,28.45Z" style="fill: url(#linear-gradient-27);"/>
              </g>
              <path d="M122.91,250.39c6.36,.99,11.31,6.27,11.9,12.82l32.22,1.27s0-.03,0-.04c0-24.97-19.07-45.72-43.57-47.56l-.55,33.52Z" style="fill: url(#linear-gradient-28);"/>
            </g>
            <path d="M131.41,331.05c-1.85-22.61,12.04-31.94,6.74-52.43-6.55-25.32-31.72-26.41-40.3-51.24-3.15-9.12-4.47-22.72,3.72-42.29l-34.34-1.12c-1.02-.03-1.85,.76-1.85,1.77v197.51c0,1.01,.83,1.78,1.85,1.73l94.1-5.24c-22.31-18.26-28.83-35.36-29.92-48.68Z" style="fill: #fff; mix-blend-mode: soft-light; opacity: .35;"/>
          </g>
          <g>
            <path d="M95,238.58l-52.69-.52c-1.19-.01-2.16-.96-2.16-2.12v-20.04c0-1.16,.97-2.08,2.16-2.05l45.87,1.09c1.13,.03,2.04,.96,2.04,2.09v17.22l4.78,4.33Z" style="fill: url(#linear-gradient-29);"/>
            <polygon points="82.82 222.18 47.93 221.5 47.93 219.1 82.82 219.83 82.82 222.18" style="fill: #fff; opacity: .67;"/>
            <polygon points="82.82 226.89 47.93 226.31 47.93 223.9 82.82 224.53 82.82 226.89" style="fill: #fff; opacity: .67;"/>
            <polygon points="82.82 231.6 47.93 231.11 47.93 228.71 82.82 229.24 82.82 231.6" style="fill: #fff; opacity: .67;"/>
          </g>
          <g>
            <path d="M121.14,306.02l47.07-1.01c1.23-.03,2.22,.98,2.22,2.25v21.92c0,1.27-.99,2.33-2.22,2.37l-49.61,1.67c-1.28,.04-2.32-.97-2.32-2.27v-28.65l4.87,3.73Z" style="fill: url(#linear-gradient-30); mix-blend-mode: multiply; opacity: .3;"/>
            <polygon points="124.65 324.57 162.39 323.45 162.39 326.1 124.65 327.27 124.65 324.57" style="fill: #fff; opacity: .67;"/>
            <polygon points="124.65 319.18 162.39 318.15 162.39 320.8 124.65 321.88 124.65 319.18" style="fill: #fff; opacity: .67;"/>
            <polygon points="124.65 313.8 162.39 312.85 162.39 315.5 124.65 316.49 124.65 313.8" style="fill: #fff; opacity: .67;"/>
          </g>
        </g>
        <g>
          <g>
            <g>
              <g>
                <path d="M343.77,66.59l-146.3-4.95c-3.34-.11-6.06,2.48-6.06,5.79V333.19c0,3.31,2.72,5.84,6.06,5.65l146.3-8.32c3.03-.17,5.47-2.86,5.47-6V72.46c0-3.14-2.45-5.77-5.47-5.87Z" style="fill: url(#linear-gradient-31);"/>
                <g style="mix-blend-mode: multiply; opacity: .3;">
                  <path d="M283.74,262.83c-2.49-30.39,16.18-42.93,9.06-70.46-8.8-34.03-42.64-35.49-54.16-68.86-4.42-12.79-6.16-32.12,6.48-60.26l-47.65-1.61c-3.34-.11-6.06,2.48-6.06,5.79V333.19c0,3.31,2.72,5.84,6.06,5.65l130.45-7.42c-33.19-25.7-42.65-49.91-44.18-68.58Z" style="fill: #d8dee8;"/>
                </g>
                <path d="M343.77,69.95l-146.3-4.78c-1.37-.04-2.49,1.02-2.49,2.38V332.99c0,1.36,1.12,2.4,2.49,2.32l146.3-8.15c1.24-.07,2.25-1.17,2.25-2.46V72.36c0-1.29-1.01-2.37-2.25-2.41Z" style="fill: url(#linear-gradient-32);"/>
              </g>
              <g>
                <path d="M316.13,270.9l-88.77,3.2c-2.1,.08-3.8,1.83-3.8,3.93h0c0,2.09,1.7,3.73,3.8,3.64l88.77-3.42c1.97-.08,3.57-1.78,3.57-3.81h0c0-2.03-1.6-3.61-3.57-3.54Z" style="fill: #d8dee8;"/>
                <path d="M316.13,283.99l-88.77,3.59c-2.1,.08-3.8,1.85-3.8,3.94h0c0,2.09,1.7,3.72,3.8,3.63l88.77-3.82c1.97-.08,3.57-1.8,3.57-3.82h0c0-2.03-1.6-3.61-3.57-3.53Z" style="fill: #d8dee8;"/>
                <path d="M316.13,297.09l-88.77,3.99c-2.1,.09-3.8,1.87-3.8,3.96h0c0,2.09,1.7,3.71,3.8,3.61l88.77-4.21c1.97-.09,3.57-1.81,3.57-3.84h0c0-2.03-1.6-3.6-3.57-3.51Z" style="fill: #d8dee8;"/>
              </g>
              <g>
                <path d="M270.1,80.57l-44.65-1.26c-1.04-.03-1.88,.79-1.88,1.82h0c0,1.04,.84,1.9,1.88,1.93l44.65,1.21c1.01,.03,1.82-.78,1.82-1.8h0c0-1.02-.82-1.87-1.82-1.9Z" style="fill: #d8dee8;"/>
                <path d="M270.1,87.16l-44.65-1.17c-1.04-.03-1.88,.79-1.88,1.83h0c0,1.04,.84,1.9,1.88,1.92l44.65,1.11c1.01,.03,1.82-.78,1.82-1.8h0c0-1.02-.82-1.87-1.82-1.89Z" style="fill: #d8dee8;"/>
                <path d="M270.1,93.74l-44.65-1.07c-1.04-.02-1.88,.8-1.88,1.83h0c0,1.04,.84,1.9,1.88,1.92l44.65,1.01c1.01,.02,1.82-.79,1.82-1.81h0c0-1.02-.82-1.87-1.82-1.89Z" style="fill: #d8dee8;"/>
              </g>
            </g>
            <g>
              <g>
                <path d="M252.9,164.43c2.9-5.48,8.33-9.38,14.68-10.11l.44-27.1c-18.12,.47-33.73,11.65-40.72,27.66l25.6,9.55Z" style="fill: url(#linear-gradient-33);"/>
                <path d="M288.44,176.76c-1.55,9-9.28,15.92-18.63,16-2.77,.03-5.4-.55-7.78-1.6l-14.2,23.35c6.57,3.49,14.06,5.39,21.98,5.25,23.56-.43,42.64-18.87,44.79-42l-26.16-.99Z" style="fill: url(#linear-gradient-34);"/>
                <path d="M243.44,211.85l14.24-23.37c-4.29-3.52-7.03-8.9-7.03-14.95,0-1.46,.16-2.88,.47-4.25l-25.63-9.51c-1.35,4.37-2.08,9.02-2.08,13.84,0,15.95,7.95,29.95,20.03,38.23Z" style="fill: url(#linear-gradient-35);"/>
              </g>
              <path d="M272.65,154.43c8.55,1.33,15.19,8.43,15.99,17.23l43.3,1.71s0-.04,0-.06c0-33.56-25.62-61.44-58.55-63.92l-.74,45.04Z" style="fill: url(#linear-gradient-36);"/>
            </g>
            <path d="M284.08,262.82c-2.49-30.38,16.17-42.92,9.06-70.45-8.8-34.03-42.63-35.49-54.15-68.85-4.23-12.26-6.01-30.53,4.99-56.83l-46.15-1.51c-1.37-.04-2.49,1.02-2.49,2.38V332.97c0,1.36,1.12,2.4,2.49,2.32l126.46-7.05c-29.99-24.53-38.74-47.52-40.21-65.42Z" style="fill: #fff; mix-blend-mode: soft-light; opacity: .35;"/>
          </g>
          <g>
            <path d="M270.27,229.18l63.26-1.36c1.65-.04,2.98,1.32,2.98,3.02v29.45c0,1.7-1.33,3.13-2.98,3.18l-66.67,2.25c-1.72,.06-3.12-1.31-3.12-3.06v-38.5l6.54,5.01Z" style="fill: url(#linear-gradient-37); mix-blend-mode: multiply; opacity: .3;"/>
            <polygon points="274.99 254.12 325.71 252.6 325.71 256.16 274.99 257.74 274.99 254.12" style="fill: #fff; opacity: .67;"/>
            <polygon points="274.99 246.88 325.71 245.48 325.71 249.04 274.99 250.5 274.99 246.88" style="fill: #fff; opacity: .67;"/>
            <polygon points="274.99 239.63 325.71 238.36 325.71 241.92 274.99 243.25 274.99 239.63" style="fill: #fff; opacity: .67;"/>
          </g>
        </g>
        <g>
          <path d="M270.47,392.94s-10.36,4.74-10.53,5.49c-.17,.75,6.67-.27,9.46-.17,2.79,.1,5.09-.73,4.83-1.91-.26-1.18-1.24-4.15-1.24-4.15l-2.53,.74Z" style="fill: url(#linear-gradient-38);"/>
          <path d="M270.08,389.12l.64,4.67s1.64,.58,2.74-.11l.46-5.12-3.84,.57Z" style="fill: url(#linear-gradient-39);"/>
          <path d="M318.92,389.12l1.21,1.93c.34,.54,.44,1.19,.28,1.81-.42,1.61-1.25,4.75-1.62,5.57-.5,1.12-7.21,1.79-7.21,1.79,0,0-.6-.84,.79-1.86,1.39-1.02,2.29-1.18,2.77-2.69,.49-1.5,.81-5.75,.81-5.75l2.96-.81Z" style="fill: url(#linear-gradient-40);"/>
          <path d="M313.89,384.21c.44,.35,2.61,6.89,2.61,6.89,0,0,.7,.89,2.02-.43,1.32-1.32,.6-.59,.6-.59l-.26-6.43-4.97,.57Z" style="fill: url(#linear-gradient-41);"/>
          <path d="M264.15,295.33c-.51,13.93-.5,29.06,.34,45.23,.95,18.2,2.8,35.02,5.12,50.27,.85,.03,1.74,.03,2.67,0,.63-.02,1.24-.05,1.83-.09,1.18-3.17,2.57-7.33,3.81-12.3,1.31-5.23,2.09-9.91,2.65-14.4,1.96-15.78-.38-17.15,1.21-28.85,1.41-10.36,3.45-10.77,5.81-25.47,2.56-15.96,.62-18.35-.32-19.21-4.02-3.67-13.42-1.14-23.12,4.82Z" style="fill: url(#linear-gradient-42);"/>
          <path d="M287.28,290.5c-3.83-3.5-12.57-1.35-21.78,4.02,10.65,11.45,11.82,18.89,10.56,23.72-1.43,5.46-5.8,7.04-5.77,13.01,.04,7.33,6.66,9.26,6.54,17.02-.08,5.13-2.99,5.09-3.66,11.43-.79,7.5,3.01,10.08,1.79,15.63-.52,2.39-2.03,5.51-6.32,8.74,.32,2.28,.64,4.53,.98,6.75,.85,.02,1.74,.03,2.67,0,.63-.02,1.24-.05,1.83-.09,1.18-3.17,2.57-7.33,3.81-12.3,1.31-5.23,2.09-9.91,2.65-14.4,1.96-15.78-.38-17.15,1.21-28.85,1.41-10.36,3.45-10.77,5.81-25.47,2.56-15.96,.62-18.35-.32-19.21Z" style="fill: url(#linear-gradient-43); mix-blend-mode: multiply; opacity: .3;"/>
          <path d="M270.73,295.08c9.18,13.36,19.08,29.99,27.95,49.89,6.7,15.05,11.57,29.18,15.15,41.77,.48,.22,1.61,.66,3.06,.47,1.97-.27,3.15-1.53,3.46-1.88,1.42-9.04,1.25-16.69,.74-22.21-.32-3.54-.89-9.42-3.16-16.69-2.54-8.14-4.28-8.59-7.59-17.2-3.44-8.93-2.62-11.17-5.92-22.35-1.36-4.59-3.62-11.43-7.36-19.6-8.78,2.6-17.55,5.19-26.33,7.79Z" style="fill: url(#linear-gradient-44);"/>
          <path d="M233.46,276.23c.09,3.25,5.43,6.11,9.73,6.99,10.06,2.05,21.72-5.25,27.25-13.34,1.09-1.59,2.29-3.51,2.59-3.36,.66,.34-5.39,10.27-8.01,21.57-1.34,5.78-.99,8.49-3.5,12.33-.57,.87-1.27,1.78-1.02,2.81,.62,2.58,6.52,3.25,10.62,3.72,4.33,.49,8.36,.44,12.35,.39,6.38-.09,6.89-.42,8.34,.29,4.44,2.18,4.14,7.4,7.48,8.1,2.81,.58,5.65-2.55,6.55-3.54,4.69-5.16,4.44-11.39,5.27-17.67,1.93-14.6,9.87-30.6,17.63-40.72,2.35-3.07,3.99-4.69,4.09-7.54,.3-8.38-12.97-17.63-24.02-18.69-3.03-.29-8.45-.2-13.54,.28-2.03,.19-4.2,.47-6.52,.88-5.64,.99-9.57,1.67-13.57,3.5-16.13,7.38-12.61,23.81-30.08,35.18-6,3.91-11.74,5.42-11.65,8.83Z" style="fill: url(#linear-gradient-45);"/>
          <path d="M299.56,218.87s.69,3.87,2.29,6.62c1.44,2.49,7.4,3.38,8.64,3.81,1.24,.43-1.87,2.6-5.19,3.38-3.31,.78-13,1.3-14.9,.25-1.9-1.04,1.23-1.36,3.51-2.56,2.28-1.2,3.04-6.07,2.34-8.14-.71-2.07,3.31-3.37,3.31-3.37Z" style="fill: url(#linear-gradient-46);"/>
          <g>
            <path d="M293.27,217.75c-2.4-1.72-3.07-6.36-1.73-7.41,.38-.3,.75-.16,6.17,2.02,2.69,1.08,4.02,1.66,4.46,2.85,.27,.73,.22,1.71-.07,2.48-.15,.4-.45,.89-1.1,1.84-.58,.84-.54,.81-.72,1.05-.43,.59-1.26,1.57-2.77,2.71-.08-.43-.22-.96-.44-1.54-.09-.22-.43-1.09-.98-1.83-.95-1.26-2.02-1.62-2.8-2.18Z" style="fill: url(#linear-gradient-47);"/>
            <path d="M299.43,222.17s-1.57,2.34-4.49,2.03c-2.61-.28-2.74-6.17-1.01-7.34,.58-.39,1.7-.51,2.6-.22,.53,.17,.7,.4,1.57,.67,.8,.25,1.04,.17,1.27,.38,.3,.27,.49,.91-.09,2.61,.52-.48,1.13-.65,1.54-.43,.07,.03,.24,.16,.33,.35,.34,.69-.31,1.52-1.73,1.95Z" style="fill: url(#linear-gradient-48);"/>
          </g>
          <path d="M247.56,275.73c7.29-1.64,10.2-1.59,13.8-4.49,6-4.84,6.91-12.2,10.39-12.11,1.65,.04,2.99,1.73,3.94,3.38-.88,1.38-1.76,2.75-2.63,4.13,0-.05-.02-.09-.04-.11-.29-.15-1.5,1.78-2.59,3.36-5.53,8.08-17.19,15.39-27.25,13.34-2.88-.59-6.23-2.07-8.15-3.96,4.96-1.68,9.2-2.78,12.53-3.53Z" style="fill: url(#linear-gradient-49); mix-blend-mode: multiply; opacity: .3;"/>
          <path d="M235.69,282s-4.11-.41-6.57-1.46c-2.45-1.05-4.04,.46-3.81,1.5,.23,1.04,4.26,2.49,5.87,2.55,1.61,.05,4.51-2.59,4.51-2.59Z" style="fill: url(#linear-gradient-50);"/>
          <path d="M324.3,303.76c4.42,.39,14.36,.57,21.39-5.93,11.71-10.83,5.9-31.45,1.82-40.32-4.67-10.17-12.11-15.86-16.63-19.32-5.61-4.29-9.03-6.91-13.15-6.32-10.65,1.52-18.02,23.34-12.18,29.59,1.91,2.05,3.81,.89,9.35,2.65,1.8,.57,15.27,4.86,17.61,14.78,1.64,6.94-2.54,15.07-9.97,20.52,.58,1.45,1.17,2.9,1.75,4.35Z" style="fill: url(#linear-gradient-51);"/>
          <path d="M274.79,300.17c5-3.16,5.74-6.36,11.34-8.53,7.28-2.81,10.77,.76,14.38-2.12,4.29-3.43,.49-9.41,3.7-19.79,.55-1.76,4.69-15.14,14.19-16.84,4.43-.79,10.28,.9,12.54,4.66,1.76,2.94,.12,5.13,2.27,8.37,2.14,3.24,4.71,2.45,7.44,5.15,4.34,4.29,5.01,13.35,1.09,18.47-1.83,2.39-4.2,3.33-8.67,5.11-2.73,1.09-5.27,1.76-7.45,2.19,5.47-5.25,8.31-12.03,6.91-17.94-1.46-6.18-7.24-10.17-11.83-12.44-4.59,8.63-8.34,18.64-9.59,28.06-.83,6.28-.58,12.51-5.27,17.67-.9,.99-3.75,4.13-6.55,3.54-3.34-.7-3.04-5.92-7.48-8.1-1.46-.72-1.96-.38-8.34-.29-3.99,.06-8.02,.11-12.35-.39-3.64-.41-8.71-.99-10.22-2.93,6.58-.18,10.97-2,13.89-3.85Z" style="fill: url(#linear-gradient-52); mix-blend-mode: multiply; opacity: .3;"/>
          <g>
            <path d="M321.4,307.23l.51-1.51c.82-2.41-.53-4.99-3.01-5.74l-97.35-29.65-2.97,10.05,96.86,29.83c2.47,.76,5.14-.57,5.95-2.97Z" style="fill: url(#linear-gradient-53);"/>
            <path d="M124.82,243.08c7.44-29.4,36.61-47.13,65.45-38.82,29.37,8.46,46.19,40.28,37.27,70.29-8.72,29.3-38.6,45.1-66.49,36.06-27.41-8.88-43.5-38.79-36.23-67.53Zm94.25,28.87c7.38-25.11-6.7-51.7-31.23-58.84-24.16-7.03-48.7,7.72-55.04,32.41-6.21,24.22,7.35,49.46,30.5,56.89,23.48,7.55,48.54-5.85,55.77-30.47Z" style="fill: url(#linear-gradient-54);"/>
            <path d="M221.56,270.32l12.41,3.78c.85,3.96,2.51,6.23,4.17,7.61,6.27,5.2,14.64-.47,26.32,5.62,5.86,3.06,4.75,5,10.24,7.14,9.08,3.53,13.24-1.36,21.28,1.85,8.13,3.25,8.93,10.27,13.54,10.01,1.97-.11,4.51-1.54,7.34-6.98l2.04,.62c2.48,.76,3.83,3.33,3.01,5.74l-.51,1.51c-.82,2.41-3.48,3.74-5.95,2.97l-96.86-29.83,2.97-10.05Z" style="fill: #d8dee8; mix-blend-mode: multiply; opacity: .3;"/>
            <path d="M161,306.44c24.29,7.82,50.23-6.03,57.73-31.5,7.66-26-6.92-53.55-32.33-60.93-25.01-7.26-50.41,8.03-56.94,33.58-6.41,25.04,7.62,51.14,31.55,58.84Z" style="fill: #fff; opacity: .56;"/>
            <path d="M122.93,245.6c7.44-29.4,36.61-47.13,65.45-38.82,29.37,8.46,46.19,40.28,37.27,70.29-8.72,29.3-38.6,45.1-66.49,36.06-27.41-8.88-43.5-38.79-36.23-67.53Zm94.25,28.87c7.38-25.11-6.7-51.7-31.23-58.84-24.16-7.03-48.7,7.72-55.04,32.41-6.21,24.22,7.35,49.46,30.5,56.89,23.48,7.55,48.54-5.85,55.77-30.47Z" style="fill: url(#linear-gradient-55);"/>
            <path d="M125.75,246.47c7.05-27.74,34.59-44.4,61.77-36.55,27.65,7.99,43.5,37.96,35.13,66.23-8.19,27.64-36.36,42.6-62.7,34.09-25.9-8.37-41.11-36.63-34.2-63.77Zm91.43,28.01c7.38-25.11-6.7-51.7-31.23-58.84-24.16-7.03-48.7,7.72-55.04,32.41-6.21,24.22,7.35,49.46,30.5,56.89,23.48,7.55,48.54-5.85,55.77-30.47Z" style="fill: url(#linear-gradient-56);"/>
          </g>
          <path d="M323.93,302.83l-.98-2.45s-1.61,.1-2.92-.85c-.72-.51-1.99-.67-2.36-.57-.37,.1-1.77,.04-.17,.8,1.59,.76,1.58,1.33,.92,1.95-.66,.62-3.19,1.97-4.1,2.03-.91,.06,.74,1.47,1.65,1.65,.92,.18,2.42,.41,4.29-.69,.68-.4,3.69-1.89,3.69-1.89Z" style="fill: url(#linear-gradient-57);"/>
        </g>
        <g>
          <path d="M248.8,63.53c1.6,.81,3.6,.07,4.48-1.66,.88-1.73,.3-3.79-1.3-4.6-.08-.04-.17-.08-.25-.11,.3-.96,.52-1.92,.67-2.89,.09,0,.18,0,.28-.01,1.82-.16,3.27-1.84,3.23-3.74-.04-1.9-1.55-3.31-3.37-3.15-.1,0-.19,.02-.28,.04-.19-.94-.45-1.86-.78-2.76,.08-.05,.17-.1,.25-.16,1.56-1.09,2.06-3.25,1.11-4.81-.94-1.57-2.97-1.95-4.53-.86-.08,.06-.15,.12-.23,.18-.62-.68-1.29-1.31-2.02-1.89,.05-.08,.1-.17,.15-.26,.88-1.73,2.03-3.62,.42-4.4-3.72-1.82-5.32-.26-6.2,1.47-.05,.09-.08,.18-.12,.27-.9-.25-1.8-.42-2.72-.52,0-.1,.01-.19,0-.29-.04-1.9,.53-2.93-1.3-2.97-3.99-.08-5.33,1.65-5.3,3.56,0,.1,.01,.2,.02,.29-.91,.26-1.81,.59-2.69,1-.04-.08-.08-.17-.13-.25-.94-1.57-2.97-1.95-4.53-.86-1.56,1.09-2.06,3.25-1.11,4.81,.05,.08,.1,.16,.16,.23-.69,.69-1.34,1.44-1.93,2.24-.08-.05-.16-.1-.24-.14-1.6-.81-3.6-.07-4.48,1.66-.88,1.73-.3,3.79,1.3,4.6,.08,.04,.17,.08,.25,.11-.3,.96-.52,1.92-.67,2.89-.09,0-.18,0-.28,.01-1.82,.16-3.27,1.84-3.23,3.74,.04,1.9,1.55,3.31,3.37,3.15,.1,0,.19-.02,.28-.04,.19,.94,.45,1.86,.78,2.76-.08,.05-.17,.1-.25,.16-1.56,1.09-2.06,3.25-1.11,4.81,.94,1.57,4.07,2.29,5.63,1.2,.08-.06-.94-.46-.87-.52,.62,.68,1.29,1.31,2.02,1.89-.05,.08-.1,.17-.15,.26-.88,1.73-.3,3.79,1.3,4.6,1.6,.81,3.6,.07,4.48-1.66,.05-.09,.08-.18,.12-.27,.9,.25,1.8,.42,2.72,.52,0,.1-.01,.19,0,.29,.04,1.9,1.55,3.31,3.37,3.15s3.27-1.84,3.23-3.74c0-.1-.01-.2-.02-.29,.91-.26,1.81-.59,2.69-1,.04,.08,.08,.17,.13,.25,.94,1.57,2.97,1.95,4.53,.86,1.56-1.09,2.06-3.25,1.11-4.81-.05-.08-.1-.16-.16-.23,.69-.69,1.34-1.44,1.93-2.24,.08,.05,.16,.1,.24,.14Zm-19.91,.25c-5.8-2.94-7.91-10.42-4.73-16.7,3.19-6.28,10.47-8.98,16.27-6.04,5.8,2.94,7.91,10.42,4.73,16.7-3.19,6.28-10.47,8.98-16.27,6.04Z" style="fill: url(#linear-gradient-58);"/>
          <path d="M252.68,54.26c1.82-.16,3.27-1.84,3.23-3.74-.04-1.9-1.55-3.31-3.37-3.15-.1,0-.19,.02-.28,.04-.19-.94-.45-1.86-.78-2.76,.08-.05,.17-.1,.25-.16,1.56-1.09,3.49-3.73,2.39-5.19-2.09-2.77-4.25-1.57-5.81-.48-.08,.06-.15,.12-.23,.18-.62-.68-1.29-1.31-2.02-1.89,.05-.08,.1-.17,.15-.26,.48-.94,.52-1.98,.2-2.86-1.51,2.65-2.99,5.31-4.45,7.99,4.63,3.39,6.1,10.07,3.21,15.76-2.45,4.83-7.32,7.54-12.08,7.2-.21,.55-.42,1.1-.65,1.65-.62,1.48-1.32,2.93-2.02,4.37,.44,.08,.88,.15,1.33,.2,0,.1-.01,.19,0,.29,.04,1.9,1.19,3.52,4.5,3.34,1.83-.1,2.14-2.03,2.1-3.93,0-.1-.01-.2-.02-.29,.91-.26,1.81-.59,2.69-1,.04,.08,.08,.17,.13,.25,.94,1.57,4.22,2.23,5.78,1.14,1.56-1.09,.81-3.53-.13-5.1-.05-.08-.1-.16-.16-.23,.69-.69,1.34-1.44,1.93-2.24,.08,.05,.16,.1,.24,.14,1.6,.81,3.6,.07,4.48-1.66,.88-1.73,.3-3.79-1.3-4.6-.08-.04-.17-.08-.25-.11,.3-.96,.52-1.92,.67-2.89,.09,0,.18,0,.28-.01Z" style="fill: url(#linear-gradient-59);"/>
          <path d="M250.52,63.73c1.6,.81,3.6,.07,4.48-1.66,.88-1.73,.3-3.79-1.3-4.6-.08-.04-.17-.08-.25-.11,.3-.96,.52-1.92,.67-2.89,.09,0,.18,0,.28-.01,1.82-.16,3.27-1.84,3.23-3.74-.04-1.9-1.55-3.31-3.37-3.15-.1,0-.19,.02-.28,.04-.19-.94-.45-1.86-.78-2.76,.08-.05,.17-.1,.25-.16,1.56-1.09,2.06-3.25,1.11-4.81-.94-1.57-2.97-1.95-4.53-.86-.08,.06-.16,.12-.23,.18-.62-.68-1.29-1.31-2.02-1.89,.05-.08,.1-.17,.15-.26,.88-1.73,.3-3.79-1.3-4.6-1.6-.81-3.6-.07-4.48,1.66-.05,.09-.08,.18-.12,.27-.9-.25-1.8-.42-2.72-.52,0-.1,.01-.19,0-.29-.04-1.9-1.55-3.31-3.37-3.15-1.82,.16-3.27,1.84-3.23,3.74,0,.1,.01,.2,.02,.29-.91,.26-1.81,.59-2.69,1-.04-.08-.08-.17-.13-.25-.94-1.57-2.97-1.95-4.53-.86-1.56,1.09-2.06,3.25-1.11,4.81,.05,.08,.1,.16,.16,.23-.69,.69-1.34,1.44-1.93,2.24-.08-.05-.16-.1-.24-.14-1.6-.81-3.6-.07-4.48,1.66-.88,1.73-.3,3.79,1.3,4.6,.08,.04,.17,.08,.25,.11-.3,.96-.52,1.92-.67,2.89-.09,0-.18,0-.28,.01-1.82,.16-3.27,1.84-3.23,3.74,.04,1.9,1.55,3.31,3.37,3.15,.1,0,.19-.02,.28-.04,.19,.94,.45,1.86,.78,2.76-.08,.05-.17,.1-.25,.16-1.56,1.09-2.06,3.25-1.11,4.81,.94,1.57,2.97,1.95,4.53,.86,.08-.06,.16-.12,.23-.18,.62,.68,1.29,1.31,2.02,1.89-.05,.08-.1,.17-.15,.26-.88,1.73-.3,3.79,1.3,4.6,1.6,.81,3.6,.07,4.48-1.66,.05-.09,.08-.18,.12-.27,.9,.25,1.8,.42,2.72,.52,0,.1-.01,.19,0,.29,.04,1.9,1.55,3.31,3.37,3.15,1.82-.16,3.27-1.84,3.23-3.74,0-.1-.01-.2-.02-.29,.91-.26,1.81-.59,2.69-1,.04,.08,.08,.17,.13,.25,.94,1.57,2.97,1.95,4.53,.86s2.06-3.25,1.11-4.81c-.05-.08-.1-.16-.16-.23,.69-.69,1.34-1.44,1.93-2.24,.08,.05,.16,.1,.24,.14Zm-19.91,.25c-5.8-2.94-7.91-10.42-4.73-16.7,3.19-6.28,10.47-8.98,16.27-6.04,5.8,2.94,7.91,10.42,4.73,16.7-3.19,6.28-10.47,8.98-16.27,6.04Z" style="fill: url(#linear-gradient-60);"/>
        </g>
      </g>
    </g>
  </g>
</svg>