<?xml version="1.0" encoding="UTF-8"?>
<svg id="Illustration" xmlns="http://www.w3.org/2000/svg" xmlns:xlink="http://www.w3.org/1999/xlink" viewBox="0 0 378.39 244.41">
  <defs>
    <linearGradient id="linear-gradient" x1="-1706.92" y1="128.19" x2="-1329.75" y2="128.19" gradientTransform="translate(-1329.75) rotate(-180) scale(1 -1)" gradientUnits="userSpaceOnUse">
      <stop offset="0" stop-color="#dae3fe"/>
      <stop offset="1" stop-color="#e9effd"/>
    </linearGradient>
    <linearGradient id="linear-gradient-2" x1="269.9" y1="31.05" x2="66.16" y2="298.65" gradientUnits="userSpaceOnUse">
      <stop offset="0" stop-color="#09005d"/>
      <stop offset="1" stop-color="#1a0f91"/>
    </linearGradient>
    <linearGradient id="linear-gradient-3" x1="370.71" y1="-40.35" x2="257" y2="52.19" gradientTransform="translate(-17.76 71.83) rotate(1.17)" gradientUnits="userSpaceOnUse">
      <stop offset="0" stop-color="#fe7062"/>
      <stop offset="1" stop-color="#ff928e"/>
    </linearGradient>
    <linearGradient id="linear-gradient-4" x1="280.27" y1="-31.96" x2="301.11" y2="82.16" gradientUnits="userSpaceOnUse">
      <stop offset="0" stop-color="#ff928e"/>
      <stop offset="1" stop-color="#feb3b1"/>
    </linearGradient>
    <linearGradient id="linear-gradient-5" x1="385.3" y1="-22.43" x2="271.59" y2="70.11" xlink:href="#linear-gradient-3"/>
    <linearGradient id="linear-gradient-6" x1="387.25" y1="-20.04" x2="273.53" y2="72.5" gradientTransform="translate(339.05 -232.11) rotate(90.01)" xlink:href="#linear-gradient-3"/>
    <linearGradient id="linear-gradient-7" x1="391.6" y1="-14.69" x2="277.89" y2="77.85" xlink:href="#linear-gradient-3"/>
    <linearGradient id="linear-gradient-8" x1="229.28" y1="68.02" x2="334.55" y2="68.02" gradientUnits="userSpaceOnUse">
      <stop offset="0" stop-color="#4042e2"/>
      <stop offset="1" stop-color="#4f52ff"/>
    </linearGradient>
    <linearGradient id="linear-gradient-9" x1="234.81" y1="69.4" x2="329.86" y2="69.4" gradientTransform="matrix(1, 0, 0, 1, 0, 0)" xlink:href="#linear-gradient"/>
    <linearGradient id="linear-gradient-10" x1="-413.26" y1="401" x2="-483.16" y2="512.61" gradientTransform="translate(249.4 -489.72) rotate(-27.6)" xlink:href="#linear-gradient-8"/>
    <linearGradient id="linear-gradient-11" x1="30.47" y1="68.77" x2="70.22" y2="68.77" gradientTransform="matrix(1, 0, 0, 1, 0, 0)" xlink:href="#linear-gradient"/>
    <linearGradient id="linear-gradient-12" x1="31.83" y1="71.32" x2="71.59" y2="71.32" gradientTransform="matrix(1, 0, 0, 1, 0, 0)" xlink:href="#linear-gradient"/>
    <linearGradient id="linear-gradient-13" x1="42.02" y1="98.95" x2="50.45" y2="98.95" gradientTransform="matrix(1, 0, 0, 1, 0, 0)" xlink:href="#linear-gradient"/>
    <linearGradient id="linear-gradient-14" x1="52.79" y1="87.73" x2="80.55" y2="87.73" gradientTransform="matrix(1, 0, 0, 1, 0, 0)" xlink:href="#linear-gradient"/>
    <linearGradient id="linear-gradient-15" x1="-1026.97" y1="3516.96" x2="-1056.69" y2="3567.69" gradientTransform="translate(-821.22 -3490.8) rotate(-29.96)" xlink:href="#linear-gradient-3"/>
    <linearGradient id="linear-gradient-16" x1="35.96" y1="87.37" x2="44.39" y2="87.37" gradientTransform="matrix(1, 0, 0, 1, 0, 0)" xlink:href="#linear-gradient"/>
    <linearGradient id="linear-gradient-17" x1="46.73" y1="76.15" x2="74.5" y2="76.15" gradientTransform="matrix(1, 0, 0, 1, 0, 0)" xlink:href="#linear-gradient"/>
    <linearGradient id="linear-gradient-18" x1="-1026.43" y1="3503.9" x2="-1056.15" y2="3554.63" gradientTransform="translate(-821.22 -3490.8) rotate(-29.96)" xlink:href="#linear-gradient-3"/>
    <linearGradient id="linear-gradient-19" x1="48.25" y1="109.76" x2="56.68" y2="109.76" gradientTransform="matrix(1, 0, 0, 1, 0, 0)" xlink:href="#linear-gradient"/>
    <linearGradient id="linear-gradient-20" x1="59.02" y1="98.54" x2="86.79" y2="98.54" gradientTransform="matrix(1, 0, 0, 1, 0, 0)" xlink:href="#linear-gradient"/>
    <linearGradient id="linear-gradient-21" x1="-1021.52" y1="3520.15" x2="-1051.24" y2="3570.88" gradientTransform="translate(-821.22 -3490.8) rotate(-29.96)" xlink:href="#linear-gradient-3"/>
    <linearGradient id="linear-gradient-22" x1="52.51" y1="120.3" x2="63.53" y2="120.3" gradientTransform="matrix(1, 0, 0, 1, 0, 0)" xlink:href="#linear-gradient"/>
    <linearGradient id="linear-gradient-23" x1="64.53" y1="109.19" x2="92.3" y2="109.19" gradientTransform="matrix(1, 0, 0, 1, 0, 0)" xlink:href="#linear-gradient"/>
    <linearGradient id="linear-gradient-24" x1="-1017.49" y1="3532.16" x2="-1056.6" y2="3586.68" gradientTransform="translate(-821.22 -3490.8) rotate(-29.96)" xlink:href="#linear-gradient-3"/>
    <linearGradient id="linear-gradient-25" x1="59.36" y1="131.44" x2="67.79" y2="131.44" gradientTransform="matrix(1, 0, 0, 1, 0, 0)" xlink:href="#linear-gradient"/>
    <linearGradient id="linear-gradient-26" x1="70.13" y1="120.22" x2="97.9" y2="120.22" gradientTransform="matrix(1, 0, 0, 1, 0, 0)" xlink:href="#linear-gradient"/>
    <linearGradient id="linear-gradient-27" x1="-1011.85" y1="3525.91" x2="-1041.57" y2="3576.64" gradientTransform="translate(-821.22 -3490.8) rotate(-29.96)" xlink:href="#linear-gradient-3"/>
    <linearGradient id="linear-gradient-28" x1="-428.41" y1="375.55" x2="-452.21" y2="406.87" gradientTransform="translate(249.4 -489.72) rotate(-27.6)" xlink:href="#linear-gradient-2"/>
    <linearGradient id="linear-gradient-29" x1="37.74" y1="54.61" x2="40.71" y2="54.61" gradientTransform="matrix(1, 0, 0, 1, 0, 0)" xlink:href="#linear-gradient"/>
    <linearGradient id="linear-gradient-30" x1="-890.24" y1="3372.12" x2="-914.03" y2="3403.41" gradientTransform="translate(-756.85 -3351.99) rotate(-28.11)" xlink:href="#linear-gradient-2"/>
    <linearGradient id="linear-gradient-31" x1="38.46" y1="60.48" x2="39.51" y2="60.48" gradientTransform="matrix(1, 0, 0, 1, 0, 0)" xlink:href="#linear-gradient"/>
    <linearGradient id="linear-gradient-32" x1="34.29" y1="63.17" x2="38.21" y2="63.17" gradientTransform="matrix(1, 0, 0, 1, 0, 0)" xlink:href="#linear-gradient"/>
    <linearGradient id="linear-gradient-33" x1="-893.24" y1="3374.03" x2="-909.67" y2="3404.19" gradientTransform="translate(-756.85 -3351.99) rotate(-28.11)" xlink:href="#linear-gradient-2"/>
    <linearGradient id="linear-gradient-34" x1="-4534.64" y1="2022.92" x2="-4546.04" y2="2038.24" gradientTransform="translate(4897.31 -1541.66) rotate(-42.4) scale(1 -1)" xlink:href="#linear-gradient-3"/>
    <linearGradient id="linear-gradient-35" x1="-204.89" y1="4266.64" x2="-196.9" y2="4347.13" gradientTransform="translate(3228.8 -3001.53) rotate(-132.18) scale(1 -1)" xlink:href="#linear-gradient-8"/>
    <linearGradient id="linear-gradient-36" x1="-3218.29" y1="1986.42" x2="-3232.8" y2="2007.4" gradientTransform="translate(2249.79 -3176.98) rotate(-89.26) scale(1 -1)" xlink:href="#linear-gradient-3"/>
    <linearGradient id="linear-gradient-37" x1="-3228.1" y1="2004.34" x2="-3218.89" y2="2004.34" gradientTransform="translate(2249.79 -3176.98) rotate(-89.26) scale(1 -1)" xlink:href="#linear-gradient-2"/>
    <linearGradient id="linear-gradient-38" x1="-3226.59" y1="2015.21" x2="-3220.51" y2="2015.21" gradientTransform="translate(2249.79 -3176.98) rotate(-89.26) scale(1 -1)" xlink:href="#linear-gradient-2"/>
    <linearGradient id="linear-gradient-39" x1="208.58" y1="181.81" x2="152.71" y2="174.28" xlink:href="#linear-gradient-4"/>
    <linearGradient id="linear-gradient-40" x1="226.42" y1="143.46" x2="229.12" y2="212.32" gradientTransform="matrix(1, 0, 0, 1, 0, 0)" xlink:href="#linear-gradient-3"/>
    <linearGradient id="linear-gradient-41" x1="2.94" y1="190.29" x2="146.5" y2="190.29" gradientUnits="userSpaceOnUse">
      <stop offset="0" stop-color="#020039"/>
      <stop offset="1" stop-color="#090056"/>
    </linearGradient>
    <linearGradient id="linear-gradient-42" x1="19.91" y1="150.01" x2="135.73" y2="231.92" xlink:href="#linear-gradient-8"/>
    <linearGradient id="linear-gradient-43" x1="222.94" x2="366.51" xlink:href="#linear-gradient-41"/>
    <linearGradient id="linear-gradient-44" x1="227.27" y1="190.38" x2="357.95" y2="190.38" xlink:href="#linear-gradient-8"/>
    <linearGradient id="linear-gradient-45" x1="132.18" y1="138.41" x2="108.16" y2="162.92" gradientTransform="matrix(1, 0, 0, 1, 0, 0)" xlink:href="#linear-gradient-3"/>
    <linearGradient id="linear-gradient-46" x1="148.36" y1="62.64" x2="148.36" y2="130.75" xlink:href="#linear-gradient-4"/>
    <linearGradient id="linear-gradient-47" x1="185.8" y1="115.02" x2="179.84" y2="161.79" xlink:href="#linear-gradient-4"/>
    <linearGradient id="linear-gradient-48" x1="186.86" y1="62.64" x2="186.86" y2="130.75" xlink:href="#linear-gradient-4"/>
    <linearGradient id="linear-gradient-49" x1="136.94" y1="120.89" x2="9.02" y2="289.6" gradientTransform="matrix(1, 0, 0, 1, 0, 0)" xlink:href="#linear-gradient-3"/>
    <linearGradient id="_32" data-name="  32" x1="115.4" y1="115.56" x2="92.17" y2="153.23" gradientUnits="userSpaceOnUse">
      <stop offset="0" stop-color="#ff928e"/>
      <stop offset=".53" stop-color="#fea5a3"/>
      <stop offset="1" stop-color="#feb3b1"/>
    </linearGradient>
    <linearGradient id="linear-gradient-50" x1="183.06" y1="95.82" x2="152.61" y2="163.61" xlink:href="#linear-gradient-4"/>
    <linearGradient id="linear-gradient-51" x1="86.05" y1="167.75" x2="103.28" y2="167.75" gradientUnits="userSpaceOnUse">
      <stop offset="0" stop-color="#e1473d"/>
      <stop offset="1" stop-color="#e9605a"/>
    </linearGradient>
    <linearGradient id="linear-gradient-52" x1="90.18" y1="148.78" x2="119.68" y2="148.78" xlink:href="#linear-gradient-51"/>
    <linearGradient id="linear-gradient-53" x1="136.75" y1="90.55" x2="102.85" y2="126.96" xlink:href="#linear-gradient-4"/>
    <linearGradient id="linear-gradient-54" x1="101.68" y1="92.64" x2="127.78" y2="126.24" xlink:href="#linear-gradient-41"/>
    <linearGradient id="linear-gradient-55" x1="131.77" y1="85.92" x2="97.88" y2="122.33" xlink:href="#linear-gradient-4"/>
    <linearGradient id="linear-gradient-56" x1="161.6" y1="171.89" x2="176.66" y2="208.61" xlink:href="#linear-gradient-4"/>
    <linearGradient id="linear-gradient-57" x1="247.8" y1="168.07" x2="349.99" y2="222.47" gradientTransform="matrix(1, 0, 0, 1, 0, 0)" xlink:href="#linear-gradient-3"/>
    <linearGradient id="linear-gradient-58" x1="264.86" y1="89.94" x2="264.86" y2="156.48" xlink:href="#linear-gradient-4"/>
    <linearGradient id="linear-gradient-59" x1="269.22" y1="197.35" x2="343" y2="197.35" gradientTransform="matrix(1, 0, 0, 1, 0, 0)" xlink:href="#linear-gradient"/>
    <linearGradient id="linear-gradient-60" x1="307.27" y1="190.02" x2="322.95" y2="260.35" xlink:href="#linear-gradient-2"/>
    <linearGradient id="linear-gradient-61" x1="260.71" y1="143.81" x2="362.9" y2="198.22" gradientTransform="matrix(1, 0, 0, 1, 0, 0)" xlink:href="#linear-gradient-3"/>
    <linearGradient id="linear-gradient-62" x1="278.6" y1="166.15" x2="309.99" y2="182.86" xlink:href="#linear-gradient-51"/>
    <linearGradient id="linear-gradient-63" x1="311.82" y1="197.85" x2="287.93" y2="243.79" xlink:href="#linear-gradient-4"/>
    <linearGradient id="linear-gradient-64" x1="282.87" y1="112.47" x2="250.54" y2="110.27" xlink:href="#linear-gradient-4"/>
    <linearGradient id="linear-gradient-65" x1="243.96" y1="109.35" x2="278.78" y2="109.35" xlink:href="#linear-gradient-2"/>
    <linearGradient id="linear-gradient-66" x1="2414.9" y1="3429.01" x2="2436.1" y2="3407.27" gradientTransform="translate(4419.61 -442.88) rotate(-133.27) scale(1 -1)" xlink:href="#linear-gradient-4"/>
    <linearGradient id="linear-gradient-67" x1="110.95" y1="218.67" x2="111.93" y2="266.94" xlink:href="#linear-gradient-41"/>
    <linearGradient id="linear-gradient-68" x1="257.59" y1="215.69" x2="258.57" y2="263.96" xlink:href="#linear-gradient-41"/>
    <linearGradient id="linear-gradient-69" x1="8.94" y1="211.41" x2="22.55" y2="195.62" gradientTransform="translate(184.24 83.03) rotate(61.85)" xlink:href="#linear-gradient-51"/>
    <linearGradient id="linear-gradient-70" x1="30.24" y1="184.1" x2="-10.01" y2="244.89" gradientTransform="translate(19.36 -1.3) rotate(5.65)" xlink:href="#linear-gradient-3"/>
    <linearGradient id="linear-gradient-71" x1="29.03" y1="185.84" x2="7.61" y2="221.81" gradientTransform="matrix(1, 0, 0, 1, 0, 0)" xlink:href="#linear-gradient-3"/>
    <linearGradient id="linear-gradient-72" x1="27.53" y1="211.32" x2="51.22" y2="183.82" gradientTransform="translate(144.73 17.12) rotate(45)" xlink:href="#linear-gradient-51"/>
    <linearGradient id="linear-gradient-73" x1="64.61" y1="163.77" x2="-5.44" y2="269.6" gradientTransform="translate(218.19 90.85) rotate(76.72)" xlink:href="#linear-gradient-3"/>
    <linearGradient id="linear-gradient-74" x1="62.52" y1="166.8" x2="25.22" y2="229.42" gradientTransform="matrix(1, 0, 0, 1, 0, 0)" xlink:href="#linear-gradient-3"/>
    <linearGradient id="linear-gradient-75" x1="39.01" y1="251.58" x2="63.39" y2="223.29" gradientTransform="translate(268.48 113.99) rotate(78.02)" xlink:href="#linear-gradient-51"/>
    <linearGradient id="linear-gradient-76" x1="77.16" y1="202.65" x2="5.08" y2="311.55" gradientTransform="translate(176.2 20.06) rotate(45)" xlink:href="#linear-gradient-3"/>
    <linearGradient id="linear-gradient-77" x1="75.01" y1="205.77" x2="36.63" y2="270.21" gradientTransform="matrix(1, 0, 0, 1, 0, 0)" xlink:href="#linear-gradient-3"/>
    <linearGradient id="linear-gradient-78" x1="68.97" y1="219.11" x2="86.83" y2="198.38" gradientTransform="translate(277.29 94.74) rotate(85.27)" xlink:href="#linear-gradient-51"/>
    <linearGradient id="linear-gradient-79" x1="47.08" y1="203.97" x2="100.12" y2="196.03" gradientTransform="translate(140.29 -11.73) rotate(37.98)" xlink:href="#linear-gradient-3"/>
    <linearGradient id="linear-gradient-80" x1="95.35" y1="185.55" x2="67.23" y2="232.76" gradientTransform="matrix(1, 0, 0, 1, 0, 0)" xlink:href="#linear-gradient-3"/>
  </defs>
  <path d="M278.23,18.72c5.91,1.76,14.74,9.75,22.48,22.49,9.53,15.67,15.19,17.04,28.67,9.32,13.48-7.72,29.31-2.53,40.77,18.03,11.46,20.56-8.61,36.54-27.22,61.59-18.6,25.05,18.54,18.57,30.58,47.82,12.03,29.25-4.94,62.07-60.78,61.68-55.92-.39-140.44,.36-140.44,.36,0,0-78.39,6.92-106.93-10.95-28.55-17.87,6.57-26.56-19.98-37.98-26.55-11.42-54.26-12.2-42.65-41.73,11.61-29.53,28.04-23.42,38.64-31.31,10.6-7.9,16.98-16.47,1.82-30.52-15.16-14.05-26.77-23.52-19.1-42.14,11-26.71,37.68-30.16,67-18.84,29.32,11.32,34.29,25.82,82.68,17.43,26.99-4.68,54.19-40.2,104.48-25.24Z" style="fill: url(#linear-gradient);"/>
  <g>
    <path d="M264.36,234.76c.22,.36,.77,.14,.68-.27-1.35-5.91-4.4-24.96,9.71-34.11,16.44-10.67,44.77-15.29,27.42-79.74-.64-2.36-3.36-3.44-5.45-2.17-9.66,5.87-32.84,22.14-34.05,43.71-1.54,27.29,3.18,33.07,.76,43.11-4.28,17.76-.98,26.3,.94,29.47Z" style="fill: #bdd0fb;"/>
    <g>
      <path d="M256.91,236.17c-.07,.26-.45,.18-.41-.08,1.54-10.61,5.95-44.07,4.69-70.8-1.52-32.2-7.25-46.36-9.77-62.76-2.52-16.4,7.88-37.18,35.71-30.47,22.72,5.48,40.58,9.22,48.95,8.01,1.6-.23,2.8,1.45,2.07,2.9-4.81,9.56-17.86,31.15-38.41,32.87-26.45,2.21-26.82-5.03-32.39,1.99-5.57,7.02-5.28,13.92-4.85,26.84,.42,12.45,2.16,61.58-5.59,91.5Z" style="fill: #bdd0fb;"/>
      <path d="M260.2,134.11c-.79-1.99-1.41-3.97-1.95-6.01-.53-2.03-.97-4.09-1.27-6.17-.59-4.16-.71-8.44,.04-12.64,.39-2.09,1-4.16,1.88-6.12,.89-1.95,2.04-3.8,3.46-5.42,1.42-1.62,3.11-3,4.88-4.16,.89-.56,1.77-1.13,2.69-1.63,.9-.54,1.84-1.01,2.77-1.5,1.89-.93,3.83-1.75,5.83-2.42,2.01-.65,4.06-1.15,6.15-1.47,2.08-.32,4.19-.47,6.29-.46,2.1,0,4.19,.15,6.26,.34,4.14,.4,8.23,.98,12.34,1.19,4.1,.23,8.23,.02,12.28-.69h0c.18-.03,.35,.09,.38,.27,.03,.18-.09,.35-.26,.38-4.08,.82-8.28,1.15-12.44,1.02-4.17-.11-8.3-.64-12.4-.95-4.1-.32-8.21-.38-12.22,.3-2,.33-3.97,.83-5.9,1.49-1.92,.67-3.78,1.49-5.6,2.41-.9,.48-1.8,.95-2.67,1.48-.89,.5-1.74,1.07-2.6,1.62-1.67,1.12-3.21,2.39-4.52,3.89-2.61,3.01-4.2,6.8-4.89,10.75-.72,3.96-.62,8.06-.06,12.09,.29,2.01,.68,4.02,1.18,6,.5,1.97,1.1,3.95,1.81,5.82v.03c.17,.41-.04,.87-.44,1.02-.41,.16-.86-.04-1.02-.45Z" style="fill: #dce5fe;"/>
    </g>
    <g>
      <path d="M261.75,234.05c-.15,.22-.5,.04-.41-.21,1.4-3.75,4.43-13.54,3.71-26.36-.93-16.54-13.08-56.44,18.33-63.67,27.67-6.36,44.02-7.76,51.69-13.13,1.12-.78,2.65,.04,2.6,1.4-.35,9.89-2.93,36.01-20.22,42.49-21.45,8.04-42.28-.77-49.12,6.95-6.63,7.5,4.55,36.21-6.58,52.52Z" style="fill: #bdd0fb;"/>
      <path d="M263.57,187.55c-.14-1.81-.16-3.57-.11-5.35,.05-1.78,.16-3.55,.34-5.32,.38-3.54,1.03-7.07,2.11-10.51,.53-1.72,1.19-3.41,1.94-5.06,.77-1.64,1.69-3.22,2.72-4.74,1.06-1.49,2.27-2.9,3.63-4.16l1.07-.89c.18-.14,.35-.3,.54-.43l.57-.4c.39-.26,.75-.55,1.16-.77l1.21-.69,.3-.17,.32-.14,.63-.29c.43-.18,.84-.4,1.28-.53l1.31-.45c.44-.16,.88-.24,1.32-.37,1.77-.44,3.58-.73,5.39-.86,3.64-.28,7.23,.2,10.69,.63,3.46,.46,6.88,.79,10.25,.27,3.37-.5,6.58-1.88,9.55-3.68h0c.14-.09,.32-.04,.41,.1,.08,.13,.04,.3-.08,.39-1.41,1.07-2.92,2.03-4.53,2.82-1.61,.78-3.32,1.4-5.09,1.78-1.77,.38-3.59,.54-5.39,.55-1.8,0-3.58-.13-5.33-.28-1.75-.15-3.48-.32-5.2-.4-1.72-.08-3.42-.07-5.1,.09-1.68,.15-3.35,.45-4.97,.88-.4,.12-.82,.21-1.21,.36l-1.17,.41c-.4,.12-.76,.32-1.14,.48l-.56,.26-.28,.13-.27,.15-1.07,.62c-.36,.2-.68,.46-1.02,.69l-.51,.35c-.17,.12-.32,.26-.48,.39l-.95,.8c-1.2,1.14-2.31,2.38-3.29,3.75-1.92,2.75-3.36,5.86-4.43,9.1-.52,1.63-.99,3.28-1.36,4.96-.37,1.68-.66,3.38-.92,5.09-.49,3.41-.72,6.91-.7,10.33v.03c0,.44-.35,.79-.79,.8-.42,0-.76-.32-.79-.73Z" style="fill: #dce5fe;"/>
    </g>
    <g>
      <path d="M128.34,173.63s1.04-27.32-11.44-34.81c-12.48-7.49-36.35-12.41-36.68-51.66-.2-22.98-.62-33.03-.94-37.42-.12-1.71,1.41-3.07,3.09-2.73,11.89,2.42,50.48,12.21,58.22,38.76,9.18,31.47-12.25,87.86-12.25,87.86Z" style="fill: #bdd0fb;"/>
      <path d="M91.42,58.08c.91,.84,1.79,1.7,2.66,2.57,.43,.44,.86,.88,1.28,1.33,.42,.45,.85,.89,1.26,1.34,.83,.91,1.66,1.81,2.47,2.74l1.22,1.39,1.19,1.41,1.18,1.42,1.15,1.44c.77,.96,1.53,1.92,2.26,2.91,1.5,1.95,2.9,3.97,4.33,5.98,1.37,2.05,2.76,4.08,4.04,6.18l.98,1.57,.49,.78,.47,.8,1.85,3.2,.46,.8,.43,.82,.87,1.63,.87,1.63,.43,.82,.41,.83c1.07,2.22,2.2,4.4,3.17,6.7,.26,.57,.48,1.15,.71,1.72,.23,.58,.46,1.15,.68,1.73l.63,1.75,.31,.88,.29,.89,.57,1.77,.52,1.79c.36,1.19,.63,2.4,.95,3.6,1.14,4.82,1.96,9.72,2.4,14.65,.47,4.92,.57,9.87,.39,14.8-.1,2.47-.28,4.93-.54,7.38-.25,2.46-.59,4.89-1.09,7.35-.09,.44-.52,.73-.97,.64-.43-.09-.71-.49-.65-.92v-.04c.69-4.75,1.01-9.63,1.04-14.47,.05-4.85-.17-9.69-.69-14.5-.51-4.81-1.34-9.58-2.48-14.27-1.19-4.67-2.62-9.29-4.53-13.71-3.85-8.87-8.6-17.4-13.85-25.57l-2.02-3.03c-.66-1.02-1.39-1.99-2.08-3-.69-1-1.41-1.98-2.13-2.96l-1.08-1.47-1.11-1.45c-2.94-3.87-6.06-7.64-9.37-11.18h-.01c-.18-.2-.17-.5,.02-.67,.18-.17,.46-.17,.63,0Z" style="fill: #dce5fe;"/>
    </g>
    <g>
      <path d="M132.05,232.97c1.94,.94-18.44-24.49-24.95-64.53-3.07-18.87-3.2-42.52-13.99-51.6-8.98-7.55-39.42-2.65-49.38-.79-1.24,.23-1.66,1.81-.69,2.62,4.79,4,15.05,13.42,17.75,22.95,3.56,12.56,15.55,20.52,26.26,22.64,10.71,2.12,16.67,4.2,21.95,21.3,5.28,17.1,17.51,44.72,23.03,47.4Z" style="fill: #bdd0fb;"/>
      <path d="M57.77,121.34c6.43,.26,12.79,1.83,18.64,4.59,2.93,1.37,5.69,3.13,8.2,5.21,2.48,2.1,4.71,4.54,6.47,7.29l.66,1.03c.22,.35,.4,.71,.6,1.07,.19,.36,.4,.72,.58,1.07l.54,1.07c.72,1.43,1.43,2.86,2.13,4.29,1.4,2.87,2.75,5.77,4.05,8.69,2.61,5.83,5.03,11.75,7.08,17.82,.06,.17-.03,.35-.2,.41-.16,.05-.33-.03-.4-.18h0c-1.21-2.95-2.46-5.88-3.78-8.77-1.3-2.91-2.63-5.8-3.99-8.67-1.36-2.88-2.74-5.74-4.16-8.59-.7-1.43-1.41-2.85-2.13-4.27l-.54-1.07c-.18-.36-.37-.69-.56-1.03-.19-.34-.36-.69-.57-1.02l-.62-.99c-1.66-2.64-3.78-4.95-6.12-7.02-1.19-1.01-2.42-1.97-3.74-2.82l-.49-.33-.5-.31c-.33-.2-.66-.42-1-.61-.68-.38-1.36-.78-2.07-1.12-2.79-1.44-5.76-2.54-8.79-3.42-3.03-.88-6.16-1.5-9.3-1.8h-.02c-.14-.02-.24-.14-.23-.28,.01-.14,.13-.24,.27-.23Z" style="fill: #dce5fe;"/>
    </g>
    <g>
      <path d="M122.41,243.21c1.15,.61-6.48-12.52-7.06-24.09-.59-11.57-3.19-31.31-13.17-43.12-9.98-11.81-20.9-12.89-34.66-2.15-11.47,8.95-18.63,13.46-22.82,14.3-1.04,.21-1.57,1.38-1.06,2.31,2.69,4.96,10.3,16.34,23.08,15.54,16.3-1.02,36.05-11.62,42.07-2.78,6.02,8.84,5.25,13.78,5.43,17.97,.18,4.19,.6,18,8.21,22.02Z" style="fill: #bdd0fb;"/>
      <path d="M72.15,188.04c.9-.87,1.85-1.65,2.83-2.4,.98-.75,2-1.47,3.05-2.12,2.11-1.31,4.36-2.43,6.76-3.2,1.2-.38,2.44-.68,3.71-.84,1.27-.15,2.57-.18,3.86-.02,.32,.05,.64,.08,.96,.15,.32,.07,.64,.13,.95,.22l1.8,.56,1.76,.69,1.71,.82c2.24,1.18,4.27,2.78,5.96,4.67,1.7,1.88,3.02,4.04,4.11,6.28,.27,.56,.55,1.12,.77,1.7,.23,.58,.48,1.15,.7,1.73l.6,1.76c.21,.58,.35,1.19,.52,1.78,.67,2.38,1.14,4.8,1.53,7.22,.03,.16-.08,.3-.24,.33-.15,.02-.29-.07-.32-.21h0c-.59-2.38-1.15-4.75-1.94-7.04-.36-1.16-.82-2.28-1.24-3.41-.23-.56-.49-1.1-.73-1.65-.23-.56-.52-1.08-.8-1.61-1.11-2.12-2.46-4.11-4.07-5.85-1.61-1.74-3.51-3.17-5.6-4.26l-1.6-.76-1.66-.63-1.7-.52c-.28-.08-.56-.13-.84-.2-.28-.07-.56-.09-.85-.14-1.14-.15-2.3-.14-3.46-.01-1.16,.12-2.32,.36-3.46,.7-2.28,.66-4.48,1.64-6.6,2.79-1.05,.58-2.1,1.19-3.12,1.85-1.01,.66-2.02,1.36-2.97,2.08h0c-.13,.1-.32,.08-.42-.05-.09-.12-.08-.29,.03-.39Z" style="fill: #dce5fe;"/>
    </g>
  </g>
  <g>
    <path d="M127.41,27.26l127.48,1.4c7.05,.08,12.57,6.16,12.57,13.8l-.11,188.97c0,5.29-4.28,9.67-9.45,9.69l-136.67,.6c-4.82,.02-8.78-4.01-8.78-8.96V43.37c0-8.97,6.7-16.21,14.96-16.12Z" style="fill: url(#linear-gradient-2);"/>
    <path d="M244.26,45.37h-107.16c-4.49,0-8.1,3.7-8.1,8.08V209.41c0,4.38,3.61,7.77,8.1,7.77h107.16c4.49,0,8.17-3.39,8.17-7.77V53.45c0-4.38-3.68-8.08-8.17-8.08Z" style="fill: #91b3fa;"/>
  </g>
  <g>
    <g>
      <path d="M345.15,130.61l-65.89-5.85c-2.67-.24-4.72-2.47-4.74-5.15l-.24-44.43c-.02-3.02,2.54-5.42,5.56-5.21l70.17,4.88c2.9,.2,5.07,2.75,4.82,5.64l-4.03,45.39c-.25,2.86-2.78,4.97-5.64,4.72Z" style="fill: #7d97f4;"/>
      <path d="M278.14,79.48l-.44,38.36c-.02,1.67,1.24,3.07,2.9,3.24l63.19,6.28c1.78,.18,3.36-1.13,3.52-2.91l3.64-41.02c.16-1.81-1.21-3.4-3.03-3.49l-66.39-3.62c-1.83-.1-3.37,1.34-3.39,3.17Z" style="fill: #fff; opacity: .87;"/>
      <path d="M308.09,113l35.76,2.1c.37,.02,.64,.34,.61,.71l-.05,.57c-.03,.35-.34,.62-.7,.59l-35.71-2.67c-.36-.03-.63-.35-.6-.71h0c.03-.35,.34-.61,.69-.59Z" style="fill: #7d97f4;"/>
      <rect x="324.84" y="99.79" width="1.55" height="37.11" rx=".65" ry=".65" transform="translate(178.95 432.22) rotate(-84.93)" style="fill: #7d97f4;"/>
      <path d="M317.68,120.74v.11c-.04,.36,.22,.67,.58,.71l24.84,2.2c.36,.03,.67-.23,.71-.59l.04-.5c.03-.36-.24-.68-.6-.71l-24.87-1.81c-.35-.03-.66,.24-.7,.59Z" style="fill: #7d97f4;"/>
    </g>
    <g>
      <path d="M339.63,114.73l-77.77-1.58c-3.15-.06-5.74-2.52-5.97-5.66l-3.84-52.1c-.26-3.55,2.55-6.57,6.1-6.56l82.7,.11c3.42,0,6.17,2.82,6.1,6.24l-1.09,53.57c-.07,3.37-2.86,6.05-6.23,5.99Z" style="fill: url(#linear-gradient-3);"/>
      <path d="M256.92,60.13l2.56,45.03c.11,1.96,1.7,3.5,3.66,3.56l74.62,2.3c2.1,.06,3.85-1.6,3.9-3.7l.99-48.41c.04-2.14-1.69-3.89-3.83-3.86l-78.17,1.07c-2.15,.03-3.84,1.85-3.72,3.99Z" style="fill: url(#linear-gradient-4);"/>
      <path d="M294.74,97.05l42.11-.4c.43,0,.78,.35,.77,.78v.68c-.02,.42-.37,.75-.78,.75l-42.1-.28c-.43,0-.77-.35-.76-.78h0c0-.41,.34-.75,.76-.75Z" style="fill: url(#linear-gradient-5);"/>
      <rect x="314.81" y="80.1" width="1.82" height="43.63" rx=".77" ry=".77" transform="translate(207.45 415.51) rotate(-88.84)" style="fill: url(#linear-gradient-6);"/>
      <path d="M306.61,105.36v.13c-.01,.42,.32,.77,.75,.78l29.31,.6c.42,0,.77-.33,.78-.75v-.6c.02-.43-.32-.78-.75-.78l-29.32-.13c-.42,0-.76,.33-.77,.75Z" style="fill: url(#linear-gradient-7);"/>
    </g>
    <g>
      <path d="M327.77,104.51h-86.27c-3.5,0-6.42-2.66-6.75-6.14l-5.44-57.69c-.37-3.93,2.68-7.34,6.62-7.41l91.71-1.75c3.79-.07,6.91,2.98,6.91,6.78v59.43c0,3.74-3.03,6.78-6.78,6.78Z" style="fill: url(#linear-gradient-8);"/>
      <path d="M234.83,45.83l3.86,49.88c.17,2.17,1.96,3.85,4.14,3.87l82.8,.87c2.33,.02,4.24-1.86,4.24-4.19V42.55c0-2.37-1.97-4.27-4.34-4.19l-86.66,2.95c-2.38,.08-4.22,2.13-4.04,4.51Z" style="fill: url(#linear-gradient-9);"/>
      <path d="M279.03,45.37l46.69-1.4c.48-.01,.87,.37,.87,.85v.75c0,.46-.37,.84-.84,.85l-46.69,.64c-.47,0-.86-.38-.86-.85h0c0-.46,.36-.83,.82-.85Z" style="fill: #7d97f4;"/>
      <rect x="278.21" y="49.28" width="48.39" height="2.02" rx=".85" ry=".85" style="fill: #7d97f4;"/>
      <path d="M266.8,92.12c-.21,0-.38-.17-.38-.38v-1.14c0-.21,.17-.38,.38-.38h0c.21,0,.38,.17,.38,.38v1.14c0,.21-.17,.38-.38,.38h0Zm0-3.81c-.21,0-.38-.17-.38-.38v-1.14c0-.21,.17-.38,.38-.38h0c.21,0,.38,.17,.38,.38v1.14c0,.21-.17,.38-.38,.38h0Zm0-3.81c-.21,0-.38-.17-.38-.38v-1.14c0-.21,.17-.38,.38-.38h0c.21,0,.38,.17,.38,.38v1.14c0,.21-.17,.38-.38,.38h0Zm0-3.81c-.21,0-.38-.17-.38-.38v-1.14c0-.21,.17-.38,.38-.38h0c.21,0,.38,.17,.38,.38v1.14c0,.21-.17,.38-.38,.38h0Z" style="fill: #7d97f4;"/>
      <path d="M285.94,91.04c-.21,0-.38-.17-.38-.38v-1.14c0-.21,.17-.38,.38-.38s.38,.17,.38,.38v1.14c0,.21-.17,.38-.38,.38Zm0-3.81c-.21,0-.38-.17-.38-.38v-1.14c0-.21,.17-.38,.38-.38s.38,.17,.38,.38v1.14c0,.21-.17,.38-.38,.38Zm0-3.81c-.21,0-.38-.17-.38-.38v-1.14c0-.21,.17-.38,.38-.38s.38,.17,.38,.38v1.14c0,.21-.17,.38-.38,.38Zm0-3.81c-.21,0-.38-.17-.38-.38v-1.14c0-.21,.17-.38,.38-.38s.38,.17,.38,.38v1.14c0,.21-.17,.38-.38,.38Zm0-3.81c-.21,0-.38-.17-.38-.38v-1.14c0-.21,.17-.38,.38-.38s.38,.17,.38,.38v1.14c0,.21-.17,.38-.38,.38Z" style="fill: #7d97f4;"/>
      <path d="M300.53,94.19c-.21,0-.37-.16-.38-.37l-.02-.68c0-.21,.16-.39,.37-.39,.21-.02,.39,.16,.39,.37l.02,.68c0,.21-.16,.39-.37,.39,0,0,0,0-.01,0Zm-.1-3.35c-.21,0-.37-.16-.38-.37l-.04-1.14c0-.21,.16-.39,.37-.39,.21-.01,.39,.16,.39,.37l.04,1.14c0,.21-.16,.39-.37,.39,0,0,0,0-.01,0Zm-.12-3.81c-.21,0-.37-.16-.38-.37l-.04-1.14c0-.21,.16-.39,.37-.39,.21-.01,.39,.16,.39,.37l.04,1.14c0,.21-.16,.39-.37,.39,0,0,0,0-.01,0Zm-.12-3.81c-.2,0-.37-.16-.38-.37l-.04-1.14c0-.21,.16-.39,.37-.39,.21-.01,.39,.16,.39,.37l.04,1.14c0,.21-.16,.39-.37,.39,0,0,0,0-.01,0Zm-.12-3.81c-.2,0-.37-.16-.38-.37l-.04-1.14c0-.21,.16-.39,.37-.39,.22-.02,.39,.16,.39,.37l.04,1.14c0,.21-.16,.39-.37,.39,0,0,0,0-.01,0Zm-.12-3.81c-.21,0-.37-.16-.38-.37l-.04-1.14c0-.21,.16-.39,.37-.39,.22,0,.39,.16,.39,.37l.04,1.14c0,.21-.16,.39-.37,.39,0,0,0,0-.01,0Zm-.12-3.81c-.2,0-.37-.16-.38-.37l-.04-1.14c0-.21,.16-.39,.37-.39,.21-.01,.39,.16,.39,.37l.04,1.14c0,.21-.16,.39-.37,.39,0,0,0,0-.01,0Z" style="fill: #7d97f4;"/>
      <path d="M314.4,92.05c-.21,0-.38-.17-.38-.38v-1.14c0-.21,.17-.38,.38-.38s.38,.17,.38,.38v1.14c0,.21-.17,.38-.38,.38Zm0-3.81c-.21,0-.38-.17-.38-.38v-1.14c0-.21,.17-.38,.38-.38s.38,.17,.38,.38v1.14c0,.21-.17,.38-.38,.38Zm0-3.81c-.21,0-.38-.17-.38-.38v-1.14c0-.21,.17-.38,.38-.38s.38,.17,.38,.38v1.14c0,.21-.17,.38-.38,.38Zm0-3.81c-.21,0-.38-.17-.38-.38v-1.14c0-.21,.17-.38,.38-.38s.38,.17,.38,.38v1.14c0,.21-.17,.38-.38,.38Zm0-3.81c-.21,0-.38-.17-.38-.38v-1.14c0-.21,.17-.38,.38-.38s.38,.17,.38,.38v1.14c0,.21-.17,.38-.38,.38Zm0-3.81c-.21,0-.38-.17-.38-.38v-1.14c0-.21,.17-.38,.38-.38s.38,.17,.38,.38v1.14c0,.21-.17,.38-.38,.38Zm0-3.81c-.21,0-.38-.17-.38-.38v-1.14c0-.21,.17-.38,.38-.38s.38,.17,.38,.38v1.14c0,.21-.17,.38-.38,.38Zm0-3.81c-.21,0-.38-.17-.38-.38v-1.14c0-.21,.17-.38,.38-.38s.38,.17,.38,.38v1.14c0,.21-.17,.38-.38,.38Zm0-3.81c-.21,0-.38-.17-.38-.38v-1.14c0-.21,.17-.38,.38-.38s.38,.17,.38,.38v1.14c0,.21-.17,.38-.38,.38Z" style="fill: #7d97f4;"/>
      <g>
        <path d="M246.32,96.55c-.29,0-.54-.23-.57-.52l-3.91-46.12c-.03-.31,.21-.59,.52-.62,.32-.02,.59,.21,.62,.52l3.91,46.12c.03,.31-.21,.59-.52,.62-.02,0-.03,0-.05,0Z" style="fill: #7d97f4;"/>
        <polygon points="240.68 52.29 242.45 50.19 244.54 51.96 244.4 50.32 242.31 48.56 240.54 50.65 240.68 52.29" style="fill: #7d97f4;"/>
      </g>
      <g>
        <path d="M323.72,94.38h-80.36c-.32,0-.57-.26-.57-.57s.26-.57,.57-.57h80.36c.32,0,.57,.26,.57,.57s-.26,.57-.57,.57Z" style="fill: #7d97f4;"/>
        <polygon points="321.44 95.74 323.38 93.8 321.44 91.87 323.09 91.87 325.02 93.8 323.09 95.74 321.44 95.74" style="fill: #7d97f4;"/>
      </g>
      <path d="M249.66,81.12c-.28,0-.53-.21-.57-.5-.04-.31,.18-.6,.49-.64,.42-.06,42.5-5.82,65.53-22.8,.25-.19,.61-.13,.8,.12,.19,.25,.13,.61-.12,.8-23.27,17.16-65.63,22.96-66.06,23.01-.03,0-.05,0-.08,0Z" style="fill: #7d97f4;"/>
      <path d="M315.64,60.68s-.03,0-.05,0c-.31-.02-.55-.3-.52-.61l.18-2.24-3.16-.19c-.31-.02-.56-.29-.54-.6,.02-.32,.29-.56,.6-.54l3.75,.22c.15,0,.3,.08,.4,.19,.1,.12,.15,.27,.14,.42l-.22,2.83c-.02,.3-.27,.53-.57,.53Z" style="fill: #7d97f4;"/>
    </g>
  </g>
  <g>
    <path d="M21.3,73.76l45.62-24.37c2.52-1.34,5.65-.48,7.12,1.96l38.7,64.34c1.15,1.91,.49,4.4-1.46,5.49l-51.78,28.88c-1.83,1.02-4.15,.34-5.14-1.51L18.8,81.99c-1.58-2.96-.46-6.65,2.5-8.23Z" style="fill: url(#linear-gradient-10);"/>
    <path d="M66.55,144.88h0s-5.89,3.05-5.89,3.05c-1.98,1.03-4.45,.26-5.5-1.71l-4.72-8.83c-.04-.08-.01-.18,.07-.23,.09-.04,.18-.01,.23,.07l4.72,8.83c.97,1.81,3.23,2.51,5.05,1.57l5.89-3.05c.08-.04,.18-.01,.23,.07,.04,.08,.01,.18-.07,.23Z" style="fill: #fff;"/>
    <path d="M49.2,134.72c-.08,.04-.18,.01-.23-.07l-.76-1.43c-.04-.08-.01-.18,.07-.23,0,0,0,0,0,0,.08-.04,.18-.01,.23,.07l.76,1.43c.04,.08,.01,.18-.07,.23,0,0,0,0,0,0Z" style="fill: #fff;"/>
    <g>
      <path d="M21.16,73.15c6.68-2.48,29.5-11.31,46.48-22.14,.77-.49,1.8-.26,2.28,.53l39.02,64.55c.54,.89,.26,2.04-.63,2.58-7.21,4.42-36.98,22.51-48.54,27.21-.7,.29-1.51,0-1.87-.67L20.22,75.65c-.51-.94-.07-2.12,.94-2.5Z" style="fill: #91b3fa;"/>
      <path d="M22.74,74.52c6.43-2.39,28.39-10.89,44.73-21.3,.75-.47,1.73-.25,2.19,.51l37.55,62.12c.51,.85,.25,1.96-.6,2.48-6.94,4.25-35.59,21.67-46.71,26.19-.68,.28-1.45,0-1.8-.65L21.84,76.92c-.49-.91-.07-2.04,.9-2.4Z" style="fill: #bdd0fb;"/>
      <path d="M69.84,59.18c.33-.18,.48-.52,.33-.77-.15-.24-.55-.3-.88-.13l-38.57,20.22c-.33,.17-.32,.44,.02,.59l.38,.17c.35,.15,.9,.13,1.23-.05l37.49-20.03Z" style="fill: url(#linear-gradient-11);"/>
      <path d="M32.08,81.05c-.33,.17-.32,.44,.02,.59l.38,.17c.35,.15,.9,.13,1.23-.05l37.49-20.03c.33-.18,.48-.52,.33-.77-.15-.24-.55-.3-.88-.13l-38.57,20.22Z" style="fill: url(#linear-gradient-12);"/>
      <path d="M51,100.79s0,0-.01,0l-5.07,2.86c-.73,.41-1.62,.26-2.07-.36l-2.88-3.98c-.17-.24-.24-.53-.18-.83,.06-.33,.26-.64,.56-.83h0c.41-.27,.97-.66,1.58-1.09,1.33-.93,2.85-1.98,3.77-2.53,0,0,.01,0,.02-.01,.67-.39,1.48-.31,1.98,.19,.82,.82,1.86,2.67,2.94,4.66,.35,.65,.07,1.51-.63,1.91Zm-9.39-2.74c-.19,.13-.32,.32-.36,.52-.03,.17,0,.33,.1,.47l2.88,3.98c.31,.42,.93,.52,1.45,.22l5.07-2.86s0,0,0,0c.48-.28,.69-.85,.45-1.27-1.06-1.96-2.08-3.78-2.86-4.55-.34-.34-.96-.39-1.42-.1-.91,.54-2.48,1.64-3.75,2.51-.62,.43-1.17,.82-1.58,1.09h0Z" style="fill: #fff;"/>
      <path d="M42.39,98.17c1.02-.68,3.19-2.24,4.27-2.89,.46-.27,1.03-.23,1.37,.11,.66,.66,1.53,2.23,2.32,3.68,.24,.44,.04,1.01-.44,1.28l-4.05,2.28c-.5,.28-1.1,.18-1.4-.23l-2.3-3.18c-.24-.33-.13-.81,.25-1.06Z" style="fill: url(#linear-gradient-13);"/>
      <path d="M53.08,93.75c-.33,.18-.38,.55-.12,.81l1.16,1.17c.26,.27,.75,.33,1.07,.14l25.03-14.43c.33-.19,.43-.6,.24-.93l-.42-.69c-.19-.32-.62-.44-.95-.26l-26.01,14.18Z" style="fill: url(#linear-gradient-14);"/>
      <path d="M42.99,98.71h0c.25-.44,.81-.58,1.24-.33l2.02,1.21c.2,.12,.46-.04,.43-.28l-.7-6.91c-.03-.34,.43-.49,.6-.18,.94,1.69,2.34,5.14,1.2,9.37,0,0-1.81,.28-4.51-1.65-.39-.28-.51-.81-.27-1.22Z" style="fill: url(#linear-gradient-15);"/>
      <path d="M44.94,89.21s0,0-.01,0l-5.07,2.86c-.73,.41-1.62,.26-2.07-.36l-2.88-3.98c-.17-.24-.24-.53-.18-.83,.06-.33,.26-.64,.56-.83h0c.41-.27,.97-.66,1.58-1.09,1.33-.93,2.85-1.98,3.77-2.53,0,0,.01,0,.02-.01,.67-.39,1.48-.31,1.98,.19,.82,.82,1.86,2.67,2.94,4.66,.35,.65,.07,1.51-.63,1.91Zm-9.39-2.74c-.19,.13-.32,.32-.36,.52-.03,.17,0,.33,.1,.47l2.88,3.98c.31,.42,.93,.52,1.45,.22l5.07-2.86s0,0,0,0c.48-.28,.69-.85,.45-1.27-1.06-1.96-2.08-3.78-2.86-4.55-.34-.34-.96-.39-1.42-.1-.91,.54-2.48,1.64-3.75,2.51-.62,.43-1.17,.82-1.58,1.09h0Z" style="fill: #fff;"/>
      <path d="M36.34,86.58c1.02-.68,3.19-2.24,4.27-2.89,.46-.27,1.03-.23,1.37,.11,.66,.66,1.53,2.23,2.32,3.68,.24,.44,.04,1.01-.44,1.28l-4.05,2.28c-.5,.28-1.1,.18-1.4-.23l-2.3-3.18c-.24-.33-.13-.81,.25-1.06Z" style="fill: url(#linear-gradient-16);"/>
      <path d="M47.02,82.17c-.33,.18-.38,.55-.12,.81l1.16,1.17c.26,.27,.75,.33,1.07,.14l25.03-14.43c.33-.19,.43-.6,.24-.93l-.42-.69c-.19-.32-.62-.44-.95-.26l-26.01,14.18Z" style="fill: url(#linear-gradient-17);"/>
      <path d="M36.93,87.12h0c.25-.44,.81-.58,1.24-.33l2.02,1.21c.2,.12,.46-.04,.43-.28l-.7-6.91c-.03-.34,.43-.49,.6-.18,.94,1.69,2.34,5.14,1.2,9.37,0,0-1.81,.28-4.51-1.65-.39-.28-.51-.81-.27-1.22Z" style="fill: url(#linear-gradient-18);"/>
      <path d="M57.23,111.6h-.01s-5.07,2.87-5.07,2.87c-.73,.41-1.62,.26-2.07-.36l-2.88-3.98c-.17-.24-.24-.53-.18-.83,.06-.33,.26-.64,.56-.83h0c.41-.27,.97-.66,1.58-1.09,1.33-.93,2.85-1.98,3.77-2.53,0,0,.01,0,.02-.01,.67-.39,1.48-.31,1.98,.19,.82,.82,1.86,2.67,2.94,4.66,.35,.65,.07,1.51-.63,1.91Zm-9.39-2.74c-.19,.13-.32,.32-.36,.52-.03,.17,0,.33,.1,.47l2.88,3.98c.31,.42,.93,.52,1.45,.22l5.07-2.86s0,0,0,0c.48-.28,.69-.85,.45-1.27-1.06-1.96-2.08-3.78-2.86-4.55-.35-.34-.95-.39-1.42-.1-.91,.54-2.48,1.64-3.75,2.51-.62,.43-1.17,.82-1.58,1.09h0Z" style="fill: #fff;"/>
      <path d="M48.62,108.98c1.02-.68,3.19-2.24,4.27-2.89,.46-.27,1.03-.23,1.37,.11,.66,.66,1.53,2.23,2.32,3.68,.24,.44,.04,1.01-.44,1.28l-4.05,2.28c-.5,.28-1.1,.18-1.4-.23l-2.3-3.18c-.24-.33-.13-.81,.25-1.06Z" style="fill: url(#linear-gradient-19);"/>
      <path d="M59.31,104.56c-.33,.18-.38,.55-.12,.81l1.16,1.17c.26,.27,.75,.33,1.07,.14l25.03-14.43c.33-.19,.43-.6,.24-.93l-.42-.69c-.19-.32-.62-.44-.95-.26l-26.01,14.18Z" style="fill: url(#linear-gradient-20);"/>
      <path d="M49.22,109.52h0c.25-.44,.81-.58,1.24-.33l2.02,1.21c.2,.12,.46-.04,.43-.28l-.7-6.91c-.03-.34,.43-.49,.6-.18,.94,1.69,2.34,5.14,1.2,9.37,0,0-1.81,.28-4.51-1.65-.39-.28-.51-.81-.27-1.22Z" style="fill: url(#linear-gradient-21);"/>
      <path d="M62.74,122.25s0,0-.01,0l-5.07,2.86c-.73,.41-1.62,.26-2.07-.36l-2.88-3.98c-.17-.24-.24-.53-.18-.83,.06-.33,.26-.64,.56-.83h0c.41-.27,.96-.66,1.58-1.09,1.27-.88,2.85-1.98,3.78-2.53,.66-.39,1.49-.33,2,.18,.82,.82,1.86,2.67,2.94,4.66,.35,.65,.07,1.51-.63,1.91Zm-9.39-2.74c-.19,.13-.32,.32-.36,.52-.03,.17,0,.33,.1,.47l2.88,3.98c.31,.42,.93,.52,1.45,.22l5.07-2.86c.47-.28,.7-.85,.46-1.28-1.06-1.96-2.08-3.78-2.86-4.55-.35-.34-.95-.38-1.42-.1-.91,.54-2.49,1.64-3.75,2.51-.61,.43-1.17,.82-1.58,1.09h0Z" style="fill: url(#linear-gradient-22);"/>
      <path d="M54.14,119.63c1.02-.68,3.19-2.24,4.27-2.89,.46-.27,1.03-.23,1.37,.11,.66,.66,1.53,2.23,2.32,3.68,.24,.44,.04,1.01-.44,1.28l-4.05,2.28c-.5,.28-1.1,.18-1.4-.23l-2.3-3.18c-.24-.33-.13-.81,.25-1.06Z" style="fill: #fff; opacity: .6;"/>
      <path d="M64.82,115.21c-.33,.18-.38,.55-.12,.81l1.16,1.17c.26,.27,.75,.33,1.07,.14l25.03-14.43c.33-.19,.43-.6,.24-.93l-.42-.69c-.19-.32-.62-.44-.95-.26l-26.01,14.18Z" style="fill: url(#linear-gradient-23);"/>
      <path d="M54.73,120.17h0c.25-.44,.81-.58,1.24-.33l2.02,1.21c.2,.12,.46-.04,.43-.28l-.7-6.91c-.03-.34,.43-.49,.6-.18,.94,1.69,2.34,5.14,1.2,9.37,0,0-1.81,.28-4.51-1.65-.39-.28-.51-.81-.27-1.22Z" style="fill: url(#linear-gradient-24);"/>
      <path d="M68.34,133.28s0,0-.01,0l-5.07,2.86c-.73,.41-1.62,.26-2.07-.36l-2.88-3.98c-.17-.24-.24-.53-.18-.83,.06-.33,.26-.64,.56-.83h0c.41-.27,.97-.66,1.58-1.09,1.33-.93,2.85-1.98,3.78-2.53,.69-.39,1.49-.33,2,.18,.82,.82,1.86,2.67,2.94,4.66,.35,.65,.07,1.51-.63,1.91Zm-9.39-2.74c-.19,.13-.32,.32-.36,.52-.03,.17,0,.33,.1,.47l2.88,3.98c.31,.42,.93,.52,1.45,.22l5.07-2.86s0,0,0,0c.48-.28,.69-.85,.45-1.27-1.06-1.96-2.08-3.78-2.86-4.55-.35-.34-.95-.38-1.42-.1-.91,.54-2.48,1.63-3.75,2.51-.62,.43-1.17,.82-1.59,1.09h0Z" style="fill: #fff;"/>
      <path d="M59.73,130.66c1.02-.68,3.19-2.24,4.27-2.89,.46-.27,1.03-.23,1.37,.11,.66,.66,1.53,2.23,2.32,3.68,.24,.44,.04,1.01-.44,1.28l-4.05,2.28c-.5,.28-1.1,.18-1.4-.23l-2.3-3.18c-.24-.33-.13-.81,.25-1.06Z" style="fill: url(#linear-gradient-25);"/>
      <path d="M70.42,126.24c-.33,.18-.38,.55-.12,.81l1.16,1.17c.26,.27,.75,.33,1.07,.14l25.03-14.43c.33-.19,.43-.6,.24-.93l-.42-.69c-.19-.32-.62-.44-.95-.26l-26.01,14.18Z" style="fill: url(#linear-gradient-26);"/>
      <path d="M60.33,131.2h0c.25-.44,.81-.58,1.24-.33l2.02,1.21c.2,.12,.46-.04,.43-.28l-.7-6.91c-.03-.34,.43-.49,.6-.18,.94,1.69,2.34,5.14,1.2,9.37,0,0-1.81,.28-4.51-1.65-.39-.28-.51-.81-.27-1.22Z" style="fill: url(#linear-gradient-27);"/>
    </g>
    <path d="M42.12,51.05c-2.26-.27-3.68,.52-4.53,1.36-.78,.76-.9,1.97-.3,2.88l2.97,4.52,5.42-2.31s.87-5.92-3.56-6.45Zm-.23,5.05c-.71,.38-1.6,.11-1.98-.6-.38-.71-.11-1.6,.6-1.98,.71-.38,1.6-.11,1.98,.6,.38,.71,.11,1.6-.6,1.98Z" style="fill: url(#linear-gradient-28);"/>
    <path d="M39.69,57.69c-.11,.02-.22-.03-.28-.13l-.47-.72c-.09-.13-.05-.31,.08-.4,.13-.09,.31-.05,.4,.08l.47,.72c.09,.13,.05,.31-.08,.4-.04,.02-.08,.04-.12,.05Zm-.93-1.41c-.11,.02-.22-.03-.28-.13l-.36-.55c-.61-.92-.48-2.16,.31-2.93,.54-.53,1.18-.91,1.91-1.13,.15-.04,.32,.04,.36,.2,.05,.15-.04,.32-.2,.36-.64,.19-1.2,.52-1.67,.98-.59,.58-.68,1.5-.23,2.2l.36,.55c.09,.13,.05,.31-.08,.4-.04,.02-.08,.04-.12,.05Z" style="fill: url(#linear-gradient-29);"/>
    <path d="M34.84,66.64l-1.28-2.39c-.44-.82-.11-1.85,.73-2.26l16.76-8.23c.74-.37,1.64-.1,2.08,.6l1.36,2.22-19.65,10.05Z" style="fill: url(#linear-gradient-30);"/>
    <path d="M38.71,60.82c-.08,.04-.18,.01-.23-.07-.04-.08-.01-.18,.07-.23l.71-.38c.09-.04,.18-.01,.23,.07,.04,.08,.01,.18-.07,.23l-.71,.38s0,0,0,0Z" style="fill: url(#linear-gradient-31);"/>
    <path d="M35.31,65.58c-.12,.02-.24-.04-.3-.15l-.52-.97c-.21-.4-.26-.85-.13-1.28,.13-.43,.42-.78,.82-1l2.6-1.39c.14-.07,.32-.02,.39,.12,.08,.14,.02,.32-.12,.39l-2.6,1.39c-.54,.29-.74,.96-.45,1.49l.52,.97c.08,.14,.02,.32-.12,.39-.03,.02-.06,.03-.1,.03Z" style="fill: url(#linear-gradient-32);"/>
    <path d="M29.22,68.52l28.78-15.37c1.03-.55,2.32-.28,3.04,.64l.1,.13c.79,1.01,.48,2.49-.66,3.1l-29.53,15.77c-.68,.36-1.52,.08-1.85-.61l-.64-1.36c-.4-.85-.07-1.86,.76-2.3Z" style="fill: url(#linear-gradient-33);"/>
  </g>
  <g>
    <g>
      <path d="M152.56,24.69s.08-.13,.23-.36c.09-.13,.26-.17,.39-.09,.06,.04,.1,.09,.12,.15,.12-.03,.26-.07,.41-.11,.15-.04,.31,.06,.34,.21,.04,.15-.06,.31-.21,.34-.43,.1-.74,.2-.88,.24-.04,.01-.07,.02-.09,.03l-.68,.18,.36-.6Zm1.04-1.56c.27-.39,.56-.78,.85-1.16,.1-.13,.27-.15,.4-.05,.12,.1,.15,.27,.05,.4-.29,.38-.57,.76-.84,1.14-.09,.13-.27,.16-.4,.07-.02-.02-.04-.03-.06-.05-.08-.1-.09-.24,0-.34Zm1.31,1.2c-.02-.16,.09-.3,.24-.32,.49-.07,.98-.12,1.45-.14,.16,0,.29,.12,.3,.27,0,.16-.12,.29-.27,.3-.45,.02-.92,.06-1.39,.13-.1,.02-.2-.03-.26-.1-.03-.04-.05-.08-.06-.14Zm2.85-.18c.01-.16,.15-.27,.31-.26,.51,.04,.99,.12,1.45,.23,.15,.04,.25,.19,.21,.34-.04,.15-.19,.25-.34,.21-.43-.1-.89-.18-1.37-.21-.08,0-.15-.05-.2-.11-.04-.05-.07-.13-.06-.2Zm-2.41-3.31c.31-.37,.62-.74,.93-1.09,.1-.12,.29-.13,.4-.02,.12,.11,.13,.29,.02,.4-.31,.35-.62,.71-.92,1.08-.1,.12-.28,.14-.4,.04-.02-.01-.03-.03-.04-.04-.08-.1-.08-.25,0-.36Zm5.19,3.9c.07-.14,.23-.21,.38-.14,.33,.15,.64,.32,.93,.51,.11,.08,.23,.15,.34,.21,.13,.08,.18,.26,.1,.39-.08,.13-.26,.18-.39,.1-.12-.07-.24-.15-.36-.23-.27-.17-.55-.33-.85-.47-.04-.02-.08-.05-.1-.08-.07-.08-.08-.2-.04-.3Zm3.89,4.04c.08-.08,.2-.1,.3-.07,.25-.08,.53-.09,.86-.06,.16,.02,.27,.16,.25,.31-.02,.16-.16,.27-.31,.25-.4-.04-.67,.01-.92,.18l-.36-.44,.18-.19Zm-1.39-2.68c.06-.15,.22-.22,.37-.16,.45,.18,.89,.3,1.3,.35,.16,.02,.27,.16,.25,.32-.02,.16-.16,.27-.32,.25-.46-.05-.95-.18-1.45-.38-.05-.02-.09-.05-.12-.09-.06-.08-.08-.19-.04-.28Zm-5.78-7.41c.33-.35,.68-.69,1.02-1.02,.11-.11,.29-.11,.4,0,.11,.11,.11,.29,0,.4-.34,.32-.67,.66-1,1-.11,.11-.29,.12-.4,0,0,0-.02-.02-.03-.03-.09-.11-.08-.27,.02-.38Zm8.16,9.07c.38-.4,.71-.74,.98-1.04,.11-.12,.29-.12,.4-.02,.11,.11,.12,.29,.02,.4-.27,.29-.6,.65-.99,1.05-.11,.11-.29,.12-.4,0,0,0-.02-.02-.02-.03-.09-.11-.08-.27,.02-.38Zm1.25,1.41c.04-.15,.19-.25,.34-.21,.41,.1,.85,.2,1.37,.28,.16,.02,.26,.17,.24,.33-.02,.16-.17,.26-.33,.24-.54-.08-1-.19-1.42-.29-.06-.02-.12-.05-.16-.1-.05-.07-.08-.16-.05-.25Zm-.85-2.62c-.04-.15,.05-.31,.2-.35,.44-.12,.76-.32,.97-.46,.09-.06,.16-.1,.22-.13,.03-.01,.06-.03,.08-.03,.15-.05,.3,.03,.35,.18,.05,.15-.04,.32-.19,.37-.04,.02-.1,.05-.16,.1-.22,.14-.6,.37-1.12,.52-.11,.03-.23,0-.3-.1-.02-.03-.04-.06-.05-.1Zm-6.47-9.85c.32-.28,.65-.56,.98-.82l.13-.1c.12-.1,.3-.08,.4,.05h0c.1,.12,.08,.3-.05,.4l-.13,.1c-.32,.26-.64,.53-.96,.8-.12,.1-.3,.09-.4-.03,0,0,0,0,0,0-.09-.12-.08-.29,.04-.39Zm10.14,12.95c0-.16,.14-.28,.3-.27,.45,.02,.92,.02,1.4-.01,.16,0,.29,.11,.3,.27,0,.16-.11,.29-.27,.3-.49,.03-.98,.03-1.45,.01-.09,0-.16-.04-.21-.11-.04-.05-.07-.12-.06-.19Zm2.85-.11c-.02-.16,.08-.3,.24-.32,.1-.01,.2-.03,.3-.05,.36-.06,.72-.14,1.06-.24,.15-.04,.31,.04,.35,.2,.04,.15-.04,.31-.2,.35-.36,.1-.74,.19-1.12,.25-.1,.02-.21,.03-.31,.05-.1,.02-.2-.03-.27-.1-.03-.04-.05-.08-.06-.14Zm-10.79-14.23c-.09-.13-.06-.31,.07-.4,.4-.28,.81-.55,1.21-.79,.13-.08,.31-.04,.39,.09,.08,.13,.04,.31-.09,.39-.39,.24-.79,.5-1.18,.78-.12,.09-.29,.06-.39-.05,0,0,0,0-.01-.01Zm13.54,13.52c-.07-.14,0-.31,.14-.38,.42-.19,.82-.42,1.21-.67,.13-.09,.31-.05,.4,.08,.09,.13,.05,.31-.08,.4-.41,.27-.84,.51-1.29,.71-.12,.06-.26,.02-.34-.08-.01-.02-.03-.04-.04-.06Zm-11.13-15.05c-.07-.14-.02-.31,.12-.39,.43-.23,.87-.44,1.31-.62,.15-.06,.31,0,.37,.15,.06,.14,0,.31-.15,.37-.42,.18-.85,.38-1.27,.6-.12,.06-.27,.03-.35-.07-.01-.01-.02-.03-.03-.05Zm13.58,13.16c.34-.3,.67-.64,.97-.99,.1-.12,.28-.13,.4-.03,.12,.1,.13,.28,.03,.4-.32,.37-.66,.73-1.03,1.05-.12,.1-.3,.09-.4-.02,0,0,0,0,0-.01-.09-.12-.08-.29,.03-.39Zm-10.98-14.32c-.05-.15,.03-.31,.18-.36,.46-.15,.94-.28,1.4-.39,.15-.04,.31,.06,.34,.22,.03,.15-.06,.31-.22,.34-.45,.1-.9,.23-1.35,.37-.12,.04-.24,0-.31-.09-.02-.03-.04-.06-.05-.09Zm12.77,12.21c.37-.59,.56-1.03,.6-1.14l.09-.62c.02-.16,.17-.26,.32-.24,.16,.02,.26,.17,.24,.32l-.09,.61h0c-.06,.41-.67,1.37-.68,1.38-.08,.13-.26,.17-.39,.09-.03-.02-.05-.04-.07-.06-.07-.09-.09-.23-.02-.33Zm-10-12.89c-.02-.16,.09-.3,.25-.32,.48-.06,.97-.09,1.45-.1,.16,0,.29,.13,.29,.28,0,.16-.12,.29-.28,.29-.46,0-.93,.04-1.39,.09-.1,.01-.2-.03-.26-.11-.03-.04-.05-.09-.06-.14Zm2.85-.09c.02-.16,.16-.27,.31-.26,.48,.05,.96,.12,1.44,.22,.15,.03,.25,.18,.22,.34-.03,.15-.18,.25-.34,.22-.46-.1-.92-.17-1.38-.21-.08,0-.15-.05-.19-.11-.04-.06-.07-.13-.06-.21Zm8.05,9.8l.21-1.41c.02-.16,.17-.26,.32-.24,.16,.02,.26,.17,.24,.32l-.2,1.41c-.02,.16-.17,.26-.32,.24-.07-.01-.14-.05-.18-.1-.05-.06-.07-.14-.06-.22Zm-5.26-9.28c.05-.15,.21-.23,.36-.18,.45,.15,.91,.32,1.36,.51,.15,.06,.21,.23,.15,.38-.06,.14-.23,.21-.38,.15-.43-.19-.87-.35-1.31-.49-.06-.02-.1-.05-.14-.09-.06-.07-.08-.17-.05-.27Zm5.67,6.45l.21-1.41c.02-.16,.17-.26,.32-.24,.16,.02,.26,.17,.24,.32l-.21,1.41c-.02,.16-.17,.26-.32,.24-.07-.01-.14-.05-.18-.1-.05-.06-.07-.14-.06-.22Zm-3.03-5.37c.08-.14,.25-.19,.39-.11,.41,.22,.83,.47,1.24,.74,.13,.09,.17,.26,.08,.39-.09,.13-.26,.17-.39,.08-.4-.26-.8-.5-1.21-.72-.03-.02-.06-.04-.09-.07-.07-.09-.08-.21-.03-.31Zm2.41,1.51c.09-.13,.27-.15,.4-.06,.37,.28,.74,.57,1.1,.88l.12,.1-.03,.19c-.02,.16-.17,.26-.32,.24-.1-.01-.18-.08-.22-.17-.33-.28-.66-.54-.99-.79-.02-.01-.04-.03-.05-.05-.08-.1-.08-.24,0-.35Z" style="fill: #7d97f4;"/>
      <path d="M180.31,20.56s-2.92,5.61-7.27,3.91c-4.35-1.7-8.32-4.49-10.33-3.62,0,0,7.69-9.69,17.68-2.52l-.08,2.23Z" style="fill: url(#linear-gradient-34);"/>
      <path d="M191.77,27.34s-.76,6.16-2.72,6.93c-1.86,.73-15.87-.53-17.23-.66-.06,0-.11-.06-.11-.12h0c0-.51,.25-.98,.67-1.28,2-1.42,8.02-5.62,10.24-6.31,2.69-.83,9.14,1.43,9.14,1.43Z" style="fill: #7d97f4;"/>
      <path d="M176.86,33.22s.06,.05,.1,.05c.08,0,7.76,.56,11.07,.67,.59,.02,1.14-.31,1.39-.84,.4-.84,1.14-2.5,1.56-4.23,.02-.08-.03-.15-.11-.17-.08-.02-.15,.03-.17,.11-.41,1.71-1.14,3.35-1.54,4.17-.21,.43-.65,.7-1.13,.68-3.31-.11-10.98-.67-11.06-.67-.08,0-.15,.05-.15,.13,0,.04,0,.07,.03,.1Z" style="fill: #91b3fa;"/>
      <path d="M191.96,12.92s-.6-6.18-2.54-7c-1.85-.78-15.87,.12-17.24,.21-.06,0-.11,.05-.11,.12h0c0,.51,.23,.99,.64,1.29,1.96,1.47,7.87,5.83,10.08,6.57,2.67,.9,9.17-1.2,9.17-1.2Z" style="fill: #7d97f4;"/>
      <path d="M177.21,6.83s.07,.06,.12,.05c.08,0,7.76-.36,11.07-.39,.48,0,.91,.27,1.11,.71,.38,.84,1.06,2.5,1.43,4.21,.02,.08,.09,.13,.17,.11,.08-.02,.13-.09,.11-.17-.35-1.66-.98-3.24-1.45-4.27-.24-.54-.78-.88-1.37-.88-3.32,.03-11.01,.38-11.09,.39-.08,0-.14,.07-.14,.15,0,.03,.01,.06,.03,.08Z" style="fill: #91b3fa;"/>
      <path d="M212.63,27.53c-2.88,.9-6.21,1.5-9.91,1.47-11.48-.12-19.9-2.19-22.28-2.84-.43-.12-.76-.46-.86-.9-.81-3.42-.79-6.84,.05-10.24,.16-.64,.67-1.14,1.31-1.29,2.79-.66,11.02-2.35,22.01-2.18,3.67,.06,6.96,.74,9.8,1.7,1.52,5.71,.59,11.2-.12,14.29Z" style="fill: url(#linear-gradient-35);"/>
      <path d="M212.75,13.24c6.28,2.12,10.4,5.63,11.72,6.86,.26,.24,.25,.65-.01,.89-1.35,1.2-5.53,4.57-11.82,6.54,.71-3.08,1.64-8.57,.12-14.29Z" style="fill: url(#linear-gradient-36);"/>
      <g>
        <path d="M203.67,14.51c-2.97-.04-5.42,2.52-5.46,5.71-.04,3.19,2.34,5.81,5.31,5.85s5.42-2.52,5.46-5.71c.04-3.19-2.34-5.81-5.31-5.85Z" style="fill: #bdd0fb;"/>
        <path d="M203.8,15.53c-2.37-.03-4.32,2.01-4.35,4.55-.03,2.54,1.86,4.63,4.23,4.66,2.37,.03,4.32-2.01,4.35-4.55,.03-2.54-1.86-4.63-4.23-4.66Z" style="fill: url(#linear-gradient-37);"/>
        <path d="M204.5,23.37s.09,.06,.15,.05c1.46-.43,2.5-1.84,2.52-3.42,0-.4-.05-.79-.17-1.17-.02-.08-.1-.12-.18-.09-.08,.02-.12,.1-.09,.18,.11,.35,.16,.71,.16,1.08-.02,1.46-.97,2.76-2.31,3.15-.08,.02-.12,.1-.1,.18,0,.02,.01,.04,.03,.05Z" style="fill: #91b3fa;"/>
      </g>
      <g>
        <path d="M192.82,16.33c-1.97-.03-3.58,1.66-3.61,3.77-.03,2.11,1.54,3.84,3.51,3.86,1.97,.03,3.58-1.66,3.61-3.77,.03-2.11-1.54-3.84-3.51-3.86Z" style="fill: #bdd0fb;"/>
        <path d="M192.91,17c-1.57-.02-2.85,1.33-2.87,3.01-.02,1.68,1.23,3.06,2.8,3.08,1.57,.02,2.85-1.33,2.87-3.01,.02-1.68-1.23-3.06-2.8-3.08Z" style="fill: url(#linear-gradient-38);"/>
        <path d="M193.33,22.21s.09,.06,.15,.05c.99-.29,1.69-1.24,1.7-2.31,0-.27-.04-.54-.12-.79-.02-.08-.1-.12-.18-.09-.08,.02-.12,.1-.09,.18,.07,.23,.1,.46,.1,.7-.01,.95-.63,1.78-1.49,2.04-.08,.02-.12,.1-.1,.18,0,.02,.01,.04,.03,.05Z" style="fill: #91b3fa;"/>
      </g>
    </g>
    <g>
      <path d="M148.73,24.47l-1.87,.46c-.18,.04-.35-.06-.39-.24-.04-.18,.06-.35,.24-.39h.02s1.83-.46,1.83-.46h.02c.18-.05,.36,.06,.4,.23,.04,.18-.06,.36-.24,.4h0Z" style="fill: #7d97f4;"/>
      <path d="M144.96,25.26l-1.91,.21c-.18,.02-.33-.11-.35-.28-.02-.18,.11-.33,.28-.35h.02s1.87-.21,1.87-.21h.02c.18-.02,.34,.11,.36,.28,.02,.18-.11,.34-.29,.36h0Z" style="fill: #7d97f4;"/>
      <path d="M141.12,25.56h-1.92c-.17-.02-.31-.16-.31-.33,0-.17,.14-.31,.31-.31h.02s1.89,0,1.89,0h.02c.17,0,.32,.14,.31,.32,0,.17-.14,.32-.32,.31h0Z" style="fill: #7d97f4;"/>
      <path d="M137.29,25.44l-1.91-.2c-.17-.02-.29-.17-.27-.34,.02-.17,.17-.29,.34-.27h.01s1.88,.19,1.88,.19h.01c.17,.02,.29,.17,.28,.34-.02,.17-.17,.29-.34,.28h0Z" style="fill: #7d97f4;"/>
      <path d="M133.48,24.95l-1.88-.36c-.16-.03-.27-.19-.24-.35,.03-.16,.19-.27,.35-.24h0s1.86,.35,1.86,.35h.01c.16,.03,.27,.19,.24,.35s-.19,.27-.35,.24h0Z" style="fill: #7d97f4;"/>
      <path d="M129.73,24.17l-1.85-.49c-.16-.04-.25-.2-.21-.36,.04-.16,.2-.25,.36-.21h0s1.83,.48,1.83,.48h0c.16,.04,.25,.2,.21,.36-.04,.16-.2,.25-.36,.21h0Z" style="fill: #7d97f4;"/>
      <path d="M126.05,23.14l-1.82-.59c-.15-.05-.23-.21-.18-.36,.05-.15,.21-.23,.36-.18h0s1.8,.59,1.8,.59h0c.15,.05,.23,.21,.19,.37-.05,.15-.21,.23-.36,.19h0Z" style="fill: #7d97f4;"/>
      <path d="M122.43,21.9l-1.78-.69c-.14-.06-.21-.22-.16-.36,.06-.14,.22-.21,.36-.16h0s1.77,.68,1.77,.68h0c.15,.06,.22,.22,.16,.37-.06,.15-.22,.22-.36,.16h0Z" style="fill: #7d97f4;"/>
      <path d="M118.88,20.49l-1.75-.76c-.14-.06-.2-.22-.14-.36,.06-.14,.22-.2,.36-.14h0s1.74,.76,1.74,.76h0c.14,.06,.2,.22,.14,.36-.06,.14-.22,.2-.36,.14h0Z" style="fill: #7d97f4;"/>
      <path d="M115.39,18.93l-1.72-.83c-.13-.06-.19-.22-.12-.35,.06-.13,.22-.19,.35-.12h0s1.71,.82,1.71,.82h0c.13,.07,.19,.23,.13,.36-.06,.13-.22,.19-.36,.13h0Z" style="fill: #7d97f4;"/>
      <path d="M111.97,17.23l-1.69-.89c-.13-.07-.17-.22-.11-.35,.07-.13,.22-.17,.35-.11h0s1.69,.88,1.69,.88h0c.13,.07,.18,.23,.11,.35-.07,.13-.22,.18-.35,.11h0Z" style="fill: #7d97f4;"/>
      <path d="M108.61,15.42l-1.66-.94c-.12-.07-.16-.22-.09-.34,.07-.12,.22-.16,.34-.09h0s1.66,.93,1.66,.93h0c.12,.07,.17,.22,.1,.35-.07,.12-.22,.17-.35,.1h0Z" style="fill: #7d97f4;"/>
      <path d="M105.3,13.52l-1.63-.99c-.12-.07-.15-.22-.08-.34,.07-.12,.22-.15,.34-.08h0s1.63,.98,1.63,.98h0c.12,.07,.15,.22,.08,.34-.07,.12-.22,.15-.34,.08h0Z" style="fill: #7d97f4;"/>
      <path d="M102.04,11.52l-1.61-1.03c-.11-.07-.15-.22-.07-.34,.07-.11,.22-.15,.34-.07h0s1.6,1.03,1.6,1.03h0c.11,.07,.15,.23,.07,.34-.07,.11-.22,.15-.34,.07h0Z" style="fill: #7d97f4;"/>
      <path d="M98.84,9.44l-1.58-1.07c-.11-.07-.14-.23-.07-.34,.07-.11,.23-.14,.34-.07h0s1.58,1.06,1.58,1.06h0c.11,.08,.14,.23,.07,.34-.08,.11-.23,.14-.34,.07h0Z" style="fill: #7d97f4;"/>
      <path d="M95.69,7.29l-1.56-1.1c-.11-.08-.13-.23-.06-.34,.08-.11,.23-.13,.34-.06h0s1.55,1.1,1.55,1.1h0c.11,.08,.13,.23,.06,.34-.08,.11-.23,.13-.34,.06h0Z" style="fill: #7d97f4;"/>
      <path d="M92.57,5.12l-1.63-.96h-.01c-.11-.08-.15-.22-.08-.33,.07-.11,.21-.15,.33-.08l1.65,.98c.11,.07,.15,.21,.08,.33-.07,.11-.21,.15-.33,.08h0s-.01,0-.01,0Z" style="fill: #7d97f4;"/>
      <path d="M89.26,3.3l-1.73-.75h-.01c-.12-.06-.18-.2-.12-.32,.05-.12,.19-.18,.31-.12l1.76,.76c.12,.05,.18,.19,.12,.31-.05,.12-.19,.18-.31,.12h0s-.01,0-.01,0Z" style="fill: #7d97f4;"/>
      <path d="M85.74,1.91l-1.82-.52h-.01c-.12-.04-.2-.17-.16-.29,.04-.12,.17-.2,.29-.16l1.84,.53c.13,.04,.2,.17,.16,.29-.04,.13-.17,.2-.29,.16h0s-.01,0-.01,0Z" style="fill: #7d97f4;"/>
      <path d="M82.08,.98l-1.87-.29h-.01c-.13-.02-.21-.14-.19-.27,.02-.13,.14-.21,.27-.19l1.9,.29c.13,.02,.22,.14,.2,.27-.02,.13-.14,.22-.27,.2h0s-.01,0-.01,0Z" style="fill: #7d97f4;"/>
      <path d="M78.33,.51l-1.89-.05h-.01c-.13,0-.23-.11-.22-.24s.11-.23,.24-.22l1.92,.05c.13,0,.23,.11,.23,.24,0,.13-.11,.23-.24,.23h0s-.01,0-.01,0Z" style="fill: #7d97f4;"/>
      <path d="M74.56,.53l-1.88,.19h-.01c-.13,.01-.24-.08-.25-.2-.01-.13,.08-.24,.21-.25l1.91-.19c.13-.01,.24,.08,.25,.21,.01,.13-.08,.24-.21,.25h-.01Z" style="fill: #7d97f4;"/>
      <path d="M70.81,1.03l-1.84,.43h-.01c-.12,.03-.24-.04-.27-.17-.03-.12,.05-.24,.17-.27l1.87-.43c.12-.03,.25,.05,.27,.17,.03,.12-.05,.25-.17,.27h0s-.01,0-.01,0Z" style="fill: #7d97f4;"/>
      <path d="M67.16,1.99l-1.77,.66h-.01c-.12,.05-.25-.01-.29-.13-.04-.12,.02-.25,.13-.29l1.8-.67c.12-.04,.25,.02,.29,.13,.04,.12-.02,.25-.13,.29h0s-.01,0-.01,0Z" style="fill: #7d97f4;"/>
      <path d="M63.66,3.42l-1.66,.89h-.01c-.11,.07-.24,.02-.3-.08-.06-.11-.02-.24,.09-.3l1.69-.91c.11-.06,.25-.02,.3,.09,.06,.11,.02,.25-.09,.3h0s-.01,0-.01,0Z" style="fill: #7d97f4;"/>
      <path d="M60.4,5.31l-1.53,1.11h-.01c-.1,.08-.24,.06-.31-.04-.07-.1-.05-.24,.05-.31l1.55-1.13c.1-.07,.24-.05,.31,.05s.05,.24-.05,.31h0s-.01,0-.01,0Z" style="fill: #7d97f4;"/>
      <path d="M57.41,7.63l-1.38,1.29h0c-.09,.09-.23,.09-.31,0-.08-.09-.08-.23,.01-.31l1.4-1.31c.09-.08,.23-.08,.31,.01s.08,.23-.01,.31h0s0,0,0,0Z" style="fill: #7d97f4;"/>
      <path d="M54.72,10.28l-1.23,1.44h0c-.08,.1-.22,.11-.31,.03-.09-.08-.1-.22-.02-.31l1.24-1.46c.08-.09,.22-.1,.31-.02,.09,.08,.1,.22,.02,.31h0s0,0,0,0Z" style="fill: #7d97f4;"/>
      <path d="M52.34,13.23l-1.05,1.57h0c-.07,.11-.2,.14-.3,.07s-.13-.2-.06-.3l1.07-1.59c.07-.1,.2-.13,.3-.06,.1,.07,.13,.2,.06,.3h0s0,.01,0,.01Z" style="fill: #7d97f4;"/>
      <path d="M50.33,16.43l-.86,1.69h0c-.05,.12-.18,.16-.29,.11-.11-.05-.15-.18-.09-.29l.87-1.71c.05-.11,.18-.15,.29-.09,.11,.05,.15,.18,.09,.29h0s0,.01,0,.01Z" style="fill: #7d97f4;"/>
      <path d="M48.73,19.86l-.62,1.79h0c-.04,.13-.16,.18-.27,.15-.11-.04-.17-.16-.13-.27l.63-1.81c.04-.11,.16-.17,.27-.13,.11,.04,.17,.16,.13,.27h0s0,.01,0,.01Z" style="fill: #7d97f4;"/>
      <path d="M47.63,23.47l-.34,1.86v.02c-.02,.11-.13,.19-.25,.17s-.19-.13-.17-.24l.34-1.89c.02-.11,.13-.19,.25-.17,.11,.02,.19,.13,.17,.25h0s0,.02,0,.02Z" style="fill: #7d97f4;"/>
      <path d="M47.1,27.2v1.88s-.01,.02-.01,.02c0,.12-.09,.21-.21,.21-.11,0-.21-.09-.21-.21v-1.92c.01-.12,.1-.21,.22-.21,.12,0,.21,.09,.21,.21h0s0,.02,0,.02Z" style="fill: #7d97f4;"/>
      <path d="M47.26,30.96l.35,1.85v.02c.03,.11-.05,.22-.16,.24-.11,.02-.22-.05-.24-.16l-.36-1.89c-.02-.11,.05-.22,.16-.24,.11-.02,.22,.05,.24,.16h0s0,.02,0,.02Z" style="fill: #7d97f4;"/>
      <path d="M48.15,34.62l.72,1.74v.02c.05,.1,0,.22-.1,.27-.1,.04-.22,0-.27-.11l-.74-1.78c-.04-.1,0-.22,.11-.27,.1-.04,.22,0,.27,.11h0s0,.02,0,.02Z" style="fill: #7d97f4;"/>
      <path d="M49.79,37.99c.35,.52,.74,1,1.19,1.44,.08,.08,.08,.21,0,.29-.08,.08-.21,.08-.29,0-.46-.46-.87-.96-1.24-1.5-.06-.09-.04-.22,.05-.28,.09-.06,.22-.04,.28,.05h0Z" style="fill: #7d97f4;"/>
      <path d="M52.43,40.58c.53,.33,1.09,.6,1.67,.8,.1,.04,.16,.15,.13,.25-.04,.11-.15,.16-.25,.13-.62-.21-1.21-.49-1.76-.84-.09-.06-.12-.18-.06-.28,.06-.09,.18-.12,.28-.06h0Z" style="fill: #7d97f4;"/>
      <path d="M55.92,41.78c.62,.06,1.24,.06,1.86,0,.11-.01,.21,.07,.22,.18s-.07,.21-.18,.22c-.64,.07-1.3,.08-1.94,.01-.11-.01-.19-.11-.18-.22,.01-.11,.11-.19,.22-.18h0Z" style="fill: #7d97f4;"/>
      <path d="M59.6,41.38c.59-.19,1.17-.43,1.72-.72,.1-.05,.22-.01,.27,.08,.05,.1,.01,.22-.08,.27-.57,.3-1.17,.55-1.79,.75-.1,.03-.22-.03-.25-.13-.03-.1,.03-.22,.13-.25h0Z" style="fill: #7d97f4;"/>
      <path d="M62.9,39.66c.49-.38,.96-.8,1.38-1.26,.07-.08,.2-.08,.28-.01,.08,.07,.08,.2,.01,.28-.44,.47-.92,.91-1.43,1.31-.09,.07-.21,.05-.28-.04-.07-.09-.05-.21,.04-.28h0Z" style="fill: #7d97f4;"/>
      <path d="M65.44,36.93l.47-.81c.17-.26,.29-.55,.43-.83h0c.05-.11,.16-.15,.26-.1,.1,.05,.13,.16,.09,.26-.14,.29-.27,.58-.45,.86l-.49,.84c-.05,.09-.17,.12-.27,.07-.09-.05-.12-.17-.07-.27h0s.01-.02,.01-.02Z" style="fill: #7d97f4;"/>
      <path d="M67,33.53c.17-.6,.29-1.22,.36-1.84,.01-.11,.1-.18,.21-.17,.11,.01,.18,.1,.17,.21-.06,.64-.19,1.28-.37,1.9-.03,.1-.14,.16-.24,.13-.1-.03-.16-.14-.13-.24h0Z" style="fill: #7d97f4;"/>
      <path d="M67.36,29.83c-.06-.62-.17-1.23-.35-1.83-.03-.1,.03-.21,.13-.24,.1-.03,.21,.03,.23,.13,.18,.62,.3,1.26,.36,1.9,0,.1-.07,.2-.17,.21-.1,0-.2-.07-.21-.17h0Z" style="fill: #7d97f4;"/>
      <path d="M66.33,26.26c-.28-.56-.62-1.09-.99-1.59-.06-.08-.04-.2,.04-.26,.08-.06,.2-.05,.26,.04,.39,.52,.73,1.07,1.02,1.64,.05,.09,.01,.21-.08,.25-.09,.05-.21,.01-.25-.08h0Z" style="fill: #7d97f4;"/>
      <path d="M64.1,23.26c-.45-.44-.93-.84-1.43-1.22-.08-.06-.1-.18-.04-.26s.18-.1,.26-.04c.52,.38,1.01,.8,1.47,1.25,.07,.07,.08,.19,0,.26-.07,.07-.19,.08-.26,0h0Z" style="fill: #7d97f4;"/>
      <path d="M61.09,21.03c-.55-.31-1.11-.58-1.7-.82-.09-.04-.14-.15-.1-.24,.04-.09,.15-.14,.24-.1,.59,.24,1.17,.52,1.74,.83,.09,.05,.12,.16,.07,.25-.05,.09-.16,.12-.25,.07h0Z" style="fill: #7d97f4;"/>
      <path d="M57.62,19.6c-.6-.18-1.23-.29-1.84-.44h-.01c-.1-.03-.16-.13-.14-.23,.02-.1,.12-.16,.23-.14h0c.62,.15,1.25,.27,1.86,.45,.1,.03,.15,.13,.13,.23-.03,.1-.13,.15-.23,.13h0Z" style="fill: #7d97f4;"/>
      <path d="M53.91,18.86l-1.88-.18h-.01c-.11-.01-.19-.11-.18-.22,.01-.11,.11-.19,.22-.18h0s1.91,.19,1.91,.19c.11,.01,.18,.1,.17,.21-.01,.11-.1,.18-.21,.17h-.01Z" style="fill: #7d97f4;"/>
      <path d="M50.14,18.61l-1.89,.05h-.01c-.11,0-.21-.09-.21-.2,0-.11,.09-.21,.2-.21h0s1.92-.04,1.92-.04c.11,0,.2,.09,.21,.2,0,.11-.09,.2-.2,.21h-.01Z" style="fill: #7d97f4;"/>
      <path d="M46.36,18.81l-1.88,.26h-.01c-.12,.02-.23-.07-.25-.19-.02-.12,.07-.23,.19-.25h0s1.9-.25,1.9-.25c.12-.02,.22,.07,.24,.18,.02,.12-.07,.22-.18,.24h-.01Z" style="fill: #7d97f4;"/>
      <path d="M42.62,19.42l-1.84,.45h-.01c-.12,.03-.25-.04-.28-.16-.03-.12,.04-.25,.17-.28h0s1.86-.45,1.86-.45c.12-.03,.24,.04,.27,.16,.03,.12-.04,.24-.16,.27h-.01Z" style="fill: #7d97f4;"/>
      <path d="M38.97,20.43l-1.78,.65h-.01c-.12,.05-.26-.01-.31-.14-.05-.12,.02-.26,.14-.31h0s1.81-.65,1.81-.65c.12-.04,.26,.02,.3,.14,.04,.12-.02,.25-.14,.3h-.01Z" style="fill: #7d97f4;"/>
      <path d="M35.46,21.82l-1.69,.84h-.01c-.12,.07-.27,.02-.34-.11-.06-.12-.01-.27,.11-.34h0s1.72-.85,1.72-.85c.12-.06,.27,0,.33,.11,.06,.12,0,.27-.11,.33h-.01Z" style="fill: #7d97f4;"/>
      <path d="M32.13,23.6l-1.57,1.04h-.01c-.12,.09-.28,.05-.36-.07-.08-.12-.05-.28,.07-.36h0s1.61-1.05,1.61-1.05c.12-.08,.28-.04,.35,.07,.08,.12,.04,.27-.07,.35h-.01Z" style="fill: #7d97f4;"/>
      <path d="M29.04,25.77l-1.46,1.2h0c-.12,.1-.29,.09-.38-.03-.1-.12-.08-.29,.04-.38h0s1.49-1.21,1.49-1.21c.11-.09,.28-.08,.37,.04,.09,.11,.08,.28-.04,.37h0Z" style="fill: #7d97f4;"/>
      <path d="M26.17,28.25l-1.35,1.33h0c-.11,.12-.29,.11-.4,0-.11-.11-.11-.29,0-.4h0s1.37-1.33,1.37-1.33c.11-.11,.28-.1,.39,0,.11,.11,.1,.28,0,.39h0Z" style="fill: #7d97f4;"/>
      <path d="M23.52,30.95l-1.26,1.42h0c-.11,.13-.29,.14-.41,.03-.12-.11-.13-.29-.03-.41h0s1.28-1.43,1.28-1.43c.11-.12,.29-.13,.4-.02,.12,.11,.13,.29,.02,.4h0Z" style="fill: #7d97f4;"/>
      <path d="M21.05,33.83l-1.17,1.49h0c-.1,.14-.29,.16-.42,.06-.13-.1-.15-.29-.05-.42h0s1.18-1.5,1.18-1.5c.1-.13,.29-.15,.42-.05,.13,.1,.15,.29,.05,.42h0Z" style="fill: #7d97f4;"/>
      <path d="M18.76,36.85l-1.08,1.56h0c-.1,.15-.29,.18-.43,.09-.14-.1-.18-.29-.08-.43h0s1.1-1.57,1.1-1.57c.1-.14,.29-.17,.43-.07,.14,.1,.17,.29,.08,.43h0Z" style="fill: #7d97f4;"/>
      <path d="M16.64,39.99l-1,1.61h0c-.09,.16-.29,.2-.44,.11-.15-.09-.2-.29-.1-.44h0s1.02-1.62,1.02-1.62c.09-.15,.29-.19,.44-.1,.15,.09,.19,.29,.1,.43h0Z" style="fill: #7d97f4;"/>
      <path d="M14.68,43.24l-.92,1.66h0c-.09,.17-.29,.23-.45,.14-.16-.09-.22-.29-.13-.45h0s.94-1.67,.94-1.67c.09-.16,.29-.21,.44-.13,.16,.09,.21,.29,.13,.44h0Z" style="fill: #7d97f4;"/>
      <path d="M12.89,46.58l-.84,1.7h0c-.08,.18-.29,.25-.46,.16-.17-.08-.24-.29-.16-.46h0s.85-1.72,.85-1.72c.08-.17,.28-.23,.45-.15,.17,.08,.23,.28,.15,.45h0Z" style="fill: #7d97f4;"/>
      <path d="M11.26,50.01l-.75,1.74h0c-.08,.19-.28,.27-.46,.19-.18-.08-.26-.28-.18-.46h0s.76-1.76,.76-1.76c.08-.18,.28-.26,.46-.18,.17,.08,.26,.28,.18,.45h0Z" style="fill: #7d97f4;"/>
      <path d="M9.82,53.51l-.65,1.78h0c-.07,.2-.28,.29-.46,.23-.19-.07-.28-.28-.22-.46h0s.66-1.8,.66-1.8c.07-.18,.27-.28,.46-.21,.18,.07,.28,.27,.21,.46h0Z" style="fill: #7d97f4;"/>
      <path d="M8.58,57.1l-.53,1.82h0c-.06,.21-.26,.32-.46,.27-.2-.06-.31-.26-.25-.46h0s.55-1.84,.55-1.84c.06-.19,.26-.3,.46-.25,.19,.06,.3,.26,.25,.45h0Z" style="fill: #7d97f4;"/>
      <path d="M7.59,60.75l-.39,1.85h0c-.04,.22-.24,.35-.45,.31-.21-.04-.34-.24-.3-.45,.13-.63,.27-1.25,.4-1.88,.04-.2,.24-.33,.45-.29s.33,.24,.29,.45h0Z" style="fill: #7d97f4;"/>
      <path d="M6.89,64.46l-.22,1.87v.02c-.03,.21-.21,.35-.42,.33-.21-.02-.35-.21-.33-.42l.22-1.91c.02-.21,.21-.36,.42-.33,.21,.02,.36,.21,.33,.42h0s0,.02,0,.02Z" style="fill: #7d97f4;"/>
      <path d="M6.54,68.21l-.03,1.89v.02c0,.21-.17,.37-.38,.37-.21,0-.37-.17-.37-.38l.03-1.93c0-.21,.17-.37,.38-.37,.21,0,.37,.17,.37,.38h0s0,.02,0,.02Z" style="fill: #7d97f4;"/>
      <path d="M6.58,71.98l.17,1.88v.02c.02,.2-.13,.38-.33,.4-.2,.02-.38-.13-.4-.33l-.18-1.92c-.02-.2,.13-.39,.33-.4,.2-.02,.39,.13,.4,.33h0s0,.02,0,.02Z" style="fill: #7d97f4;"/>
      <path d="M7.03,75.72l.39,1.84v.02c.05,.2-.08,.39-.28,.43-.2,.04-.39-.08-.43-.28l-.4-1.88c-.04-.2,.09-.39,.28-.44s.39,.09,.44,.28h0s0,.02,0,.02Z" style="fill: #7d97f4;"/>
      <path d="M7.91,79.38l.59,1.79v.02c.07,.19-.03,.39-.22,.46-.19,.06-.39-.04-.46-.23l-.61-1.83c-.06-.19,.04-.4,.23-.46,.19-.06,.4,.04,.46,.23h0s0,.02,0,.02Z" style="fill: #7d97f4;"/>
      <path d="M9.2,82.92l.79,1.71v.02c.09,.18,.01,.39-.17,.48-.18,.08-.39,0-.47-.17l-.81-1.75c-.08-.18,0-.39,.18-.48,.18-.08,.39,0,.48,.18h0s0,.02,0,.02Z" style="fill: #7d97f4;"/>
      <path d="M10.87,86.3l.96,1.62v.02c.11,.17,.05,.39-.11,.49s-.39,.05-.49-.12l-.98-1.65c-.1-.17-.05-.39,.12-.49,.17-.1,.39-.05,.49,.12h0s0,.02,0,.02Z" style="fill: #7d97f4;"/>
      <path d="M12.87,89.5l1.11,1.53h0c.11,.17,.08,.39-.08,.5s-.38,.08-.49-.08l-1.14-1.55c-.12-.16-.08-.38,.08-.49,.16-.12,.38-.08,.49,.08h0s0,.01,0,.01Z" style="fill: #7d97f4;"/>
      <path d="M15.16,92.5l1.24,1.43h0c.13,.15,.11,.37-.03,.5-.14,.13-.36,.11-.49-.03l-1.26-1.45c-.13-.15-.11-.37,.03-.49,.15-.13,.37-.11,.49,.03h0s0,.01,0,.01Z" style="fill: #7d97f4;"/>
      <path d="M17.7,95.31l1.34,1.33h0c.13,.14,.14,.36,0,.49-.13,.13-.35,.14-.48,0l-1.36-1.35c-.14-.13-.14-.35,0-.49,.13-.14,.35-.14,.49,0h0s0,0,0,0Z" style="fill: #7d97f4;"/>
      <path d="M20.43,97.93l1.43,1.24h0c.14,.13,.16,.34,.03,.49s-.34,.16-.48,.03l-1.45-1.25c-.14-.12-.16-.34-.03-.48s.34-.16,.48-.03h0s0,0,0,0Z" style="fill: #7d97f4;"/>
      <path d="M23.32,100.38l1.5,1.16h0c.15,.12,.17,.33,.06,.48-.11,.15-.32,.17-.47,.06l-1.51-1.17c-.15-.11-.17-.33-.06-.47,.11-.15,.33-.17,.47-.06h0s0,0,0,0Z" style="fill: #7d97f4;"/>
      <path d="M26.34,102.66l1.55,1.09h0c.15,.11,.19,.32,.08,.47-.11,.15-.31,.19-.46,.08l-1.57-1.09c-.15-.11-.19-.31-.08-.46,.11-.15,.31-.19,.46-.08h0s0,0,0,0Z" style="fill: #7d97f4;"/>
      <path d="M29.48,104.81l1.59,1.05c.15,.1,.19,.3,.09,.45-.1,.15-.3,.19-.45,.09l-1.59-1.05c-.15-.1-.19-.3-.09-.46,.1-.15,.3-.19,.46-.09h0Z" style="fill: #7d97f4;"/>
      <path d="M32.66,106.9l1.59,1.04c.15,.1,.19,.3,.09,.45s-.3,.19-.45,.09l-1.6-1.04c-.15-.1-.19-.3-.1-.45,.1-.15,.3-.19,.45-.1h0Z" style="fill: #7d97f4;"/>
      <path d="M35.85,108.99l1.59,1.04c.15,.1,.19,.3,.09,.44s-.3,.19-.44,.09l-1.6-1.04c-.15-.1-.19-.3-.09-.45,.1-.15,.3-.19,.45-.09h0Z" style="fill: #7d97f4;"/>
      <path d="M39.04,111.08l1.59,1.05c.15,.1,.19,.29,.09,.44-.1,.15-.29,.19-.44,.09l-1.59-1.05c-.15-.1-.19-.29-.09-.44,.1-.15,.29-.19,.44-.09h0Z" style="fill: #7d97f4;"/>
      <path d="M42.21,113.19l1.58,1.07c.14,.1,.18,.29,.08,.43-.1,.14-.29,.18-.43,.08h0s-1.57-1.07-1.57-1.07h0c-.14-.1-.18-.29-.08-.44,.1-.14,.29-.18,.44-.08h0Z" style="fill: #7d97f4;"/>
      <path d="M45.35,115.34l1.56,1.1c.14,.1,.17,.29,.07,.43-.1,.14-.29,.17-.43,.07h0s-1.56-1.09-1.56-1.09h0c-.14-.1-.17-.29-.08-.44,.1-.14,.29-.17,.43-.08h0Z" style="fill: #7d97f4;"/>
      <path d="M48.46,117.56l1.53,1.13c.14,.1,.16,.29,.06,.43-.1,.14-.29,.16-.43,.06h0s-1.53-1.13-1.53-1.13h0c-.14-.1-.17-.3-.07-.43,.1-.14,.29-.17,.43-.07h0Z" style="fill: #7d97f4;"/>
      <path d="M51.51,119.84l1.5,1.18c.13,.1,.15,.29,.05,.42-.1,.13-.29,.15-.42,.05h0s-1.5-1.17-1.5-1.17h0c-.13-.11-.16-.3-.05-.43,.1-.13,.29-.16,.43-.05h0Z" style="fill: #7d97f4;"/>
      <path d="M54.5,122.22l1.47,1.21c.13,.1,.15,.29,.04,.42-.1,.13-.29,.15-.42,.04h0s-1.47-1.21-1.47-1.21h0c-.13-.11-.15-.3-.04-.42,.1-.13,.29-.15,.42-.04h0Z" style="fill: #7d97f4;"/>
      <path d="M57.43,124.66l1.44,1.25c.12,.11,.14,.29,.03,.42-.11,.12-.29,.14-.41,.03h0s-1.43-1.25-1.43-1.25h0c-.12-.11-.14-.3-.03-.42,.11-.12,.29-.14,.42-.03h0Z" style="fill: #7d97f4;"/>
      <path d="M60.29,127.2l1.39,1.31c.12,.11,.12,.29,.01,.41-.11,.12-.29,.12-.41,.01h0s-1.38-1.3-1.38-1.3h0c-.12-.11-.12-.3-.01-.42,.11-.12,.3-.12,.41-.01h0Z" style="fill: #7d97f4;"/>
      <path d="M63.04,129.85l1.33,1.38c.11,.11,.11,.3,0,.41-.11,.11-.3,.11-.41,0h0s-1.32-1.37-1.32-1.37h0c-.11-.12-.11-.3,0-.41,.11-.11,.3-.11,.41,0h0Z" style="fill: #7d97f4;"/>
      <path d="M65.65,132.65l1.24,1.46c.1,.12,.09,.3-.03,.4-.12,.1-.3,.09-.4-.03h0s-1.23-1.45-1.23-1.45h0c-.1-.13-.09-.31,.03-.41,.12-.1,.3-.09,.4,.03h0Z" style="fill: #7d97f4;"/>
      <path d="M68.08,135.61l1.13,1.55c.09,.12,.06,.3-.06,.39-.12,.09-.3,.06-.39-.06h0s-1.12-1.54-1.12-1.54h0c-.09-.13-.06-.31,.06-.4,.13-.09,.3-.06,.39,.06h0Z" style="fill: #7d97f4;"/>
      <path d="M70.26,138.76l.98,1.65c.08,.13,.04,.3-.09,.38-.13,.08-.3,.04-.38-.09h0s-.97-1.63-.97-1.63h0c-.08-.14-.04-.31,.09-.39,.13-.08,.3-.04,.38,.09h0Z" style="fill: #7d97f4;"/>
      <path d="M72.15,142.1l.81,1.74c.06,.13,0,.29-.13,.36-.13,.06-.29,0-.36-.13h0s-.8-1.72-.8-1.72h0c-.06-.15,0-.31,.13-.38s.3,0,.36,.13h0Z" style="fill: #7d97f4;"/>
      <path d="M73.66,145.63l.6,1.82c.04,.14-.03,.28-.16,.32-.13,.04-.28-.03-.32-.16v-.02s-.6-1.79-.6-1.79v-.02c-.05-.14,.02-.29,.16-.33,.14-.05,.29,.03,.33,.17h0Z" style="fill: #7d97f4;"/>
      <path d="M74.73,149.31l.36,1.89c.03,.13-.06,.26-.2,.29-.13,.03-.26-.06-.29-.19v-.02s-.37-1.85-.37-1.85v-.02c-.03-.14,.06-.27,.2-.3,.14-.03,.27,.06,.3,.2h0Z" style="fill: #7d97f4;"/>
      <path d="M75.34,153.1l.12,1.92c0,.13-.09,.24-.22,.25-.13,0-.24-.09-.25-.22v-.02s-.13-1.89-.13-1.89v-.02c0-.13,.09-.25,.22-.26,.13,0,.25,.09,.26,.23h0Z" style="fill: #7d97f4;"/>
      <path d="M75.44,156.94l-.14,1.91c0,.12-.12,.22-.24,.21-.12,0-.22-.12-.21-.24h0s.13-1.9,.13-1.9h0c0-.14,.12-.24,.25-.23,.13,0,.22,.12,.22,.25h0Z" style="fill: #7d97f4;"/>
      <path d="M75.07,160.75l-.31,1.89c-.02,.12-.13,.2-.25,.18-.12-.02-.2-.13-.18-.25h0s.3-1.88,.3-1.88h0c.02-.13,.13-.21,.25-.19,.12,.02,.2,.13,.18,.25h0Z" style="fill: #7d97f4;"/>
      <path d="M74.37,164.51l-.49,1.85c-.03,.11-.14,.18-.25,.15-.11-.03-.17-.14-.15-.25h0s.47-1.85,.47-1.85h0c.03-.12,.14-.19,.26-.16,.11,.03,.18,.14,.15,.26h0Z" style="fill: #7d97f4;"/>
      <path d="M73.29,168.19l-.72,1.78c-.04,.1-.15,.15-.25,.11-.1-.04-.15-.15-.11-.25v-.02s.71-1.75,.71-1.75h0c.04-.12,.16-.17,.26-.13,.1,.04,.15,.16,.11,.26h0Z" style="fill: #7d97f4;"/>
      <path d="M71.68,171.68c-.33,.55-.69,1.09-1.1,1.59-.06,.08-.18,.09-.26,.03-.08-.06-.09-.18-.03-.26,.39-.49,.74-1.01,1.06-1.55,.05-.09,.17-.12,.26-.07,.09,.05,.12,.17,.07,.26h0Z" style="fill: #7d97f4;"/>
      <path d="M69.2,174.64c-.51,.4-1.08,.74-1.7,.97-.09,.03-.19-.01-.22-.1-.03-.09,.01-.19,.1-.22,.58-.22,1.11-.54,1.6-.92,.08-.06,.19-.05,.25,.03,.06,.08,.05,.19-.03,.25h0Z" style="fill: #7d97f4;"/>
    </g>
  </g>
  <g>
    <g>
      <path d="M180.03,180.94s-2.38-6.25-5.15-5.68c-2.78,.57-5.81,2.71-5.81,2.71l-4.46,6.03s12.52,4.93,16.92,2.1c0,0,12.78,2.21,28.93-.44-2.34-4.93-3.73-9.87-4.55-13.71-8.18,4.63-16.98,8.09-25.88,8.99Z" style="fill: url(#linear-gradient-39);"/>
      <path d="M247.75,135.57s-18.3,23.05-41.84,36.38c.82,3.83,2.21,8.77,4.55,13.71,12.21-2,26.34-6.79,38.32-17.41l-1.03-32.68Z" style="fill: url(#linear-gradient-40);"/>
    </g>
    <path d="M3.27,146.2l36.34,91.38c1.85,4.65,6.65,7.43,11.6,6.72l95.29-7.04-34.32-97.18c-.91-2.4-3.24-3.97-5.82-3.91-16.71,.38-77.55,1.89-99.32,3.82-3.02,.27-4.92,3.39-3.77,6.2Z" style="fill: url(#linear-gradient-41);"/>
    <path d="M48,240.15L11.7,147.95c-.73-1.86,.61-3.88,2.61-3.93l89.73-3.41c2.31-.09,4.43,1.3,5.27,3.45l32.87,89.88-94.18,6.21Z" style="fill: url(#linear-gradient-42);"/>
    <path d="M366.17,146.2l-36.34,91.38c-1.85,4.65-6.65,7.43-11.6,6.72l-95.29-6.67,34.32-97.55c.91-2.4,3.24-3.97,5.82-3.91,16.71,.38,77.55,1.89,99.32,3.82,3.02,.27,4.92,3.39,3.77,6.2Z" style="fill: url(#linear-gradient-43);"/>
    <path d="M321.44,240.15l36.3-92.21c.73-1.86-.61-3.88-2.61-3.93l-89.73-3.41c-2.31-.09-4.43,1.3-5.27,3.45l-32.87,89.88,94.18,6.21Z" style="fill: url(#linear-gradient-44);"/>
    <path d="M110.56,138.62l1.14,30.52c3.23,1.11,6.3,1.97,9.23,2.62,1.83-5.89,5.86-13.13,9.16-18.5-12.13-4.29-19.52-14.64-19.52-14.64Z" style="fill: url(#linear-gradient-45);"/>
    <path d="M171.1,138.1c-16.63,17.96-30.1,19.02-41.01,15.16-3.3,5.38-7.33,12.61-9.16,18.5,44.42,9.79,54.88-31.04,54.88-31.04l-4.7-2.62Z" style="fill: url(#linear-gradient-46);"/>
    <path d="M174.47,136.19s1.92-2.06,5.46-1.41c3.55,.65,6.7,1.88,8.91,0,2.21-1.88,2.99,.64,2.99,.64l-6.62,5.03-10.74-4.26Z" style="fill: url(#linear-gradient-47);"/>
    <path d="M170.51,139.71s1.31-5.49,5.27-4.74c3.96,.75,12.94,5.64,15.25,4.74,2.31-.9,5.27-3.05,6.79-2.29l-2.67,3.33s6.88-3.97,8.06-1.53l-11.44,6.44s-16.74-1.68-21.26-5.94Z" style="fill: url(#linear-gradient-48);"/>
    <path d="M52.98,239.21s-5.68-81.03,35.7-106.22c0,0,11.57-7.64,25.98,7.15,14.41,14.79,9.77,30.15-2.32,44.55-12.1,14.4-24.42,40.12-21.48,54.52H52.98Z" style="fill: url(#linear-gradient-49);"/>
    <path d="M109.53,110.91c-.01,.97-13.79,20.54-13.79,20.54,0,0,2.47,4.87,14.28,8.82l10.19-20.95-10.68-8.41Z" style="fill: url(#_32);"/>
    <path d="M104.11,178.1s26.14,21.89,54.36,12.34c1.75-.59,3.66-.46,5.3,.4l8.11,4.29c3.41,1.8,7.62,.62,9.6-2.69,1.13-1.89,2.09-4.04,2.28-6.1l-15.88-6.43,1.17-1.95s-7.75-.66-9.78,4.9c0,0-14.77,6.14-39.67-21.25,0,0-11.3,9.61-15.5,16.49Z" style="fill: url(#linear-gradient-50);"/>
    <path d="M102.7,178.01c-.11,0-.22-.03-.32-.1-11.04-7.46-16.23-19.5-16.28-19.62-.12-.29,.01-.63,.31-.76,.29-.12,.63,.01,.76,.31,.05,.12,5.12,11.85,15.86,19.11,.26,.18,.33,.54,.16,.8-.11,.17-.29,.25-.48,.25Z" style="fill: url(#linear-gradient-51);"/>
    <path d="M119.1,161.37c-.19,0-.38-.09-.49-.27-.03-.05-3.4-5.29-9.8-16.76-1.95-3.49-4.51-5.7-7.61-6.57-5.14-1.44-10.1,1.32-10.15,1.35-.28,.16-.63,.06-.79-.22-.16-.28-.06-.63,.22-.79,.22-.12,5.41-3.02,11.02-1.46,3.41,.95,6.21,3.35,8.32,7.13,6.39,11.43,9.73,16.65,9.77,16.7,.17,.27,.1,.63-.17,.8-.1,.06-.21,.09-.31,.09Z" style="fill: url(#linear-gradient-52);"/>
    <g>
      <path d="M120.38,99.7s4.9,11.26,5.23,17.17c.33,5.91,1.6,9.75-5.23,10.94-6.83,1.19-12.59-2.21-15.71-8.1,0,0-4.89-9.07-3.79-12.79,1.1-3.72,19.5-7.22,19.5-7.22Z" style="fill: url(#linear-gradient-53);"/>
      <path d="M107,115.47l.39-.17c.5-.22,.71-.81,.46-1.29-.96-1.86-2.84-6.13-.42-7.12,3.13-1.28,15.52-3.81,18.19-8.21,2.57-4.23,.29-9.68-3.13-11.23-.23-.1-.5-.02-.62,.2l-.29,.54c-.2,.37-.74,.31-.86-.09h0c-.11-.39-.62-.46-.84-.12-.82,1.32-3.04,3.45-8.97,4.54-8.43,1.56-14.01,4.97-14.14,10.79,0,.37-.4,.58-.72,.38-.62-.38-1.62-.56-2.95,.56-2.32,1.95-1.37,7,3.71,11.15,.24,.2,.24,.57-.02,.74-.92,.6-2.29,2.02,1.26,3.92,3.68,1.97,6.42,1.8,7.48,1.63,.26-.04,.43-.3,.38-.56l-1.13-5.12c-.06-.29,.16-.56,.45-.56h1.76Z" style="fill: url(#linear-gradient-54);"/>
      <path d="M107.21,116.55s-1.87-7.19-5.1-5.18c-3.23,2.02,1.67,8.06,4.27,8.33l.83-3.15Z" style="fill: url(#linear-gradient-55);"/>
    </g>
    <path d="M163.78,190.84s6.64,6.5,7.92,5.55c.46-.34,1.61-1.56,2.72-2.92,.79-.96,.87-2.32,.19-3.36l-1.57-2.42c-1.49-2.3-4.69-2.79-6.76-.98-1.04,.91-1.99,2.23-2.52,4.13Z" style="fill: url(#linear-gradient-56);"/>
    <path d="M268.45,238.01s-.04-29.19-17.02-59.34c-5.31-9.43-7.2-20.4-5.54-31.1l1.86-12.01s23.29-7.88,49.11-.33c0,0,35.8,29.55,11.87,105.13l-40.29-2.35Z" style="fill: url(#linear-gradient-57);"/>
    <path d="M251.71,120.24l6.04,14.51c.38,.92,1.21,1.57,2.18,1.74,3.48,.6,11.9,1.53,17.44-2.11,.66-.43,.83-1.33,.38-1.98l-11.16-16.02-14.88,3.86Z" style="fill: url(#linear-gradient-58);"/>
    <g>
      <path d="M266.61,188.43c-.83,.22-1.25,1.15-.85,1.92l17.47,33.51c.3,.57,.95,.85,1.56,.67l57.16-16.5c.71-.21,1.12-.95,.92-1.66l-9.85-34.08c-.2-.7-.93-1.11-1.63-.92l-64.79,17.08Z" style="fill: #bdd0fb;"/>
      <path d="M270.3,184.5c-.82,.19-1.28,1.06-.99,1.85l13.99,38c.25,.69,1,1.07,1.71,.86l56.99-16.45c.71-.2,1.14-.92,.98-1.65l-7.9-36.57c-.17-.77-.93-1.25-1.7-1.07l-63.08,15.03Z" style="fill: url(#linear-gradient-59);"/>
      <path d="M275.26,180.66c-1,.15-1.66,1.12-1.43,2.11l9.5,41.02c.22,.97,1.22,1.55,2.17,1.28l56.12-16.2c.9-.26,1.43-1.19,1.2-2.1l-8.63-33.48c-.22-.86-1.06-1.42-1.94-1.28l-56.99,8.67Z" style="fill: url(#linear-gradient-60);"/>
    </g>
    <path d="M320.69,196.3c4.36-32.9-21-58.2-21-58.2l-15.09,17.59c11.45,14.28,16.9,27.36,19.39,37.63,3.3-.96,11.24-2.48,16.7,2.98Z" style="fill: url(#linear-gradient-61);"/>
    <path d="M303.99,193.71c-.17,0-.33-.12-.37-.29-3.09-12.75-9.58-25.36-19.31-37.48-.13-.17-.11-.41,.06-.54,.17-.13,.41-.11,.54,.06,9.8,12.22,16.35,24.93,19.46,37.79,.05,.21-.08,.42-.28,.47-.03,0-.06,.01-.09,.01Z" style="fill: url(#linear-gradient-62);"/>
    <path d="M303.99,193.32c2.31,9.55,2.07,16.68,1.72,20.08-.13,1.28-1.16,2.28-2.45,2.37-1.46,.1-3.45,.24-5.23,.34-1.95,.11-4.12-1.12-5.57-2.15-.74-.53-1.7,.29-1.28,1.1,1.08,2.12,3.83,4,5.72,5.11,.69,.4,.56,1.43-.21,1.65l-8.09,2.29c13.3,12.53,22.08-1.49,22.08-1.49,5.87-9.07,8.91-17.94,10.02-26.32-5.46-5.46-13.4-3.94-16.7-2.98Z" style="fill: url(#linear-gradient-63);"/>
    <g>
      <path d="M257.96,98.04c-.25,.24-10.71,20.76-10.71,20.76l11.85,5.72,12.8-17.98s-9.69-12.5-13.94-8.5Z" style="fill: url(#linear-gradient-64);"/>
      <path d="M266.51,108.7l-5.91,9.85c-.09,.15-.2,.28-.32,.4-.7,.65-3.11,2.56-4.97-.03-1.59-2.21-3.07-4.22-4.67-5.05-.93-.48-2.08-.1-2.55,.84-.97,1.93-2.86,5.86-4.04,9.59-.3,.93,.19,1.94,1.09,2.31,2.4,.97,7.14,2.73,11.35,3.31,.69,.1,1.38-.2,1.79-.76,1.81-2.48,6.91-9.41,8.65-11.14,1.62-1.61,4.6-1,5.95-.62,.51,.15,1.05,.08,1.51-.2,1.36-.82,3.75-2.87,1.57-6.34-.54-.86-.27-2.01,.58-2.57,1.52-1,3.18-2.88,1.6-5.93-1.59-3.08-4.44-3.36-6.38-3.12-.86,.1-1.73-.35-2.06-1.14-.15-.36-.44-.66-.98-.77-1.02-.21-1.68-1.14-1.48-2.15,.34-1.75,.08-4.01-2.7-5.55-5.11-2.81-9.59,1.77-10.73,5.63-1.14,3.87,4.58,6.6,8.17,7.05,2.64,.33,4.09,3.22,4.67,4.72,.21,.55,.16,1.16-.14,1.66Z" style="fill: url(#linear-gradient-65);"/>
      <path d="M264.71,121.63s2.27-6.65,5.18-6.41c2.91,.24,5.2,3.14,1.59,6.4-4.49,4.05-6.78,0-6.78,0Z" style="fill: url(#linear-gradient-66);"/>
    </g>
    <path d="M178.9,241.33c0,1.7-1.38,3.08-3.08,3.08H50.5c-2.59,0-4.69-2.1-4.69-4.69l-1.97-2.29,130.12-1.11c2.74,.04,4.94,2.27,4.94,5.01h0Z" style="fill: url(#linear-gradient-67);"/>
    <path d="M190.54,241.33c0,1.7,1.38,3.08,3.08,3.08h125.32c2.59,0,4.69-2.1,4.69-4.69l1.97-2.29-130.12-1.11c-2.74,.04-4.94,2.27-4.94,5.01h0Z" style="fill: url(#linear-gradient-68);"/>
  </g>
  <g>
    <g>
      <circle cx="22.82" cy="195.3" r="10.15" transform="translate(-160.14 123.27) rotate(-61.85)" style="fill: url(#linear-gradient-69);"/>
      <circle cx="22.82" cy="195.3" r="9.81" transform="translate(-19.13 3.2) rotate(-5.65)" style="fill: url(#linear-gradient-70);"/>
      <path d="M14.73,191.61c-.06,0-.12-.01-.17-.04-.19-.09-.26-.32-.17-.51,1.62-3.2,4.84-5.19,8.43-5.19,.57,0,1.14,.05,1.7,.15,.21,.04,.34,.24,.31,.44-.04,.21-.24,.34-.44,.31-.51-.09-1.04-.14-1.57-.14-3.29,0-6.26,1.83-7.75,4.77-.07,.13-.2,.21-.34,.21Z" style="fill: #fff; opacity: .6;"/>
      <circle cx="23.03" cy="195.51" r="8.3" transform="translate(-109.97 50.37) rotate(-35.78)" style="fill: #fff; opacity: .6;"/>
      <path d="M22.22,201.69v-.9c-.94-.04-1.87-.26-2.53-.55-.24-.1-.36-.37-.29-.62l.23-.84c.08-.31,.42-.47,.71-.34,.66,.28,1.47,.49,2.34,.49s1.58-.31,1.58-.94c0-.57-.52-.91-1.78-1.24-1.8-.49-3.09-1.28-3.09-2.86,0-1.43,1.05-2.52,2.86-2.81v-.9c0-.29,.24-.53,.53-.53h.53c.29,0,.53,.24,.53,.53v.81c.87,.03,1.51,.18,2.01,.36,.26,.09,.4,.37,.33,.63l-.21,.78c-.08,.3-.4,.46-.69,.35-.46-.18-1.12-.36-1.97-.36-1.08,0-1.38,.45-1.38,.85,0,.49,.65,.83,2.04,1.26,2,.6,2.83,1.43,2.83,2.92,0,1.37-1.01,2.6-2.98,2.91v1.01c0,.29-.24,.53-.53,.53h-.53c-.29,0-.53-.24-.53-.53Z" style="fill: url(#linear-gradient-71);"/>
    </g>
    <g>
      <circle cx="51.7" cy="183.27" r="17.66" transform="translate(-114.45 90.24) rotate(-45)" style="fill: url(#linear-gradient-72);"/>
      <circle cx="51.7" cy="183.27" r="17.07" transform="translate(-138.54 191.48) rotate(-76.72)" style="fill: url(#linear-gradient-73);"/>
      <path d="M37.62,176.56c-.06,0-.12-.01-.17-.04-.19-.09-.26-.32-.17-.51,2.76-5.48,8.29-8.88,14.42-8.88,.98,0,1.96,.09,2.91,.26,.21,.04,.34,.24,.31,.44-.04,.21-.24,.34-.44,.31-.91-.17-1.84-.25-2.78-.25-5.84,0-11.11,3.24-13.74,8.46-.07,.13-.2,.21-.34,.21Z" style="fill: #fff; opacity: .6;"/>
      <circle cx="52.07" cy="183.64" r="14.45" style="fill: #fff; opacity: .6;"/>
      <path d="M50.65,194.38v-1.57c-1.64-.07-3.26-.45-4.41-.96-.41-.18-.62-.64-.5-1.07l.4-1.46c.15-.54,.73-.82,1.24-.6,1.14,.48,2.55,.86,4.07,.86s2.76-.54,2.76-1.63c0-.99-.91-1.58-3.1-2.17-3.13-.86-5.38-2.22-5.38-4.98,0-2.49,1.82-4.39,4.98-4.9v-1.57c0-.51,.41-.92,.92-.92h.92c.51,0,.92,.41,.92,.92v1.41c1.52,.06,2.62,.32,3.5,.63,.45,.16,.69,.64,.57,1.1l-.37,1.35c-.14,.52-.7,.81-1.21,.62-.81-.31-1.95-.62-3.43-.62-1.87,0-2.41,.78-2.41,1.47,0,.86,1.12,1.44,3.56,2.19,3.48,1.04,4.92,2.49,4.92,5.08,0,2.38-1.77,4.52-5.19,5.06v1.76c0,.51-.41,.92-.92,.92h-.92c-.51,0-.92-.41-.92-.92Z" style="fill: url(#linear-gradient-74);"/>
    </g>
    <g>
      <circle cx="63.88" cy="222.72" r="18.17" transform="translate(-167.25 238.97) rotate(-78.02)" style="fill: url(#linear-gradient-75);"/>
      <circle cx="63.88" cy="222.72" r="17.57" transform="translate(-138.77 110.4) rotate(-45)" style="fill: url(#linear-gradient-76);"/>
      <path d="M49.39,215.8c-.06,0-.12-.01-.17-.04-.19-.09-.26-.32-.17-.51,2.84-5.63,8.52-9.13,14.83-9.13,1.01,0,2.01,.09,2.99,.27,.21,.04,.34,.24,.31,.44-.04,.21-.23,.34-.44,.31-.94-.17-1.9-.26-2.86-.26-6.01,0-11.44,3.34-14.15,8.71-.07,.13-.2,.21-.34,.21Z" style="fill: #fff; opacity: .6;"/>
      <circle cx="64.26" cy="223.1" r="14.87" transform="translate(-167.63 234.39) rotate(-76.72)" style="fill: #fff; opacity: .6;"/>
      <path d="M62.8,234.15v-1.62c-1.69-.07-3.35-.47-4.54-.98-.42-.19-.64-.66-.52-1.11l.41-1.51c.15-.55,.75-.84,1.28-.62,1.18,.49,2.63,.88,4.19,.88s2.84-.55,2.84-1.68c0-1.02-.94-1.62-3.19-2.23-3.22-.88-5.53-2.29-5.53-5.12,0-2.56,1.87-4.52,5.12-5.04v-1.62c0-.52,.42-.94,.94-.94h.95c.52,0,.94,.42,.94,.94v1.45c1.56,.06,2.7,.33,3.6,.65,.46,.16,.71,.66,.59,1.13l-.38,1.39c-.15,.54-.72,.83-1.24,.63-.83-.31-2-.64-3.53-.64-1.93,0-2.48,.8-2.48,1.51,0,.88,1.16,1.49,3.66,2.26,3.58,1.07,5.07,2.56,5.07,5.23,0,2.45-1.82,4.65-5.34,5.2v1.81c0,.52-.42,.94-.94,.94h-.95c-.52,0-.94-.42-.94-.94Z" style="fill: url(#linear-gradient-77);"/>
    </g>
    <g>
      <circle cx="87.19" cy="197.96" r="13.32" transform="translate(-117.28 268.53) rotate(-85.27)" style="fill: url(#linear-gradient-78);"/>
      <circle cx="87.19" cy="197.96" r="12.87" transform="translate(-103.36 95.59) rotate(-37.98)" style="fill: url(#linear-gradient-79);"/>
      <path d="M76.58,192.99c-.06,0-.12-.01-.17-.04-.19-.09-.26-.32-.17-.51,2.1-4.16,6.3-6.74,10.95-6.74,.74,0,1.49,.07,2.21,.2,.21,.04,.34,.24,.31,.44-.04,.21-.23,.34-.44,.31-.68-.12-1.38-.19-2.08-.19-4.37,0-8.31,2.42-10.27,6.33-.07,.13-.2,.21-.34,.21Z" style="fill: #fff; opacity: .6;"/>
      <circle cx="87.48" cy="198.24" r="10.9" transform="translate(-60.69 40.13) rotate(-19.33)" style="fill: #fff; opacity: .6;"/>
      <path d="M86.41,206.34v-1.19c-1.24-.05-2.46-.34-3.33-.72-.31-.14-.47-.48-.38-.81l.3-1.1c.11-.41,.55-.61,.94-.45,.86,.36,1.92,.65,3.07,.65s2.08-.4,2.08-1.23c0-.75-.69-1.19-2.34-1.63-2.36-.65-4.05-1.67-4.05-3.75,0-1.88,1.37-3.31,3.75-3.69v-1.19c0-.38,.31-.69,.69-.69h.7c.38,0,.69,.31,.69,.69v1.06c1.14,.05,1.98,.24,2.64,.47,.34,.12,.52,.48,.43,.83l-.28,1.02c-.11,.39-.53,.61-.91,.47-.61-.23-1.47-.47-2.59-.47-1.41,0-1.82,.58-1.82,1.11,0,.65,.85,1.09,2.68,1.65,2.62,.79,3.71,1.88,3.71,3.83,0,1.8-1.33,3.41-3.91,3.81v1.33c0,.38-.31,.69-.69,.69h-.7c-.38,0-.69-.31-.69-.69Z" style="fill: url(#linear-gradient-80);"/>
    </g>
  </g>
  <g>
    <path d="M296.27,149.63c-.88-.3-.75-1.59,.17-1.71,4.2-.54,10.35-2.19,12.37-7.12,3.16-7.73-3.39-37.54,26.71-42.87,27.76-4.92,43.22,3.87,42.87,29.52-.34,24.86-40.3,36.52-82.12,22.17Z" style="fill: #91b3fa;"/>
    <g>
      <rect x="317.69" y="122.1" width="2.69" height="21.07" style="fill: #bdd0fb;"/>
      <rect x="322.19" y="129.34" width="2.69" height="13.83" style="fill: #bdd0fb;"/>
      <rect x="326.69" y="111.44" width="2.69" height="31.73" style="fill: #bdd0fb;"/>
      <rect x="331.19" y="135.54" width="2.69" height="7.62" style="fill: #bdd0fb;"/>
      <rect x="335.68" y="115.68" width="2.69" height="27.48" style="fill: #bdd0fb;"/>
      <rect x="340.18" y="120.44" width="2.69" height="22.73" style="fill: #bdd0fb;"/>
      <rect x="344.68" y="125.61" width="2.69" height="17.55" style="fill: #bdd0fb;"/>
      <rect x="349.18" y="105.03" width="2.69" height="38.14" style="fill: #bdd0fb;"/>
      <rect x="353.68" y="109.06" width="2.69" height="34.1" style="fill: #bdd0fb;"/>
      <rect x="358.18" y="115.16" width="2.69" height="28" style="fill: #bdd0fb;"/>
      <rect x="362.68" y="136.25" width="2.69" height="6.91" style="fill: #bdd0fb;"/>
    </g>
  </g>
</svg>