<?xml version="1.0" encoding="UTF-8"?>
<svg xmlns="http://www.w3.org/2000/svg" xmlns:xlink="http://www.w3.org/1999/xlink" viewBox="0 0 436.88 417.26">
  <defs>
    <linearGradient id="linear-gradient" x1="-2346.56" y1="194.56" x2="-2411.82" y2="699.78" gradientTransform="translate(-2297.07) rotate(-180) scale(1 -1)" gradientUnits="userSpaceOnUse">
      <stop offset="0" stop-color="#ff9085"/>
      <stop offset="1" stop-color="#fb6fbb"/>
    </linearGradient>
    <linearGradient id="linear-gradient-2" x1="1690.72" y1="-353.92" x2="1648.59" y2="-27.78" gradientTransform="translate(1517.03 -527.29) rotate(139.46) scale(1 -1)" gradientUnits="userSpaceOnUse">
      <stop offset="0" stop-color="#aa80f9"/>
      <stop offset="1" stop-color="#6165d7"/>
    </linearGradient>
    <linearGradient id="linear-gradient-3" x1="-873.35" y1="428.98" x2="-855.58" y2="428.98" gradientTransform="translate(1253.28 15.66) rotate(2.66)" gradientUnits="userSpaceOnUse">
      <stop offset="0" stop-color="#444b8c"/>
      <stop offset="1" stop-color="#26264f"/>
    </linearGradient>
    <linearGradient id="linear-gradient-4" x1="-859.54" y1="407.73" x2="-868.46" y2="424.06" gradientTransform="translate(1253.28 15.66) rotate(2.66)" gradientUnits="userSpaceOnUse">
      <stop offset="0" stop-color="#ffc444"/>
      <stop offset="1" stop-color="#f36f56"/>
    </linearGradient>
    <linearGradient id="linear-gradient-5" x1="-892.84" y1="426.74" x2="-861.41" y2="289.68" gradientTransform="translate(1253.28 15.66) rotate(2.66)" xlink:href="#linear-gradient-2"/>
    <linearGradient id="linear-gradient-6" x1="-795.18" y1="410.84" x2="-770.73" y2="410.84" gradientTransform="translate(1174.63)" xlink:href="#linear-gradient-3"/>
    <linearGradient id="linear-gradient-7" x1="-781.87" y1="409.59" x2="-772.45" y2="390.09" gradientTransform="translate(1174.63)" xlink:href="#linear-gradient-4"/>
    <linearGradient id="linear-gradient-8" x1="-892.4" y1="426.84" x2="-860.98" y2="289.78" gradientTransform="translate(1253.28 15.66) rotate(2.66)" xlink:href="#linear-gradient-2"/>
    <linearGradient id="linear-gradient-9" x1="-796.29" y1="341.32" x2="-740.78" y2="253.81" gradientTransform="translate(1174.63)" xlink:href="#linear-gradient-2"/>
    <linearGradient id="linear-gradient-10" x1="-837.99" y1="149.94" x2="-819.95" y2="213.91" gradientTransform="translate(1174.63)" gradientUnits="userSpaceOnUse">
      <stop offset="0" stop-color="#311944"/>
      <stop offset="1" stop-color="#893976"/>
    </linearGradient>
    <linearGradient id="linear-gradient-11" x1="-806.84" y1="141.29" x2="-771.42" y2="266.94" xlink:href="#linear-gradient-10"/>
    <linearGradient id="linear-gradient-12" x1="-789.14" y1="345.86" x2="-733.63" y2="258.35" gradientTransform="translate(1174.63)" xlink:href="#linear-gradient-2"/>
    <linearGradient id="linear-gradient-13" x1="-827.21" y1="129.66" x2="-791.78" y2="255.31" xlink:href="#linear-gradient-10"/>
    <linearGradient id="linear-gradient-14" x1="45.32" y1="-199.48" x2="46.45" y2="-229.61" gradientTransform="translate(501.33 331.12) rotate(156.5) scale(1 -1)" xlink:href="#linear-gradient-4"/>
    <linearGradient id="linear-gradient-15" x1="110.98" y1="616.04" x2="125.54" y2="634.54" gradientTransform="translate(631.33 -446.73) rotate(34.67)" xlink:href="#linear-gradient-3"/>
    <linearGradient id="linear-gradient-16" x1="-464.87" y1="548.7" x2="-465.52" y2="601.46" gradientTransform="translate(-8.39 -469.96) rotate(-171.67) scale(1 -1)" xlink:href="#linear-gradient-4"/>
    <linearGradient id="linear-gradient-17" x1="-1438.53" y1="528.7" x2="-1437.79" y2="535.3" gradientTransform="translate(1843.7 -260.08) rotate(4.82)" gradientUnits="userSpaceOnUse">
      <stop offset="0" stop-color="#ffc444"/>
      <stop offset="1" stop-color="#f36f56"/>
    </linearGradient>
    <linearGradient id="linear-gradient-18" x1="-823.38" y1="128.58" x2="-787.96" y2="254.23" xlink:href="#linear-gradient-10"/>
    <linearGradient id="linear-gradient-19" x1="61.34" y1="156.6" x2="87.3" y2="248.69" gradientTransform="translate(398.52 -32.3) rotate(19.54)" xlink:href="#linear-gradient-10"/>
    <linearGradient id="linear-gradient-20" x1="-819.43" y1="217.17" x2="-818.63" y2="195.83" gradientTransform="translate(1174.63)" xlink:href="#linear-gradient-4"/>
    <linearGradient id="linear-gradient-21" x1="-808.68" y1="228.69" x2="-808" y2="210.58" gradientTransform="translate(1174.63)" xlink:href="#linear-gradient-4"/>
    <linearGradient id="linear-gradient-22" x1="2196.69" y1="174.61" x2="2450.17" y2="174.61" gradientTransform="translate(-2155.87 -9.66) rotate(1.14)" xlink:href="#linear-gradient-3"/>
    <linearGradient id="linear-gradient-23" x1="-3265.62" y1="-2192.27" x2="-3177.83" y2="-1900.7" gradientTransform="translate(3878.34 -981.29) rotate(-50.36)" xlink:href="#linear-gradient-2"/>
    <linearGradient id="linear-gradient-24" x1="-3344.01" y1="-2177.52" x2="-3239.06" y2="-1828.95" gradientTransform="translate(3878.34 -981.29) rotate(-50.36)" xlink:href="#linear-gradient-2"/>
    <linearGradient id="linear-gradient-25" x1="-3375.61" y1="-2192.8" x2="-3265.14" y2="-1825.92" gradientTransform="translate(3878.34 -981.29) rotate(-50.36)" xlink:href="#linear-gradient-2"/>
    <linearGradient id="linear-gradient-26" x1="-3174.12" y1="-2253.37" x2="-3064.18" y2="-1888.26" gradientTransform="translate(3878.34 -981.29) rotate(-50.36)" xlink:href="#linear-gradient-2"/>
    <linearGradient id="linear-gradient-27" x1="-3201.64" y1="-2255.38" x2="-3096.12" y2="-1904.95" gradientTransform="translate(3878.34 -981.29) rotate(-50.36)" xlink:href="#linear-gradient-2"/>
    <linearGradient id="linear-gradient-28" x1="-3238.07" y1="-2100.9" x2="-3220.71" y2="-2043.24" gradientTransform="translate(3878.34 -981.29) rotate(-50.36)" xlink:href="#linear-gradient-2"/>
    <linearGradient id="linear-gradient-29" x1="-3335.16" y1="-2065.8" x2="-3123.63" y2="-2065.8" gradientTransform="translate(3878.34 -981.29) rotate(-50.36)" xlink:href="#linear-gradient-2"/>
    <linearGradient id="linear-gradient-30" x1="-6216.21" y1="-2266.31" x2="-6410.74" y2="-2284.12" gradientTransform="translate(4737.5 -5005.92) rotate(-67.93) skewX(6.09)" xlink:href="#linear-gradient-10"/>
    <linearGradient id="linear-gradient-31" x1="-6380.61" y1="-2325.59" x2="-6105.44" y2="-2315.35" gradientTransform="translate(4730.2 -5009.13) rotate(-68.43) skewX(5.6)" gradientUnits="userSpaceOnUse">
      <stop offset="0" stop-color="#e38ddd"/>
      <stop offset="1" stop-color="#9571f6"/>
    </linearGradient>
    <linearGradient id="linear-gradient-32" x1="-6395.32" y1="-2359.06" x2="-6309.77" y2="-2310.57" gradientTransform="translate(4730.2 -5009.13) rotate(-68.43) skewX(5.6)" gradientUnits="userSpaceOnUse">
      <stop offset="0" stop-color="#f57e53"/>
      <stop offset="0" stop-color="#f58152"/>
      <stop offset=".04" stop-color="#f8994d"/>
      <stop offset=".08" stop-color="#fbac49"/>
      <stop offset=".13" stop-color="#fdb946"/>
      <stop offset=".2" stop-color="#fec144"/>
      <stop offset=".32" stop-color="#ffc444"/>
      <stop offset=".45" stop-color="#fdb946"/>
      <stop offset=".69" stop-color="#f99c4c"/>
      <stop offset="1" stop-color="#f36f56"/>
    </linearGradient>
    <linearGradient id="linear-gradient-33" x1="-6378.02" y1="-2289.74" x2="-6359.15" y2="-2289.74" gradientTransform="translate(4737.5 -5005.92) rotate(-67.93) skewX(6.09)" xlink:href="#linear-gradient"/>
    <linearGradient id="linear-gradient-34" x1="-6364.64" y1="-2341.22" x2="-6347.55" y2="-2341.22" gradientTransform="translate(4730.2 -5009.13) rotate(-68.43) skewX(5.6)" xlink:href="#linear-gradient"/>
    <linearGradient id="linear-gradient-35" x1="-6365.11" y1="-2337.12" x2="-6348" y2="-2337.12" gradientTransform="translate(4730.2 -5009.13) rotate(-68.43) skewX(5.6)" xlink:href="#linear-gradient"/>
    <linearGradient id="linear-gradient-36" x1="-6365.57" y1="-2333.01" x2="-6348.46" y2="-2333.01" gradientTransform="translate(4730.2 -5009.13) rotate(-68.43) skewX(5.6)" xlink:href="#linear-gradient"/>
    <linearGradient id="linear-gradient-37" x1="-6373.97" y1="-2289.74" x2="-6363.18" y2="-2289.74" gradientTransform="translate(4737.5 -5005.92) rotate(-67.93) skewX(6.09)" xlink:href="#linear-gradient"/>
    <linearGradient id="linear-gradient-38" x1="-6382.19" y1="-2290.81" x2="-6115.43" y2="-2280.88" gradientTransform="translate(4730.2 -5009.13) rotate(-68.43) skewX(5.6)" gradientUnits="userSpaceOnUse">
      <stop offset="0" stop-color="#fb6fbb"/>
      <stop offset="1" stop-color="#ff9085"/>
    </linearGradient>
    <linearGradient id="linear-gradient-39" x1="-6384.84" y1="-2237.99" x2="-6347.02" y2="-2237.99" gradientTransform="translate(4737.5 -5005.92) rotate(-67.93) skewX(6.09)" xlink:href="#linear-gradient-38"/>
    <linearGradient id="linear-gradient-40" x1="-6329.56" y1="-2237.43" x2="-6280.31" y2="-2237.43" gradientTransform="translate(4737.5 -5005.92) rotate(-67.93) skewX(6.09)" xlink:href="#linear-gradient-38"/>
    <linearGradient id="linear-gradient-41" x1="-5956" y1="-2972.21" x2="-5929.7" y2="-2972.21" gradientTransform="translate(4685.58 -5010.64) rotate(-74.74) scale(.98 1.01) skewX(6.05)" xlink:href="#linear-gradient"/>
    <linearGradient id="linear-gradient-42" x1="125.44" y1="222.48" x2="70.26" y2="240.19" gradientUnits="userSpaceOnUse">
      <stop offset="0" stop-color="#fcb148"/>
      <stop offset=".05" stop-color="#fdb946"/>
      <stop offset=".14" stop-color="#fec144"/>
      <stop offset=".32" stop-color="#ffc444"/>
      <stop offset=".48" stop-color="#fdb946"/>
      <stop offset=".78" stop-color="#f99c4c"/>
      <stop offset=".87" stop-color="#f8924f"/>
      <stop offset="1" stop-color="#f8924f"/>
    </linearGradient>
    <linearGradient id="linear-gradient-43" x1="170.09" y1="167.55" x2="120.82" y2="276.24" gradientUnits="userSpaceOnUse">
      <stop offset="0" stop-color="#ffdb44"/>
      <stop offset="1" stop-color="#feef06"/>
    </linearGradient>
    <linearGradient id="linear-gradient-44" x1="161.03" y1="282.32" x2="151.52" y2="230.38" xlink:href="#linear-gradient-42"/>
    <linearGradient id="linear-gradient-45" x1="140.87" y1="198.26" x2="180.05" y2="281.42" xlink:href="#linear-gradient-42"/>
    <linearGradient id="linear-gradient-46" x1="129.34" y1="203.64" x2="168.44" y2="286.64" xlink:href="#linear-gradient-42"/>
    <linearGradient id="linear-gradient-47" x1="121.79" y1="119.77" x2="84.62" y2="131.7" xlink:href="#linear-gradient-42"/>
    <linearGradient id="linear-gradient-48" x1="151.86" y1="82.77" x2="118.68" y2="155.98" xlink:href="#linear-gradient-43"/>
    <linearGradient id="linear-gradient-49" x1="145.75" y1="160.07" x2="139.35" y2="125.1" xlink:href="#linear-gradient-42"/>
    <linearGradient id="linear-gradient-50" x1="132.18" y1="103.46" x2="158.57" y2="159.47" xlink:href="#linear-gradient-42"/>
    <linearGradient id="linear-gradient-51" x1="124.42" y1="107.08" x2="150.75" y2="162.98" xlink:href="#linear-gradient-42"/>
    <linearGradient id="linear-gradient-52" x1="208.7" y1="84.32" x2="160.27" y2="511.09" gradientUnits="userSpaceOnUse">
      <stop offset="0" stop-color="#ab316d"/>
      <stop offset="1" stop-color="#792d3d"/>
    </linearGradient>
    <linearGradient id="linear-gradient-53" x1="687.87" y1="120.25" x2="-.69" y2="380.09" xlink:href="#linear-gradient-52"/>
    <linearGradient id="linear-gradient-54" x1="420.8" y1="250.85" x2="203.83" y2="332.73" xlink:href="#linear-gradient-52"/>
    <linearGradient id="linear-gradient-55" x1="284.69" y1="294.41" x2="230.25" y2="314.95" gradientTransform="matrix(1, 0, 0, 1, 0, 0)" xlink:href="#linear-gradient-4"/>
  </defs>
  <g style="isolation: isolate;">
    <g id="Illustration">
      <g>
        <path d="M182.34,413.19C73.96,396.78-14.12,294.31,1.89,180.42,15.54,83.28,100.7,7.69,202.82,.55c7.39-.52,14.87-.68,22.42-.46,56.97,1.65,107.59,24.43,145.03,58.92,37.26,34.32,61.47,80.22,65.88,128.37,11.74,128.12-119.01,246.23-253.81,225.81Z" style="fill: #f4f7fa;"/>
        <g>
          <g>
            <path d="M80.63,407.31c-25.34-3.26-57.48-11.81-70.39-35.94-3.07-5.74-6.15-16.89,1.6-21.09,7.08-3.84,16.24,.22,21.51,5.21,3.87,3.67,6.89,11.87,11.24,14.46,6.37,3.79,9.79-6.56,9.66-10.83-.3-9.55-12.05-13.46-19.85-15.53-12.96-3.44-28.05-6.39-27.24-21,.81-14.6,15.05-23.36,26.01-16.98,9.03,5.26,7.75,16.5,13.92,23.24,5.48,5.99,7.38-3.73,7.02-8.5-.79-10.35-9.9-17.84-16.59-24.78-7.57-7.84-15.94-23.62-7.87-34,4.64-5.97,16.44-7.37,23.42-6.36,34.14,4.93,11.5,49.11,17.71,54.04,6.21,4.93,12.08-3.7,12.06-16.82-.02-13.12,1.99-22.79,15.68-18.6,13.69,4.2,16.3,38.47,.66,51.64-15.63,13.17,.98,27.54,5.18,18.1,3.03-6.81,5.69-24.66,14.45-26.62,14.59-3.26,14.37,26.54,10.18,33.47-5.89,9.72-19.2,11.83-26.63,20.22-2.16,2.44-7.03,8.47-5.14,12.03,2.64,4.97,10.01-.35,12.72-2.65,6.09-5.17,14.51-22.76,23.09-11.08,10.59,14.42-7.12,35.8-52.39,38.35Z" style="fill: url(#linear-gradient);"/>
            <g style="mix-blend-mode: soft-light; opacity: .8;">
              <path d="M76.98,405.16c.6,0,1.08-.68,1.09-1.28,0-.52,.72-52.57-21.97-114.36-.21-.57-.84-.91-1.41-.7-.57,.21-.86,.81-.65,1.38,22.55,61.41,21.85,113.14,21.84,113.66-.01,.6,.47,1.31,1.07,1.31h.02Z" style="fill: #fff;"/>
            </g>
          </g>
          <path d="M60.46,403.03c.85-5.33,11.04-6.85,15.14-7.62,2.38-.45,5.77-.91,6.99-3.37,1.28-2.58-.67-4.58-3.17-5.04-4.48-.82-9.31,2.03-13.47,3.33-4.48,1.39-9.12,2.05-13.56,.12-3.54-1.53-7.16-5.17-7.93-9.01-2.13-10.61,8.5-10,15.42-8.51,3.36,.72,9.97,1.27,10.56-3.48,.63-5.05-5.8-7.6-9.77-7.75-5.19-.2-10.29,.94-15.44,1.32-4.64,.34-10.14-.17-11.43-5.51-.99-4.13,1.33-8.87,4.68-11.32,7.76-5.66,17.98,3.99,26.26,3.97,2.93,0,7.76-2.15,8.57-5.3,.82-3.2-3.34-5.36-5.62-6.53-6.76-3.46-37.81-7.89-26.69-21.3,2.8-3.37,8.21-6.21,12.57-6.33,8.24-.23,17.49,5.36,23.83,10.19,9.98,7.58,18.71,18.02,24.38,29.21,12.53,24.72,6.46,41.29,6.46,41.29-3.63,5.99-9.25,12.22-15.44,15.59-7.28,3.97-18.55,5.71-26.46,2.63-2.56-1-6.41-3.28-5.89-6.58Z" style="fill: url(#linear-gradient-2);"/>
        </g>
        <path d="M399.35,255.72l-10.52,.71c-1.21-4.69-2.79-9.23-4.76-13.55l8.73-5.86c2.38-1.6,2.99-4.83,1.37-7.22l-10.18-14.98c-1.63-2.4-4.89-3.05-7.27-1.46l-8.84,5.9c-3.36-3.44-7.01-6.6-10.91-9.42l4.66-9.57c1.26-2.58,.16-5.72-2.46-7l-16.39-8.06c-2.63-1.29-5.78-.24-7.04,2.34l-4.7,9.61c-4.59-1.34-9.35-2.27-14.21-2.81l-.82-10.77c-.22-2.89-2.77-5.1-5.69-4.92l-18.32,1.08c-2.94,.17-5.14,2.66-4.92,5.57l.82,10.8c-4.77,1.13-9.38,2.64-13.77,4.53l-6.18-9.01c-1.67-2.43-5-3.1-7.45-1.49l-15.33,10.07c-2.46,1.61-3.09,4.89-1.42,7.33l6.2,9.01c-3.52,3.33-6.74,6.96-9.62,10.84l-9.92-4.79c-2.69-1.3-5.91-.22-7.21,2.4l-8.11,16.42c-1.3,2.63-.17,5.81,2.52,7.1l9.85,4.73c-1.34,4.61-2.26,9.39-2.77,14.28l-10.9,.74c-2.98,.2-5.22,2.74-5,5.66l1.39,18.3c.22,2.93,2.82,5.13,5.81,4.92l10.81-.76c1.22,4.8,2.84,9.43,4.85,13.84l-8.89,5.94c-2.47,1.65-3.11,4.95-1.43,7.37l10.51,15.13c1.68,2.42,5.04,3.04,7.5,1.38l8.83-5.92c3.46,3.51,7.23,6.7,11.26,9.56l-4.61,9.44c-1.29,2.64-.17,5.8,2.51,7.06l16.69,7.86c2.66,1.25,5.86,.14,7.14-2.49l4.55-9.35c4.71,1.3,9.58,2.18,14.55,2.65l.78,10.33c.22,2.9,2.78,5.06,5.71,4.83l18.29-1.44c2.92-.23,5.1-2.76,4.89-5.65l-.78-10.3c4.81-1.22,9.45-2.83,13.86-4.83l5.84,8.49c1.64,2.39,4.92,2.99,7.32,1.35l15-10.23c2.39-1.63,3.01-4.89,1.38-7.27l-5.86-8.54c3.47-3.38,6.63-7.06,9.45-10.98l9.36,4.49c2.6,1.25,5.73,.16,6.98-2.44l7.81-16.21c1.25-2.59,.15-5.71-2.44-6.96l-9.38-4.53c1.28-4.57,2.15-9.3,2.61-14.14l10.43-.73c2.87-.2,5.02-2.69,4.8-5.56l-1.36-17.93c-.22-2.87-2.72-5.04-5.59-4.84Zm-94.81-32.22c29.48-1.87,55.04,20.2,57.24,49.29,2.21,29.09-19.75,54.44-49.21,56.63-29.63,2.2-55.6-19.84-57.83-49.25-2.23-29.41,20.13-54.78,49.79-56.67Z" style="fill: #d8dee8; mix-blend-mode: multiply; opacity: .7;"/>
        <path d="M366.11,96.63l-5.78,.39c-.66-2.58-1.54-5.07-2.62-7.45l4.8-3.22c1.31-.88,1.65-2.66,.75-3.97l-5.6-8.23c-.9-1.32-2.69-1.68-4-.8l-4.86,3.24c-1.85-1.89-3.85-3.63-6-5.18l2.56-5.26c.69-1.42,.09-3.14-1.35-3.85l-9.01-4.43c-1.44-.71-3.18-.13-3.87,1.29l-2.58,5.28c-2.52-.73-5.14-1.25-7.81-1.55l-.45-5.92c-.12-1.59-1.52-2.8-3.13-2.71l-10.07,.59c-1.61,.1-2.82,1.47-2.7,3.06l.45,5.94c-2.62,.62-5.16,1.45-7.57,2.49l-3.4-4.95c-.92-1.34-2.75-1.7-4.09-.82l-8.43,5.53c-1.35,.89-1.7,2.69-.78,4.03l3.41,4.95c-1.94,1.83-3.7,3.82-5.29,5.96l-5.45-2.63c-1.48-.71-3.25-.12-3.96,1.32l-4.46,9.03c-.71,1.44-.09,3.19,1.39,3.9l5.41,2.6c-.74,2.54-1.24,5.16-1.52,7.85l-5.99,.4c-1.64,.11-2.87,1.5-2.75,3.11l.76,10.06c.12,1.61,1.55,2.82,3.19,2.7l5.94-.42c.67,2.64,1.56,5.18,2.67,7.61l-4.89,3.26c-1.36,.91-1.71,2.72-.78,4.05l5.78,8.32c.92,1.33,2.77,1.67,4.12,.76l4.85-3.26c1.9,1.93,3.98,3.68,6.19,5.25l-2.54,5.19c-.71,1.45-.09,3.19,1.38,3.88l9.18,4.32c1.46,.69,3.22,.08,3.93-1.37l2.5-5.14c2.59,.72,5.27,1.2,8,1.46l.43,5.68c.12,1.59,1.53,2.78,3.14,2.66l10.05-.79c1.6-.13,2.81-1.52,2.69-3.11l-.43-5.66c2.65-.67,5.19-1.56,7.62-2.65l3.21,4.67c.9,1.31,2.71,1.64,4.03,.74l8.25-5.62c1.32-.9,1.65-2.69,.76-4l-3.22-4.69c1.91-1.86,3.65-3.88,5.2-6.04l5.15,2.47c1.43,.69,3.15,.09,3.84-1.34l4.29-8.91c.69-1.42,.08-3.14-1.34-3.83l-5.16-2.49c.7-2.51,1.18-5.11,1.43-7.77l5.74-.4c1.58-.11,2.76-1.48,2.64-3.06l-.75-9.86c-.12-1.58-1.5-2.77-3.07-2.66Zm-52.13-17.71c16.21-1.03,30.26,11.1,31.47,27.1,1.21,15.99-10.86,29.93-27.05,31.13-16.29,1.21-30.57-10.91-31.79-27.07-1.23-16.17,11.07-30.12,27.37-31.15Z" style="fill: #d8dee8; mix-blend-mode: multiply; opacity: .7;"/>
        <g>
          <path d="M375.69,395.16c3.16,2.56,3.34,4.37,3.24,5.26-.16,1.43-1.24,1.98-3.81,4.67-3.48,3.64-2.95,4.13-4.72,5.45-3.91,2.91-9.44,2.71-9.78,1.73-.23-.69,2.27-1.26,5.11-4.56,2.63-3.04,3.52-6.06,3.75-6.94,.43-1.61,.54-3,.57-3.96l5.64-1.64Z" style="fill: url(#linear-gradient-3);"/>
          <path d="M365.1,387.37l6.23,10.85c1.5,.66,2.93,.33,4.26-1.61l-2.43-13.19-8.06,3.95Z" style="fill: url(#linear-gradient-4);"/>
          <path d="M357.55,248.23c-6.07,10.24-15.9,30-17.89,56.72-1.96,26.37,4.69,46.47,7.47,53.97,5.22,14.04,14.3,28.79,19.58,35.82,3.56-1.49,5.65-3.82,9.21-5.31-.53-1.94-2.18-8.33-3.22-12.14-.8-2.95-2.29-8.41-2.59-9.57-2.55-9.77-.54-17.1-1.24-29.18-.82-14.09-4.05-12.45-3.56-20.91,.72-12.63,7.88-15.58,16.1-33.86,5.62-12.51,11.53-25.66,6.1-32.84-6.83-9.04-27.63-3.36-29.95-2.7Z" style="fill: url(#linear-gradient-5);"/>
          <path d="M401.44,405.08c1.9,1.21,3.04,4.07,2.18,5.88-.85,1.77-3.01,1.21-8.27,2.83-5.63,1.73-6.75,3.48-10.9,3.48-1.68,0-4.72-.29-4.97-1.42-.18-.79,1.11-1.58,5.36-4.44,6.03-4.05,5.97-4.17,7.32-4.79,3.38-1.56,6.78-3.13,9.28-1.54Z" style="fill: url(#linear-gradient-6);"/>
          <path d="M392.43,396.49l2.31,10.56c.32,.47,3.61,1.6,5.92,0l-.85-10.56h-7.38Z" style="fill: url(#linear-gradient-7);"/>
          <path d="M387.5,250.93c-6.83-9.04-27.63-3.36-29.95-2.7-2.49,4.21-5.62,10.05-8.58,17.29,7.37-1.45,10.57-.13,12.06,1.61,5.79,6.78-12.33,21.76-8.6,44.49,1.46,8.89,5.26,12.89,4.56,23.75-.52,8.08-3.03,12.17-4.76,18.08-1.04,3.55-1.85,7.91-1.89,13.19,5.21,11.45,12.06,22.35,16.37,28.09,3.56-1.49,5.65-3.82,9.21-5.31-.53-1.94-2.18-8.33-3.22-12.14-.8-2.95-2.29-8.41-2.59-9.57-2.55-9.77-.54-17.1-1.24-29.18-.82-14.09-4.05-12.45-3.56-20.91,.72-12.63,7.88-15.58,16.1-33.86,5.62-12.51,11.53-25.66,6.1-32.84Z" style="fill: url(#linear-gradient-8); mix-blend-mode: multiply; opacity: .3;"/>
          <path d="M373.79,253.78c-.59,23.56,.3,50.86,4.18,80.95,3.16,24.5,7.75,46.6,12.8,65.99,.7,.39,3.15,1.67,6.29,1.07,2.22-.42,3.71-1.57,4.37-2.16-.55-3.96-1.11-9.96-.65-17.2,.79-12.45,3.72-14.99,4.98-27.87,1.1-11.3-.06-20.53-.62-24.81-1.73-13.17-4.09-13.44-4.14-21.33-.07-12.15,5.48-16.5,8.54-28.07,2.04-7.72,3.12-19.25-2.01-35.06-11.25,2.83-22.49,5.66-33.74,8.49Z" style="fill: url(#linear-gradient-9);"/>
          <path d="M361.77,159.78c-4.13,2.32-9.87,6.16-15.22,12.29-12.33,14.12-19.96,37.37-12.03,44.97,5.39,5.17,18.18,3.61,22.59-2.53,3.24-4.52,.91-10.06-.21-17.95-1.2-8.48-1.16-20.78,4.87-36.78Z" style="fill: url(#linear-gradient-10);"/>
          <path d="M409.66,250.97c-4.57-60.2-19.13-84.84-17.85-92.15-1.83-1.32-9.07-3.41-25.47-1.25-1.4,.51-5.14,2.02-8.85,5.41,0,0-.86,.79-2.04,2.17,11.52,2.18,23.26,8.74,27.49,18.03,7.32,17.77-6.27,37.64,0,53.32,3.3,8.24,8.57,15.55,14.87,22.38,7.2-1.8,12.13-4.44,11.87-7.91Z" style="fill: url(#linear-gradient-11);"/>
          <path d="M407.53,245.29c-3.29,.83-6.59,1.66-9.88,2.49,1.72,5.93,3.38,14.84,1.39,24.94-2.75,13.96-9.84,17.02-10.88,29.61-.94,11.32,4.41,13.63,6.97,28.74,2.62,15.48-1.35,22.76-2.18,35.7-.57,8.86,.35,20.45,5.74,34.56,1.33-.53,2.26-1.26,2.75-1.68-.55-3.96-1.11-9.96-.65-17.2,.79-12.45,3.72-14.99,4.98-27.87,1.1-11.3-.06-20.53-.62-24.81-1.73-13.17-4.09-13.44-4.14-21.33-.07-12.15,5.48-16.5,8.54-28.07,2.04-7.72,3.12-19.25-2.01-35.06Z" style="fill: url(#linear-gradient-12); mix-blend-mode: multiply; opacity: .3;"/>
          <path d="M357.48,162.98s-4.36,3.97-6.91,9.81c-3.83,8.79,.29,16.34,1.53,30.69,1.36,15.75-.56,41.98-4.99,51.37-.08,.16-.27,.63-.19,1.22,1.2,9.08,63.66,7.02,62.74-5.1-4.57-60.2-19.13-84.84-17.85-92.15-1.83-1.32-9.07-3.41-25.47-1.25-1.4,.51-5.14,2.02-8.85,5.41Z" style="fill: url(#linear-gradient-13);"/>
          <g>
            <path d="M376.05,142.45s4.03,12.66,5.34,14.18c1.31,1.52-5.24,5.51-10.26,3.71-4.61-1.65,0-8.68,0-8.68l4.92-9.22Z" style="fill: url(#linear-gradient-14);"/>
            <g>
              <path d="M363.53,139.49c-1.58-2.49-1.36-6.61,.89-9.04,1.94-2.09,4.72-2.19,6.39-2.25,4.84-.17,10.72,2.32,12.47,6.9,1.04,2.71-2.1,7.93-2.6,8.87-.57,1.07-1.46,1.37-2.33,2.14-1.2,1.07-3.09,2.77-6.18,5.62-.15-.93-.39-2.08-.83-3.34-.17-.49-.84-2.38-1.97-4.01-2.25-3.25-4.35-2.54-5.85-4.91Z" style="fill: url(#linear-gradient-15);"/>
              <path d="M376.43,149.48s-3.57,4.92-9.81,4c-5.59-.82-5.39-13.48-1.59-15.86,1.27-.8,3.7-.97,5.6-.27,1.13,.42,1.48,.93,3.33,1.57,1.71,.59,2.22,.44,2.71,.92,.61,.61,.99,2.01-.41,5.6,1.16-1,2.48-1.31,3.36-.81,.14,.08,.5,.37,.69,.79,.67,1.5-.79,3.23-3.87,4.06Z" style="fill: url(#linear-gradient-16);"/>
              <path d="M364.29,147.39s1.16,.73,3.27,.78c.1,0,.21,.04,.22,.1,.03,.2-1.38,.99-2.6,.54-.86-.32-1.48-1.21-1.34-1.41,.06-.09,.26-.06,.45,0Z" style="fill: url(#linear-gradient-17);"/>
            </g>
          </g>
          <path d="M392.05,197.82c-6.82,2.39-15.86,9.12-16.47,17.73-.93,13.23,18.78,20.5,16.15,29.77-.72,2.53-2.98,4.81-17.73,10.13-5.97,2.15-11.52,3.91-16.55,5.37,18.05,2.66,52.9-.77,52.22-9.85-1.75-23.04-4.96-40.86-8.19-54.51-3.27-.13-6.45,.31-9.42,1.36Z" style="fill: url(#linear-gradient-18); mix-blend-mode: multiply; opacity: .3;"/>
          <path d="M370.59,224.9c11.09,11.26,26.92,14.8,39.09,9.17,16.9-7.82,19.51-29.99,15.57-43.87-6.58-23.17-35.25-36.68-44.28-30.51-6.53,4.46-6.47,21.73,1.31,30.38,7,7.77,17.75,5.81,20.67,13.72,2.19,5.93-2.04,11.9-2.4,12.4-4.71,6.44-14.96,8.63-24.66,4.2-1.77,1.5-3.53,3-5.3,4.5Z" style="fill: url(#linear-gradient-19);"/>
          <path d="M348.64,205.5c.9-2.9,3.84-4.39,6.14-4.71,2.26-.31,5.98,.2,7.46,3.15,1.39,2.76,.3,6.63-2.89,8.72-.45-1.11-1.25-2.58-2.67-3.02-2.6-.82-4.86,2.58-6.78,1.69-1.53-.71-1.93-3.7-1.27-5.83Z" style="fill: url(#linear-gradient-20);"/>
          <path d="M359.29,223.08l8.53,1.48c1.65,.29,3.07-1.19,2.72-2.83l-3.1-14.43c-.22-1.04-1.12-1.81-2.19-1.87l-10.22-.55c-1.69-.09-2.92,1.56-2.36,3.15l4.79,13.5c.29,.81,.98,1.39,1.83,1.54Z" style="fill: #fff;"/>
          <path d="M374.18,221.85c-.7-5.03-2.82-6.34-3.59-6.72-1.29-.63-1.92-.14-6.41-.21-4.01-.06-4.96-.47-5.47,.21-.96,1.3,1.01,4.71,3.25,6.72,3.14,2.81,7.02,3.05,8.62,3.05l3.59-3.05Z" style="fill: url(#linear-gradient-21);"/>
        </g>
        <g>
          <g>
            <g>
              <g>
                <path d="M249.8,19.94l36.92,371.33c.55,5.53-3.26,10.36-8.47,10.74l-179.89,15.07c-10.97,.38-16.88-5.52-17.48-11.37L40.87,12.65c-.6-5.9,4.88-11.13,15.96-10.9l182.35,7.69c5.3,.2,10.08,4.93,10.63,10.5Z" style="fill: url(#linear-gradient-22);"/>
                <path d="M257.98,19.47l37.08,373.25c.55,5.56-3.27,10.42-8.51,10.8l-186.51,13.67c-5.82,.43-11.09-4.04-11.69-9.92L48.17,12.13c-.6-5.94,3.76-10.61,9.67-10.39l189.46,7.17c5.32,.2,10.12,4.95,10.67,10.56Z" style="fill: #26264f;"/>
                <path d="M254.05,40.06l34.39,345.94c.52,5.19-3.06,9.73-7.96,10.07l-175.42,12.47c-5.41,.38-10.31-3.78-10.87-9.26L57.1,34.32c-.56-5.52,3.49-9.9,8.98-9.73l177.99,5.66c4.97,.16,9.46,4.57,9.98,9.81Z" style="fill: #d8dee8;"/>
              </g>
              <path d="M159.7,17.18c.2,2-1.21,3.56-3.15,3.5-1.94-.07-3.68-1.74-3.88-3.74-.2-2,1.21-3.57,3.16-3.5,1.94,.07,3.68,1.74,3.88,3.74Z" style="fill: #fff;"/>
            </g>
            <g style="mix-blend-mode: soft-light; opacity: .3;">
              <path d="M142.44,199.37c-18.54-54.77,13.73-82.36-4.54-133.09-9.94-27.6-29.84-48.16-51.73-63.47l-28.32-1.07c-5.92-.22-10.28,4.45-9.67,10.39l40.18,395.14c.6,5.88,5.87,10.34,11.69,9.92l161.02-11.8c-.51-41.26-10.99-70.62-22.64-91.5-32.03-57.36-76.79-57.8-95.98-114.51Z" style="fill: #f4f7fa;"/>
            </g>
          </g>
          <g>
            <path d="M248.53,68.03c27.77,23,55.54,46.01,83.31,69.01-71.64,32.21-63.3,130.68-134.94,162.9-27.77-23-55.54-46.01-83.31-69.01,71.64-32.21,63.3-130.68,134.94-162.9Z" style="fill: url(#linear-gradient-23);"/>
            <path d="M317.8,135.86c-60.77,34.24-58.48,120.73-119.26,154.98-23.63-19.58-47.27-39.16-70.91-58.74,60.77-34.24,58.48-120.73,119.26-154.98,23.64,19.58,47.27,39.16,70.91,58.74Z" style="fill: #fff;"/>
            <g>
              <g>
                <path d="M140.24,222c.31,.26,.59,.5,.87,.78,.02,.02,.05,.05,.07,.07,3.23,3.11,4.75,7.04,4.38,10.81-.32,3.29-2.1,6.43-5.48,8.75-.49,.34-1.02,.65-1.58,.95-2.11,1.14-4.54,1.89-7.11,2.31-5.93-4.91-11.86-9.83-17.79-14.74,7.61-3.42,14.33-7.6,20.33-12.36,2.16,.63,4.45,1.89,6.32,3.44Z" style="fill: url(#linear-gradient-24);"/>
                <path d="M212.8,282.11c1.95,1.61,3.25,3.39,4.33,5.54-5.98,4.73-12.66,8.88-20.23,12.28-6.07-5.03-12.14-10.05-18.21-15.08,1.41-1.37,3.19-2.66,5.3-3.8,.56-.3,1.13-.58,1.71-.85,8.65-3.97,19.25-3.97,26.32,1.3,.03,.02,.05,.04,.08,.06,.23,.17,.47,.36,.69,.54Z" style="fill: url(#linear-gradient-25);"/>
              </g>
              <g>
                <path d="M248.53,68.03c5.93,4.91,11.86,9.83,17.79,14.74-1.41,1.37-3.19,2.66-5.3,3.8-.56,.3-1.13,.58-1.71,.85-8.56,3.92-19.01,3.99-26.08-1.12-.33-.24-.6-.44-.91-.7-1.87-1.55-3.38-3.45-4.12-5.21,6-4.76,12.71-8.93,20.33-12.36Z" style="fill: url(#linear-gradient-26);"/>
                <path d="M313.63,121.96c6.07,5.03,12.14,10.05,18.21,15.08-7.57,3.41-14.26,7.55-20.23,12.28-2.63-.93-4.78-2-6.73-3.62-.22-.18-.45-.38-.65-.57-.02-.02-.05-.05-.07-.07-3.15-2.91-4.77-6.58-4.71-10.17,.06-3.61,1.84-7.13,5.52-9.65,.49-.34,1.01-.66,1.57-.96,2.11-1.14,4.52-1.9,7.09-2.32Z" style="fill: url(#linear-gradient-27);"/>
              </g>
            </g>
            <path d="M237.23,155.22c13.3,11.02,17.23,32.53,9.56,48.71-7.66,16.18-25.39,19.75-38.81,8.64-13.3-11.02-17.23-32.53-9.56-48.71,7.66-16.18,25.39-19.75,38.81-8.64Z" style="fill: url(#linear-gradient-28);"/>
            <path d="M227.49,174.53c-2.34,.55-4.76,2.14-7.56,5.4-1.97-1.63-3.94-3.27-5.91-4.9,.08-.14,.15-.27,.23-.41,.77-1.32,1.64-2.51,2.57-3.51,.53-.57,1.1-1.11,1.7-1.59,.66-.53,.66-1.69,.02-2.34-.81-.82-1.63-1.64-2.44-2.45-.51-.51-1.25-.53-1.72-.04-.8,.8-1.59,1.71-2.31,2.59-.98,1.2-1.88,2.47-2.74,3.85-.69-.57-1.38-1.14-2.07-1.71-.6-.5-1.39-.42-1.8,.25-.41,.67-.22,1.57,.39,2.07,.7,.58,1.41,1.17,2.11,1.75-1.69,3.48-2.39,6.74-2.07,9.69,.33,2.97,1.66,5.42,4,7.36,2.27,1.88,4.57,2.54,6.89,1.98,2.32-.56,4.72-2.33,7.2-5.31,2.19,1.82,4.38,3.65,6.57,5.47-.86,1.5-1.83,2.87-2.91,4.12-.69,.8-1.43,1.55-2.22,2.25-.67,.6-.68,1.81,0,2.48,1.05,1.04,2.1,2.08,3.15,3.11,.52,.52,1.26,.5,1.74-.02,.79-.86,1.54-1.78,2.25-2.78,.97-1.34,1.9-2.86,2.77-4.47,.11-.2,.21-.4,.32-.59,.75,.62,1.5,1.24,2.25,1.86,.61,.5,1.39,.43,1.74-.29,0,0,0-.01,.01-.02,.35-.72,.15-1.6-.45-2.1-.76-.63-1.52-1.26-2.28-1.89,1.08-2.59,1.68-5.06,1.77-7.38,.05-1,0-2-.14-2.95-.47-3.13-1.9-5.65-4.27-7.61-2.19-1.82-4.46-2.43-6.79-1.89Zm-1.74,10.57c.94-.96,1.88-1.64,2.7-1.8,.82-.16,1.63,.07,2.43,.73,.88,.73,1.38,1.63,1.55,2.67,.17,1.04-.04,2.15-.64,3.4-2.01-1.67-4.02-3.33-6.03-5Zm-9.99-1.41c-.75,.18-1.48-.02-2.18-.6-.74-.62-1.19-1.42-1.32-2.4-.14-.98,.08-2.17,.5-3.22,1.81,1.5,3.62,3,5.43,4.5-.89,1.01-1.67,1.54-2.42,1.72Z" style="fill: #fff;"/>
            <path d="M331.57,136.81c.09,.07,.18,.15,.27,.22-71.64,32.21-63.3,130.68-134.94,162.9-27.18-22.52-54.36-45.04-81.55-67.55,3.95-.42,8.22-.67,12.83-.59,5.32,.09,11.08,.62,17.37,1.86,6.99,1.38,14.64,3.65,23.11,7.23,41.87,17.77,53.9,2.81,61.16-22.46,1.99-6.7,3.71-14.07,5.8-21.57,.92-3.3,1.95-6.62,3.09-9.92,2.24-6.46,4.94-12.83,8.2-18.74,10.66-20.23,29.38-33.92,52.53-33.31,4.24,.06,8.57,.56,12.9,1.5,1.13,.24,2.32,.43,3.56,.56,4.51,.49,9.75,.3,15.66-.14Z" style="fill: url(#linear-gradient-29); mix-blend-mode: multiply; opacity: .2;"/>
          </g>
          <g>
            <path d="M261.72,151.54c2.49,.99,3.77,3.62,2.86,5.85l-57.55,141.52c-.98,2.41-4.43,4.14-7,3.07l-93.76-38.98c-2.51-1.04-3.55-4.68-2.52-7.04l58.03-139.29c.96-2.19,3.73-3.19,6.16-2.22l93.77,37.09Z" style="fill: url(#linear-gradient-30);"/>
            <path d="M263.25,148.74c2.5,.99,3.8,3.64,2.88,5.9l-58.62,143.32c-.99,2.42-3.91,3.53-6.5,2.45l-94.34-39.21c-2.53-1.05-3.74-3.85-2.7-6.22l58.66-141.32c.96-2.21,3.75-3.22,6.2-2.25l94.42,37.32Z" style="fill: url(#linear-gradient-31);"/>
            <g style="opacity: .7;">
              <path d="M192.44,246.79l-9.93,23.26c-.44,1.04-1.68,1.59-2.75,1.24l-5.86-1.97c-1.07-.36-1.58-1.5-1.13-2.54l10-23.25c.44-1.02,1.67-1.57,2.73-1.21l5.81,1.96c1.06,.36,1.57,1.49,1.13,2.51Z" style="fill: #f4f7fa;"/>
              <path d="M205.51,216.19l-9.75,22.83c-.44,1.02-1.66,1.56-2.71,1.2l-5.8-1.96c-1.06-.36-1.57-1.48-1.13-2.5l9.82-22.82c.43-1,1.64-1.53,2.69-1.18l5.75,1.95c1.05,.36,1.56,1.47,1.13,2.47Z" style="fill: #f4f7fa;"/>
              <path d="M218.34,186.14l-9.57,22.42c-.43,1-1.63,1.53-2.68,1.17l-5.74-1.95c-1.05-.36-1.55-1.46-1.12-2.46l9.64-22.41c.42-.99,1.62-1.5,2.66-1.15l5.69,1.94c1.04,.35,1.54,1.45,1.12,2.44Z" style="fill: #f4f7fa;"/>
              <path d="M230.94,156.63l-9.4,22.02c-.42,.98-1.61,1.5-2.65,1.14l-5.69-1.94c-1.04-.35-1.54-1.45-1.12-2.43l9.47-22c.42-.97,1.6-1.47,2.63-1.12l5.64,1.93c1.03,.35,1.53,1.43,1.12,2.4Z" style="fill: #f4f7fa;"/>
            </g>
            <g>
              <path d="M164.4,248.38l-4.68,11.03c-.85,2.01-3.31,2.92-5.46,2.04l-11.7-4.84c-2.14-.89-3.19-3.25-2.33-5.25l4.73-10.99c.85-1.99,3.3-2.89,5.43-2.02l11.66,4.79c2.14,.88,3.2,3.23,2.35,5.22Z" style="fill: url(#linear-gradient-32);"/>
              <path d="M162.94,248.69l-4.03,9.47c-.79,1.86-3.05,2.7-5.03,1.88l-10.05-4.15c-1.98-.82-2.95-2.99-2.15-4.84l4.06-9.44c.79-1.84,3.04-2.67,5.02-1.86l10.01,4.12c1.98,.81,2.95,2.98,2.17,4.82Zm-20.76,2.56c-.68,1.59,.15,3.46,1.85,4.17l10.05,4.15c1.71,.71,3.66-.02,4.34-1.62l4.03-9.47c.68-1.59-.16-3.45-1.87-4.15l-10.02-4.12c-1.7-.7-3.64,.02-4.32,1.6l-4.06,9.44Z" style="fill: url(#linear-gradient-33);"/>
              <g>
                <g>
                  <path d="M145.18,256.17l6.72-15.68-6.72,15.68Z" style="fill: #f4f7fa;"/>
                  <polygon points="152.15 240.59 145.43 256.27 144.93 256.07 151.65 240.39 152.15 240.59" style="fill: url(#linear-gradient-34);"/>
                </g>
                <g>
                  <path d="M148.96,257.73l6.71-15.69-6.71,15.69Z" style="fill: #f4f7fa;"/>
                  <polygon points="155.91 242.14 149.21 257.84 148.71 257.63 155.41 241.94 155.91 242.14" style="fill: url(#linear-gradient-35);"/>
                </g>
                <g>
                  <path d="M152.73,259.29l6.7-15.7-6.7,15.7Z" style="fill: #f4f7fa;"/>
                  <polygon points="159.68 243.69 152.99 259.4 152.49 259.19 159.18 243.49 159.68 243.69" style="fill: url(#linear-gradient-36);"/>
                </g>
              </g>
              <g>
                <path d="M159.8,250.38l-1.87,4.39c-.47,1.12-1.84,1.63-3.04,1.13l-8.77-3.62c-1.19-.49-1.78-1.81-1.3-2.92l1.88-4.38c.48-1.11,1.84-1.62,3.03-1.13l8.75,3.6c1.19,.49,1.78,1.8,1.31,2.92Z" style="fill: #fec045;"/>
                <path d="M160.05,250.48l-1.87,4.39c-.53,1.25-2.05,1.81-3.39,1.26l-8.77-3.62c-1.33-.55-1.98-2.01-1.45-3.25l1.88-4.38c.53-1.24,2.05-1.8,3.38-1.26l8.75,3.6c1.33,.55,1.99,2.01,1.46,3.25Zm-14.97-1.02c-.42,.99,.09,2.15,1.15,2.58l8.77,3.62c1.06,.44,2.27-.01,2.69-1l1.87-4.39c.42-.99-.1-2.15-1.16-2.58l-8.75-3.6c-1.06-.44-2.26,.01-2.68,1l-1.88,4.38Z" style="fill: url(#linear-gradient-37);"/>
              </g>
            </g>
            <path d="M202.86,240.66c-3.42,12.44-6.45,20.01-12.93,27.27-8.91,9.97-20.01,14.52-26.94,16.66l38.04,15.81c2.58,1.07,5.5-.03,6.5-2.45l58.62-143.32c.92-2.25-.37-4.91-2.88-5.9l-15.12-5.99c-23.05,15.71-31.75,31.74-35.37,43.75-4.38,14.51-1.79,24.62-9.91,54.17Z" style="fill: url(#linear-gradient-38); mix-blend-mode: multiply; opacity: .15;"/>
            <g style="mix-blend-mode: multiply; opacity: .42;">
              <path d="M213.51,247.19l-13.24,32.08c-.25,.61-.99,.89-1.65,.62l-5.38-2.23c-.65-.27-.98-.99-.73-1.6l13.29-32.03c.25-.6,.98-.87,1.63-.61l5.35,2.19c.65,.27,.98,.97,.73,1.58Z" style="fill: url(#linear-gradient-39);"/>
              <path d="M239.09,185.65l-17.62,42.68c-.25,.61-.99,.89-1.65,.62l-5.38-2.19c-.65-.27-.98-.98-.73-1.59l17.68-42.61c.25-.59,.98-.87,1.63-.61l5.34,2.14c.65,.26,.98,.96,.73,1.56Z" style="fill: url(#linear-gradient-40);"/>
            </g>
            <path d="M184.42,134.19c6.49,2.58,9.48,10.09,6.69,16.71-2.76,6.55-10.15,9.75-16.52,7.19-6.36-2.55-9.39-9.91-6.75-16.49,2.67-6.64,10.1-9.99,16.58-7.41Z" style="fill: url(#linear-gradient-41); mix-blend-mode: multiply; opacity: .26;"/>
            <g style="opacity: .53;">
              <path d="M160.2,234.15c.42,1.03-.07,2.23-1.11,2.67-1.05,.44-2.24-.05-2.66-1.09-.42-1.04,.09-2.23,1.14-2.66,1.04-.43,2.22,.05,2.64,1.08Z" style="fill: #f4f7fa;"/>
              <g>
                <path d="M170.05,231.27c-.07,.18-.21,.33-.4,.41-.38,.16-.83-.02-1-.41-2.48-5.72-9.11-8.43-14.97-6.11-.4,.16-.84-.03-1-.41-.15-.38,.04-.81,.44-.97,6.62-2.59,14.1,.46,16.92,6.91,.08,.19,.08,.4,.01,.58Z" style="fill: #f4f7fa;"/>
                <path d="M167.26,232.45c-.07,.18-.21,.33-.41,.42-.39,.16-.84-.02-1.01-.41-1.81-4.25-6.72-6.25-11.05-4.51-.4,.16-.85-.02-1-.41-.16-.39,.04-.83,.44-.98,5.1-2.03,10.87,.33,13.02,5.32,.08,.19,.08,.4,0,.59Z" style="fill: #f4f7fa;"/>
                <path d="M164.44,233.64c-.07,.18-.22,.34-.41,.42-.39,.17-.85-.02-1.01-.41-1.14-2.74-4.3-4.02-7.07-2.89-.4,.16-.85-.02-1.01-.41-.16-.39,.04-.84,.44-1,1.73-.7,3.61-.7,5.32,0,1.7,.7,3.03,2.01,3.75,3.71,.08,.2,.08,.41,0,.59Z" style="fill: #f4f7fa;"/>
              </g>
            </g>
          </g>
          <g>
            <path d="M188.98,220.48c0,25.6-20.02,45.74-45.61,44.96-26.63-.82-49.02-23.82-49.02-51.34s22.4-47.5,49.02-44.73c25.59,2.66,45.61,25.5,45.61,51.11Z" style="fill: url(#linear-gradient-42);"/>
            <path d="M195.89,218.27c0,25.6-20.02,45.74-45.61,44.96-26.63-.82-49.02-23.82-49.02-51.34s22.4-47.5,49.02-44.73c25.59,2.66,45.61,25.5,45.61,51.11Z" style="fill: url(#linear-gradient-43);"/>
            <path d="M193.88,218.14c0,24.47-19.15,43.7-43.6,42.9-25.39-.82-46.71-22.77-46.71-48.99s21.32-45.3,46.71-42.69c24.44,2.5,43.6,24.31,43.6,48.78Z" style="fill: url(#linear-gradient-44);"/>
            <path d="M192.44,218.04c0,23.67-18.53,42.23-42.16,41.44-24.51-.82-45.06-22.02-45.06-47.32s20.55-43.72,45.06-41.24c23.63,2.39,42.16,23.46,42.16,47.12Z" style="fill: url(#linear-gradient-45);"/>
            <path d="M142.66,223.83c1.42-14.07,14.35-20.02,12.67-32.97-1.04-7.98-7.09-14.7-13.83-19.95-20.46,2.15-36.27,19.08-36.27,41.24,0,25.3,20.55,46.5,45.06,47.32,2.38,.08,4.7-.04,6.96-.34-9.73-9.69-15.82-23.22-14.59-35.3Z" style="fill: url(#linear-gradient-46); mix-blend-mode: multiply; opacity: .3;"/>
          </g>
          <g>
            <path d="M164.58,118.42c0,17.24-13.48,30.81-30.72,30.28-17.93-.55-33.02-16.04-33.02-34.58s15.08-31.99,33.02-30.12c17.23,1.79,30.72,17.18,30.72,34.42Z" style="fill: url(#linear-gradient-47);"/>
            <path d="M169.24,116.94c0,17.24-13.48,30.81-30.72,30.28-17.93-.55-33.02-16.04-33.02-34.58s15.08-31.99,33.02-30.12c17.23,1.79,30.72,17.18,30.72,34.42Z" style="fill: url(#linear-gradient-48);"/>
            <path d="M167.89,116.85c0,16.48-12.9,29.43-29.36,28.9-17.1-.55-31.46-15.34-31.46-33s14.36-30.51,31.46-28.76c16.46,1.69,29.36,16.37,29.36,32.86Z" style="fill: url(#linear-gradient-49);"/>
            <path d="M166.92,116.78c0,15.94-12.48,28.44-28.4,27.91-16.51-.55-30.35-14.83-30.35-31.87s13.84-29.45,30.35-27.78c15.91,1.61,28.4,15.8,28.4,31.74Z" style="fill: url(#linear-gradient-50);"/>
            <path d="M133.38,120.68c.96-9.48,9.67-13.49,8.53-22.2-.7-5.37-4.77-9.9-9.31-13.43-13.78,1.44-24.43,12.85-24.43,27.77,0,17.04,13.84,31.32,30.35,31.87,1.6,.05,3.17-.03,4.69-.23-6.56-6.52-10.65-15.64-9.83-23.78Z" style="fill: url(#linear-gradient-51); mix-blend-mode: multiply; opacity: .3;"/>
          </g>
          <g>
            <path d="M263.97,247.55l10.28,120c.27,3.1-.67,6-2.65,8.09-1.69,1.79-3.95,3-6.6,3.23l-151.4,12.75c-6.41,.54-11.91-4.02-12.36-10.14l-9.51-127.67c-.45-6.01,4.32-11.24,10.7-11.45l150.46-4.89c5.71-.19,10.61,4.43,11.09,10.08Z" style="fill: url(#linear-gradient-52);"/>
            <path d="M271.77,375.63c-1.69,1.79-4.02,3-6.66,3.23l-151.45,12.75c-6.41,.54-11.96-4.02-12.42-10.13l-9.51-127.67c-.45-6.01,4.32-11.24,10.7-11.45l1.75-.06c.64,3.3,1.49,7,2.3,10.55,.11,.49,.23,1.03,.34,1.5,.94,4.1,1.75,7.47,1.9,7.9,4.72,14.14,11.4,30.38,25.5,38.28,21.55,12.08,48.83,9.91,71.49,16.53,14.92,4.36,30.24,10.25,42.11,20.11,8.67,7.2,15.99,16.08,20.28,26.48,1.55,3.76,2.77,7.82,3.68,11.98Z" style="fill: url(#linear-gradient-53); mix-blend-mode: multiply; opacity: .2;"/>
            <g style="opacity: .7;">
              <path d="M252.89,373.64h0l-5.22,.32c-.59,.05-1.12-.44-1.17-1.04-.05-.59,.39-1.03,.98-1.08l5.21-.34h0c.89,0,1.76-.35,2.59-.63,.56-.19,1.17,.07,1.36,.63,.19,.56-.11,1.24-.67,1.43-.99,.33-2.02,.71-3.08,.71Zm-13.39,.89l-8.21,.67c-.6,.05-1.13-.39-1.18-.99-.05-.59,.4-1.12,1-1.17l8.21-.67c.6-.05,1.12,.39,1.17,.99,.05,.59-.39,1.11-.99,1.16Zm-16.47,1.35l-8.31,.68c-.61,.05-1.14-.4-1.19-.99-.05-.6,.4-1.12,1.01-1.17l8.31-.67c.6-.05,1.13,.39,1.18,.99,.05,.6-.4,1.12-1,1.17Zm-16.66,1.36l-8.41,.69c-.61,.05-1.15-.4-1.2-1-.05-.6,.41-1.13,1.02-1.18l8.41-.68c.61-.05,1.14,.4,1.19,1,.05,.6-.41,1.13-1.02,1.18Zm-16.86,1.38l-8.51,.7c-.62,.05-1.17-.4-1.21-1-.05-.61,.42-1.14,1.04-1.19l8.51-.69c.62-.05,1.16,.4,1.21,1,.05,.6-.41,1.13-1.03,1.18Zm-17.07,1.4l-8.61,.7c-.63,.05-1.18-.4-1.23-1.01-.05-.61,.42-1.15,1.05-1.2l8.61-.7c.63-.05,1.17,.4,1.22,1.01,.05,.61-.42,1.14-1.05,1.19Zm-17.28,1.41l-8.72,.71c-.64,.05-1.19-.4-1.24-1.02-.05-.61,.43-1.15,1.07-1.2l8.72-.71c.63-.05,1.18,.4,1.23,1.01,.05,.61-.43,1.15-1.06,1.2Zm-17.49,1.43l-8.82,.72c-.65,.05-1.21-.4-1.25-1.02-.05-.62,.44-1.16,1.08-1.21l8.82-.72c.64-.05,1.2,.4,1.25,1.02,.05,.61-.43,1.16-1.07,1.21Zm-17.7,1.19c-.08,0-.16,0-.24,0-3.22-.36-6.26-1.77-8.55-3.97-.46-.44-.45-1.15,.02-1.59,.47-.44,1.22-.44,1.67,0,1.92,1.85,4.46,3.03,7.16,3.34,.64,.07,1.1,.63,1.01,1.25-.07,.54-.53,.94-1.08,.99Zm142.04-16.03c-.23,.02-.47-.04-.68-.18-.49-.33-.63-.99-.3-1.48,1.37-2.08,1.99-4.5,1.77-7-.05-.59,.38-1.1,.97-1.14,.59-.04,1.1,.39,1.15,.98,.25,2.98-.48,5.86-2.11,8.35-.19,.28-.49,.45-.8,.47Zm-153.65,4.79c-.63,.05-1.21-.36-1.28-.97-.02-.17-.05-.31-.07-.48l-.6-8.05c-.05-.62,.34-1.17,1-1.22,.65-.05,1.12,.41,1.17,1.03l.6,8.04c.01,.14,.14,.26,.16,.4,.07,.62-.34,1.18-.99,1.23-.01,0,.03,0,.02,0Zm155.37-16.53c-.59,.04-.9-.39-.95-.98l-.68-8.05c-.05-.59,.19-1.1,.77-1.14,.58-.04,.9,.4,.95,.98l.68,8.04c.05,.59-.18,1.1-.77,1.14Zm-156.79-.44c-.65,.05-1.12-.41-1.17-1.03l-.64-8.49c-.05-.62,.34-1.16,1-1.21,.65-.04,1.12,.42,1.16,1.03l.64,8.49c.05,.62-.34,1.16-1,1.21Zm155.43-15.63c-.59,.04-.9-.4-.95-.98l-.68-8.03c-.05-.58,.19-1.09,.77-1.13,.58-.04,.9,.4,.95,.99l.68,8.02c.05,.58-.18,1.09-.77,1.13Zm-156.7-1.34c-.65,.04-1.12-.42-1.17-1.04l-.64-8.48c-.05-.62,.34-1.15,1-1.19,.65-.04,1.12,.42,1.16,1.04l.64,8.47c.05,.62-.34,1.16-1,1.2Zm155.33-14.71c-.58,.04-.9-.41-.95-.99l-.68-8.01c-.05-.58,.19-1.08,.77-1.12,.58-.04,.9,.41,.95,.99l.68,8.01c.05,.58-.18,1.09-.77,1.12Zm-156.6-2.23c-.65,.04-1.12-.43-1.16-1.04l-.63-8.46c-.05-.62,.34-1.15,1-1.18,.65-.04,1.12,.43,1.16,1.05l.63,8.45c.05,.62-.34,1.15-1,1.19Zm155.24-13.78c-.58,.03-.9-.41-.95-.99l-.68-8c-.05-.58,.19-1.08,.77-1.11,.58-.03,.9,.42,.95,1l.68,7.99c.05,.58-.19,1.08-.77,1.12Zm-156.51-3.12c-.65,.04-1.12-.43-1.16-1.05l-.63-8.44c-.05-.61,.34-1.14,1-1.17,.65-.03,1.12,.44,1.16,1.05l.63,8.43c.05,.61-.34,1.14-1,1.18Zm155.15-12.86c-.58,.03-.9-.42-.95-1l-.68-7.98c-.05-.58,.19-1.07,.77-1.1,.58-.03,.9,.42,.95,1l.68,7.97c.05,.58-.19,1.08-.77,1.11Zm-156.42-4c-.65,.03-1.12-.44-1.16-1.05l-.63-8.42c-.05-.61,.34-1.13,1-1.16,.65-.03,1.12,.44,1.16,1.06l.63,8.41c.05,.61-.34,1.14-1,1.17Zm155.06-11.95c-.58,.03-.9-.42-.95-1l-.68-7.96c-.05-.58,.19-1.07,.77-1.09,.58-.03,.9,.43,.95,1.01l.68,7.96c.05,.58-.19,1.07-.77,1.1Zm-156.32-4.88c-.65,.03-1.12-.45-1.16-1.06l-.47-6.32c-.06-.75-.03-1.52,.05-2.26,.06-.61,.65-1.03,1.3-.97,.65,.08,1.01,.63,.95,1.24-.06,.62-.19,1.26-.14,1.9l.47,6.32c.05,.61-.34,1.13-.99,1.16Zm154.97-11.03c-.58,.02-.9-.43-.95-1.01l-.13-1.54c-.17-1.96-1.02-3.87-2.17-5.5-.34-.49-.31-1.13,.17-1.45,.48-.32,1.06-.17,1.4,.31,1.37,1.95,2.12,4.22,2.32,6.57l.13,1.54c.05,.58-.19,1.06-.77,1.09Zm-151.64-4.76c-.32,.01-.65-.1-.89-.33-.47-.43-.49-1.13-.04-1.56,2.24-2.15,5.24-3.51,8.44-3.84,.64-.06,1.23,.37,1.33,.97,.09,.6-.35,1.15-.99,1.22-2.68,.28-5.19,1.43-7.07,3.23-.21,.2-.49,.31-.77,.32Zm142.73-7.63c-.13,0-.26-.01-.39-.06-1.3-.44-2.66-.63-4.03-.58l-3.62,.13c-.59,.02-1.11-.43-1.16-1.01-.05-.58,.39-1.07,.98-1.09l3.62-.13c1.63-.06,3.25,.18,4.8,.7,.56,.19,.89,.79,.72,1.33-.13,.42-.51,.69-.93,.71Zm-16.15-.22l-8.16,.29c-.6,.02-1.12-.44-1.17-1.02-.05-.58,.4-1.08,.99-1.1l8.16-.29c.59-.02,1.11,.43,1.16,1.02,.05,.58-.39,1.07-.99,1.09Zm-16.38,.59l-8.26,.3c-.6,.02-1.13-.44-1.18-1.03-.05-.59,.4-1.08,1.01-1.1l8.26-.29c.6-.02,1.13,.44,1.17,1.02,.05,.59-.4,1.08-1,1.1Zm-16.57,.6l-8.36,.3c-.61,.02-1.15-.44-1.19-1.03-.05-.59,.41-1.09,1.02-1.11l8.36-.29c.61-.02,1.14,.44,1.19,1.03,.05,.59-.41,1.09-1.01,1.11Zm-16.77,.6l-8.46,.3c-.62,.02-1.16-.44-1.21-1.04-.05-.6,.42-1.1,1.03-1.12l8.46-.3c.61-.02,1.15,.44,1.2,1.04,.05,.59-.41,1.09-1.03,1.11Zm-16.97,.61l-8.56,.31c-.63,.02-1.17-.45-1.22-1.04-.05-.6,.42-1.1,1.05-1.12l8.56-.3c.62-.02,1.16,.44,1.21,1.04,.05,.6-.42,1.1-1.04,1.12Zm-17.17,.62l-8.66,.31c-.63,.02-1.18-.45-1.23-1.05-.05-.6,.43-1.11,1.06-1.13l8.66-.3c.63-.02,1.18,.45,1.22,1.05,.05,.6-.43,1.11-1.05,1.13Zm-17.38,.62l-8.77,.32c-.64,.02-1.2-.45-1.24-1.06-.05-.61,.44-1.12,1.08-1.14l8.77-.31c.64-.02,1.19,.45,1.24,1.05,.05,.6-.43,1.11-1.07,1.14Z" style="fill: #fff;"/>
            </g>
            <path d="M270.07,280.59c-.92-.56-2.03-.65-2.99-.23l-30.79,13.17c-4.42,1.91-7.43,6.38-7.03,11.19l1.06,12.79c.43,5.12,4.56,9.4,9.64,10.51l31.86,6.98c1.01,.22,2.1-.04,2.86-.71,.76-.67,1.21-1.67,1.12-2.7l-4.16-48.41c-.09-1.06-.65-2.03-1.58-2.59Z" style="fill: url(#linear-gradient-54);"/>
            <path d="M249.73,309.66c.3,3.54-2.35,6.58-5.92,6.8-3.58,.22-6.73-2.49-7.03-6.04-.3-3.55,2.37-6.6,5.95-6.8,3.57-.2,6.7,2.5,7,6.04Z" style="fill: url(#linear-gradient-55);"/>
          </g>
        </g>
      </g>
    </g>
  </g>
</svg>